<svg width="774" height="48" viewBox="0 0 774 48" fill="none" xmlns="http://www.w3.org/2000/svg">
<path d="M23.0957 12.6572C23.4212 12.4945 23.6898 12.4131 23.9014 12.4131C24.2269 12.4131 24.5361 12.5596 24.8291 12.8525C25.1221 13.1455 25.4395 13.6338 25.7812 14.3174C26.2044 15.1637 26.416 15.8392 26.416 16.3438C26.416 16.8971 26.123 17.3285 25.5371 17.6377L11.2549 24.7666L25.5371 31.8955C26.123 32.2048 26.416 32.6361 26.416 33.1895C26.416 33.694 26.2044 34.3695 25.7812 35.2158C25.4395 35.8994 25.1221 36.3877 24.8291 36.6807C24.5361 36.9736 24.2269 37.1201 23.9014 37.1201C23.6898 37.1201 23.4212 37.0387 23.0957 36.876L4.05273 27.0615C3.64583 26.8499 3.35286 26.5814 3.17383 26.2559C3.01107 25.9303 2.92969 25.4339 2.92969 24.7666C2.92969 24.0993 3.01107 23.6029 3.17383 23.2773C3.35286 22.9518 3.64583 22.6833 4.05273 22.4717L23.0957 12.6572ZM445.654 22.4717C446.061 22.6833 446.346 22.9518 446.509 23.2773C446.688 23.6029 446.777 24.0993 446.777 24.7666C446.777 25.4339 446.688 25.9303 446.509 26.2559C446.346 26.5814 446.061 26.8499 445.654 27.0615L426.611 36.876C426.286 37.0387 426.017 37.1201 425.806 37.1201C425.48 37.1201 425.171 36.9736 424.878 36.6807C424.585 36.3877 424.268 35.8994 423.926 35.2158C423.503 34.3695 423.291 33.694 423.291 33.1895C423.291 32.6361 423.584 32.2048 424.17 31.8955L438.452 24.7666L424.17 17.6377C423.584 17.3285 423.291 16.8971 423.291 16.3438C423.291 15.8392 423.503 15.1637 423.926 14.3174C424.268 13.6338 424.585 13.1455 424.878 12.8525C425.171 12.5596 425.48 12.4131 425.806 12.4131C426.017 12.4131 426.286 12.4945 426.611 12.6572L445.654 22.4717Z" fill="#AD2647"/>
<path d="M54.541 9.4834C55.5501 9.4834 56.2419 9.59733 56.6162 9.8252C56.9906 10.0531 57.1777 10.4518 57.1777 11.0215V20.3965C57.1777 20.9499 56.9255 21.3486 56.4209 21.5928C55.9326 21.8206 55.1107 21.9346 53.9551 21.9346C53.1901 21.9346 52.596 21.8857 52.1729 21.7881C51.766 21.6742 51.4811 21.5114 51.3184 21.2998C51.1556 21.0882 51.0742 20.7871 51.0742 20.3965C51.0742 18.7689 50.6266 17.4668 49.7314 16.4902C48.8525 15.5137 47.5911 15.0254 45.9473 15.0254C43.6849 15.0254 41.9678 15.8392 40.7959 17.4668C39.624 19.0944 39.0381 21.4382 39.0381 24.498C39.0381 27.5254 39.6566 29.8691 40.8936 31.5293C42.1468 33.1732 43.9128 33.9951 46.1914 33.9951C47.6074 33.9951 48.9665 33.8079 50.2686 33.4336C51.5706 33.043 52.9867 32.457 54.5166 31.6758C54.777 31.5456 55.0212 31.4805 55.249 31.4805C56.014 31.4805 56.6488 32.1559 57.1533 33.5068C57.3812 34.1253 57.4951 34.6787 57.4951 35.167C57.4951 35.9971 57.1208 36.5911 56.3721 36.9492C52.889 38.6745 49.4141 39.5371 45.9473 39.5371C43.278 39.5371 40.9261 38.9268 38.8916 37.7061C36.8571 36.4854 35.2783 34.7438 34.1553 32.4814C33.0485 30.2028 32.4951 27.5417 32.4951 24.498C32.4951 21.4707 33.0404 18.8258 34.1309 16.5635C35.2214 14.2848 36.7269 12.5352 38.6475 11.3145C40.5843 10.0938 42.7734 9.4834 45.2148 9.4834C48.0632 9.4834 50.179 10.5088 51.5625 12.5596V11.0215C51.5625 10.4681 51.7985 10.0775 52.2705 9.84961C52.7425 9.60547 53.4993 9.4834 54.541 9.4834ZM76.8066 16.4414C77.36 16.4414 77.7507 16.5635 77.9785 16.8076C78.2227 17.0355 78.3447 17.4261 78.3447 17.9795V33.9951H85.2051C85.5957 33.9951 85.8968 34.0684 86.1084 34.2148C86.32 34.3451 86.4746 34.5892 86.5723 34.9473C86.6862 35.3053 86.7432 35.8262 86.7432 36.5098C86.7432 37.1934 86.6862 37.7142 86.5723 38.0723C86.4746 38.4303 86.32 38.6745 86.1084 38.8047C85.8968 38.9349 85.5957 39 85.2051 39H65.5762C65.1855 39 64.8844 38.9349 64.6729 38.8047C64.4613 38.6745 64.2985 38.4303 64.1846 38.0723C64.0869 37.7142 64.0381 37.1934 64.0381 36.5098C64.0381 35.8262 64.0869 35.3053 64.1846 34.9473C64.2985 34.5892 64.4613 34.3451 64.6729 34.2148C64.8844 34.0684 65.1855 33.9951 65.5762 33.9951H72.2412V21.4463H67.041C66.6504 21.4463 66.3493 21.3812 66.1377 21.251C65.9261 21.1208 65.7633 20.8766 65.6494 20.5186C65.5518 20.1605 65.5029 19.6396 65.5029 18.9561C65.5029 18.2725 65.5518 17.7516 65.6494 17.3936C65.7633 17.0355 65.9261 16.7913 66.1377 16.6611C66.3493 16.5146 66.6504 16.4414 67.041 16.4414H76.8066ZM75.2197 5.72363C76.3753 5.72363 77.181 5.8457 77.6367 6.08984C78.1087 6.31771 78.3447 6.70833 78.3447 7.26172V11.2656C78.3447 11.819 78.125 12.2178 77.6855 12.4619C77.2624 12.6898 76.4811 12.8037 75.3418 12.8037C74.2025 12.8037 73.3968 12.6898 72.9248 12.4619C72.4691 12.2178 72.2412 11.819 72.2412 11.2656V7.26172C72.2412 6.69206 72.4528 6.29329 72.876 6.06543C73.2992 5.83757 74.0804 5.72363 75.2197 5.72363ZM113.257 15.9043C114.266 15.9043 114.958 16.0182 115.332 16.2461C115.706 16.474 115.894 16.8727 115.894 17.4424V25.2793C115.894 25.8327 115.641 26.2314 115.137 26.4756C114.648 26.7035 113.826 26.8174 112.671 26.8174C111.906 26.8174 111.312 26.7686 110.889 26.6709C110.482 26.557 110.197 26.3942 110.034 26.1826C109.871 25.971 109.79 25.6699 109.79 25.2793C109.79 24.5957 109.619 23.9609 109.277 23.375C108.952 22.7891 108.455 22.3252 107.788 21.9834C107.137 21.6253 106.348 21.4463 105.42 21.4463C104.248 21.4463 103.223 21.7067 102.344 22.2275C101.465 22.7321 100.781 23.4645 100.293 24.4248C99.821 25.3688 99.585 26.4674 99.585 27.7207C99.585 28.974 99.821 30.0807 100.293 31.041C100.781 31.985 101.465 32.7174 102.344 33.2383C103.223 33.7428 104.248 33.9951 105.42 33.9951C106.673 33.9951 107.951 33.7917 109.253 33.3848C110.571 32.9779 111.849 32.4163 113.086 31.7002C113.379 31.5374 113.647 31.4561 113.892 31.4561C114.624 31.4561 115.267 32.099 115.82 33.3848C116.113 34.0846 116.26 34.6787 116.26 35.167C116.26 35.8994 115.91 36.4609 115.21 36.8516C113.696 37.6979 112.101 38.3571 110.425 38.8291C108.765 39.3011 107.096 39.5371 105.42 39.5371C102.946 39.5371 100.773 39.0326 98.9014 38.0234C97.0296 37.0143 95.5811 35.6146 94.5557 33.8242C93.5465 32.0339 93.042 29.9993 93.042 27.7207C93.042 25.4421 93.5547 23.4076 94.5801 21.6172C95.6055 19.8105 96.9971 18.4108 98.7549 17.418C100.529 16.4089 102.507 15.9043 104.688 15.9043C107.324 15.9043 109.188 16.8564 110.278 18.7607V17.4424C110.278 16.889 110.514 16.4984 110.986 16.2705C111.458 16.0264 112.215 15.9043 113.257 15.9043ZM136.523 6.96875C137.077 6.96875 137.467 7.09082 137.695 7.33496C137.939 7.56283 138.062 7.95345 138.062 8.50684V33.9951H144.922C145.312 33.9951 145.614 34.0684 145.825 34.2148C146.037 34.3451 146.191 34.5892 146.289 34.9473C146.403 35.3053 146.46 35.8262 146.46 36.5098C146.46 37.1934 146.403 37.7142 146.289 38.0723C146.191 38.4303 146.037 38.6745 145.825 38.8047C145.614 38.9349 145.312 39 144.922 39H125.293C124.902 39 124.601 38.9349 124.39 38.8047C124.178 38.6745 124.015 38.4303 123.901 38.0723C123.804 37.7142 123.755 37.1934 123.755 36.5098C123.755 35.8262 123.804 35.3053 123.901 34.9473C124.015 34.5892 124.178 34.3451 124.39 34.2148C124.601 34.0684 124.902 33.9951 125.293 33.9951H131.958V11.9736H126.27C125.879 11.9736 125.578 11.9085 125.366 11.7783C125.155 11.6481 124.992 11.404 124.878 11.0459C124.78 10.6878 124.731 10.167 124.731 9.4834C124.731 8.7998 124.78 8.27897 124.878 7.9209C124.992 7.56283 125.155 7.31868 125.366 7.18848C125.578 7.04199 125.879 6.96875 126.27 6.96875H136.523ZM164.893 15.9043C167.367 15.9043 169.531 16.4089 171.387 17.418C173.242 18.4271 174.666 19.8268 175.659 21.6172C176.668 23.4076 177.173 25.4421 177.173 27.7207C177.173 29.9993 176.668 32.0339 175.659 33.8242C174.666 35.6146 173.242 37.0143 171.387 38.0234C169.531 39.0326 167.367 39.5371 164.893 39.5371C162.419 39.5371 160.254 39.0326 158.398 38.0234C156.543 37.0143 155.111 35.6146 154.102 33.8242C153.109 32.0339 152.612 29.9993 152.612 27.7207C152.612 25.4421 153.109 23.4076 154.102 21.6172C155.111 19.8268 156.543 18.4271 158.398 17.418C160.254 16.4089 162.419 15.9043 164.893 15.9043ZM164.893 21.4463C163.721 21.4463 162.703 21.7067 161.841 22.2275C160.978 22.7321 160.311 23.4564 159.839 24.4004C159.383 25.3444 159.155 26.4512 159.155 27.7207C159.155 28.9902 159.383 30.097 159.839 31.041C160.311 31.985 160.978 32.7174 161.841 33.2383C162.703 33.7428 163.721 33.9951 164.893 33.9951C166.064 33.9951 167.082 33.7428 167.944 33.2383C168.807 32.7174 169.466 31.985 169.922 31.041C170.394 30.097 170.63 28.9902 170.63 27.7207C170.63 26.4512 170.394 25.3444 169.922 24.4004C169.466 23.4564 168.807 22.7321 167.944 22.2275C167.082 21.7067 166.064 21.4463 164.893 21.4463ZM225.83 10.0205C229.232 10.0205 231.746 10.7204 233.374 12.1201C235.018 13.5036 235.84 15.4323 235.84 17.9062C235.84 19.2409 235.506 20.3883 234.839 21.3486C234.188 22.2926 233.268 23.0495 232.08 23.6191C235.807 24.6283 237.671 26.9557 237.671 30.6016C237.671 33.3522 236.768 35.4437 234.961 36.876C233.154 38.292 230.566 39 227.197 39H213.11C212.72 39 212.419 38.9349 212.207 38.8047C211.995 38.6745 211.833 38.4303 211.719 38.0723C211.621 37.7142 211.572 37.1934 211.572 36.5098C211.572 35.8262 211.621 35.3053 211.719 34.9473C211.833 34.5892 211.995 34.3451 212.207 34.2148C212.419 34.0684 212.72 33.9951 213.11 33.9951H215.723V15.0254H213.11C212.72 15.0254 212.419 14.9603 212.207 14.8301C211.995 14.6999 211.833 14.4557 211.719 14.0977C211.621 13.7396 211.572 13.2188 211.572 12.5352C211.572 11.8516 211.621 11.3307 211.719 10.9727C211.833 10.6146 211.995 10.3704 212.207 10.2402C212.419 10.0938 212.72 10.0205 213.11 10.0205H225.83ZM221.826 21.5684H225.293C226.758 21.5684 227.848 21.3079 228.564 20.7871C229.281 20.2663 229.639 19.4688 229.639 18.3945C229.639 17.304 229.289 16.5146 228.589 16.0264C227.905 15.5218 226.807 15.2695 225.293 15.2695H221.826V21.5684ZM221.826 33.751H226.514C229.671 33.751 231.25 32.6198 231.25 30.3574C231.25 29.153 230.859 28.266 230.078 27.6963C229.313 27.1104 228.125 26.8174 226.514 26.8174H221.826V33.751ZM254.565 15.9043C258.146 15.9043 260.734 16.6774 262.329 18.2236C263.924 19.7699 264.722 21.9834 264.722 24.8643V31.9199C264.722 32.571 264.86 33.0837 265.137 33.458C265.413 33.8161 265.812 33.9951 266.333 33.9951H267.09C267.48 33.9951 267.782 34.0684 267.993 34.2148C268.205 34.3451 268.359 34.5892 268.457 34.9473C268.571 35.3053 268.628 35.8262 268.628 36.5098C268.628 37.1934 268.571 37.7142 268.457 38.0723C268.359 38.4303 268.205 38.6745 267.993 38.8047C267.782 38.9349 267.48 39 267.09 39H264.355C263.346 39 262.451 38.7965 261.67 38.3896C260.905 37.9665 260.319 37.3073 259.912 36.4121C258.626 37.4049 257.267 38.1781 255.835 38.7314C254.403 39.2686 252.93 39.5371 251.416 39.5371C249.577 39.5371 247.99 39.2279 246.655 38.6094C245.321 37.9746 244.295 37.0794 243.579 35.9238C242.879 34.752 242.529 33.3766 242.529 31.7979C242.529 29.5192 243.335 27.7533 244.946 26.5C246.558 25.2467 248.812 24.6201 251.709 24.6201C253.874 24.6201 256.177 24.8643 258.618 25.3525V24.6445C258.618 23.554 258.276 22.7484 257.593 22.2275C256.909 21.7067 255.705 21.4463 253.979 21.4463C253.019 21.4463 251.945 21.5684 250.757 21.8125C249.585 22.0404 248.421 22.3496 247.266 22.7402C246.989 22.8216 246.753 22.8623 246.558 22.8623C246.151 22.8623 245.785 22.7158 245.459 22.4229C245.15 22.1136 244.865 21.6009 244.604 20.8848C244.36 20.1686 244.238 19.5827 244.238 19.127C244.238 18.2969 244.613 17.7435 245.361 17.4668C246.81 16.946 248.348 16.5553 249.976 16.2949C251.603 16.0345 253.133 15.9043 254.565 15.9043ZM252.319 29.6494C251.18 29.6494 250.309 29.8529 249.707 30.2598C249.121 30.6667 248.828 31.2607 248.828 32.042C248.828 32.807 249.113 33.3929 249.683 33.7998C250.269 34.1904 251.107 34.3857 252.197 34.3857C253.32 34.3857 254.427 34.166 255.518 33.7266C256.624 33.2708 257.658 32.6523 258.618 31.8711V30.3086C256.47 29.8691 254.37 29.6494 252.319 29.6494ZM257.275 4.01465C257.536 3.83561 257.804 3.74609 258.081 3.74609C258.83 3.74609 259.668 4.35645 260.596 5.57715C261.247 6.45605 261.572 7.21289 261.572 7.84766C261.572 8.36849 261.377 8.72656 260.986 8.92188L251.05 13.9268C250.887 14.0244 250.7 14.0732 250.488 14.0732C249.902 14.0732 249.349 13.6582 248.828 12.8281C248.47 12.2585 248.291 11.7458 248.291 11.29C248.291 10.8343 248.462 10.4844 248.804 10.2402L257.275 4.01465ZM291.943 15.9043C292.985 15.9043 293.726 16.0264 294.165 16.2705C294.604 16.4984 294.824 16.889 294.824 17.4424V22.5938C294.824 23.1471 294.645 23.5459 294.287 23.79C293.945 24.0179 293.376 24.1318 292.578 24.1318C291.715 24.1318 291.121 23.9609 290.796 23.6191C289.836 22.5938 288.737 21.8695 287.5 21.4463C286.263 21.0068 284.831 20.7871 283.203 20.7871C282.243 20.7871 281.486 20.958 280.933 21.2998C280.396 21.6416 280.127 22.0973 280.127 22.667C280.127 23.3506 280.729 23.8389 281.934 24.1318C282.568 24.2946 283.651 24.4492 285.181 24.5957C286.694 24.7747 287.948 24.9538 288.94 25.1328C289.95 25.3118 290.902 25.5804 291.797 25.9385C293.099 26.4756 294.116 27.2243 294.849 28.1846C295.581 29.1449 295.947 30.4144 295.947 31.9932C295.947 33.5394 295.565 34.8822 294.8 36.0215C294.051 37.1445 292.944 38.0153 291.479 38.6338C290.031 39.236 288.281 39.5371 286.23 39.5371C283.968 39.5371 281.868 38.9593 279.932 37.8037V37.999C279.932 38.5524 279.696 38.943 279.224 39.1709C278.752 39.415 277.995 39.5371 276.953 39.5371C275.911 39.5371 275.171 39.415 274.731 39.1709C274.292 38.943 274.072 38.5524 274.072 37.999V32.5547C274.072 32.0176 274.259 31.627 274.634 31.3828C275.024 31.1387 275.618 31.0166 276.416 31.0166C277.409 31.0166 278.084 31.2445 278.442 31.7002C279.256 32.7256 280.298 33.4743 281.567 33.9463C282.837 34.4183 284.229 34.6543 285.742 34.6543C288.346 34.6543 289.648 33.9788 289.648 32.6279C289.648 32.221 289.461 31.8955 289.087 31.6514C288.729 31.4072 288.192 31.2038 287.476 31.041C287.069 30.9596 286.125 30.8132 284.644 30.6016C283 30.4062 281.584 30.1865 280.396 29.9424C279.224 29.682 278.158 29.2832 277.197 28.7461C274.951 27.5091 273.828 25.556 273.828 22.8867C273.828 21.4707 274.211 20.2337 274.976 19.1758C275.741 18.1178 276.79 17.3122 278.125 16.7588C279.476 16.1891 280.99 15.9043 282.666 15.9043C285.124 15.9043 287.305 16.4984 289.209 17.6865V17.4424C289.209 16.889 289.404 16.4984 289.795 16.2705C290.202 16.0264 290.918 15.9043 291.943 15.9043ZM316.65 16.4414C317.204 16.4414 317.594 16.5635 317.822 16.8076C318.066 17.0355 318.188 17.4261 318.188 17.9795V33.9951H325.049C325.439 33.9951 325.741 34.0684 325.952 34.2148C326.164 34.3451 326.318 34.5892 326.416 34.9473C326.53 35.3053 326.587 35.8262 326.587 36.5098C326.587 37.1934 326.53 37.7142 326.416 38.0723C326.318 38.4303 326.164 38.6745 325.952 38.8047C325.741 38.9349 325.439 39 325.049 39H305.42C305.029 39 304.728 38.9349 304.517 38.8047C304.305 38.6745 304.142 38.4303 304.028 38.0723C303.931 37.7142 303.882 37.1934 303.882 36.5098C303.882 35.8262 303.931 35.3053 304.028 34.9473C304.142 34.5892 304.305 34.3451 304.517 34.2148C304.728 34.0684 305.029 33.9951 305.42 33.9951H312.085V21.4463H306.885C306.494 21.4463 306.193 21.3812 305.981 21.251C305.77 21.1208 305.607 20.8766 305.493 20.5186C305.396 20.1605 305.347 19.6396 305.347 18.9561C305.347 18.2725 305.396 17.7516 305.493 17.3936C305.607 17.0355 305.77 16.7913 305.981 16.6611C306.193 16.5146 306.494 16.4414 306.885 16.4414H316.65ZM315.063 5.72363C316.219 5.72363 317.025 5.8457 317.48 6.08984C317.952 6.31771 318.188 6.70833 318.188 7.26172V11.2656C318.188 11.819 317.969 12.2178 317.529 12.4619C317.106 12.6898 316.325 12.8037 315.186 12.8037C314.046 12.8037 313.241 12.6898 312.769 12.4619C312.313 12.2178 312.085 11.819 312.085 11.2656V7.26172C312.085 6.69206 312.297 6.29329 312.72 6.06543C313.143 5.83757 313.924 5.72363 315.063 5.72363ZM353.101 15.9043C354.11 15.9043 354.801 16.0182 355.176 16.2461C355.55 16.474 355.737 16.8727 355.737 17.4424V25.2793C355.737 25.8327 355.485 26.2314 354.98 26.4756C354.492 26.7035 353.67 26.8174 352.515 26.8174C351.75 26.8174 351.156 26.7686 350.732 26.6709C350.326 26.557 350.041 26.3942 349.878 26.1826C349.715 25.971 349.634 25.6699 349.634 25.2793C349.634 24.5957 349.463 23.9609 349.121 23.375C348.796 22.7891 348.299 22.3252 347.632 21.9834C346.981 21.6253 346.191 21.4463 345.264 21.4463C344.092 21.4463 343.066 21.7067 342.188 22.2275C341.309 22.7321 340.625 23.4645 340.137 24.4248C339.665 25.3688 339.429 26.4674 339.429 27.7207C339.429 28.974 339.665 30.0807 340.137 31.041C340.625 31.985 341.309 32.7174 342.188 33.2383C343.066 33.7428 344.092 33.9951 345.264 33.9951C346.517 33.9951 347.795 33.7917 349.097 33.3848C350.415 32.9779 351.693 32.4163 352.93 31.7002C353.223 31.5374 353.491 31.4561 353.735 31.4561C354.468 31.4561 355.111 32.099 355.664 33.3848C355.957 34.0846 356.104 34.6787 356.104 35.167C356.104 35.8994 355.754 36.4609 355.054 36.8516C353.54 37.6979 351.945 38.3571 350.269 38.8291C348.608 39.3011 346.94 39.5371 345.264 39.5371C342.79 39.5371 340.617 39.0326 338.745 38.0234C336.873 37.0143 335.425 35.6146 334.399 33.8242C333.39 32.0339 332.886 29.9993 332.886 27.7207C332.886 25.4421 333.398 23.4076 334.424 21.6172C335.449 19.8105 336.841 18.4108 338.599 17.418C340.373 16.4089 342.35 15.9043 344.531 15.9043C347.168 15.9043 349.032 16.8564 350.122 18.7607V17.4424C350.122 16.889 350.358 16.4984 350.83 16.2705C351.302 16.0264 352.059 15.9043 353.101 15.9043ZM374.756 15.9043C377.23 15.9043 379.395 16.4089 381.25 17.418C383.105 18.4271 384.53 19.8268 385.522 21.6172C386.532 23.4076 387.036 25.4421 387.036 27.7207C387.036 29.9993 386.532 32.0339 385.522 33.8242C384.53 35.6146 383.105 37.0143 381.25 38.0234C379.395 39.0326 377.23 39.5371 374.756 39.5371C372.282 39.5371 370.117 39.0326 368.262 38.0234C366.406 37.0143 364.974 35.6146 363.965 33.8242C362.972 32.0339 362.476 29.9993 362.476 27.7207C362.476 25.4421 362.972 23.4076 363.965 21.6172C364.974 19.8268 366.406 18.4271 368.262 17.418C370.117 16.4089 372.282 15.9043 374.756 15.9043ZM374.756 21.4463C373.584 21.4463 372.567 21.7067 371.704 22.2275C370.841 22.7321 370.174 23.4564 369.702 24.4004C369.246 25.3444 369.019 26.4512 369.019 27.7207C369.019 28.9902 369.246 30.097 369.702 31.041C370.174 31.985 370.841 32.7174 371.704 33.2383C372.567 33.7428 373.584 33.9951 374.756 33.9951C375.928 33.9951 376.945 33.7428 377.808 33.2383C378.67 32.7174 379.329 31.985 379.785 31.041C380.257 30.097 380.493 28.9902 380.493 27.7207C380.493 26.4512 380.257 25.3444 379.785 24.4004C379.329 23.4564 378.67 22.7321 377.808 22.2275C376.945 21.7067 375.928 21.4463 374.756 21.4463Z" fill="#F4F8FF"/>
<path d="M411.987 4.84473C413.078 4.84473 413.989 5.02376 414.722 5.38184C415.47 5.73991 415.845 6.19564 415.845 6.74902C415.845 6.92806 415.812 7.09082 415.747 7.2373L399.487 46.7393C399.194 47.4391 398.527 47.7891 397.485 47.7891C396.395 47.7891 395.475 47.61 394.727 47.252C393.994 46.8939 393.628 46.4382 393.628 45.8848C393.628 45.7057 393.66 45.543 393.726 45.3965L409.985 5.89453C410.278 5.19466 410.946 4.84473 411.987 4.84473Z" fill="#4854AF"/>
</svg>
