<svg width="427" height="43" viewBox="0 0 427 43" fill="none" xmlns="http://www.w3.org/2000/svg">
<path d="M20.1719 8.71094C20.4844 8.55469 20.7422 8.47656 20.9453 8.47656C21.2578 8.47656 21.5547 8.61719 21.8359 8.89844C22.1172 9.17969 22.4219 9.64844 22.75 10.3047C23.1562 11.1172 23.3594 11.7656 23.3594 12.25C23.3594 12.7812 23.0781 13.1953 22.5156 13.4922L8.80469 20.3359L22.5156 27.1797C23.0781 27.4766 23.3594 27.8906 23.3594 28.4219C23.3594 28.9062 23.1562 29.5547 22.75 30.3672C22.4219 31.0234 22.1172 31.4922 21.8359 31.7734C21.5547 32.0547 21.2578 32.1953 20.9453 32.1953C20.7422 32.1953 20.4844 32.1172 20.1719 31.9609L1.89062 22.5391C1.5 22.3359 1.21875 22.0781 1.04688 21.7656C0.890625 21.4531 0.8125 20.9766 0.8125 20.3359C0.8125 19.6953 0.890625 19.2188 1.04688 18.9062C1.21875 18.5938 1.5 18.3359 1.89062 18.1328L20.1719 8.71094ZM425.828 18.1328C426.219 18.3359 426.492 18.5938 426.648 18.9062C426.82 19.2188 426.906 19.6953 426.906 20.3359C426.906 20.9766 426.82 21.4531 426.648 21.7656C426.492 22.0781 426.219 22.3359 425.828 22.5391L407.547 31.9609C407.234 32.1172 406.977 32.1953 406.773 32.1953C406.461 32.1953 406.164 32.0547 405.883 31.7734C405.602 31.4922 405.297 31.0234 404.969 30.3672C404.562 29.5547 404.359 28.9062 404.359 28.4219C404.359 27.8906 404.641 27.4766 405.203 27.1797L418.914 20.3359L405.203 13.4922C404.641 13.1953 404.359 12.7812 404.359 12.25C404.359 11.7656 404.562 11.1172 404.969 10.3047C405.297 9.64844 405.602 9.17969 405.883 8.89844C406.164 8.61719 406.461 8.47656 406.773 8.47656C406.977 8.47656 407.234 8.55469 407.547 8.71094L425.828 18.1328Z" fill="#D44A4A"/>
<path d="M50.3594 5.66406C51.3281 5.66406 51.9922 5.77344 52.3516 5.99219C52.7109 6.21094 52.8906 6.59375 52.8906 7.14062V16.1406C52.8906 16.6719 52.6484 17.0547 52.1641 17.2891C51.6953 17.5078 50.9062 17.6172 49.7969 17.6172C49.0625 17.6172 48.4922 17.5703 48.0859 17.4766C47.6953 17.3672 47.4219 17.2109 47.2656 17.0078C47.1094 16.8047 47.0312 16.5156 47.0312 16.1406C47.0312 14.5781 46.6016 13.3281 45.7422 12.3906C44.8984 11.4531 43.6875 10.9844 42.1094 10.9844C39.9375 10.9844 38.2891 11.7656 37.1641 13.3281C36.0391 14.8906 35.4766 17.1406 35.4766 20.0781C35.4766 22.9844 36.0703 25.2344 37.2578 26.8281C38.4609 28.4062 40.1562 29.1953 42.3438 29.1953C43.7031 29.1953 45.0078 29.0156 46.2578 28.6562C47.5078 28.2812 48.8672 27.7188 50.3359 26.9688C50.5859 26.8438 50.8203 26.7812 51.0391 26.7812C51.7734 26.7812 52.3828 27.4297 52.8672 28.7266C53.0859 29.3203 53.1953 29.8516 53.1953 30.3203C53.1953 31.1172 52.8359 31.6875 52.1172 32.0312C48.7734 33.6875 45.4375 34.5156 42.1094 34.5156C39.5469 34.5156 37.2891 33.9297 35.3359 32.7578C33.3828 31.5859 31.8672 29.9141 30.7891 27.7422C29.7266 25.5547 29.1953 23 29.1953 20.0781C29.1953 17.1719 29.7188 14.6328 30.7656 12.4609C31.8125 10.2734 33.2578 8.59375 35.1016 7.42188C36.9609 6.25 39.0625 5.66406 41.4062 5.66406C44.1406 5.66406 46.1719 6.64844 47.5 8.61719V7.14062C47.5 6.60937 47.7266 6.23437 48.1797 6.01562C48.6328 5.78125 49.3594 5.66406 50.3594 5.66406ZM71.7344 12.3438C72.2656 12.3438 72.6406 12.4609 72.8594 12.6953C73.0938 12.9141 73.2109 13.2891 73.2109 13.8203V29.1953H79.7969C80.1719 29.1953 80.4609 29.2656 80.6641 29.4062C80.8672 29.5312 81.0156 29.7656 81.1094 30.1094C81.2188 30.4531 81.2734 30.9531 81.2734 31.6094C81.2734 32.2656 81.2188 32.7656 81.1094 33.1094C81.0156 33.4531 80.8672 33.6875 80.6641 33.8125C80.4609 33.9375 80.1719 34 79.7969 34H60.9531C60.5781 34 60.2891 33.9375 60.0859 33.8125C59.8828 33.6875 59.7266 33.4531 59.6172 33.1094C59.5234 32.7656 59.4766 32.2656 59.4766 31.6094C59.4766 30.9531 59.5234 30.4531 59.6172 30.1094C59.7266 29.7656 59.8828 29.5312 60.0859 29.4062C60.2891 29.2656 60.5781 29.1953 60.9531 29.1953H67.3516V17.1484H62.3594C61.9844 17.1484 61.6953 17.0859 61.4922 16.9609C61.2891 16.8359 61.1328 16.6016 61.0234 16.2578C60.9297 15.9141 60.8828 15.4141 60.8828 14.7578C60.8828 14.1016 60.9297 13.6016 61.0234 13.2578C61.1328 12.9141 61.2891 12.6797 61.4922 12.5547C61.6953 12.4141 61.9844 12.3438 62.3594 12.3438H71.7344ZM70.2109 2.05469C71.3203 2.05469 72.0938 2.17188 72.5312 2.40625C72.9844 2.625 73.2109 3 73.2109 3.53125V7.375C73.2109 7.90625 73 8.28906 72.5781 8.52344C72.1719 8.74219 71.4219 8.85156 70.3281 8.85156C69.2344 8.85156 68.4609 8.74219 68.0078 8.52344C67.5703 8.28906 67.3516 7.90625 67.3516 7.375V3.53125C67.3516 2.98438 67.5547 2.60156 67.9609 2.38281C68.3672 2.16406 69.1172 2.05469 70.2109 2.05469ZM106.727 11.8281C107.695 11.8281 108.359 11.9375 108.719 12.1562C109.078 12.375 109.258 12.7578 109.258 13.3047V20.8281C109.258 21.3594 109.016 21.7422 108.531 21.9766C108.062 22.1953 107.273 22.3047 106.164 22.3047C105.43 22.3047 104.859 22.2578 104.453 22.1641C104.062 22.0547 103.789 21.8984 103.633 21.6953C103.477 21.4922 103.398 21.2031 103.398 20.8281C103.398 20.1719 103.234 19.5625 102.906 19C102.594 18.4375 102.117 17.9922 101.477 17.6641C100.852 17.3203 100.094 17.1484 99.2031 17.1484C98.0781 17.1484 97.0938 17.3984 96.25 17.8984C95.4062 18.3828 94.75 19.0859 94.2812 20.0078C93.8281 20.9141 93.6016 21.9688 93.6016 23.1719C93.6016 24.375 93.8281 25.4375 94.2812 26.3594C94.75 27.2656 95.4062 27.9688 96.25 28.4688C97.0938 28.9531 98.0781 29.1953 99.2031 29.1953C100.406 29.1953 101.633 29 102.883 28.6094C104.148 28.2188 105.375 27.6797 106.562 26.9922C106.844 26.8359 107.102 26.7578 107.336 26.7578C108.039 26.7578 108.656 27.375 109.188 28.6094C109.469 29.2812 109.609 29.8516 109.609 30.3203C109.609 31.0234 109.273 31.5625 108.602 31.9375C107.148 32.75 105.617 33.3828 104.008 33.8359C102.414 34.2891 100.812 34.5156 99.2031 34.5156C96.8281 34.5156 94.7422 34.0312 92.9453 33.0625C91.1484 32.0938 89.7578 30.75 88.7734 29.0312C87.8047 27.3125 87.3203 25.3594 87.3203 23.1719C87.3203 20.9844 87.8125 19.0312 88.7969 17.3125C89.7812 15.5781 91.1172 14.2344 92.8047 13.2812C94.5078 12.3125 96.4062 11.8281 98.5 11.8281C101.031 11.8281 102.82 12.7422 103.867 14.5703V13.3047C103.867 12.7734 104.094 12.3984 104.547 12.1797C105 11.9453 105.727 11.8281 106.727 11.8281ZM129.062 3.25C129.594 3.25 129.969 3.36719 130.188 3.60156C130.422 3.82031 130.539 4.19531 130.539 4.72656V29.1953H137.125C137.5 29.1953 137.789 29.2656 137.992 29.4062C138.195 29.5312 138.344 29.7656 138.438 30.1094C138.547 30.4531 138.602 30.9531 138.602 31.6094C138.602 32.2656 138.547 32.7656 138.438 33.1094C138.344 33.4531 138.195 33.6875 137.992 33.8125C137.789 33.9375 137.5 34 137.125 34H118.281C117.906 34 117.617 33.9375 117.414 33.8125C117.211 33.6875 117.055 33.4531 116.945 33.1094C116.852 32.7656 116.805 32.2656 116.805 31.6094C116.805 30.9531 116.852 30.4531 116.945 30.1094C117.055 29.7656 117.211 29.5312 117.414 29.4062C117.617 29.2656 117.906 29.1953 118.281 29.1953H124.68V8.05469H119.219C118.844 8.05469 118.555 7.99219 118.352 7.86719C118.148 7.74219 117.992 7.50781 117.883 7.16406C117.789 6.82031 117.742 6.32031 117.742 5.66406C117.742 5.00781 117.789 4.50781 117.883 4.16406C117.992 3.82031 118.148 3.58594 118.352 3.46094C118.555 3.32031 118.844 3.25 119.219 3.25H129.062ZM156.297 11.8281C158.672 11.8281 160.75 12.3125 162.531 13.2812C164.312 14.25 165.68 15.5938 166.633 17.3125C167.602 19.0312 168.086 20.9844 168.086 23.1719C168.086 25.3594 167.602 27.3125 166.633 29.0312C165.68 30.75 164.312 32.0938 162.531 33.0625C160.75 34.0312 158.672 34.5156 156.297 34.5156C153.922 34.5156 151.844 34.0312 150.062 33.0625C148.281 32.0938 146.906 30.75 145.938 29.0312C144.984 27.3125 144.508 25.3594 144.508 23.1719C144.508 20.9844 144.984 19.0312 145.938 17.3125C146.906 15.5938 148.281 14.25 150.062 13.2812C151.844 12.3125 153.922 11.8281 156.297 11.8281ZM156.297 17.1484C155.172 17.1484 154.195 17.3984 153.367 17.8984C152.539 18.3828 151.898 19.0781 151.445 19.9844C151.008 20.8906 150.789 21.9531 150.789 23.1719C150.789 24.3906 151.008 25.4531 151.445 26.3594C151.898 27.2656 152.539 27.9688 153.367 28.4688C154.195 28.9531 155.172 29.1953 156.297 29.1953C157.422 29.1953 158.398 28.9531 159.227 28.4688C160.055 27.9688 160.688 27.2656 161.125 26.3594C161.578 25.4531 161.805 24.3906 161.805 23.1719C161.805 21.9531 161.578 20.8906 161.125 19.9844C160.688 19.0781 160.055 18.3828 159.227 17.8984C158.398 17.3984 157.422 17.1484 156.297 17.1484ZM214.797 6.17969C218.062 6.17969 220.477 6.85156 222.039 8.19531C223.617 9.52344 224.406 11.375 224.406 13.75C224.406 15.0312 224.086 16.1328 223.445 17.0547C222.82 17.9609 221.938 18.6875 220.797 19.2344C224.375 20.2031 226.164 22.4375 226.164 25.9375C226.164 28.5781 225.297 30.5859 223.562 31.9609C221.828 33.3203 219.344 34 216.109 34H202.586C202.211 34 201.922 33.9375 201.719 33.8125C201.516 33.6875 201.359 33.4531 201.25 33.1094C201.156 32.7656 201.109 32.2656 201.109 31.6094C201.109 30.9531 201.156 30.4531 201.25 30.1094C201.359 29.7656 201.516 29.5312 201.719 29.4062C201.922 29.2656 202.211 29.1953 202.586 29.1953H205.094V10.9844H202.586C202.211 10.9844 201.922 10.9219 201.719 10.7969C201.516 10.6719 201.359 10.4375 201.25 10.0938C201.156 9.75 201.109 9.25 201.109 8.59375C201.109 7.9375 201.156 7.4375 201.25 7.09375C201.359 6.75 201.516 6.51562 201.719 6.39062C201.922 6.25 202.211 6.17969 202.586 6.17969H214.797ZM210.953 17.2656H214.281C215.688 17.2656 216.734 17.0156 217.422 16.5156C218.109 16.0156 218.453 15.25 218.453 14.2188C218.453 13.1719 218.117 12.4141 217.445 11.9453C216.789 11.4609 215.734 11.2188 214.281 11.2188H210.953V17.2656ZM210.953 28.9609H215.453C218.484 28.9609 220 27.875 220 25.7031C220 24.5469 219.625 23.6953 218.875 23.1484C218.141 22.5859 217 22.3047 215.453 22.3047H210.953V28.9609ZM242.383 11.8281C245.82 11.8281 248.305 12.5703 249.836 14.0547C251.367 15.5391 252.133 17.6641 252.133 20.4297V27.2031C252.133 27.8281 252.266 28.3203 252.531 28.6797C252.797 29.0234 253.18 29.1953 253.68 29.1953H254.406C254.781 29.1953 255.07 29.2656 255.273 29.4062C255.477 29.5312 255.625 29.7656 255.719 30.1094C255.828 30.4531 255.883 30.9531 255.883 31.6094C255.883 32.2656 255.828 32.7656 255.719 33.1094C255.625 33.4531 255.477 33.6875 255.273 33.8125C255.07 33.9375 254.781 34 254.406 34H251.781C250.812 34 249.953 33.8047 249.203 33.4141C248.469 33.0078 247.906 32.375 247.516 31.5156C246.281 32.4688 244.977 33.2109 243.602 33.7422C242.227 34.2578 240.812 34.5156 239.359 34.5156C237.594 34.5156 236.07 34.2188 234.789 33.625C233.508 33.0156 232.523 32.1562 231.836 31.0469C231.164 29.9219 230.828 28.6016 230.828 27.0859C230.828 24.8984 231.602 23.2031 233.148 22C234.695 20.7969 236.859 20.1953 239.641 20.1953C241.719 20.1953 243.93 20.4297 246.273 20.8984V20.2188C246.273 19.1719 245.945 18.3984 245.289 17.8984C244.633 17.3984 243.477 17.1484 241.82 17.1484C240.898 17.1484 239.867 17.2656 238.727 17.5C237.602 17.7188 236.484 18.0156 235.375 18.3906C235.109 18.4688 234.883 18.5078 234.695 18.5078C234.305 18.5078 233.953 18.3672 233.641 18.0859C233.344 17.7891 233.07 17.2969 232.82 16.6094C232.586 15.9219 232.469 15.3594 232.469 14.9219C232.469 14.125 232.828 13.5938 233.547 13.3281C234.938 12.8281 236.414 12.4531 237.977 12.2031C239.539 11.9531 241.008 11.8281 242.383 11.8281ZM240.227 25.0234C239.133 25.0234 238.297 25.2188 237.719 25.6094C237.156 26 236.875 26.5703 236.875 27.3203C236.875 28.0547 237.148 28.6172 237.695 29.0078C238.258 29.3828 239.062 29.5703 240.109 29.5703C241.188 29.5703 242.25 29.3594 243.297 28.9375C244.359 28.5 245.352 27.9062 246.273 27.1562V25.6562C244.211 25.2344 242.195 25.0234 240.227 25.0234ZM244.984 0.414062C245.234 0.242188 245.492 0.15625 245.758 0.15625C246.477 0.15625 247.281 0.742188 248.172 1.91406C248.797 2.75781 249.109 3.48438 249.109 4.09375C249.109 4.59375 248.922 4.9375 248.547 5.125L239.008 9.92969C238.852 10.0234 238.672 10.0703 238.469 10.0703C237.906 10.0703 237.375 9.67188 236.875 8.875C236.531 8.32813 236.359 7.83594 236.359 7.39844C236.359 6.96094 236.523 6.625 236.852 6.39062L244.984 0.414062ZM278.266 11.8281C279.266 11.8281 279.977 11.9453 280.398 12.1797C280.82 12.3984 281.031 12.7734 281.031 13.3047V18.25C281.031 18.7812 280.859 19.1641 280.516 19.3984C280.188 19.6172 279.641 19.7266 278.875 19.7266C278.047 19.7266 277.477 19.5625 277.164 19.2344C276.242 18.25 275.188 17.5547 274 17.1484C272.812 16.7266 271.438 16.5156 269.875 16.5156C268.953 16.5156 268.227 16.6797 267.695 17.0078C267.18 17.3359 266.922 17.7734 266.922 18.3203C266.922 18.9766 267.5 19.4453 268.656 19.7266C269.266 19.8828 270.305 20.0312 271.773 20.1719C273.227 20.3438 274.43 20.5156 275.383 20.6875C276.352 20.8594 277.266 21.1172 278.125 21.4609C279.375 21.9766 280.352 22.6953 281.055 23.6172C281.758 24.5391 282.109 25.7578 282.109 27.2734C282.109 28.7578 281.742 30.0469 281.008 31.1406C280.289 32.2188 279.227 33.0547 277.82 33.6484C276.43 34.2266 274.75 34.5156 272.781 34.5156C270.609 34.5156 268.594 33.9609 266.734 32.8516V33.0391C266.734 33.5703 266.508 33.9453 266.055 34.1641C265.602 34.3984 264.875 34.5156 263.875 34.5156C262.875 34.5156 262.164 34.3984 261.742 34.1641C261.32 33.9453 261.109 33.5703 261.109 33.0391V27.8125C261.109 27.2969 261.289 26.9219 261.648 26.6875C262.023 26.4531 262.594 26.3359 263.359 26.3359C264.312 26.3359 264.961 26.5547 265.305 26.9922C266.086 27.9766 267.086 28.6953 268.305 29.1484C269.523 29.6016 270.859 29.8281 272.312 29.8281C274.812 29.8281 276.062 29.1797 276.062 27.8828C276.062 27.4922 275.883 27.1797 275.523 26.9453C275.18 26.7109 274.664 26.5156 273.977 26.3594C273.586 26.2812 272.68 26.1406 271.258 25.9375C269.68 25.75 268.32 25.5391 267.18 25.3047C266.055 25.0547 265.031 24.6719 264.109 24.1562C261.953 22.9688 260.875 21.0938 260.875 18.5312C260.875 17.1719 261.242 15.9844 261.977 14.9688C262.711 13.9531 263.719 13.1797 265 12.6484C266.297 12.1016 267.75 11.8281 269.359 11.8281C271.719 11.8281 273.812 12.3984 275.641 13.5391V13.3047C275.641 12.7734 275.828 12.3984 276.203 12.1797C276.594 11.9453 277.281 11.8281 278.266 11.8281ZM301.984 12.3438C302.516 12.3438 302.891 12.4609 303.109 12.6953C303.344 12.9141 303.461 13.2891 303.461 13.8203V29.1953H310.047C310.422 29.1953 310.711 29.2656 310.914 29.4062C311.117 29.5312 311.266 29.7656 311.359 30.1094C311.469 30.4531 311.523 30.9531 311.523 31.6094C311.523 32.2656 311.469 32.7656 311.359 33.1094C311.266 33.4531 311.117 33.6875 310.914 33.8125C310.711 33.9375 310.422 34 310.047 34H291.203C290.828 34 290.539 33.9375 290.336 33.8125C290.133 33.6875 289.977 33.4531 289.867 33.1094C289.773 32.7656 289.727 32.2656 289.727 31.6094C289.727 30.9531 289.773 30.4531 289.867 30.1094C289.977 29.7656 290.133 29.5312 290.336 29.4062C290.539 29.2656 290.828 29.1953 291.203 29.1953H297.602V17.1484H292.609C292.234 17.1484 291.945 17.0859 291.742 16.9609C291.539 16.8359 291.383 16.6016 291.273 16.2578C291.18 15.9141 291.133 15.4141 291.133 14.7578C291.133 14.1016 291.18 13.6016 291.273 13.2578C291.383 12.9141 291.539 12.6797 291.742 12.5547C291.945 12.4141 292.234 12.3438 292.609 12.3438H301.984ZM300.461 2.05469C301.57 2.05469 302.344 2.17188 302.781 2.40625C303.234 2.625 303.461 3 303.461 3.53125V7.375C303.461 7.90625 303.25 8.28906 302.828 8.52344C302.422 8.74219 301.672 8.85156 300.578 8.85156C299.484 8.85156 298.711 8.74219 298.258 8.52344C297.82 8.28906 297.602 7.90625 297.602 7.375V3.53125C297.602 2.98438 297.805 2.60156 298.211 2.38281C298.617 2.16406 299.367 2.05469 300.461 2.05469ZM336.977 11.8281C337.945 11.8281 338.609 11.9375 338.969 12.1562C339.328 12.375 339.508 12.7578 339.508 13.3047V20.8281C339.508 21.3594 339.266 21.7422 338.781 21.9766C338.312 22.1953 337.523 22.3047 336.414 22.3047C335.68 22.3047 335.109 22.2578 334.703 22.1641C334.312 22.0547 334.039 21.8984 333.883 21.6953C333.727 21.4922 333.648 21.2031 333.648 20.8281C333.648 20.1719 333.484 19.5625 333.156 19C332.844 18.4375 332.367 17.9922 331.727 17.6641C331.102 17.3203 330.344 17.1484 329.453 17.1484C328.328 17.1484 327.344 17.3984 326.5 17.8984C325.656 18.3828 325 19.0859 324.531 20.0078C324.078 20.9141 323.852 21.9688 323.852 23.1719C323.852 24.375 324.078 25.4375 324.531 26.3594C325 27.2656 325.656 27.9688 326.5 28.4688C327.344 28.9531 328.328 29.1953 329.453 29.1953C330.656 29.1953 331.883 29 333.133 28.6094C334.398 28.2188 335.625 27.6797 336.812 26.9922C337.094 26.8359 337.352 26.7578 337.586 26.7578C338.289 26.7578 338.906 27.375 339.438 28.6094C339.719 29.2812 339.859 29.8516 339.859 30.3203C339.859 31.0234 339.523 31.5625 338.852 31.9375C337.398 32.75 335.867 33.3828 334.258 33.8359C332.664 34.2891 331.062 34.5156 329.453 34.5156C327.078 34.5156 324.992 34.0312 323.195 33.0625C321.398 32.0938 320.008 30.75 319.023 29.0312C318.055 27.3125 317.57 25.3594 317.57 23.1719C317.57 20.9844 318.062 19.0312 319.047 17.3125C320.031 15.5781 321.367 14.2344 323.055 13.2812C324.758 12.3125 326.656 11.8281 328.75 11.8281C331.281 11.8281 333.07 12.7422 334.117 14.5703V13.3047C334.117 12.7734 334.344 12.3984 334.797 12.1797C335.25 11.9453 335.977 11.8281 336.977 11.8281ZM357.766 11.8281C360.141 11.8281 362.219 12.3125 364 13.2812C365.781 14.25 367.148 15.5938 368.102 17.3125C369.07 19.0312 369.555 20.9844 369.555 23.1719C369.555 25.3594 369.07 27.3125 368.102 29.0312C367.148 30.75 365.781 32.0938 364 33.0625C362.219 34.0312 360.141 34.5156 357.766 34.5156C355.391 34.5156 353.312 34.0312 351.531 33.0625C349.75 32.0938 348.375 30.75 347.406 29.0312C346.453 27.3125 345.977 25.3594 345.977 23.1719C345.977 20.9844 346.453 19.0312 347.406 17.3125C348.375 15.5938 349.75 14.25 351.531 13.2812C353.312 12.3125 355.391 11.8281 357.766 11.8281ZM357.766 17.1484C356.641 17.1484 355.664 17.3984 354.836 17.8984C354.008 18.3828 353.367 19.0781 352.914 19.9844C352.477 20.8906 352.258 21.9531 352.258 23.1719C352.258 24.3906 352.477 25.4531 352.914 26.3594C353.367 27.2656 354.008 27.9688 354.836 28.4688C355.664 28.9531 356.641 29.1953 357.766 29.1953C358.891 29.1953 359.867 28.9531 360.695 28.4688C361.523 27.9688 362.156 27.2656 362.594 26.3594C363.047 25.4531 363.273 24.3906 363.273 23.1719C363.273 21.9531 363.047 20.8906 362.594 19.9844C362.156 19.0781 361.523 18.3828 360.695 17.8984C359.867 17.3984 358.891 17.1484 357.766 17.1484Z" fill="white"/>
<path d="M393.508 1.21094C394.555 1.21094 395.43 1.38281 396.133 1.72656C396.852 2.07031 397.211 2.50781 397.211 3.03906C397.211 3.21094 397.18 3.36719 397.117 3.50781L381.508 41.4297C381.227 42.1016 380.586 42.4375 379.586 42.4375C378.539 42.4375 377.656 42.2656 376.938 41.9219C376.234 41.5781 375.883 41.1406 375.883 40.6094C375.883 40.4375 375.914 40.2812 375.977 40.1406L391.586 2.21875C391.867 1.54687 392.508 1.21094 393.508 1.21094Z" fill="#4854AF"/>
</svg>
