<svg width="380" height="36" viewBox="0 0 380 36" fill="none" xmlns="http://www.w3.org/2000/svg">
<path d="M16.4766 6.92578C16.737 6.79557 16.9518 6.73047 17.1211 6.73047C17.3815 6.73047 17.6289 6.84766 17.8633 7.08203C18.0977 7.31641 18.3516 7.70703 18.625 8.25391C18.9635 8.93099 19.1328 9.47135 19.1328 9.875C19.1328 10.3177 18.8984 10.6628 18.4297 10.9102L7.00391 16.6133L18.4297 22.3164C18.8984 22.5638 19.1328 22.9089 19.1328 23.3516C19.1328 23.7552 18.9635 24.2956 18.625 24.9727C18.3516 25.5195 18.0977 25.9102 17.8633 26.1445C17.6289 26.3789 17.3815 26.4961 17.1211 26.4961C16.9518 26.4961 16.737 26.431 16.4766 26.3008L1.24219 18.4492C0.916667 18.2799 0.682292 18.0651 0.539062 17.8047C0.408854 17.5443 0.34375 17.1471 0.34375 16.6133C0.34375 16.0794 0.408854 15.6823 0.539062 15.4219C0.682292 15.1615 0.916667 14.9466 1.24219 14.7773L16.4766 6.92578ZM378.508 14.7773C378.833 14.9466 379.061 15.1615 379.191 15.4219C379.335 15.6823 379.406 16.0794 379.406 16.6133C379.406 17.1471 379.335 17.5443 379.191 17.8047C379.061 18.0651 378.833 18.2799 378.508 18.4492L363.273 26.3008C363.013 26.431 362.798 26.4961 362.629 26.4961C362.368 26.4961 362.121 26.3789 361.887 26.1445C361.652 25.9102 361.398 25.5195 361.125 24.9727C360.786 24.2956 360.617 23.7552 360.617 23.3516C360.617 22.9089 360.852 22.5638 361.32 22.3164L372.746 16.6133L361.32 10.9102C360.852 10.6628 360.617 10.3177 360.617 9.875C360.617 9.47135 360.786 8.93099 361.125 8.25391C361.398 7.70703 361.652 7.31641 361.887 7.08203C362.121 6.84766 362.368 6.73047 362.629 6.73047C362.798 6.73047 363.013 6.79557 363.273 6.92578L378.508 14.7773Z" fill="#1C256D"/>
<path d="M41.6328 4.38672C42.4401 4.38672 42.9935 4.47786 43.293 4.66016C43.5924 4.84245 43.7422 5.16146 43.7422 5.61719V13.1172C43.7422 13.5599 43.5404 13.8789 43.1367 14.0742C42.7461 14.2565 42.0885 14.3477 41.1641 14.3477C40.5521 14.3477 40.0768 14.3086 39.7383 14.2305C39.4128 14.1393 39.1849 14.0091 39.0547 13.8398C38.9245 13.6706 38.8594 13.4297 38.8594 13.1172C38.8594 11.8151 38.5013 10.7734 37.7852 9.99219C37.082 9.21094 36.0729 8.82031 34.7578 8.82031C32.9479 8.82031 31.5742 9.47135 30.6367 10.7734C29.6992 12.0755 29.2305 13.9505 29.2305 16.3984C29.2305 18.8203 29.7253 20.6953 30.7148 22.0234C31.7174 23.3385 33.1302 23.9961 34.9531 23.9961C36.0859 23.9961 37.1732 23.8464 38.2148 23.5469C39.2565 23.2344 40.3893 22.7656 41.6133 22.1406C41.8216 22.0365 42.0169 21.9844 42.1992 21.9844C42.8112 21.9844 43.319 22.5247 43.7227 23.6055C43.9049 24.1003 43.9961 24.543 43.9961 24.9336C43.9961 25.5977 43.6966 26.0729 43.0977 26.3594C40.3112 27.7396 37.5312 28.4297 34.7578 28.4297C32.6224 28.4297 30.7409 27.9414 29.1133 26.9648C27.4857 25.9883 26.2227 24.5951 25.3242 22.7852C24.4388 20.9622 23.9961 18.8333 23.9961 16.3984C23.9961 13.9766 24.4323 11.8607 25.3047 10.0508C26.1771 8.22786 27.3815 6.82812 28.918 5.85156C30.4674 4.875 32.2188 4.38672 34.1719 4.38672C36.4505 4.38672 38.1432 5.20703 39.25 6.84766V5.61719C39.25 5.17448 39.4388 4.86198 39.8164 4.67969C40.194 4.48438 40.7995 4.38672 41.6328 4.38672ZM57.9609 9.52344C59.9401 9.52344 61.6719 9.92708 63.1562 10.7344C64.6406 11.5417 65.7799 12.6615 66.5742 14.0938C67.3815 15.526 67.7852 17.1536 67.7852 18.9766C67.7852 20.7995 67.3815 22.4271 66.5742 23.8594C65.7799 25.2917 64.6406 26.4115 63.1562 27.2188C61.6719 28.026 59.9401 28.4297 57.9609 28.4297C55.9818 28.4297 54.25 28.026 52.7656 27.2188C51.2812 26.4115 50.1354 25.2917 49.3281 23.8594C48.5339 22.4271 48.1367 20.7995 48.1367 18.9766C48.1367 17.1536 48.5339 15.526 49.3281 14.0938C50.1354 12.6615 51.2812 11.5417 52.7656 10.7344C54.25 9.92708 55.9818 9.52344 57.9609 9.52344ZM57.9609 13.957C57.0234 13.957 56.2096 14.1654 55.5195 14.582C54.8294 14.9857 54.2956 15.5651 53.918 16.3203C53.5534 17.0755 53.3711 17.9609 53.3711 18.9766C53.3711 19.9922 53.5534 20.8776 53.918 21.6328C54.2956 22.388 54.8294 22.974 55.5195 23.3906C56.2096 23.7943 57.0234 23.9961 57.9609 23.9961C58.8984 23.9961 59.7122 23.7943 60.4023 23.3906C61.0924 22.974 61.6198 22.388 61.9844 21.6328C62.362 20.8776 62.5508 19.9922 62.5508 18.9766C62.5508 17.9609 62.362 17.0755 61.9844 16.3203C61.6198 15.5651 61.0924 14.9857 60.4023 14.582C59.7122 14.1654 58.8984 13.957 57.9609 13.957ZM88.8203 9.52344C90.0182 9.52344 90.9622 10.0117 91.6523 10.9883C92.3424 11.9648 92.6875 13.4492 92.6875 15.4414V26.7695C92.6875 27.2122 92.5898 27.5312 92.3945 27.7266C92.2122 27.9089 91.8997 28 91.457 28H89.0352C88.5924 28 88.2734 27.9089 88.0781 27.7266C87.8958 27.5312 87.8047 27.2122 87.8047 26.7695V16.5547C87.8047 15.8646 87.7201 15.3568 87.5508 15.0312C87.3945 14.7057 87.1406 14.543 86.7891 14.543C86.1771 14.543 85.6888 15.0182 85.3242 15.9688C84.9727 16.9193 84.7969 18.306 84.7969 20.1289V26.7695C84.7969 27.2122 84.6992 27.5312 84.5039 27.7266C84.3216 27.9089 84.0091 28 83.5664 28H81.1445C80.7018 28 80.3828 27.9089 80.1875 27.7266C80.0052 27.5312 79.9141 27.2122 79.9141 26.7695V16.5547C79.9141 15.8646 79.8294 15.3568 79.6602 15.0312C79.5039 14.7057 79.25 14.543 78.8984 14.543C78.2865 14.543 77.7982 15.0182 77.4336 15.9688C77.082 16.9193 76.9062 18.306 76.9062 20.1289V26.7695C76.9062 27.2122 76.8086 27.5312 76.6133 27.7266C76.431 27.9089 76.1185 28 75.6758 28H73.2539C72.8112 28 72.4922 27.9089 72.2969 27.7266C72.1146 27.5312 72.0234 27.2122 72.0234 26.7695V13.957H70.9102C70.5977 13.957 70.3568 13.9049 70.1875 13.8008C70.0182 13.6966 69.8945 13.5013 69.8164 13.2148C69.7253 12.9284 69.6797 12.5117 69.6797 11.9648C69.6797 11.418 69.7253 11.0013 69.8164 10.7148C69.8945 10.4284 70.0182 10.2331 70.1875 10.1289C70.3568 10.0117 70.5977 9.95312 70.9102 9.95312H74.3086C74.7513 9.95312 75.0638 10.0508 75.2461 10.2461C75.4414 10.4284 75.5391 10.7409 75.5391 11.1836V13.9961C76.151 12.5247 76.8672 11.4115 77.6875 10.6562C78.5208 9.90104 79.4323 9.52344 80.4219 9.52344C82.349 9.52344 83.5924 10.8451 84.1523 13.4883C84.7513 12.1862 85.4479 11.2031 86.2422 10.5391C87.0365 9.86198 87.8958 9.52344 88.8203 9.52344ZM105.93 9.52344C107.909 9.52344 109.641 9.92708 111.125 10.7344C112.609 11.5417 113.749 12.6615 114.543 14.0938C115.35 15.526 115.754 17.1536 115.754 18.9766C115.754 20.7995 115.35 22.4271 114.543 23.8594C113.749 25.2917 112.609 26.4115 111.125 27.2188C109.641 28.026 107.909 28.4297 105.93 28.4297C103.951 28.4297 102.219 28.026 100.734 27.2188C99.25 26.4115 98.1042 25.2917 97.2969 23.8594C96.5026 22.4271 96.1055 20.7995 96.1055 18.9766C96.1055 17.1536 96.5026 15.526 97.2969 14.0938C98.1042 12.6615 99.25 11.5417 100.734 10.7344C102.219 9.92708 103.951 9.52344 105.93 9.52344ZM105.93 13.957C104.992 13.957 104.178 14.1654 103.488 14.582C102.798 14.9857 102.264 15.5651 101.887 16.3203C101.522 17.0755 101.34 17.9609 101.34 18.9766C101.34 19.9922 101.522 20.8776 101.887 21.6328C102.264 22.388 102.798 22.974 103.488 23.3906C104.178 23.7943 104.992 23.9961 105.93 23.9961C106.867 23.9961 107.681 23.7943 108.371 23.3906C109.061 22.974 109.589 22.388 109.953 21.6328C110.331 20.8776 110.52 19.9922 110.52 18.9766C110.52 17.9609 110.331 17.0755 109.953 16.3203C109.589 15.5651 109.061 14.9857 108.371 14.582C107.681 14.1654 106.867 13.957 105.93 13.957ZM156.945 2.27734C158.924 2.27734 160.904 2.64844 162.883 3.39062C163.208 3.50781 163.449 3.67708 163.605 3.89844C163.775 4.10677 163.859 4.39323 163.859 4.75781C163.859 5.09635 163.794 5.5 163.664 5.96875C163.508 6.54167 163.312 6.95182 163.078 7.19922C162.857 7.44661 162.59 7.57031 162.277 7.57031C162.121 7.57031 161.932 7.53776 161.711 7.47266C160.057 6.96484 158.612 6.71094 157.375 6.71094C155.695 6.71094 154.855 7.79167 154.855 9.95312V11.125H160.93C161.385 11.125 161.704 11.2747 161.887 11.5742C162.069 11.8737 162.16 12.4271 162.16 13.2344C162.16 14.0417 162.069 14.5951 161.887 14.8945C161.704 15.181 161.385 15.3242 160.93 15.3242H154.855V23.9961H160.344C160.656 23.9961 160.897 24.0547 161.066 24.1719C161.236 24.276 161.359 24.4714 161.438 24.7578C161.529 25.0443 161.574 25.4609 161.574 26.0078C161.574 26.5547 161.529 26.9714 161.438 27.2578C161.359 27.5443 161.236 27.7396 161.066 27.8438C160.897 27.9479 160.656 28 160.344 28H146.398C146.086 28 145.845 27.9479 145.676 27.8438C145.507 27.7396 145.376 27.5443 145.285 27.2578C145.207 26.9714 145.168 26.5547 145.168 26.0078C145.168 25.4609 145.207 25.0443 145.285 24.7578C145.376 24.4714 145.507 24.276 145.676 24.1719C145.845 24.0547 146.086 23.9961 146.398 23.9961H149.973V15.3242H146.398C145.943 15.3242 145.624 15.181 145.441 14.8945C145.259 14.5951 145.168 14.0417 145.168 13.2344C145.168 12.4271 145.259 11.8737 145.441 11.5742C145.624 11.2747 145.943 11.125 146.398 11.125H149.973V9.69922C149.973 7.27734 150.565 5.4349 151.75 4.17188C152.948 2.90885 154.68 2.27734 156.945 2.27734ZM184.816 9.95312C185.259 9.95312 185.572 10.0508 185.754 10.2461C185.949 10.4284 186.047 10.7409 186.047 11.1836V23.9961H187.551C187.863 23.9961 188.104 24.0482 188.273 24.1523C188.443 24.2565 188.566 24.4518 188.645 24.7383C188.736 25.0247 188.781 25.4414 188.781 25.9883C188.781 26.5352 188.736 26.9518 188.645 27.2383C188.566 27.5247 188.443 27.7266 188.273 27.8438C188.104 27.9479 187.863 28 187.551 28H183.176C182.733 28 182.414 27.9089 182.219 27.7266C182.036 27.5312 181.945 27.2122 181.945 26.7695V23.9375C180.227 26.9323 178.078 28.4297 175.5 28.4297C174.315 28.4297 173.273 28.1693 172.375 27.6484C171.49 27.1276 170.806 26.3919 170.324 25.4414C169.842 24.4779 169.602 23.3516 169.602 22.0625V13.957H168.098C167.785 13.957 167.544 13.9049 167.375 13.8008C167.206 13.6836 167.076 13.4818 166.984 13.1953C166.906 12.9089 166.867 12.4922 166.867 11.9453C166.867 11.3984 166.906 10.9818 166.984 10.6953C167.076 10.4089 167.206 10.2135 167.375 10.1094C167.544 10.0052 167.785 9.95312 168.098 9.95312H173.254C173.697 9.95312 174.009 10.0508 174.191 10.2461C174.387 10.4284 174.484 10.7409 174.484 11.1836V20.9102C174.484 21.9258 174.66 22.694 175.012 23.2148C175.363 23.7357 175.949 23.9961 176.77 23.9961C177.525 23.9961 178.241 23.6836 178.918 23.0586C179.595 22.4206 180.135 21.5742 180.539 20.5195C180.956 19.4648 181.164 18.3385 181.164 17.1406V13.957H179.074C178.762 13.957 178.521 13.9049 178.352 13.8008C178.182 13.6836 178.052 13.4818 177.961 13.1953C177.883 12.9089 177.844 12.4922 177.844 11.9453C177.844 11.3984 177.883 10.9818 177.961 10.6953C178.052 10.4089 178.182 10.2135 178.352 10.1094C178.521 10.0052 178.762 9.95312 179.074 9.95312H184.816ZM204.66 9.52344C205.845 9.52344 206.88 9.78385 207.766 10.3047C208.664 10.8255 209.354 11.5677 209.836 12.5312C210.318 13.4818 210.559 14.6016 210.559 15.8906V23.9961H212.062C212.375 23.9961 212.616 24.0547 212.785 24.1719C212.954 24.276 213.078 24.4714 213.156 24.7578C213.247 25.0443 213.293 25.4609 213.293 26.0078C213.293 26.5547 213.247 26.9714 213.156 27.2578C213.078 27.5443 212.954 27.7396 212.785 27.8438C212.616 27.9479 212.375 28 212.062 28H204.758C204.445 28 204.204 27.9479 204.035 27.8438C203.866 27.7396 203.736 27.5443 203.645 27.2578C203.566 26.9714 203.527 26.5547 203.527 26.0078C203.527 25.4609 203.566 25.0443 203.645 24.7578C203.736 24.4714 203.866 24.276 204.035 24.1719C204.204 24.0547 204.445 23.9961 204.758 23.9961H205.676V17.043C205.676 16.0273 205.5 15.2591 205.148 14.7383C204.797 14.2174 204.211 13.957 203.391 13.957C202.635 13.957 201.919 14.276 201.242 14.9141C200.565 15.5391 200.018 16.3789 199.602 17.4336C199.198 18.4883 198.996 19.6146 198.996 20.8125V23.9961H199.914C200.227 23.9961 200.467 24.0547 200.637 24.1719C200.806 24.276 200.93 24.4714 201.008 24.7578C201.099 25.0443 201.145 25.4609 201.145 26.0078C201.145 26.5547 201.099 26.9714 201.008 27.2578C200.93 27.5443 200.806 27.7396 200.637 27.8438C200.467 27.9479 200.227 28 199.914 28H192.609C192.297 28 192.056 27.9479 191.887 27.8438C191.717 27.7396 191.587 27.5443 191.496 27.2578C191.418 26.9714 191.379 26.5547 191.379 26.0078C191.379 25.4609 191.418 25.0443 191.496 24.7578C191.587 24.4714 191.717 24.276 191.887 24.1719C192.056 24.0547 192.297 23.9961 192.609 23.9961H194.113V13.957H192.219C191.906 13.957 191.665 13.9049 191.496 13.8008C191.327 13.6966 191.197 13.5013 191.105 13.2148C191.027 12.9284 190.988 12.5117 190.988 11.9648C190.988 11.418 191.027 11.0013 191.105 10.7148C191.197 10.4284 191.327 10.2331 191.496 10.1289C191.665 10.0117 191.906 9.95312 192.219 9.95312H196.984C197.427 9.95312 197.74 10.0508 197.922 10.2461C198.117 10.4284 198.215 10.7409 198.215 11.1836V14.0156C199.934 11.0208 202.082 9.52344 204.66 9.52344ZM232.512 9.52344C233.319 9.52344 233.872 9.61458 234.172 9.79688C234.471 9.97917 234.621 10.2982 234.621 10.7539V17.0234C234.621 17.4661 234.419 17.7852 234.016 17.9805C233.625 18.1628 232.967 18.2539 232.043 18.2539C231.431 18.2539 230.956 18.2148 230.617 18.1367C230.292 18.0456 230.064 17.9154 229.934 17.7461C229.803 17.5768 229.738 17.3359 229.738 17.0234C229.738 16.4766 229.602 15.9688 229.328 15.5C229.068 15.0312 228.671 14.6602 228.137 14.3867C227.616 14.1003 226.984 13.957 226.242 13.957C225.305 13.957 224.484 14.1654 223.781 14.582C223.078 14.9857 222.531 15.5716 222.141 16.3398C221.763 17.0951 221.574 17.974 221.574 18.9766C221.574 19.9792 221.763 20.8646 222.141 21.6328C222.531 22.388 223.078 22.974 223.781 23.3906C224.484 23.7943 225.305 23.9961 226.242 23.9961C227.245 23.9961 228.267 23.8333 229.309 23.5078C230.363 23.1823 231.385 22.7331 232.375 22.1602C232.609 22.0299 232.824 21.9648 233.02 21.9648C233.605 21.9648 234.12 22.4792 234.562 23.5078C234.797 24.0677 234.914 24.543 234.914 24.9336C234.914 25.5195 234.634 25.9688 234.074 26.2812C232.863 26.9583 231.587 27.4857 230.246 27.8633C228.918 28.2409 227.583 28.4297 226.242 28.4297C224.263 28.4297 222.525 28.026 221.027 27.2188C219.53 26.4115 218.371 25.2917 217.551 23.8594C216.743 22.4271 216.34 20.7995 216.34 18.9766C216.34 17.1536 216.75 15.526 217.57 14.0938C218.391 12.6484 219.504 11.5286 220.91 10.7344C222.329 9.92708 223.911 9.52344 225.656 9.52344C227.766 9.52344 229.257 10.2852 230.129 11.8086V10.7539C230.129 10.3112 230.318 9.9987 230.695 9.81641C231.073 9.62109 231.678 9.52344 232.512 9.52344ZM251.32 9.95312C251.763 9.95312 252.076 10.0508 252.258 10.2461C252.453 10.4284 252.551 10.7409 252.551 11.1836V23.9961H258.039C258.352 23.9961 258.592 24.0547 258.762 24.1719C258.931 24.276 259.055 24.4714 259.133 24.7578C259.224 25.0443 259.27 25.4609 259.27 26.0078C259.27 26.5547 259.224 26.9714 259.133 27.2578C259.055 27.5443 258.931 27.7396 258.762 27.8438C258.592 27.9479 258.352 28 258.039 28H242.336C242.023 28 241.783 27.9479 241.613 27.8438C241.444 27.7396 241.314 27.5443 241.223 27.2578C241.145 26.9714 241.105 26.5547 241.105 26.0078C241.105 25.4609 241.145 25.0443 241.223 24.7578C241.314 24.4714 241.444 24.276 241.613 24.1719C241.783 24.0547 242.023 23.9961 242.336 23.9961H247.668V13.957H243.508C243.195 13.957 242.954 13.9049 242.785 13.8008C242.616 13.6966 242.486 13.5013 242.395 13.2148C242.316 12.9284 242.277 12.5117 242.277 11.9648C242.277 11.418 242.316 11.0013 242.395 10.7148C242.486 10.4284 242.616 10.2331 242.785 10.1289C242.954 10.0117 243.195 9.95312 243.508 9.95312H251.32ZM250.051 1.37891C250.975 1.37891 251.62 1.47656 251.984 1.67188C252.362 1.85417 252.551 2.16667 252.551 2.60938V5.8125C252.551 6.25521 252.375 6.57422 252.023 6.76953C251.685 6.95182 251.06 7.04297 250.148 7.04297C249.237 7.04297 248.592 6.95182 248.215 6.76953C247.85 6.57422 247.668 6.25521 247.668 5.8125V2.60938C247.668 2.15365 247.837 1.83464 248.176 1.65234C248.514 1.47005 249.139 1.37891 250.051 1.37891ZM273.82 9.52344C275.799 9.52344 277.531 9.92708 279.016 10.7344C280.5 11.5417 281.639 12.6615 282.434 14.0938C283.241 15.526 283.645 17.1536 283.645 18.9766C283.645 20.7995 283.241 22.4271 282.434 23.8594C281.639 25.2917 280.5 26.4115 279.016 27.2188C277.531 28.026 275.799 28.4297 273.82 28.4297C271.841 28.4297 270.109 28.026 268.625 27.2188C267.141 26.4115 265.995 25.2917 265.188 23.8594C264.393 22.4271 263.996 20.7995 263.996 18.9766C263.996 17.1536 264.393 15.526 265.188 14.0938C265.995 12.6615 267.141 11.5417 268.625 10.7344C270.109 9.92708 271.841 9.52344 273.82 9.52344ZM273.82 13.957C272.883 13.957 272.069 14.1654 271.379 14.582C270.689 14.9857 270.155 15.5651 269.777 16.3203C269.413 17.0755 269.23 17.9609 269.23 18.9766C269.23 19.9922 269.413 20.8776 269.777 21.6328C270.155 22.388 270.689 22.974 271.379 23.3906C272.069 23.7943 272.883 23.9961 273.82 23.9961C274.758 23.9961 275.572 23.7943 276.262 23.3906C276.952 22.974 277.479 22.388 277.844 21.6328C278.221 20.8776 278.41 19.9922 278.41 18.9766C278.41 17.9609 278.221 17.0755 277.844 16.3203C277.479 15.5651 276.952 14.9857 276.262 14.582C275.572 14.1654 274.758 13.957 273.82 13.957ZM300.598 9.52344C301.783 9.52344 302.818 9.78385 303.703 10.3047C304.602 10.8255 305.292 11.5677 305.773 12.5312C306.255 13.4818 306.496 14.6016 306.496 15.8906V23.9961H308C308.312 23.9961 308.553 24.0547 308.723 24.1719C308.892 24.276 309.016 24.4714 309.094 24.7578C309.185 25.0443 309.23 25.4609 309.23 26.0078C309.23 26.5547 309.185 26.9714 309.094 27.2578C309.016 27.5443 308.892 27.7396 308.723 27.8438C308.553 27.9479 308.312 28 308 28H300.695C300.383 28 300.142 27.9479 299.973 27.8438C299.803 27.7396 299.673 27.5443 299.582 27.2578C299.504 26.9714 299.465 26.5547 299.465 26.0078C299.465 25.4609 299.504 25.0443 299.582 24.7578C299.673 24.4714 299.803 24.276 299.973 24.1719C300.142 24.0547 300.383 23.9961 300.695 23.9961H301.613V17.043C301.613 16.0273 301.438 15.2591 301.086 14.7383C300.734 14.2174 300.148 13.957 299.328 13.957C298.573 13.957 297.857 14.276 297.18 14.9141C296.503 15.5391 295.956 16.3789 295.539 17.4336C295.135 18.4883 294.934 19.6146 294.934 20.8125V23.9961H295.852C296.164 23.9961 296.405 24.0547 296.574 24.1719C296.743 24.276 296.867 24.4714 296.945 24.7578C297.036 25.0443 297.082 25.4609 297.082 26.0078C297.082 26.5547 297.036 26.9714 296.945 27.2578C296.867 27.5443 296.743 27.7396 296.574 27.8438C296.405 27.9479 296.164 28 295.852 28H288.547C288.234 28 287.993 27.9479 287.824 27.8438C287.655 27.7396 287.525 27.5443 287.434 27.2578C287.355 26.9714 287.316 26.5547 287.316 26.0078C287.316 25.4609 287.355 25.0443 287.434 24.7578C287.525 24.4714 287.655 24.276 287.824 24.1719C287.993 24.0547 288.234 23.9961 288.547 23.9961H290.051V13.957H288.156C287.844 13.957 287.603 13.9049 287.434 13.8008C287.264 13.6966 287.134 13.5013 287.043 13.2148C286.965 12.9284 286.926 12.5117 286.926 11.9648C286.926 11.418 286.965 11.0013 287.043 10.7148C287.134 10.4284 287.264 10.2331 287.434 10.1289C287.603 10.0117 287.844 9.95312 288.156 9.95312H292.922C293.365 9.95312 293.677 10.0508 293.859 10.2461C294.055 10.4284 294.152 10.7409 294.152 11.1836V14.0156C295.871 11.0208 298.02 9.52344 300.598 9.52344ZM321.574 9.52344C324.439 9.52344 326.509 10.1419 327.785 11.3789C329.061 12.6159 329.699 14.3867 329.699 16.6914V22.3359C329.699 22.8568 329.81 23.2669 330.031 23.5664C330.253 23.8529 330.572 23.9961 330.988 23.9961H331.594C331.906 23.9961 332.147 24.0547 332.316 24.1719C332.486 24.276 332.609 24.4714 332.688 24.7578C332.779 25.0443 332.824 25.4609 332.824 26.0078C332.824 26.5547 332.779 26.9714 332.688 27.2578C332.609 27.5443 332.486 27.7396 332.316 27.8438C332.147 27.9479 331.906 28 331.594 28H329.406C328.599 28 327.883 27.8372 327.258 27.5117C326.646 27.1732 326.177 26.6458 325.852 25.9297C324.823 26.724 323.736 27.3424 322.59 27.7852C321.444 28.2148 320.266 28.4297 319.055 28.4297C317.583 28.4297 316.314 28.1823 315.246 27.6875C314.178 27.1797 313.358 26.4635 312.785 25.5391C312.225 24.6016 311.945 23.5013 311.945 22.2383C311.945 20.4154 312.59 19.0026 313.879 18C315.168 16.9974 316.971 16.4961 319.289 16.4961C321.021 16.4961 322.863 16.6914 324.816 17.082V16.5156C324.816 15.6432 324.543 14.9987 323.996 14.582C323.449 14.1654 322.486 13.957 321.105 13.957C320.337 13.957 319.478 14.0547 318.527 14.25C317.59 14.4323 316.659 14.6797 315.734 14.9922C315.513 15.0573 315.324 15.0898 315.168 15.0898C314.842 15.0898 314.549 14.9727 314.289 14.7383C314.042 14.4909 313.814 14.0807 313.605 13.5078C313.41 12.9349 313.312 12.4661 313.312 12.1016C313.312 11.4375 313.612 10.9948 314.211 10.7734C315.37 10.3568 316.6 10.0443 317.902 9.83594C319.204 9.6276 320.428 9.52344 321.574 9.52344ZM319.777 20.5195C318.866 20.5195 318.169 20.6823 317.688 21.0078C317.219 21.3333 316.984 21.8086 316.984 22.4336C316.984 23.0456 317.212 23.5143 317.668 23.8398C318.137 24.1523 318.807 24.3086 319.68 24.3086C320.578 24.3086 321.464 24.1328 322.336 23.7812C323.221 23.4167 324.048 22.9219 324.816 22.2969V21.0469C323.098 20.6953 321.418 20.5195 319.777 20.5195Z" fill="black"/>
<path d="M351.574 0.675781C352.447 0.675781 353.176 0.81901 353.762 1.10547C354.361 1.39193 354.66 1.75651 354.66 2.19922C354.66 2.34245 354.634 2.47266 354.582 2.58984L341.574 34.1914C341.34 34.7513 340.806 35.0312 339.973 35.0312C339.1 35.0312 338.365 34.888 337.766 34.6016C337.18 34.3151 336.887 33.9505 336.887 33.5078C336.887 33.3646 336.913 33.2344 336.965 33.1172L349.973 1.51562C350.207 0.955729 350.741 0.675781 351.574 0.675781Z" fill="#D44A4A"/>
</svg>
