<svg width="548" height="38" viewBox="0 0 548 38" fill="none" xmlns="http://www.w3.org/2000/svg">
<path d="M16.4766 6.92578C16.737 6.79557 16.9518 6.73047 17.1211 6.73047C17.3815 6.73047 17.6289 6.84766 17.8633 7.08203C18.0977 7.31641 18.3516 7.70703 18.625 8.25391C18.9635 8.93099 19.1328 9.47135 19.1328 9.875C19.1328 10.3177 18.8984 10.6628 18.4297 10.9102L7.00391 16.6133L18.4297 22.3164C18.8984 22.5638 19.1328 22.9089 19.1328 23.3516C19.1328 23.7552 18.9635 24.2956 18.625 24.9727C18.3516 25.5195 18.0977 25.9102 17.8633 26.1445C17.6289 26.3789 17.3815 26.4961 17.1211 26.4961C16.9518 26.4961 16.737 26.431 16.4766 26.3008L1.24219 18.4492C0.916667 18.2799 0.682292 18.0651 0.539062 17.8047C0.408854 17.5443 0.34375 17.1471 0.34375 16.6133C0.34375 16.0794 0.408854 15.6823 0.539062 15.4219C0.682292 15.1615 0.916667 14.9466 1.24219 14.7773L16.4766 6.92578ZM546.398 14.7773C546.724 14.9466 546.952 15.1615 547.082 15.4219C547.225 15.6823 547.297 16.0794 547.297 16.6133C547.297 17.1471 547.225 17.5443 547.082 17.8047C546.952 18.0651 546.724 18.2799 546.398 18.4492L531.164 26.3008C530.904 26.431 530.689 26.4961 530.52 26.4961C530.259 26.4961 530.012 26.3789 529.777 26.1445C529.543 25.9102 529.289 25.5195 529.016 24.9727C528.677 24.2956 528.508 23.7552 528.508 23.3516C528.508 22.9089 528.742 22.5638 529.211 22.3164L540.637 16.6133L529.211 10.9102C528.742 10.6628 528.508 10.3177 528.508 9.875C528.508 9.47135 528.677 8.93099 529.016 8.25391C529.289 7.70703 529.543 7.31641 529.777 7.08203C530.012 6.84766 530.259 6.73047 530.52 6.73047C530.689 6.73047 530.904 6.79557 531.164 6.92578L546.398 14.7773Z" fill="#D44A4A"/>
<path d="M41.6328 4.38672C42.4401 4.38672 42.9935 4.47786 43.293 4.66016C43.5924 4.84245 43.7422 5.16146 43.7422 5.61719V13.1172C43.7422 13.5599 43.5404 13.8789 43.1367 14.0742C42.7461 14.2565 42.0885 14.3477 41.1641 14.3477C40.5521 14.3477 40.0768 14.3086 39.7383 14.2305C39.4128 14.1393 39.1849 14.0091 39.0547 13.8398C38.9245 13.6706 38.8594 13.4297 38.8594 13.1172C38.8594 11.8151 38.5013 10.7734 37.7852 9.99219C37.082 9.21094 36.0729 8.82031 34.7578 8.82031C32.9479 8.82031 31.5742 9.47135 30.6367 10.7734C29.6992 12.0755 29.2305 13.9505 29.2305 16.3984C29.2305 18.8203 29.7253 20.6953 30.7148 22.0234C31.7174 23.3385 33.1302 23.9961 34.9531 23.9961C36.0859 23.9961 37.1732 23.8464 38.2148 23.5469C39.2565 23.2344 40.3893 22.7656 41.6133 22.1406C41.8216 22.0365 42.0169 21.9844 42.1992 21.9844C42.8112 21.9844 43.319 22.5247 43.7227 23.6055C43.9049 24.1003 43.9961 24.543 43.9961 24.9336C43.9961 25.5977 43.6966 26.0729 43.0977 26.3594C40.3112 27.7396 37.5312 28.4297 34.7578 28.4297C32.6224 28.4297 30.7409 27.9414 29.1133 26.9648C27.4857 25.9883 26.2227 24.5951 25.3242 22.7852C24.4388 20.9622 23.9961 18.8333 23.9961 16.3984C23.9961 13.9766 24.4323 11.8607 25.3047 10.0508C26.1771 8.22786 27.3815 6.82812 28.918 5.85156C30.4674 4.875 32.2188 4.38672 34.1719 4.38672C36.4505 4.38672 38.1432 5.20703 39.25 6.84766V5.61719C39.25 5.17448 39.4388 4.86198 39.8164 4.67969C40.194 4.48438 40.7995 4.38672 41.6328 4.38672ZM57.9609 9.52344C59.9401 9.52344 61.6719 9.92708 63.1562 10.7344C64.6406 11.5417 65.7799 12.6615 66.5742 14.0938C67.3815 15.526 67.7852 17.1536 67.7852 18.9766C67.7852 20.7995 67.3815 22.4271 66.5742 23.8594C65.7799 25.2917 64.6406 26.4115 63.1562 27.2188C61.6719 28.026 59.9401 28.4297 57.9609 28.4297C55.9818 28.4297 54.25 28.026 52.7656 27.2188C51.2812 26.4115 50.1354 25.2917 49.3281 23.8594C48.5339 22.4271 48.1367 20.7995 48.1367 18.9766C48.1367 17.1536 48.5339 15.526 49.3281 14.0938C50.1354 12.6615 51.2812 11.5417 52.7656 10.7344C54.25 9.92708 55.9818 9.52344 57.9609 9.52344ZM57.9609 13.957C57.0234 13.957 56.2096 14.1654 55.5195 14.582C54.8294 14.9857 54.2956 15.5651 53.918 16.3203C53.5534 17.0755 53.3711 17.9609 53.3711 18.9766C53.3711 19.9922 53.5534 20.8776 53.918 21.6328C54.2956 22.388 54.8294 22.974 55.5195 23.3906C56.2096 23.7943 57.0234 23.9961 57.9609 23.9961C58.8984 23.9961 59.7122 23.7943 60.4023 23.3906C61.0924 22.974 61.6198 22.388 61.9844 21.6328C62.362 20.8776 62.5508 19.9922 62.5508 18.9766C62.5508 17.9609 62.362 17.0755 61.9844 16.3203C61.6198 15.5651 61.0924 14.9857 60.4023 14.582C59.7122 14.1654 58.8984 13.957 57.9609 13.957ZM84.7383 9.52344C85.9232 9.52344 86.9583 9.78385 87.8438 10.3047C88.7422 10.8255 89.4323 11.5677 89.9141 12.5312C90.3958 13.4818 90.6367 14.6016 90.6367 15.8906V23.9961H92.1406C92.4531 23.9961 92.694 24.0547 92.8633 24.1719C93.0326 24.276 93.1562 24.4714 93.2344 24.7578C93.3255 25.0443 93.3711 25.4609 93.3711 26.0078C93.3711 26.5547 93.3255 26.9714 93.2344 27.2578C93.1562 27.5443 93.0326 27.7396 92.8633 27.8438C92.694 27.9479 92.4531 28 92.1406 28H84.8359C84.5234 28 84.2826 27.9479 84.1133 27.8438C83.944 27.7396 83.8138 27.5443 83.7227 27.2578C83.6445 26.9714 83.6055 26.5547 83.6055 26.0078C83.6055 25.4609 83.6445 25.0443 83.7227 24.7578C83.8138 24.4714 83.944 24.276 84.1133 24.1719C84.2826 24.0547 84.5234 23.9961 84.8359 23.9961H85.7539V17.043C85.7539 16.0273 85.5781 15.2591 85.2266 14.7383C84.875 14.2174 84.2891 13.957 83.4688 13.957C82.7135 13.957 81.9974 14.276 81.3203 14.9141C80.6432 15.5391 80.0964 16.3789 79.6797 17.4336C79.276 18.4883 79.0742 19.6146 79.0742 20.8125V23.9961H79.9922C80.3047 23.9961 80.5456 24.0547 80.7148 24.1719C80.8841 24.276 81.0078 24.4714 81.0859 24.7578C81.1771 25.0443 81.2227 25.4609 81.2227 26.0078C81.2227 26.5547 81.1771 26.9714 81.0859 27.2578C81.0078 27.5443 80.8841 27.7396 80.7148 27.8438C80.5456 27.9479 80.3047 28 79.9922 28H72.6875C72.375 28 72.1341 27.9479 71.9648 27.8438C71.7956 27.7396 71.6654 27.5443 71.5742 27.2578C71.4961 26.9714 71.457 26.5547 71.457 26.0078C71.457 25.4609 71.4961 25.0443 71.5742 24.7578C71.6654 24.4714 71.7956 24.276 71.9648 24.1719C72.1341 24.0547 72.375 23.9961 72.6875 23.9961H74.1914V13.957H72.2969C71.9844 13.957 71.7435 13.9049 71.5742 13.8008C71.4049 13.6966 71.2747 13.5013 71.1836 13.2148C71.1055 12.9284 71.0664 12.5117 71.0664 11.9648C71.0664 11.418 71.1055 11.0013 71.1836 10.7148C71.2747 10.4284 71.4049 10.2331 71.5742 10.1289C71.7435 10.0117 71.9844 9.95312 72.2969 9.95312H77.0625C77.5052 9.95312 77.8177 10.0508 78 10.2461C78.1953 10.4284 78.293 10.7409 78.293 11.1836V14.0156C80.0117 11.0208 82.1602 9.52344 84.7383 9.52344ZM101.633 2.375C102.076 2.375 102.388 2.47266 102.57 2.66797C102.766 2.85026 102.863 3.16276 102.863 3.60547V13.0977C104.426 10.7148 106.314 9.52344 108.527 9.52344C109.712 9.52344 110.747 9.78385 111.633 10.3047C112.531 10.8255 113.221 11.5677 113.703 12.5312C114.185 13.4818 114.426 14.6016 114.426 15.8906V23.9961H115.93C116.242 23.9961 116.483 24.0547 116.652 24.1719C116.822 24.276 116.945 24.4714 117.023 24.7578C117.115 25.0443 117.16 25.4609 117.16 26.0078C117.16 26.5547 117.115 26.9714 117.023 27.2578C116.945 27.5443 116.822 27.7396 116.652 27.8438C116.483 27.9479 116.242 28 115.93 28H108.625C108.312 28 108.072 27.9479 107.902 27.8438C107.733 27.7396 107.603 27.5443 107.512 27.2578C107.434 26.9714 107.395 26.5547 107.395 26.0078C107.395 25.4609 107.434 25.0443 107.512 24.7578C107.603 24.4714 107.733 24.276 107.902 24.1719C108.072 24.0547 108.312 23.9961 108.625 23.9961H109.543V17.043C109.543 16.0273 109.367 15.2591 109.016 14.7383C108.664 14.2174 108.078 13.957 107.258 13.957C106.503 13.957 105.786 14.276 105.109 14.9141C104.432 15.5391 103.885 16.3789 103.469 17.4336C103.065 18.4883 102.863 19.6146 102.863 20.8125V23.9961H103.781C104.094 23.9961 104.335 24.0547 104.504 24.1719C104.673 24.276 104.797 24.4714 104.875 24.7578C104.966 25.0443 105.012 25.4609 105.012 26.0078C105.012 26.5547 104.966 26.9714 104.875 27.2578C104.797 27.5443 104.673 27.7396 104.504 27.8438C104.335 27.9479 104.094 28 103.781 28H96.4766C96.1641 28 95.9232 27.9479 95.7539 27.8438C95.5846 27.7396 95.4544 27.5443 95.3633 27.2578C95.2852 26.9714 95.2461 26.5547 95.2461 26.0078C95.2461 25.4609 95.2852 25.0443 95.3633 24.7578C95.4544 24.4714 95.5846 24.276 95.7539 24.1719C95.9232 24.0547 96.1641 23.9961 96.4766 23.9961H97.9805V6.37891H96.0859C95.7734 6.37891 95.5326 6.32682 95.3633 6.22266C95.194 6.11849 95.0638 5.92318 94.9727 5.63672C94.8945 5.35026 94.8555 4.93359 94.8555 4.38672C94.8555 3.83984 94.8945 3.42318 94.9727 3.13672C95.0638 2.85026 95.194 2.65495 95.3633 2.55078C95.5326 2.43359 95.7734 2.375 96.0859 2.375H101.633ZM130.188 9.52344C132.167 9.52344 133.853 9.95312 135.246 10.8125C136.639 11.6589 137.688 12.8438 138.391 14.3672C139.107 15.8776 139.465 17.6094 139.465 19.5625C139.465 20.0052 139.367 20.3177 139.172 20.5C138.99 20.6823 138.677 20.7734 138.234 20.7734H125.695C125.943 21.8151 126.47 22.6159 127.277 23.1758C128.098 23.7227 129.133 23.9961 130.383 23.9961C132.401 23.9961 134.589 23.638 136.945 22.9219C137.102 22.8698 137.258 22.8438 137.414 22.8438C137.701 22.8438 137.948 22.974 138.156 23.2344C138.365 23.4948 138.553 23.9375 138.723 24.5625C138.853 25.0443 138.918 25.4544 138.918 25.793C138.918 26.1315 138.84 26.3984 138.684 26.5938C138.54 26.776 138.299 26.9258 137.961 27.043C136.659 27.4727 135.331 27.8112 133.977 28.0586C132.622 28.306 131.294 28.4297 129.992 28.4297C128.013 28.4297 126.307 28.026 124.875 27.2188C123.443 26.4115 122.349 25.2982 121.594 23.8789C120.852 22.4466 120.48 20.8125 120.48 18.9766C120.48 17.1536 120.871 15.526 121.652 14.0938C122.434 12.6615 123.56 11.5417 125.031 10.7344C126.503 9.92708 128.221 9.52344 130.188 9.52344ZM130.188 13.957C127.805 13.957 126.333 14.9596 125.773 16.9648H134.367C134.146 16.0143 133.671 15.2786 132.941 14.7578C132.225 14.224 131.307 13.957 130.188 13.957ZM162.609 23.5078C162.844 24.0677 162.961 24.543 162.961 24.9336C162.961 25.5195 162.681 25.9688 162.121 26.2812C161.092 26.8542 160.012 27.3229 158.879 27.6875C157.746 28.0521 156.607 28.2799 155.461 28.3711V29.6211C156.854 29.6211 157.902 29.9596 158.605 30.6367C159.322 31.3268 159.68 32.2253 159.68 33.332C159.68 34.582 159.211 35.5391 158.273 36.2031C157.349 36.8802 156.001 37.2188 154.23 37.2188C152.316 37.2188 150.65 36.9453 149.23 36.3984C148.918 36.2682 148.762 36.0143 148.762 35.6367C148.762 35.3893 148.827 35.0964 148.957 34.7578C149.27 33.9245 149.621 33.5078 150.012 33.5078C150.064 33.5078 150.142 33.5208 150.246 33.5469C151.314 33.9245 152.362 34.1133 153.391 34.1133C154.029 34.1133 154.497 34.0286 154.797 33.8594C155.109 33.7031 155.266 33.4557 155.266 33.1172C155.266 32.7786 155.109 32.5378 154.797 32.3945C154.484 32.2643 154.048 32.1992 153.488 32.1992L153.039 32.2188C152.935 32.2318 152.779 32.2383 152.57 32.2383C152.089 32.2383 151.848 31.9714 151.848 31.4375V28.1953C150.324 27.8828 149.003 27.2969 147.883 26.4375C146.763 25.5781 145.897 24.5104 145.285 23.2344C144.686 21.9453 144.387 20.526 144.387 18.9766C144.387 17.1536 144.797 15.526 145.617 14.0938C146.438 12.6484 147.551 11.5286 148.957 10.7344C150.376 9.92708 151.958 9.52344 153.703 9.52344C155.812 9.52344 157.303 10.2852 158.176 11.8086V10.7539C158.176 10.3112 158.365 9.9987 158.742 9.81641C159.12 9.62109 159.725 9.52344 160.559 9.52344C161.366 9.52344 161.919 9.61458 162.219 9.79688C162.518 9.97917 162.668 10.2982 162.668 10.7539V17.0234C162.668 17.4661 162.466 17.7852 162.062 17.9805C161.672 18.1628 161.014 18.2539 160.09 18.2539C159.478 18.2539 159.003 18.2148 158.664 18.1367C158.339 18.0456 158.111 17.9154 157.98 17.7461C157.85 17.5768 157.785 17.3359 157.785 17.0234C157.785 16.4766 157.648 15.9688 157.375 15.5C157.115 15.0312 156.717 14.6602 156.184 14.3867C155.663 14.1003 155.031 13.957 154.289 13.957C153.352 13.957 152.531 14.1654 151.828 14.582C151.125 14.9857 150.578 15.5716 150.188 16.3398C149.81 17.0951 149.621 17.974 149.621 18.9766C149.621 19.9792 149.81 20.8646 150.188 21.6328C150.578 22.388 151.125 22.974 151.828 23.3906C152.531 23.7943 153.352 23.9961 154.289 23.9961C155.292 23.9961 156.314 23.8333 157.355 23.5078C158.41 23.1823 159.432 22.7331 160.422 22.1602C160.656 22.0299 160.871 21.9648 161.066 21.9648C161.652 21.9648 162.167 22.4792 162.609 23.5078ZM177.668 9.52344C180.533 9.52344 182.603 10.1419 183.879 11.3789C185.155 12.6159 185.793 14.3867 185.793 16.6914V22.3359C185.793 22.8568 185.904 23.2669 186.125 23.5664C186.346 23.8529 186.665 23.9961 187.082 23.9961H187.688C188 23.9961 188.241 24.0547 188.41 24.1719C188.579 24.276 188.703 24.4714 188.781 24.7578C188.872 25.0443 188.918 25.4609 188.918 26.0078C188.918 26.5547 188.872 26.9714 188.781 27.2578C188.703 27.5443 188.579 27.7396 188.41 27.8438C188.241 27.9479 188 28 187.688 28H185.5C184.693 28 183.977 27.8372 183.352 27.5117C182.74 27.1732 182.271 26.6458 181.945 25.9297C180.917 26.724 179.829 27.3424 178.684 27.7852C177.538 28.2148 176.359 28.4297 175.148 28.4297C173.677 28.4297 172.408 28.1823 171.34 27.6875C170.272 27.1797 169.452 26.4635 168.879 25.5391C168.319 24.6016 168.039 23.5013 168.039 22.2383C168.039 20.4154 168.684 19.0026 169.973 18C171.262 16.9974 173.065 16.4961 175.383 16.4961C177.115 16.4961 178.957 16.6914 180.91 17.082V16.5156C180.91 15.6432 180.637 14.9987 180.09 14.582C179.543 14.1654 178.579 13.957 177.199 13.957C176.431 13.957 175.572 14.0547 174.621 14.25C173.684 14.4323 172.753 14.6797 171.828 14.9922C171.607 15.0573 171.418 15.0898 171.262 15.0898C170.936 15.0898 170.643 14.9727 170.383 14.7383C170.135 14.4909 169.908 14.0807 169.699 13.5078C169.504 12.9349 169.406 12.4661 169.406 12.1016C169.406 11.4375 169.706 10.9948 170.305 10.7734C171.464 10.3568 172.694 10.0443 173.996 9.83594C175.298 9.6276 176.522 9.52344 177.668 9.52344ZM175.871 20.5195C174.96 20.5195 174.263 20.6823 173.781 21.0078C173.312 21.3333 173.078 21.8086 173.078 22.4336C173.078 23.0456 173.306 23.5143 173.762 23.8398C174.23 24.1523 174.901 24.3086 175.773 24.3086C176.672 24.3086 177.557 24.1328 178.43 23.7812C179.315 23.4167 180.142 22.9219 180.91 22.2969V21.0469C179.191 20.6953 177.512 20.5195 175.871 20.5195ZM228.645 9.52344C229.829 9.52344 230.865 9.78385 231.75 10.3047C232.648 10.8255 233.339 11.5677 233.82 12.5312C234.302 13.4818 234.543 14.6016 234.543 15.8906V23.9961H236.047C236.359 23.9961 236.6 24.0547 236.77 24.1719C236.939 24.276 237.062 24.4714 237.141 24.7578C237.232 25.0443 237.277 25.4609 237.277 26.0078C237.277 26.5547 237.232 26.9714 237.141 27.2578C237.062 27.5443 236.939 27.7396 236.77 27.8438C236.6 27.9479 236.359 28 236.047 28H228.742C228.43 28 228.189 27.9479 228.02 27.8438C227.85 27.7396 227.72 27.5443 227.629 27.2578C227.551 26.9714 227.512 26.5547 227.512 26.0078C227.512 25.4609 227.551 25.0443 227.629 24.7578C227.72 24.4714 227.85 24.276 228.02 24.1719C228.189 24.0547 228.43 23.9961 228.742 23.9961H229.66V17.043C229.66 16.0273 229.484 15.2591 229.133 14.7383C228.781 14.2174 228.195 13.957 227.375 13.957C226.62 13.957 225.904 14.276 225.227 14.9141C224.549 15.5391 224.003 16.3789 223.586 17.4336C223.182 18.4883 222.98 19.6146 222.98 20.8125V23.9961H223.898C224.211 23.9961 224.452 24.0547 224.621 24.1719C224.79 24.276 224.914 24.4714 224.992 24.7578C225.083 25.0443 225.129 25.4609 225.129 26.0078C225.129 26.5547 225.083 26.9714 224.992 27.2578C224.914 27.5443 224.79 27.7396 224.621 27.8438C224.452 27.9479 224.211 28 223.898 28H216.594C216.281 28 216.04 27.9479 215.871 27.8438C215.702 27.7396 215.572 27.5443 215.48 27.2578C215.402 26.9714 215.363 26.5547 215.363 26.0078C215.363 25.4609 215.402 25.0443 215.48 24.7578C215.572 24.4714 215.702 24.276 215.871 24.1719C216.04 24.0547 216.281 23.9961 216.594 23.9961H218.098V13.957H216.203C215.891 13.957 215.65 13.9049 215.48 13.8008C215.311 13.6966 215.181 13.5013 215.09 13.2148C215.012 12.9284 214.973 12.5117 214.973 11.9648C214.973 11.418 215.012 11.0013 215.09 10.7148C215.181 10.4284 215.311 10.2331 215.48 10.1289C215.65 10.0117 215.891 9.95312 216.203 9.95312H220.969C221.411 9.95312 221.724 10.0508 221.906 10.2461C222.102 10.4284 222.199 10.7409 222.199 11.1836V14.0156C223.918 11.0208 226.066 9.52344 228.645 9.52344ZM249.836 9.52344C251.815 9.52344 253.547 9.92708 255.031 10.7344C256.516 11.5417 257.655 12.6615 258.449 14.0938C259.257 15.526 259.66 17.1536 259.66 18.9766C259.66 20.7995 259.257 22.4271 258.449 23.8594C257.655 25.2917 256.516 26.4115 255.031 27.2188C253.547 28.026 251.815 28.4297 249.836 28.4297C247.857 28.4297 246.125 28.026 244.641 27.2188C243.156 26.4115 242.01 25.2917 241.203 23.8594C240.409 22.4271 240.012 20.7995 240.012 18.9766C240.012 17.1536 240.409 15.526 241.203 14.0938C242.01 12.6615 243.156 11.5417 244.641 10.7344C246.125 9.92708 247.857 9.52344 249.836 9.52344ZM249.836 13.957C248.898 13.957 248.085 14.1654 247.395 14.582C246.704 14.9857 246.171 15.5651 245.793 16.3203C245.428 17.0755 245.246 17.9609 245.246 18.9766C245.246 19.9922 245.428 20.8776 245.793 21.6328C246.171 22.388 246.704 22.974 247.395 23.3906C248.085 23.7943 248.898 23.9961 249.836 23.9961C250.773 23.9961 251.587 23.7943 252.277 23.3906C252.967 22.974 253.495 22.388 253.859 21.6328C254.237 20.8776 254.426 19.9922 254.426 18.9766C254.426 17.9609 254.237 17.0755 253.859 16.3203C253.495 15.5651 252.967 14.9857 252.277 14.582C251.587 14.1654 250.773 13.957 249.836 13.957ZM279.523 9.52344C280.357 9.52344 280.949 9.62109 281.301 9.81641C281.652 9.9987 281.828 10.3112 281.828 10.7539V14.875C281.828 15.3177 281.685 15.6367 281.398 15.832C281.125 16.0143 280.669 16.1055 280.031 16.1055C279.341 16.1055 278.866 15.9688 278.605 15.6953C277.837 14.875 276.958 14.2956 275.969 13.957C274.979 13.6055 273.833 13.4297 272.531 13.4297C271.763 13.4297 271.158 13.5664 270.715 13.8398C270.285 14.1133 270.07 14.4779 270.07 14.9336C270.07 15.4805 270.552 15.8711 271.516 16.1055C272.023 16.2357 272.889 16.3594 274.113 16.4766C275.324 16.6198 276.327 16.763 277.121 16.9062C277.928 17.0495 278.69 17.2643 279.406 17.5508C280.448 17.9805 281.262 18.5794 281.848 19.3477C282.434 20.1159 282.727 21.1315 282.727 22.3945C282.727 23.6315 282.421 24.7057 281.809 25.6172C281.21 26.5156 280.324 27.2122 279.152 27.707C277.993 28.1888 276.594 28.4297 274.953 28.4297C273.143 28.4297 271.464 27.9674 269.914 27.043V27.1992C269.914 27.6419 269.725 27.9544 269.348 28.1367C268.97 28.332 268.365 28.4297 267.531 28.4297C266.698 28.4297 266.105 28.332 265.754 28.1367C265.402 27.9544 265.227 27.6419 265.227 27.1992V22.8438C265.227 22.4141 265.376 22.1016 265.676 21.9062C265.988 21.7109 266.464 21.6133 267.102 21.6133C267.896 21.6133 268.436 21.7956 268.723 22.1602C269.374 22.9805 270.207 23.5794 271.223 23.957C272.238 24.3346 273.352 24.5234 274.562 24.5234C276.646 24.5234 277.688 23.9831 277.688 22.9023C277.688 22.5768 277.538 22.3164 277.238 22.1211C276.952 21.9258 276.522 21.763 275.949 21.6328C275.624 21.5677 274.868 21.4505 273.684 21.2812C272.368 21.125 271.236 20.9492 270.285 20.7539C269.348 20.5456 268.495 20.2266 267.727 19.7969C265.93 18.8073 265.031 17.2448 265.031 15.1094C265.031 13.9766 265.337 12.987 265.949 12.1406C266.561 11.2943 267.401 10.6497 268.469 10.207C269.549 9.7513 270.76 9.52344 272.102 9.52344C274.068 9.52344 275.812 9.9987 277.336 10.9492V10.7539C277.336 10.3112 277.492 9.9987 277.805 9.81641C278.13 9.62109 278.703 9.52344 279.523 9.52344ZM303.508 9.52344C304.341 9.52344 304.934 9.62109 305.285 9.81641C305.637 9.9987 305.812 10.3112 305.812 10.7539V14.875C305.812 15.3177 305.669 15.6367 305.383 15.832C305.109 16.0143 304.654 16.1055 304.016 16.1055C303.326 16.1055 302.85 15.9688 302.59 15.6953C301.822 14.875 300.943 14.2956 299.953 13.957C298.964 13.6055 297.818 13.4297 296.516 13.4297C295.747 13.4297 295.142 13.5664 294.699 13.8398C294.27 14.1133 294.055 14.4779 294.055 14.9336C294.055 15.4805 294.536 15.8711 295.5 16.1055C296.008 16.2357 296.874 16.3594 298.098 16.4766C299.309 16.6198 300.311 16.763 301.105 16.9062C301.913 17.0495 302.674 17.2643 303.391 17.5508C304.432 17.9805 305.246 18.5794 305.832 19.3477C306.418 20.1159 306.711 21.1315 306.711 22.3945C306.711 23.6315 306.405 24.7057 305.793 25.6172C305.194 26.5156 304.309 27.2122 303.137 27.707C301.978 28.1888 300.578 28.4297 298.938 28.4297C297.128 28.4297 295.448 27.9674 293.898 27.043V27.1992C293.898 27.6419 293.71 27.9544 293.332 28.1367C292.954 28.332 292.349 28.4297 291.516 28.4297C290.682 28.4297 290.09 28.332 289.738 28.1367C289.387 27.9544 289.211 27.6419 289.211 27.1992V22.8438C289.211 22.4141 289.361 22.1016 289.66 21.9062C289.973 21.7109 290.448 21.6133 291.086 21.6133C291.88 21.6133 292.421 21.7956 292.707 22.1602C293.358 22.9805 294.191 23.5794 295.207 23.957C296.223 24.3346 297.336 24.5234 298.547 24.5234C300.63 24.5234 301.672 23.9831 301.672 22.9023C301.672 22.5768 301.522 22.3164 301.223 22.1211C300.936 21.9258 300.507 21.763 299.934 21.6328C299.608 21.5677 298.853 21.4505 297.668 21.2812C296.353 21.125 295.22 20.9492 294.27 20.7539C293.332 20.5456 292.479 20.2266 291.711 19.7969C289.914 18.8073 289.016 17.2448 289.016 15.1094C289.016 13.9766 289.322 12.987 289.934 12.1406C290.546 11.2943 291.385 10.6497 292.453 10.207C293.534 9.7513 294.745 9.52344 296.086 9.52344C298.052 9.52344 299.797 9.9987 301.32 10.9492V10.7539C301.32 10.3112 301.477 9.9987 301.789 9.81641C302.115 9.62109 302.688 9.52344 303.508 9.52344ZM321.789 9.52344C323.768 9.52344 325.5 9.92708 326.984 10.7344C328.469 11.5417 329.608 12.6615 330.402 14.0938C331.21 15.526 331.613 17.1536 331.613 18.9766C331.613 20.7995 331.21 22.4271 330.402 23.8594C329.608 25.2917 328.469 26.4115 326.984 27.2188C325.5 28.026 323.768 28.4297 321.789 28.4297C319.81 28.4297 318.078 28.026 316.594 27.2188C315.109 26.4115 313.964 25.2917 313.156 23.8594C312.362 22.4271 311.965 20.7995 311.965 18.9766C311.965 17.1536 312.362 15.526 313.156 14.0938C313.964 12.6615 315.109 11.5417 316.594 10.7344C318.078 9.92708 319.81 9.52344 321.789 9.52344ZM321.789 13.957C320.852 13.957 320.038 14.1654 319.348 14.582C318.658 14.9857 318.124 15.5651 317.746 16.3203C317.382 17.0755 317.199 17.9609 317.199 18.9766C317.199 19.9922 317.382 20.8776 317.746 21.6328C318.124 22.388 318.658 22.974 319.348 23.3906C320.038 23.7943 320.852 23.9961 321.789 23.9961C322.727 23.9961 323.54 23.7943 324.23 23.3906C324.921 22.974 325.448 22.388 325.812 21.6328C326.19 20.8776 326.379 19.9922 326.379 18.9766C326.379 17.9609 326.19 17.0755 325.812 16.3203C325.448 15.5651 324.921 14.9857 324.23 14.582C323.54 14.1654 322.727 13.957 321.789 13.957ZM351.477 9.52344C352.31 9.52344 352.902 9.62109 353.254 9.81641C353.605 9.9987 353.781 10.3112 353.781 10.7539V14.875C353.781 15.3177 353.638 15.6367 353.352 15.832C353.078 16.0143 352.622 16.1055 351.984 16.1055C351.294 16.1055 350.819 15.9688 350.559 15.6953C349.79 14.875 348.911 14.2956 347.922 13.957C346.932 13.6055 345.786 13.4297 344.484 13.4297C343.716 13.4297 343.111 13.5664 342.668 13.8398C342.238 14.1133 342.023 14.4779 342.023 14.9336C342.023 15.4805 342.505 15.8711 343.469 16.1055C343.977 16.2357 344.842 16.3594 346.066 16.4766C347.277 16.6198 348.28 16.763 349.074 16.9062C349.882 17.0495 350.643 17.2643 351.359 17.5508C352.401 17.9805 353.215 18.5794 353.801 19.3477C354.387 20.1159 354.68 21.1315 354.68 22.3945C354.68 23.6315 354.374 24.7057 353.762 25.6172C353.163 26.5156 352.277 27.2122 351.105 27.707C349.947 28.1888 348.547 28.4297 346.906 28.4297C345.096 28.4297 343.417 27.9674 341.867 27.043V27.1992C341.867 27.6419 341.678 27.9544 341.301 28.1367C340.923 28.332 340.318 28.4297 339.484 28.4297C338.651 28.4297 338.059 28.332 337.707 28.1367C337.355 27.9544 337.18 27.6419 337.18 27.1992V22.8438C337.18 22.4141 337.329 22.1016 337.629 21.9062C337.941 21.7109 338.417 21.6133 339.055 21.6133C339.849 21.6133 340.389 21.7956 340.676 22.1602C341.327 22.9805 342.16 23.5794 343.176 23.957C344.191 24.3346 345.305 24.5234 346.516 24.5234C348.599 24.5234 349.641 23.9831 349.641 22.9023C349.641 22.5768 349.491 22.3164 349.191 22.1211C348.905 21.9258 348.475 21.763 347.902 21.6328C347.577 21.5677 346.822 21.4505 345.637 21.2812C344.322 21.125 343.189 20.9492 342.238 20.7539C341.301 20.5456 340.448 20.2266 339.68 19.7969C337.883 18.8073 336.984 17.2448 336.984 15.1094C336.984 13.9766 337.29 12.987 337.902 12.1406C338.514 11.2943 339.354 10.6497 340.422 10.207C341.503 9.7513 342.714 9.52344 344.055 9.52344C346.021 9.52344 347.766 9.9987 349.289 10.9492V10.7539C349.289 10.3112 349.445 9.9987 349.758 9.81641C350.083 9.62109 350.656 9.52344 351.477 9.52344ZM392.062 9.52344C393.299 9.52344 394.426 9.78385 395.441 10.3047C396.457 10.8255 397.303 11.5742 397.98 12.5508V11.1836C397.98 10.7409 398.072 10.4284 398.254 10.2461C398.449 10.0508 398.768 9.95312 399.211 9.95312H403.781C404.094 9.95312 404.335 10.0117 404.504 10.1289C404.673 10.2331 404.797 10.4284 404.875 10.7148C404.966 11.0013 405.012 11.418 405.012 11.9648C405.012 12.5117 404.966 12.9284 404.875 13.2148C404.797 13.5013 404.673 13.6966 404.504 13.8008C404.335 13.9049 404.094 13.957 403.781 13.957H402.082V27.9805C402.082 30.5326 401.314 32.5052 399.777 33.8984C398.254 35.3047 395.969 36.0078 392.922 36.0078C391.802 36.0078 390.578 35.8971 389.25 35.6758C387.922 35.4674 386.652 35.1745 385.441 34.7969C384.816 34.6016 384.504 34.1523 384.504 33.4492C384.504 33.1367 384.589 32.681 384.758 32.082C384.953 31.4701 385.168 31.0273 385.402 30.7539C385.65 30.4805 385.936 30.3438 386.262 30.3438C386.431 30.3438 386.587 30.3698 386.73 30.4219C389.217 31.1901 391.216 31.5742 392.727 31.5742C394.302 31.5742 395.441 31.2422 396.145 30.5781C396.848 29.9271 397.199 28.931 397.199 27.5898V25.5977C396.535 26.3138 395.767 26.8672 394.895 27.2578C394.022 27.6484 393.078 27.8438 392.062 27.8438C390.383 27.8438 388.905 27.4531 387.629 26.6719C386.353 25.8776 385.37 24.7904 384.68 23.4102C383.99 22.0169 383.645 20.4414 383.645 18.6836C383.645 16.9258 383.99 15.3568 384.68 13.9766C385.37 12.5833 386.353 11.4961 387.629 10.7148C388.905 9.92057 390.383 9.52344 392.062 9.52344ZM392.844 13.957C391.633 13.957 390.669 14.3737 389.953 15.207C389.237 16.0273 388.879 17.1862 388.879 18.6836C388.879 20.181 389.237 21.3464 389.953 22.1797C390.669 23 391.633 23.4102 392.844 23.4102C393.677 23.4102 394.432 23.2344 395.109 22.8828C395.799 22.5182 396.34 21.9844 396.73 21.2812C397.134 20.5651 397.336 19.6992 397.336 18.6836C397.336 17.668 397.134 16.8086 396.73 16.1055C396.34 15.3893 395.799 14.8555 395.109 14.5039C394.432 14.1393 393.677 13.957 392.844 13.957ZM424.66 9.95312C425.103 9.95312 425.415 10.0508 425.598 10.2461C425.793 10.4284 425.891 10.7409 425.891 11.1836V23.9961H427.395C427.707 23.9961 427.948 24.0482 428.117 24.1523C428.286 24.2565 428.41 24.4518 428.488 24.7383C428.579 25.0247 428.625 25.4414 428.625 25.9883C428.625 26.5352 428.579 26.9518 428.488 27.2383C428.41 27.5247 428.286 27.7266 428.117 27.8438C427.948 27.9479 427.707 28 427.395 28H423.02C422.577 28 422.258 27.9089 422.062 27.7266C421.88 27.5312 421.789 27.2122 421.789 26.7695V23.9375C420.07 26.9323 417.922 28.4297 415.344 28.4297C414.159 28.4297 413.117 28.1693 412.219 27.6484C411.333 27.1276 410.65 26.3919 410.168 25.4414C409.686 24.4779 409.445 23.3516 409.445 22.0625V13.957H407.941C407.629 13.957 407.388 13.9049 407.219 13.8008C407.049 13.6836 406.919 13.4818 406.828 13.1953C406.75 12.9089 406.711 12.4922 406.711 11.9453C406.711 11.3984 406.75 10.9818 406.828 10.6953C406.919 10.4089 407.049 10.2135 407.219 10.1094C407.388 10.0052 407.629 9.95312 407.941 9.95312H413.098C413.54 9.95312 413.853 10.0508 414.035 10.2461C414.23 10.4284 414.328 10.7409 414.328 11.1836V20.9102C414.328 21.9258 414.504 22.694 414.855 23.2148C415.207 23.7357 415.793 23.9961 416.613 23.9961C417.368 23.9961 418.085 23.6836 418.762 23.0586C419.439 22.4206 419.979 21.5742 420.383 20.5195C420.799 19.4648 421.008 18.3385 421.008 17.1406V13.957H418.918C418.605 13.957 418.365 13.9049 418.195 13.8008C418.026 13.6836 417.896 13.4818 417.805 13.1953C417.727 12.9089 417.688 12.4922 417.688 11.9453C417.688 11.3984 417.727 10.9818 417.805 10.6953C417.896 10.4089 418.026 10.2135 418.195 10.1094C418.365 10.0052 418.605 9.95312 418.918 9.95312H424.66ZM443.195 9.95312C443.638 9.95312 443.951 10.0508 444.133 10.2461C444.328 10.4284 444.426 10.7409 444.426 11.1836V23.9961H449.914C450.227 23.9961 450.467 24.0547 450.637 24.1719C450.806 24.276 450.93 24.4714 451.008 24.7578C451.099 25.0443 451.145 25.4609 451.145 26.0078C451.145 26.5547 451.099 26.9714 451.008 27.2578C450.93 27.5443 450.806 27.7396 450.637 27.8438C450.467 27.9479 450.227 28 449.914 28H434.211C433.898 28 433.658 27.9479 433.488 27.8438C433.319 27.7396 433.189 27.5443 433.098 27.2578C433.02 26.9714 432.98 26.5547 432.98 26.0078C432.98 25.4609 433.02 25.0443 433.098 24.7578C433.189 24.4714 433.319 24.276 433.488 24.1719C433.658 24.0547 433.898 23.9961 434.211 23.9961H439.543V13.957H435.383C435.07 13.957 434.829 13.9049 434.66 13.8008C434.491 13.6966 434.361 13.5013 434.27 13.2148C434.191 12.9284 434.152 12.5117 434.152 11.9648C434.152 11.418 434.191 11.0013 434.27 10.7148C434.361 10.4284 434.491 10.2331 434.66 10.1289C434.829 10.0117 435.07 9.95312 435.383 9.95312H443.195ZM441.926 1.37891C442.85 1.37891 443.495 1.47656 443.859 1.67188C444.237 1.85417 444.426 2.16667 444.426 2.60938V5.8125C444.426 6.25521 444.25 6.57422 443.898 6.76953C443.56 6.95182 442.935 7.04297 442.023 7.04297C441.112 7.04297 440.467 6.95182 440.09 6.76953C439.725 6.57422 439.543 6.25521 439.543 5.8125V2.60938C439.543 2.15365 439.712 1.83464 440.051 1.65234C440.389 1.47005 441.014 1.37891 441.926 1.37891ZM465.48 9.52344C468.345 9.52344 470.415 10.1419 471.691 11.3789C472.967 12.6159 473.605 14.3867 473.605 16.6914V22.3359C473.605 22.8568 473.716 23.2669 473.938 23.5664C474.159 23.8529 474.478 23.9961 474.895 23.9961H475.5C475.812 23.9961 476.053 24.0547 476.223 24.1719C476.392 24.276 476.516 24.4714 476.594 24.7578C476.685 25.0443 476.73 25.4609 476.73 26.0078C476.73 26.5547 476.685 26.9714 476.594 27.2578C476.516 27.5443 476.392 27.7396 476.223 27.8438C476.053 27.9479 475.812 28 475.5 28H473.312C472.505 28 471.789 27.8372 471.164 27.5117C470.552 27.1732 470.083 26.6458 469.758 25.9297C468.729 26.724 467.642 27.3424 466.496 27.7852C465.35 28.2148 464.172 28.4297 462.961 28.4297C461.49 28.4297 460.22 28.1823 459.152 27.6875C458.085 27.1797 457.264 26.4635 456.691 25.5391C456.132 24.6016 455.852 23.5013 455.852 22.2383C455.852 20.4154 456.496 19.0026 457.785 18C459.074 16.9974 460.878 16.4961 463.195 16.4961C464.927 16.4961 466.77 16.6914 468.723 17.082V16.5156C468.723 15.6432 468.449 14.9987 467.902 14.582C467.355 14.1654 466.392 13.957 465.012 13.957C464.243 13.957 463.384 14.0547 462.434 14.25C461.496 14.4323 460.565 14.6797 459.641 14.9922C459.419 15.0573 459.23 15.0898 459.074 15.0898C458.749 15.0898 458.456 14.9727 458.195 14.7383C457.948 14.4909 457.72 14.0807 457.512 13.5078C457.316 12.9349 457.219 12.4661 457.219 12.1016C457.219 11.4375 457.518 10.9948 458.117 10.7734C459.276 10.3568 460.507 10.0443 461.809 9.83594C463.111 9.6276 464.335 9.52344 465.48 9.52344ZM463.684 20.5195C462.772 20.5195 462.076 20.6823 461.594 21.0078C461.125 21.3333 460.891 21.8086 460.891 22.4336C460.891 23.0456 461.118 23.5143 461.574 23.8398C462.043 24.1523 462.714 24.3086 463.586 24.3086C464.484 24.3086 465.37 24.1328 466.242 23.7812C467.128 23.4167 467.954 22.9219 468.723 22.2969V21.0469C467.004 20.6953 465.324 20.5195 463.684 20.5195ZM495.383 9.52344C496.216 9.52344 496.809 9.62109 497.16 9.81641C497.512 9.9987 497.688 10.3112 497.688 10.7539V14.875C497.688 15.3177 497.544 15.6367 497.258 15.832C496.984 16.0143 496.529 16.1055 495.891 16.1055C495.201 16.1055 494.725 15.9688 494.465 15.6953C493.697 14.875 492.818 14.2956 491.828 13.957C490.839 13.6055 489.693 13.4297 488.391 13.4297C487.622 13.4297 487.017 13.5664 486.574 13.8398C486.145 14.1133 485.93 14.4779 485.93 14.9336C485.93 15.4805 486.411 15.8711 487.375 16.1055C487.883 16.2357 488.749 16.3594 489.973 16.4766C491.184 16.6198 492.186 16.763 492.98 16.9062C493.788 17.0495 494.549 17.2643 495.266 17.5508C496.307 17.9805 497.121 18.5794 497.707 19.3477C498.293 20.1159 498.586 21.1315 498.586 22.3945C498.586 23.6315 498.28 24.7057 497.668 25.6172C497.069 26.5156 496.184 27.2122 495.012 27.707C493.853 28.1888 492.453 28.4297 490.812 28.4297C489.003 28.4297 487.323 27.9674 485.773 27.043V27.1992C485.773 27.6419 485.585 27.9544 485.207 28.1367C484.829 28.332 484.224 28.4297 483.391 28.4297C482.557 28.4297 481.965 28.332 481.613 28.1367C481.262 27.9544 481.086 27.6419 481.086 27.1992V22.8438C481.086 22.4141 481.236 22.1016 481.535 21.9062C481.848 21.7109 482.323 21.6133 482.961 21.6133C483.755 21.6133 484.296 21.7956 484.582 22.1602C485.233 22.9805 486.066 23.5794 487.082 23.957C488.098 24.3346 489.211 24.5234 490.422 24.5234C492.505 24.5234 493.547 23.9831 493.547 22.9023C493.547 22.5768 493.397 22.3164 493.098 22.1211C492.811 21.9258 492.382 21.763 491.809 21.6328C491.483 21.5677 490.728 21.4505 489.543 21.2812C488.228 21.125 487.095 20.9492 486.145 20.7539C485.207 20.5456 484.354 20.2266 483.586 19.7969C481.789 18.8073 480.891 17.2448 480.891 15.1094C480.891 13.9766 481.197 12.987 481.809 12.1406C482.421 11.2943 483.26 10.6497 484.328 10.207C485.409 9.7513 486.62 9.52344 487.961 9.52344C489.927 9.52344 491.672 9.9987 493.195 10.9492V10.7539C493.195 10.3112 493.352 9.9987 493.664 9.81641C493.99 9.62109 494.562 9.52344 495.383 9.52344Z" fill="#1C256D"/>
<path d="M519.465 0.675781C520.337 0.675781 521.066 0.81901 521.652 1.10547C522.251 1.39193 522.551 1.75651 522.551 2.19922C522.551 2.34245 522.525 2.47266 522.473 2.58984L509.465 34.1914C509.23 34.7513 508.697 35.0312 507.863 35.0312C506.991 35.0312 506.255 34.888 505.656 34.6016C505.07 34.3151 504.777 33.9505 504.777 33.5078C504.777 33.3646 504.803 33.2344 504.855 33.1172L517.863 1.51562C518.098 0.955729 518.632 0.675781 519.465 0.675781Z" fill="#4854AF"/>
</svg>
