<svg width="788" height="37" viewBox="0 0 788 37" fill="none" xmlns="http://www.w3.org/2000/svg">
<path d="M16.4766 6.92578C16.737 6.79557 16.9518 6.73047 17.1211 6.73047C17.3815 6.73047 17.6289 6.84766 17.8633 7.08203C18.0977 7.31641 18.3516 7.70703 18.625 8.25391C18.9635 8.93099 19.1328 9.47135 19.1328 9.875C19.1328 10.3177 18.8984 10.6628 18.4297 10.9102L7.00391 16.6133L18.4297 22.3164C18.8984 22.5638 19.1328 22.9089 19.1328 23.3516C19.1328 23.7552 18.9635 24.2956 18.625 24.9727C18.3516 25.5195 18.0977 25.9102 17.8633 26.1445C17.6289 26.3789 17.3815 26.4961 17.1211 26.4961C16.9518 26.4961 16.737 26.431 16.4766 26.3008L1.24219 18.4492C0.916667 18.2799 0.682292 18.0651 0.539062 17.8047C0.408854 17.5443 0.34375 17.1471 0.34375 16.6133C0.34375 16.0794 0.408854 15.6823 0.539062 15.4219C0.682292 15.1615 0.916667 14.9466 1.24219 14.7773L16.4766 6.92578ZM786.242 14.7773C786.568 14.9466 786.796 15.1615 786.926 15.4219C787.069 15.6823 787.141 16.0794 787.141 16.6133C787.141 17.1471 787.069 17.5443 786.926 17.8047C786.796 18.0651 786.568 18.2799 786.242 18.4492L771.008 26.3008C770.747 26.431 770.533 26.4961 770.363 26.4961C770.103 26.4961 769.855 26.3789 769.621 26.1445C769.387 25.9102 769.133 25.5195 768.859 24.9727C768.521 24.2956 768.352 23.7552 768.352 23.3516C768.352 22.9089 768.586 22.5638 769.055 22.3164L780.48 16.6133L769.055 10.9102C768.586 10.6628 768.352 10.3177 768.352 9.875C768.352 9.47135 768.521 8.93099 768.859 8.25391C769.133 7.70703 769.387 7.31641 769.621 7.08203C769.855 6.84766 770.103 6.73047 770.363 6.73047C770.533 6.73047 770.747 6.79557 771.008 6.92578L786.242 14.7773Z" fill="#D44A4A"/>
<path d="M42.1992 4.81641C42.6549 4.81641 42.9805 4.91406 43.1758 5.10938C43.3711 5.30469 43.4688 5.63021 43.4688 6.08594V11.9844C43.4688 12.4271 43.2799 12.7461 42.9023 12.9414C42.5247 13.1237 41.9193 13.2148 41.0859 13.2148C40.2786 13.2148 39.7253 13.1237 39.4258 12.9414C39.1263 12.7591 38.9766 12.4401 38.9766 11.9844V9.01562H31.1641V13.957H35.9297C36.3854 13.957 36.7044 14.1068 36.8867 14.4062C37.069 14.7057 37.1602 15.2591 37.1602 16.0664C37.1602 16.8737 37.069 17.4271 36.8867 17.7266C36.7044 18.013 36.3854 18.1562 35.9297 18.1562H31.1641V23.8008H39.1719V19.8555C39.1719 19.4128 39.3607 19.1003 39.7383 18.918C40.1289 18.7227 40.7604 18.625 41.6328 18.625C42.4922 18.625 43.0781 18.7161 43.3906 18.8984C43.7031 19.0807 43.8594 19.3997 43.8594 19.8555V26.7305C43.8594 27.1732 43.7617 27.4987 43.5664 27.707C43.3711 27.9023 43.0456 28 42.5898 28H24.3867C24.0742 28 23.8333 27.9479 23.6641 27.8438C23.4948 27.7396 23.3646 27.5443 23.2734 27.2578C23.1953 26.9714 23.1562 26.5547 23.1562 26.0078C23.1562 25.4609 23.1953 25.0443 23.2734 24.7578C23.3646 24.4714 23.4948 24.276 23.6641 24.1719C23.8333 24.0547 24.0742 23.9961 24.3867 23.9961H26.2812V8.82031H24.3867C24.0742 8.82031 23.8333 8.76823 23.6641 8.66406C23.4948 8.5599 23.3646 8.36458 23.2734 8.07812C23.1953 7.79167 23.1562 7.375 23.1562 6.82812C23.1562 6.28125 23.1953 5.86458 23.2734 5.57812C23.3646 5.29167 23.4948 5.09635 23.6641 4.99219C23.8333 4.875 24.0742 4.81641 24.3867 4.81641H42.1992ZM63.6641 9.52344C64.4974 9.52344 65.0898 9.62109 65.4414 9.81641C65.793 9.9987 65.9688 10.3112 65.9688 10.7539V14.875C65.9688 15.3177 65.8255 15.6367 65.5391 15.832C65.2656 16.0143 64.8099 16.1055 64.1719 16.1055C63.4818 16.1055 63.0065 15.9688 62.7461 15.6953C61.9779 14.875 61.099 14.2956 60.1094 13.957C59.1198 13.6055 57.974 13.4297 56.6719 13.4297C55.9036 13.4297 55.2982 13.5664 54.8555 13.8398C54.4258 14.1133 54.2109 14.4779 54.2109 14.9336C54.2109 15.4805 54.6927 15.8711 55.6562 16.1055C56.1641 16.2357 57.0299 16.3594 58.2539 16.4766C59.4648 16.6198 60.4674 16.763 61.2617 16.9062C62.069 17.0495 62.8307 17.2643 63.5469 17.5508C64.5885 17.9805 65.4023 18.5794 65.9883 19.3477C66.5742 20.1159 66.8672 21.1315 66.8672 22.3945C66.8672 23.6315 66.5612 24.7057 65.9492 25.6172C65.3503 26.5156 64.4648 27.2122 63.293 27.707C62.1341 28.1888 60.7344 28.4297 59.0938 28.4297C57.2839 28.4297 55.6042 27.9674 54.0547 27.043V27.1992C54.0547 27.6419 53.8659 27.9544 53.4883 28.1367C53.1107 28.332 52.5052 28.4297 51.6719 28.4297C50.8385 28.4297 50.2461 28.332 49.8945 28.1367C49.543 27.9544 49.3672 27.6419 49.3672 27.1992V22.8438C49.3672 22.4141 49.5169 22.1016 49.8164 21.9062C50.1289 21.7109 50.6042 21.6133 51.2422 21.6133C52.0365 21.6133 52.5768 21.7956 52.8633 22.1602C53.5143 22.9805 54.3477 23.5794 55.3633 23.957C56.3789 24.3346 57.4922 24.5234 58.7031 24.5234C60.7865 24.5234 61.8281 23.9831 61.8281 22.9023C61.8281 22.5768 61.6784 22.3164 61.3789 22.1211C61.0924 21.9258 60.6628 21.763 60.0898 21.6328C59.7643 21.5677 59.0091 21.4505 57.8242 21.2812C56.5091 21.125 55.3763 20.9492 54.4258 20.7539C53.4883 20.5456 52.6354 20.2266 51.8672 19.7969C50.0703 18.8073 49.1719 17.2448 49.1719 15.1094C49.1719 13.9766 49.4779 12.987 50.0898 12.1406C50.7018 11.2943 51.5417 10.6497 52.6094 10.207C53.6901 9.7513 54.901 9.52344 56.2422 9.52344C58.2083 9.52344 59.9531 9.9987 61.4766 10.9492V10.7539C61.4766 10.3112 61.6328 9.9987 61.9453 9.81641C62.2708 9.62109 62.8438 9.52344 63.6641 9.52344ZM79.4258 4.38672C80.0378 4.38672 80.5065 4.43229 80.832 4.52344C81.1706 4.60156 81.4049 4.72526 81.5352 4.89453C81.6654 5.0638 81.7305 5.30469 81.7305 5.61719V11.125H88.9766C89.4323 11.125 89.7513 11.2747 89.9336 11.5742C90.1159 11.8737 90.207 12.4271 90.207 13.2344C90.207 14.0417 90.1159 14.5951 89.9336 14.8945C89.7513 15.181 89.4323 15.3242 88.9766 15.3242H81.7305V20.7539C81.7305 22.9154 82.5703 23.9961 84.25 23.9961C84.849 23.9961 85.5456 23.8659 86.3398 23.6055C87.1471 23.332 88.0846 22.9544 89.1523 22.4727C89.4388 22.3555 89.6667 22.2969 89.8359 22.2969C90.1094 22.2969 90.3633 22.4141 90.5977 22.6484C90.832 22.8698 91.0534 23.2409 91.2617 23.7617C91.4961 24.3477 91.6133 24.8229 91.6133 25.1875C91.6133 25.474 91.5417 25.7148 91.3984 25.9102C91.2682 26.0924 91.0664 26.2552 90.793 26.3984C88.1107 27.7526 85.7865 28.4297 83.8203 28.4297C81.5547 28.4297 79.8229 27.7982 78.625 26.5352C77.4401 25.2721 76.8477 23.4297 76.8477 21.0078V15.3242H73.0781C72.6224 15.3242 72.3034 15.181 72.1211 14.8945C71.9388 14.5951 71.8477 14.0417 71.8477 13.2344C71.8477 12.4271 71.9388 11.8737 72.1211 11.5742C72.3034 11.2747 72.6224 11.125 73.0781 11.125H76.8477V5.61719C76.8477 5.17448 77.043 4.86198 77.4336 4.67969C77.8372 4.48438 78.5013 4.38672 79.4258 4.38672ZM112.043 9.52344C113.15 9.52344 114.191 9.88802 115.168 10.6172C115.741 11.0339 116.027 11.5807 116.027 12.2578C116.027 12.6875 115.91 13.1953 115.676 13.7812C115.441 14.3672 115.174 14.8099 114.875 15.1094C114.589 15.4089 114.283 15.5586 113.957 15.5586C113.775 15.5586 113.579 15.5065 113.371 15.4023C112.642 14.9987 111.887 14.7969 111.105 14.7969C110.103 14.7969 109.165 15.1159 108.293 15.7539C107.421 16.3919 106.717 17.2708 106.184 18.3906C105.663 19.5104 105.402 20.7604 105.402 22.1406V23.9961H111.008C111.32 23.9961 111.561 24.0547 111.73 24.1719C111.9 24.276 112.023 24.4714 112.102 24.7578C112.193 25.0443 112.238 25.4609 112.238 26.0078C112.238 26.5547 112.193 26.9714 112.102 27.2578C112.023 27.5443 111.9 27.7396 111.73 27.8438C111.561 27.9479 111.32 28 111.008 28H97.6484C97.3359 28 97.0951 27.9479 96.9258 27.8438C96.7565 27.7396 96.6263 27.5443 96.5352 27.2578C96.457 26.9714 96.418 26.5547 96.418 26.0078C96.418 25.4609 96.457 25.0443 96.5352 24.7578C96.6263 24.4714 96.7565 24.276 96.9258 24.1719C97.0951 24.0547 97.3359 23.9961 97.6484 23.9961H100.52V13.957H98.2344C97.9219 13.957 97.681 13.9049 97.5117 13.8008C97.3424 13.6966 97.2122 13.5013 97.1211 13.2148C97.043 12.9284 97.0039 12.5117 97.0039 11.9648C97.0039 11.418 97.043 11.0013 97.1211 10.7148C97.2122 10.4284 97.3424 10.2331 97.5117 10.1289C97.681 10.0117 97.9219 9.95312 98.2344 9.95312H103.586C104.029 9.95312 104.341 10.0508 104.523 10.2461C104.719 10.4284 104.816 10.7409 104.816 11.1836V15.4219C105.793 13.5339 106.913 12.082 108.176 11.0664C109.452 10.0378 110.741 9.52344 112.043 9.52344ZM136.848 9.95312C137.29 9.95312 137.603 10.0508 137.785 10.2461C137.98 10.4284 138.078 10.7409 138.078 11.1836V23.9961H139.582C139.895 23.9961 140.135 24.0482 140.305 24.1523C140.474 24.2565 140.598 24.4518 140.676 24.7383C140.767 25.0247 140.812 25.4414 140.812 25.9883C140.812 26.5352 140.767 26.9518 140.676 27.2383C140.598 27.5247 140.474 27.7266 140.305 27.8438C140.135 27.9479 139.895 28 139.582 28H135.207C134.764 28 134.445 27.9089 134.25 27.7266C134.068 27.5312 133.977 27.2122 133.977 26.7695V23.9375C132.258 26.9323 130.109 28.4297 127.531 28.4297C126.346 28.4297 125.305 28.1693 124.406 27.6484C123.521 27.1276 122.837 26.3919 122.355 25.4414C121.874 24.4779 121.633 23.3516 121.633 22.0625V13.957H120.129C119.816 13.957 119.576 13.9049 119.406 13.8008C119.237 13.6836 119.107 13.4818 119.016 13.1953C118.938 12.9089 118.898 12.4922 118.898 11.9453C118.898 11.3984 118.938 10.9818 119.016 10.6953C119.107 10.4089 119.237 10.2135 119.406 10.1094C119.576 10.0052 119.816 9.95312 120.129 9.95312H125.285C125.728 9.95312 126.04 10.0508 126.223 10.2461C126.418 10.4284 126.516 10.7409 126.516 11.1836V20.9102C126.516 21.9258 126.691 22.694 127.043 23.2148C127.395 23.7357 127.98 23.9961 128.801 23.9961C129.556 23.9961 130.272 23.6836 130.949 23.0586C131.626 22.4206 132.167 21.5742 132.57 20.5195C132.987 19.4648 133.195 18.3385 133.195 17.1406V13.957H131.105C130.793 13.957 130.552 13.9049 130.383 13.8008C130.214 13.6836 130.083 13.4818 129.992 13.1953C129.914 12.9089 129.875 12.4922 129.875 11.9453C129.875 11.3984 129.914 10.9818 129.992 10.6953C130.083 10.4089 130.214 10.2135 130.383 10.1094C130.552 10.0052 130.793 9.95312 131.105 9.95312H136.848ZM151.379 4.38672C151.991 4.38672 152.46 4.43229 152.785 4.52344C153.124 4.60156 153.358 4.72526 153.488 4.89453C153.618 5.0638 153.684 5.30469 153.684 5.61719V11.125H160.93C161.385 11.125 161.704 11.2747 161.887 11.5742C162.069 11.8737 162.16 12.4271 162.16 13.2344C162.16 14.0417 162.069 14.5951 161.887 14.8945C161.704 15.181 161.385 15.3242 160.93 15.3242H153.684V20.7539C153.684 22.9154 154.523 23.9961 156.203 23.9961C156.802 23.9961 157.499 23.8659 158.293 23.6055C159.1 23.332 160.038 22.9544 161.105 22.4727C161.392 22.3555 161.62 22.2969 161.789 22.2969C162.062 22.2969 162.316 22.4141 162.551 22.6484C162.785 22.8698 163.007 23.2409 163.215 23.7617C163.449 24.3477 163.566 24.8229 163.566 25.1875C163.566 25.474 163.495 25.7148 163.352 25.9102C163.221 26.0924 163.02 26.2552 162.746 26.3984C160.064 27.7526 157.74 28.4297 155.773 28.4297C153.508 28.4297 151.776 27.7982 150.578 26.5352C149.393 25.2721 148.801 23.4297 148.801 21.0078V15.3242H145.031C144.576 15.3242 144.257 15.181 144.074 14.8945C143.892 14.5951 143.801 14.0417 143.801 13.2344C143.801 12.4271 143.892 11.8737 144.074 11.5742C144.257 11.2747 144.576 11.125 145.031 11.125H148.801V5.61719C148.801 5.17448 148.996 4.86198 149.387 4.67969C149.79 4.48438 150.454 4.38672 151.379 4.38672ZM184.816 9.95312C185.259 9.95312 185.572 10.0508 185.754 10.2461C185.949 10.4284 186.047 10.7409 186.047 11.1836V23.9961H187.551C187.863 23.9961 188.104 24.0482 188.273 24.1523C188.443 24.2565 188.566 24.4518 188.645 24.7383C188.736 25.0247 188.781 25.4414 188.781 25.9883C188.781 26.5352 188.736 26.9518 188.645 27.2383C188.566 27.5247 188.443 27.7266 188.273 27.8438C188.104 27.9479 187.863 28 187.551 28H183.176C182.733 28 182.414 27.9089 182.219 27.7266C182.036 27.5312 181.945 27.2122 181.945 26.7695V23.9375C180.227 26.9323 178.078 28.4297 175.5 28.4297C174.315 28.4297 173.273 28.1693 172.375 27.6484C171.49 27.1276 170.806 26.3919 170.324 25.4414C169.842 24.4779 169.602 23.3516 169.602 22.0625V13.957H168.098C167.785 13.957 167.544 13.9049 167.375 13.8008C167.206 13.6836 167.076 13.4818 166.984 13.1953C166.906 12.9089 166.867 12.4922 166.867 11.9453C166.867 11.3984 166.906 10.9818 166.984 10.6953C167.076 10.4089 167.206 10.2135 167.375 10.1094C167.544 10.0052 167.785 9.95312 168.098 9.95312H173.254C173.697 9.95312 174.009 10.0508 174.191 10.2461C174.387 10.4284 174.484 10.7409 174.484 11.1836V20.9102C174.484 21.9258 174.66 22.694 175.012 23.2148C175.363 23.7357 175.949 23.9961 176.77 23.9961C177.525 23.9961 178.241 23.6836 178.918 23.0586C179.595 22.4206 180.135 21.5742 180.539 20.5195C180.956 19.4648 181.164 18.3385 181.164 17.1406V13.957H179.074C178.762 13.957 178.521 13.9049 178.352 13.8008C178.182 13.6836 178.052 13.4818 177.961 13.1953C177.883 12.9089 177.844 12.4922 177.844 11.9453C177.844 11.3984 177.883 10.9818 177.961 10.6953C178.052 10.4089 178.182 10.2135 178.352 10.1094C178.521 10.0052 178.762 9.95312 179.074 9.95312H184.816ZM207.98 9.52344C209.087 9.52344 210.129 9.88802 211.105 10.6172C211.678 11.0339 211.965 11.5807 211.965 12.2578C211.965 12.6875 211.848 13.1953 211.613 13.7812C211.379 14.3672 211.112 14.8099 210.812 15.1094C210.526 15.4089 210.22 15.5586 209.895 15.5586C209.712 15.5586 209.517 15.5065 209.309 15.4023C208.579 14.9987 207.824 14.7969 207.043 14.7969C206.04 14.7969 205.103 15.1159 204.23 15.7539C203.358 16.3919 202.655 17.2708 202.121 18.3906C201.6 19.5104 201.34 20.7604 201.34 22.1406V23.9961H206.945C207.258 23.9961 207.499 24.0547 207.668 24.1719C207.837 24.276 207.961 24.4714 208.039 24.7578C208.13 25.0443 208.176 25.4609 208.176 26.0078C208.176 26.5547 208.13 26.9714 208.039 27.2578C207.961 27.5443 207.837 27.7396 207.668 27.8438C207.499 27.9479 207.258 28 206.945 28H193.586C193.273 28 193.033 27.9479 192.863 27.8438C192.694 27.7396 192.564 27.5443 192.473 27.2578C192.395 26.9714 192.355 26.5547 192.355 26.0078C192.355 25.4609 192.395 25.0443 192.473 24.7578C192.564 24.4714 192.694 24.276 192.863 24.1719C193.033 24.0547 193.273 23.9961 193.586 23.9961H196.457V13.957H194.172C193.859 13.957 193.618 13.9049 193.449 13.8008C193.28 13.6966 193.15 13.5013 193.059 13.2148C192.98 12.9284 192.941 12.5117 192.941 11.9648C192.941 11.418 192.98 11.0013 193.059 10.7148C193.15 10.4284 193.28 10.2331 193.449 10.1289C193.618 10.0117 193.859 9.95312 194.172 9.95312H199.523C199.966 9.95312 200.279 10.0508 200.461 10.2461C200.656 10.4284 200.754 10.7409 200.754 11.1836V15.4219C201.73 13.5339 202.85 12.082 204.113 11.0664C205.389 10.0378 206.678 9.52344 207.98 9.52344ZM225.637 9.52344C228.501 9.52344 230.572 10.1419 231.848 11.3789C233.124 12.6159 233.762 14.3867 233.762 16.6914V22.3359C233.762 22.8568 233.872 23.2669 234.094 23.5664C234.315 23.8529 234.634 23.9961 235.051 23.9961H235.656C235.969 23.9961 236.21 24.0547 236.379 24.1719C236.548 24.276 236.672 24.4714 236.75 24.7578C236.841 25.0443 236.887 25.4609 236.887 26.0078C236.887 26.5547 236.841 26.9714 236.75 27.2578C236.672 27.5443 236.548 27.7396 236.379 27.8438C236.21 27.9479 235.969 28 235.656 28H233.469C232.661 28 231.945 27.8372 231.32 27.5117C230.708 27.1732 230.24 26.6458 229.914 25.9297C228.885 26.724 227.798 27.3424 226.652 27.7852C225.507 28.2148 224.328 28.4297 223.117 28.4297C221.646 28.4297 220.376 28.1823 219.309 27.6875C218.241 27.1797 217.421 26.4635 216.848 25.5391C216.288 24.6016 216.008 23.5013 216.008 22.2383C216.008 20.4154 216.652 19.0026 217.941 18C219.23 16.9974 221.034 16.4961 223.352 16.4961C225.083 16.4961 226.926 16.6914 228.879 17.082V16.5156C228.879 15.6432 228.605 14.9987 228.059 14.582C227.512 14.1654 226.548 13.957 225.168 13.957C224.4 13.957 223.54 14.0547 222.59 14.25C221.652 14.4323 220.721 14.6797 219.797 14.9922C219.576 15.0573 219.387 15.0898 219.23 15.0898C218.905 15.0898 218.612 14.9727 218.352 14.7383C218.104 14.4909 217.876 14.0807 217.668 13.5078C217.473 12.9349 217.375 12.4661 217.375 12.1016C217.375 11.4375 217.674 10.9948 218.273 10.7734C219.432 10.3568 220.663 10.0443 221.965 9.83594C223.267 9.6276 224.491 9.52344 225.637 9.52344ZM223.84 20.5195C222.928 20.5195 222.232 20.6823 221.75 21.0078C221.281 21.3333 221.047 21.8086 221.047 22.4336C221.047 23.0456 221.275 23.5143 221.73 23.8398C222.199 24.1523 222.87 24.3086 223.742 24.3086C224.641 24.3086 225.526 24.1328 226.398 23.7812C227.284 23.4167 228.111 22.9219 228.879 22.2969V21.0469C227.16 20.6953 225.48 20.5195 223.84 20.5195ZM280.93 2.375C281.372 2.375 281.685 2.47266 281.867 2.66797C282.062 2.85026 282.16 3.16276 282.16 3.60547V23.9961H283.859C284.172 23.9961 284.413 24.0482 284.582 24.1523C284.751 24.2565 284.875 24.4518 284.953 24.7383C285.044 25.0247 285.09 25.4414 285.09 25.9883C285.09 26.5352 285.044 26.9518 284.953 27.2383C284.875 27.5247 284.751 27.7266 284.582 27.8438C284.413 27.9479 284.172 28 283.859 28H279.289C278.846 28 278.527 27.9089 278.332 27.7266C278.15 27.5312 278.059 27.2122 278.059 26.7695V25.1289C277.382 26.1706 276.535 26.9844 275.52 27.5703C274.504 28.1432 273.378 28.4297 272.141 28.4297C270.435 28.4297 268.944 28.013 267.668 27.1797C266.392 26.3464 265.415 25.2135 264.738 23.7812C264.061 22.349 263.723 20.7474 263.723 18.9766C263.723 17.2057 264.061 15.6042 264.738 14.1719C265.415 12.7396 266.392 11.6068 267.668 10.7734C268.944 9.9401 270.435 9.52344 272.141 9.52344C273.156 9.52344 274.1 9.72526 274.973 10.1289C275.845 10.5195 276.613 11.0859 277.277 11.8281V6.37891H274.406C274.094 6.37891 273.853 6.32682 273.684 6.22266C273.514 6.11849 273.384 5.92318 273.293 5.63672C273.215 5.35026 273.176 4.93359 273.176 4.38672C273.176 3.83984 273.215 3.42318 273.293 3.13672C273.384 2.85026 273.514 2.65495 273.684 2.55078C273.853 2.43359 274.094 2.375 274.406 2.375H280.93ZM272.922 13.957C272.115 13.957 271.411 14.1654 270.812 14.582C270.214 14.9857 269.751 15.5651 269.426 16.3203C269.113 17.0755 268.957 17.9609 268.957 18.9766C268.957 19.9922 269.113 20.8776 269.426 21.6328C269.751 22.388 270.214 22.974 270.812 23.3906C271.411 23.7943 272.115 23.9961 272.922 23.9961C273.755 23.9961 274.51 23.8008 275.188 23.4102C275.865 23.0195 276.405 22.4466 276.809 21.6914C277.212 20.9232 277.414 20.0182 277.414 18.9766C277.414 17.9349 277.212 17.0365 276.809 16.2812C276.405 15.513 275.865 14.9336 275.188 14.543C274.51 14.1523 273.755 13.957 272.922 13.957ZM298.078 9.52344C300.057 9.52344 301.743 9.95312 303.137 10.8125C304.53 11.6589 305.578 12.8438 306.281 14.3672C306.997 15.8776 307.355 17.6094 307.355 19.5625C307.355 20.0052 307.258 20.3177 307.062 20.5C306.88 20.6823 306.568 20.7734 306.125 20.7734H293.586C293.833 21.8151 294.361 22.6159 295.168 23.1758C295.988 23.7227 297.023 23.9961 298.273 23.9961C300.292 23.9961 302.479 23.638 304.836 22.9219C304.992 22.8698 305.148 22.8438 305.305 22.8438C305.591 22.8438 305.839 22.974 306.047 23.2344C306.255 23.4948 306.444 23.9375 306.613 24.5625C306.743 25.0443 306.809 25.4544 306.809 25.793C306.809 26.1315 306.73 26.3984 306.574 26.5938C306.431 26.776 306.19 26.9258 305.852 27.043C304.549 27.4727 303.221 27.8112 301.867 28.0586C300.513 28.306 299.185 28.4297 297.883 28.4297C295.904 28.4297 294.198 28.026 292.766 27.2188C291.333 26.4115 290.24 25.2982 289.484 23.8789C288.742 22.4466 288.371 20.8125 288.371 18.9766C288.371 17.1536 288.762 15.526 289.543 14.0938C290.324 12.6615 291.451 11.5417 292.922 10.7344C294.393 9.92708 296.112 9.52344 298.078 9.52344ZM298.078 13.957C295.695 13.957 294.224 14.9596 293.664 16.9648H302.258C302.036 16.0143 301.561 15.2786 300.832 14.7578C300.116 14.224 299.198 13.957 298.078 13.957ZM352.883 2.375C353.326 2.375 353.638 2.47266 353.82 2.66797C354.016 2.85026 354.113 3.16276 354.113 3.60547V23.9961H355.812C356.125 23.9961 356.366 24.0482 356.535 24.1523C356.704 24.2565 356.828 24.4518 356.906 24.7383C356.997 25.0247 357.043 25.4414 357.043 25.9883C357.043 26.5352 356.997 26.9518 356.906 27.2383C356.828 27.5247 356.704 27.7266 356.535 27.8438C356.366 27.9479 356.125 28 355.812 28H351.242C350.799 28 350.48 27.9089 350.285 27.7266C350.103 27.5312 350.012 27.2122 350.012 26.7695V25.1289C349.335 26.1706 348.488 26.9844 347.473 27.5703C346.457 28.1432 345.331 28.4297 344.094 28.4297C342.388 28.4297 340.897 28.013 339.621 27.1797C338.345 26.3464 337.368 25.2135 336.691 23.7812C336.014 22.349 335.676 20.7474 335.676 18.9766C335.676 17.2057 336.014 15.6042 336.691 14.1719C337.368 12.7396 338.345 11.6068 339.621 10.7734C340.897 9.9401 342.388 9.52344 344.094 9.52344C345.109 9.52344 346.053 9.72526 346.926 10.1289C347.798 10.5195 348.566 11.0859 349.23 11.8281V6.37891H346.359C346.047 6.37891 345.806 6.32682 345.637 6.22266C345.467 6.11849 345.337 5.92318 345.246 5.63672C345.168 5.35026 345.129 4.93359 345.129 4.38672C345.129 3.83984 345.168 3.42318 345.246 3.13672C345.337 2.85026 345.467 2.65495 345.637 2.55078C345.806 2.43359 346.047 2.375 346.359 2.375H352.883ZM344.875 13.957C344.068 13.957 343.365 14.1654 342.766 14.582C342.167 14.9857 341.704 15.5651 341.379 16.3203C341.066 17.0755 340.91 17.9609 340.91 18.9766C340.91 19.9922 341.066 20.8776 341.379 21.6328C341.704 22.388 342.167 22.974 342.766 23.3906C343.365 23.7943 344.068 23.9961 344.875 23.9961C345.708 23.9961 346.464 23.8008 347.141 23.4102C347.818 23.0195 348.358 22.4466 348.762 21.6914C349.165 20.9232 349.367 20.0182 349.367 18.9766C349.367 17.9349 349.165 17.0365 348.762 16.2812C348.358 15.513 347.818 14.9336 347.141 14.543C346.464 14.1523 345.708 13.957 344.875 13.957ZM369.543 9.52344C372.408 9.52344 374.478 10.1419 375.754 11.3789C377.03 12.6159 377.668 14.3867 377.668 16.6914V22.3359C377.668 22.8568 377.779 23.2669 378 23.5664C378.221 23.8529 378.54 23.9961 378.957 23.9961H379.562C379.875 23.9961 380.116 24.0547 380.285 24.1719C380.454 24.276 380.578 24.4714 380.656 24.7578C380.747 25.0443 380.793 25.4609 380.793 26.0078C380.793 26.5547 380.747 26.9714 380.656 27.2578C380.578 27.5443 380.454 27.7396 380.285 27.8438C380.116 27.9479 379.875 28 379.562 28H377.375C376.568 28 375.852 27.8372 375.227 27.5117C374.615 27.1732 374.146 26.6458 373.82 25.9297C372.792 26.724 371.704 27.3424 370.559 27.7852C369.413 28.2148 368.234 28.4297 367.023 28.4297C365.552 28.4297 364.283 28.1823 363.215 27.6875C362.147 27.1797 361.327 26.4635 360.754 25.5391C360.194 24.6016 359.914 23.5013 359.914 22.2383C359.914 20.4154 360.559 19.0026 361.848 18C363.137 16.9974 364.94 16.4961 367.258 16.4961C368.99 16.4961 370.832 16.6914 372.785 17.082V16.5156C372.785 15.6432 372.512 14.9987 371.965 14.582C371.418 14.1654 370.454 13.957 369.074 13.957C368.306 13.957 367.447 14.0547 366.496 14.25C365.559 14.4323 364.628 14.6797 363.703 14.9922C363.482 15.0573 363.293 15.0898 363.137 15.0898C362.811 15.0898 362.518 14.9727 362.258 14.7383C362.01 14.4909 361.783 14.0807 361.574 13.5078C361.379 12.9349 361.281 12.4661 361.281 12.1016C361.281 11.4375 361.581 10.9948 362.18 10.7734C363.339 10.3568 364.569 10.0443 365.871 9.83594C367.173 9.6276 368.397 9.52344 369.543 9.52344ZM367.746 20.5195C366.835 20.5195 366.138 20.6823 365.656 21.0078C365.188 21.3333 364.953 21.8086 364.953 22.4336C364.953 23.0456 365.181 23.5143 365.637 23.8398C366.105 24.1523 366.776 24.3086 367.648 24.3086C368.547 24.3086 369.432 24.1328 370.305 23.7812C371.19 23.4167 372.017 22.9219 372.785 22.2969V21.0469C371.066 20.6953 369.387 20.5195 367.746 20.5195ZM400.852 2.375C401.294 2.375 401.607 2.47266 401.789 2.66797C401.984 2.85026 402.082 3.16276 402.082 3.60547V23.9961H403.781C404.094 23.9961 404.335 24.0482 404.504 24.1523C404.673 24.2565 404.797 24.4518 404.875 24.7383C404.966 25.0247 405.012 25.4414 405.012 25.9883C405.012 26.5352 404.966 26.9518 404.875 27.2383C404.797 27.5247 404.673 27.7266 404.504 27.8438C404.335 27.9479 404.094 28 403.781 28H399.211C398.768 28 398.449 27.9089 398.254 27.7266C398.072 27.5312 397.98 27.2122 397.98 26.7695V25.1289C397.303 26.1706 396.457 26.9844 395.441 27.5703C394.426 28.1432 393.299 28.4297 392.062 28.4297C390.357 28.4297 388.866 28.013 387.59 27.1797C386.314 26.3464 385.337 25.2135 384.66 23.7812C383.983 22.349 383.645 20.7474 383.645 18.9766C383.645 17.2057 383.983 15.6042 384.66 14.1719C385.337 12.7396 386.314 11.6068 387.59 10.7734C388.866 9.9401 390.357 9.52344 392.062 9.52344C393.078 9.52344 394.022 9.72526 394.895 10.1289C395.767 10.5195 396.535 11.0859 397.199 11.8281V6.37891H394.328C394.016 6.37891 393.775 6.32682 393.605 6.22266C393.436 6.11849 393.306 5.92318 393.215 5.63672C393.137 5.35026 393.098 4.93359 393.098 4.38672C393.098 3.83984 393.137 3.42318 393.215 3.13672C393.306 2.85026 393.436 2.65495 393.605 2.55078C393.775 2.43359 394.016 2.375 394.328 2.375H400.852ZM392.844 13.957C392.036 13.957 391.333 14.1654 390.734 14.582C390.135 14.9857 389.673 15.5651 389.348 16.3203C389.035 17.0755 388.879 17.9609 388.879 18.9766C388.879 19.9922 389.035 20.8776 389.348 21.6328C389.673 22.388 390.135 22.974 390.734 23.3906C391.333 23.7943 392.036 23.9961 392.844 23.9961C393.677 23.9961 394.432 23.8008 395.109 23.4102C395.786 23.0195 396.327 22.4466 396.73 21.6914C397.134 20.9232 397.336 20.0182 397.336 18.9766C397.336 17.9349 397.134 17.0365 396.73 16.2812C396.327 15.513 395.786 14.9336 395.109 14.543C394.432 14.1523 393.677 13.957 392.844 13.957ZM417.727 9.52344C419.706 9.52344 421.438 9.92708 422.922 10.7344C424.406 11.5417 425.546 12.6615 426.34 14.0938C427.147 15.526 427.551 17.1536 427.551 18.9766C427.551 20.7995 427.147 22.4271 426.34 23.8594C425.546 25.2917 424.406 26.4115 422.922 27.2188C421.438 28.026 419.706 28.4297 417.727 28.4297C415.747 28.4297 414.016 28.026 412.531 27.2188C411.047 26.4115 409.901 25.2917 409.094 23.8594C408.299 22.4271 407.902 20.7995 407.902 18.9766C407.902 17.1536 408.299 15.526 409.094 14.0938C409.901 12.6615 411.047 11.5417 412.531 10.7344C414.016 9.92708 415.747 9.52344 417.727 9.52344ZM417.727 13.957C416.789 13.957 415.975 14.1654 415.285 14.582C414.595 14.9857 414.061 15.5651 413.684 16.3203C413.319 17.0755 413.137 17.9609 413.137 18.9766C413.137 19.9922 413.319 20.8776 413.684 21.6328C414.061 22.388 414.595 22.974 415.285 23.3906C415.975 23.7943 416.789 23.9961 417.727 23.9961C418.664 23.9961 419.478 23.7943 420.168 23.3906C420.858 22.974 421.385 22.388 421.75 21.6328C422.128 20.8776 422.316 19.9922 422.316 18.9766C422.316 17.9609 422.128 17.0755 421.75 16.3203C421.385 15.5651 420.858 14.9857 420.168 14.582C419.478 14.1654 418.664 13.957 417.727 13.957ZM447.414 9.52344C448.247 9.52344 448.84 9.62109 449.191 9.81641C449.543 9.9987 449.719 10.3112 449.719 10.7539V14.875C449.719 15.3177 449.576 15.6367 449.289 15.832C449.016 16.0143 448.56 16.1055 447.922 16.1055C447.232 16.1055 446.757 15.9688 446.496 15.6953C445.728 14.875 444.849 14.2956 443.859 13.957C442.87 13.6055 441.724 13.4297 440.422 13.4297C439.654 13.4297 439.048 13.5664 438.605 13.8398C438.176 14.1133 437.961 14.4779 437.961 14.9336C437.961 15.4805 438.443 15.8711 439.406 16.1055C439.914 16.2357 440.78 16.3594 442.004 16.4766C443.215 16.6198 444.217 16.763 445.012 16.9062C445.819 17.0495 446.581 17.2643 447.297 17.5508C448.339 17.9805 449.152 18.5794 449.738 19.3477C450.324 20.1159 450.617 21.1315 450.617 22.3945C450.617 23.6315 450.311 24.7057 449.699 25.6172C449.1 26.5156 448.215 27.2122 447.043 27.707C445.884 28.1888 444.484 28.4297 442.844 28.4297C441.034 28.4297 439.354 27.9674 437.805 27.043V27.1992C437.805 27.6419 437.616 27.9544 437.238 28.1367C436.861 28.332 436.255 28.4297 435.422 28.4297C434.589 28.4297 433.996 28.332 433.645 28.1367C433.293 27.9544 433.117 27.6419 433.117 27.1992V22.8438C433.117 22.4141 433.267 22.1016 433.566 21.9062C433.879 21.7109 434.354 21.6133 434.992 21.6133C435.786 21.6133 436.327 21.7956 436.613 22.1602C437.264 22.9805 438.098 23.5794 439.113 23.957C440.129 24.3346 441.242 24.5234 442.453 24.5234C444.536 24.5234 445.578 23.9831 445.578 22.9023C445.578 22.5768 445.428 22.3164 445.129 22.1211C444.842 21.9258 444.413 21.763 443.84 21.6328C443.514 21.5677 442.759 21.4505 441.574 21.2812C440.259 21.125 439.126 20.9492 438.176 20.7539C437.238 20.5456 436.385 20.2266 435.617 19.7969C433.82 18.8073 432.922 17.2448 432.922 15.1094C432.922 13.9766 433.228 12.987 433.84 12.1406C434.452 11.2943 435.292 10.6497 436.359 10.207C437.44 9.7513 438.651 9.52344 439.992 9.52344C441.958 9.52344 443.703 9.9987 445.227 10.9492V10.7539C445.227 10.3112 445.383 9.9987 445.695 9.81641C446.021 9.62109 446.594 9.52344 447.414 9.52344ZM489.953 9.52344C491.932 9.52344 493.618 9.95312 495.012 10.8125C496.405 11.6589 497.453 12.8438 498.156 14.3672C498.872 15.8776 499.23 17.6094 499.23 19.5625C499.23 20.0052 499.133 20.3177 498.938 20.5C498.755 20.6823 498.443 20.7734 498 20.7734H485.461C485.708 21.8151 486.236 22.6159 487.043 23.1758C487.863 23.7227 488.898 23.9961 490.148 23.9961C492.167 23.9961 494.354 23.638 496.711 22.9219C496.867 22.8698 497.023 22.8438 497.18 22.8438C497.466 22.8438 497.714 22.974 497.922 23.2344C498.13 23.4948 498.319 23.9375 498.488 24.5625C498.618 25.0443 498.684 25.4544 498.684 25.793C498.684 26.1315 498.605 26.3984 498.449 26.5938C498.306 26.776 498.065 26.9258 497.727 27.043C496.424 27.4727 495.096 27.8112 493.742 28.0586C492.388 28.306 491.06 28.4297 489.758 28.4297C487.779 28.4297 486.073 28.026 484.641 27.2188C483.208 26.4115 482.115 25.2982 481.359 23.8789C480.617 22.4466 480.246 20.8125 480.246 18.9766C480.246 17.1536 480.637 15.526 481.418 14.0938C482.199 12.6615 483.326 11.5417 484.797 10.7344C486.268 9.92708 487.987 9.52344 489.953 9.52344ZM489.953 13.957C487.57 13.957 486.099 14.9596 485.539 16.9648H494.133C493.911 16.0143 493.436 15.2786 492.707 14.7578C491.991 14.224 491.073 13.957 489.953 13.957ZM539.27 4.81641C539.79 4.81641 540.214 4.92057 540.539 5.12891C540.865 5.32422 541.099 5.64323 541.242 6.08594L546.906 23.9961H548.605C548.918 23.9961 549.159 24.0482 549.328 24.1523C549.497 24.2565 549.621 24.4518 549.699 24.7383C549.79 25.0247 549.836 25.4414 549.836 25.9883C549.836 26.5352 549.79 26.9518 549.699 27.2383C549.621 27.5247 549.497 27.7266 549.328 27.8438C549.159 27.9479 548.918 28 548.605 28H540.324C540.012 28 539.771 27.9479 539.602 27.8438C539.432 27.7266 539.302 27.5247 539.211 27.2383C539.133 26.9518 539.094 26.5352 539.094 25.9883C539.094 25.4414 539.133 25.0247 539.211 24.7383C539.302 24.4518 539.432 24.2565 539.602 24.1523C539.771 24.0482 540.012 23.9961 540.324 23.9961H542.004L541.125 21.1641H534.016L533.137 23.9961H534.582C534.895 23.9961 535.135 24.0482 535.305 24.1523C535.474 24.2565 535.598 24.4518 535.676 24.7383C535.767 25.0247 535.812 25.4414 535.812 25.9883C535.812 26.5352 535.767 26.9518 535.676 27.2383C535.598 27.5247 535.474 27.7266 535.305 27.8438C535.135 27.9479 534.895 28 534.582 28H526.691C526.379 28 526.138 27.9479 525.969 27.8438C525.799 27.7266 525.676 27.5247 525.598 27.2383C525.507 26.9518 525.461 26.5352 525.461 25.9883C525.461 25.4414 525.507 25.0247 525.598 24.7383C525.676 24.4518 525.799 24.2565 525.969 24.1523C526.138 24.0482 526.379 23.9961 526.691 23.9961H528.332L533.273 8.82031H530.012C529.699 8.82031 529.458 8.76823 529.289 8.66406C529.12 8.54688 528.99 8.34505 528.898 8.05859C528.82 7.77214 528.781 7.35547 528.781 6.80859C528.781 6.26172 528.82 5.84505 528.898 5.55859C528.99 5.27214 529.12 5.07682 529.289 4.97266C529.458 4.86849 529.699 4.81641 530.012 4.81641H539.27ZM537.551 8.82031L535.148 17.1602H540.012L537.668 8.82031H537.551ZM562.922 2.375C563.365 2.375 563.677 2.47266 563.859 2.66797C564.055 2.85026 564.152 3.16276 564.152 3.60547V23.9961H569.641C569.953 23.9961 570.194 24.0547 570.363 24.1719C570.533 24.276 570.656 24.4714 570.734 24.7578C570.826 25.0443 570.871 25.4609 570.871 26.0078C570.871 26.5547 570.826 26.9714 570.734 27.2578C570.656 27.5443 570.533 27.7396 570.363 27.8438C570.194 27.9479 569.953 28 569.641 28H553.938C553.625 28 553.384 27.9479 553.215 27.8438C553.046 27.7396 552.915 27.5443 552.824 27.2578C552.746 26.9714 552.707 26.5547 552.707 26.0078C552.707 25.4609 552.746 25.0443 552.824 24.7578C552.915 24.4714 553.046 24.276 553.215 24.1719C553.384 24.0547 553.625 23.9961 553.938 23.9961H559.27V6.37891H554.719C554.406 6.37891 554.165 6.32682 553.996 6.22266C553.827 6.11849 553.697 5.92318 553.605 5.63672C553.527 5.35026 553.488 4.93359 553.488 4.38672C553.488 3.83984 553.527 3.42318 553.605 3.13672C553.697 2.85026 553.827 2.65495 553.996 2.55078C554.165 2.43359 554.406 2.375 554.719 2.375H562.922ZM583.938 9.52344C585.174 9.52344 586.301 9.78385 587.316 10.3047C588.332 10.8255 589.178 11.5742 589.855 12.5508V11.1836C589.855 10.7409 589.947 10.4284 590.129 10.2461C590.324 10.0508 590.643 9.95312 591.086 9.95312H595.656C595.969 9.95312 596.21 10.0117 596.379 10.1289C596.548 10.2331 596.672 10.4284 596.75 10.7148C596.841 11.0013 596.887 11.418 596.887 11.9648C596.887 12.5117 596.841 12.9284 596.75 13.2148C596.672 13.5013 596.548 13.6966 596.379 13.8008C596.21 13.9049 595.969 13.957 595.656 13.957H593.957V27.9805C593.957 30.5326 593.189 32.5052 591.652 33.8984C590.129 35.3047 587.844 36.0078 584.797 36.0078C583.677 36.0078 582.453 35.8971 581.125 35.6758C579.797 35.4674 578.527 35.1745 577.316 34.7969C576.691 34.6016 576.379 34.1523 576.379 33.4492C576.379 33.1367 576.464 32.681 576.633 32.082C576.828 31.4701 577.043 31.0273 577.277 30.7539C577.525 30.4805 577.811 30.3438 578.137 30.3438C578.306 30.3438 578.462 30.3698 578.605 30.4219C581.092 31.1901 583.091 31.5742 584.602 31.5742C586.177 31.5742 587.316 31.2422 588.02 30.5781C588.723 29.9271 589.074 28.931 589.074 27.5898V25.5977C588.41 26.3138 587.642 26.8672 586.77 27.2578C585.897 27.6484 584.953 27.8438 583.938 27.8438C582.258 27.8438 580.78 27.4531 579.504 26.6719C578.228 25.8776 577.245 24.7904 576.555 23.4102C575.865 22.0169 575.52 20.4414 575.52 18.6836C575.52 16.9258 575.865 15.3568 576.555 13.9766C577.245 12.5833 578.228 11.4961 579.504 10.7148C580.78 9.92057 582.258 9.52344 583.938 9.52344ZM584.719 13.957C583.508 13.957 582.544 14.3737 581.828 15.207C581.112 16.0273 580.754 17.1862 580.754 18.6836C580.754 20.181 581.112 21.3464 581.828 22.1797C582.544 23 583.508 23.4102 584.719 23.4102C585.552 23.4102 586.307 23.2344 586.984 22.8828C587.674 22.5182 588.215 21.9844 588.605 21.2812C589.009 20.5651 589.211 19.6992 589.211 18.6836C589.211 17.668 589.009 16.8086 588.605 16.1055C588.215 15.3893 587.674 14.8555 586.984 14.5039C586.307 14.1393 585.552 13.957 584.719 13.957ZM609.602 9.52344C611.581 9.52344 613.312 9.92708 614.797 10.7344C616.281 11.5417 617.421 12.6615 618.215 14.0938C619.022 15.526 619.426 17.1536 619.426 18.9766C619.426 20.7995 619.022 22.4271 618.215 23.8594C617.421 25.2917 616.281 26.4115 614.797 27.2188C613.312 28.026 611.581 28.4297 609.602 28.4297C607.622 28.4297 605.891 28.026 604.406 27.2188C602.922 26.4115 601.776 25.2917 600.969 23.8594C600.174 22.4271 599.777 20.7995 599.777 18.9766C599.777 17.1536 600.174 15.526 600.969 14.0938C601.776 12.6615 602.922 11.5417 604.406 10.7344C605.891 9.92708 607.622 9.52344 609.602 9.52344ZM609.602 13.957C608.664 13.957 607.85 14.1654 607.16 14.582C606.47 14.9857 605.936 15.5651 605.559 16.3203C605.194 17.0755 605.012 17.9609 605.012 18.9766C605.012 19.9922 605.194 20.8776 605.559 21.6328C605.936 22.388 606.47 22.974 607.16 23.3906C607.85 23.7943 608.664 23.9961 609.602 23.9961C610.539 23.9961 611.353 23.7943 612.043 23.3906C612.733 22.974 613.26 22.388 613.625 21.6328C614.003 20.8776 614.191 19.9922 614.191 18.9766C614.191 17.9609 614.003 17.0755 613.625 16.3203C613.26 15.5651 612.733 14.9857 612.043 14.582C611.353 14.1654 610.539 13.957 609.602 13.957ZM639.699 9.52344C640.806 9.52344 641.848 9.88802 642.824 10.6172C643.397 11.0339 643.684 11.5807 643.684 12.2578C643.684 12.6875 643.566 13.1953 643.332 13.7812C643.098 14.3672 642.831 14.8099 642.531 15.1094C642.245 15.4089 641.939 15.5586 641.613 15.5586C641.431 15.5586 641.236 15.5065 641.027 15.4023C640.298 14.9987 639.543 14.7969 638.762 14.7969C637.759 14.7969 636.822 15.1159 635.949 15.7539C635.077 16.3919 634.374 17.2708 633.84 18.3906C633.319 19.5104 633.059 20.7604 633.059 22.1406V23.9961H638.664C638.977 23.9961 639.217 24.0547 639.387 24.1719C639.556 24.276 639.68 24.4714 639.758 24.7578C639.849 25.0443 639.895 25.4609 639.895 26.0078C639.895 26.5547 639.849 26.9714 639.758 27.2578C639.68 27.5443 639.556 27.7396 639.387 27.8438C639.217 27.9479 638.977 28 638.664 28H625.305C624.992 28 624.751 27.9479 624.582 27.8438C624.413 27.7396 624.283 27.5443 624.191 27.2578C624.113 26.9714 624.074 26.5547 624.074 26.0078C624.074 25.4609 624.113 25.0443 624.191 24.7578C624.283 24.4714 624.413 24.276 624.582 24.1719C624.751 24.0547 624.992 23.9961 625.305 23.9961H628.176V13.957H625.891C625.578 13.957 625.337 13.9049 625.168 13.8008C624.999 13.6966 624.868 13.5013 624.777 13.2148C624.699 12.9284 624.66 12.5117 624.66 11.9648C624.66 11.418 624.699 11.0013 624.777 10.7148C624.868 10.4284 624.999 10.2331 625.168 10.1289C625.337 10.0117 625.578 9.95312 625.891 9.95312H631.242C631.685 9.95312 631.997 10.0508 632.18 10.2461C632.375 10.4284 632.473 10.7409 632.473 11.1836V15.4219C633.449 13.5339 634.569 12.082 635.832 11.0664C637.108 10.0378 638.397 9.52344 639.699 9.52344ZM659.055 9.95312C659.497 9.95312 659.81 10.0508 659.992 10.2461C660.188 10.4284 660.285 10.7409 660.285 11.1836V23.9961H665.773C666.086 23.9961 666.327 24.0547 666.496 24.1719C666.665 24.276 666.789 24.4714 666.867 24.7578C666.958 25.0443 667.004 25.4609 667.004 26.0078C667.004 26.5547 666.958 26.9714 666.867 27.2578C666.789 27.5443 666.665 27.7396 666.496 27.8438C666.327 27.9479 666.086 28 665.773 28H650.07C649.758 28 649.517 27.9479 649.348 27.8438C649.178 27.7396 649.048 27.5443 648.957 27.2578C648.879 26.9714 648.84 26.5547 648.84 26.0078C648.84 25.4609 648.879 25.0443 648.957 24.7578C649.048 24.4714 649.178 24.276 649.348 24.1719C649.517 24.0547 649.758 23.9961 650.07 23.9961H655.402V13.957H651.242C650.93 13.957 650.689 13.9049 650.52 13.8008C650.35 13.6966 650.22 13.5013 650.129 13.2148C650.051 12.9284 650.012 12.5117 650.012 11.9648C650.012 11.418 650.051 11.0013 650.129 10.7148C650.22 10.4284 650.35 10.2331 650.52 10.1289C650.689 10.0117 650.93 9.95312 651.242 9.95312H659.055ZM657.785 1.37891C658.71 1.37891 659.354 1.47656 659.719 1.67188C660.096 1.85417 660.285 2.16667 660.285 2.60938V5.8125C660.285 6.25521 660.109 6.57422 659.758 6.76953C659.419 6.95182 658.794 7.04297 657.883 7.04297C656.971 7.04297 656.327 6.95182 655.949 6.76953C655.585 6.57422 655.402 6.25521 655.402 5.8125V2.60938C655.402 2.15365 655.572 1.83464 655.91 1.65234C656.249 1.47005 656.874 1.37891 657.785 1.37891ZM679.035 4.38672C679.647 4.38672 680.116 4.43229 680.441 4.52344C680.78 4.60156 681.014 4.72526 681.145 4.89453C681.275 5.0638 681.34 5.30469 681.34 5.61719V11.125H688.586C689.042 11.125 689.361 11.2747 689.543 11.5742C689.725 11.8737 689.816 12.4271 689.816 13.2344C689.816 14.0417 689.725 14.5951 689.543 14.8945C689.361 15.181 689.042 15.3242 688.586 15.3242H681.34V20.7539C681.34 22.9154 682.18 23.9961 683.859 23.9961C684.458 23.9961 685.155 23.8659 685.949 23.6055C686.757 23.332 687.694 22.9544 688.762 22.4727C689.048 22.3555 689.276 22.2969 689.445 22.2969C689.719 22.2969 689.973 22.4141 690.207 22.6484C690.441 22.8698 690.663 23.2409 690.871 23.7617C691.105 24.3477 691.223 24.8229 691.223 25.1875C691.223 25.474 691.151 25.7148 691.008 25.9102C690.878 26.0924 690.676 26.2552 690.402 26.3984C687.72 27.7526 685.396 28.4297 683.43 28.4297C681.164 28.4297 679.432 27.7982 678.234 26.5352C677.049 25.2721 676.457 23.4297 676.457 21.0078V15.3242H672.688C672.232 15.3242 671.913 15.181 671.73 14.8945C671.548 14.5951 671.457 14.0417 671.457 13.2344C671.457 12.4271 671.548 11.8737 671.73 11.5742C671.913 11.2747 672.232 11.125 672.688 11.125H676.457V5.61719C676.457 5.17448 676.652 4.86198 677.043 4.67969C677.447 4.48438 678.111 4.38672 679.035 4.38672ZM712.414 9.52344C713.612 9.52344 714.556 10.0117 715.246 10.9883C715.936 11.9648 716.281 13.4492 716.281 15.4414V26.7695C716.281 27.2122 716.184 27.5312 715.988 27.7266C715.806 27.9089 715.493 28 715.051 28H712.629C712.186 28 711.867 27.9089 711.672 27.7266C711.49 27.5312 711.398 27.2122 711.398 26.7695V16.5547C711.398 15.8646 711.314 15.3568 711.145 15.0312C710.988 14.7057 710.734 14.543 710.383 14.543C709.771 14.543 709.283 15.0182 708.918 15.9688C708.566 16.9193 708.391 18.306 708.391 20.1289V26.7695C708.391 27.2122 708.293 27.5312 708.098 27.7266C707.915 27.9089 707.603 28 707.16 28H704.738C704.296 28 703.977 27.9089 703.781 27.7266C703.599 27.5312 703.508 27.2122 703.508 26.7695V16.5547C703.508 15.8646 703.423 15.3568 703.254 15.0312C703.098 14.7057 702.844 14.543 702.492 14.543C701.88 14.543 701.392 15.0182 701.027 15.9688C700.676 16.9193 700.5 18.306 700.5 20.1289V26.7695C700.5 27.2122 700.402 27.5312 700.207 27.7266C700.025 27.9089 699.712 28 699.27 28H696.848C696.405 28 696.086 27.9089 695.891 27.7266C695.708 27.5312 695.617 27.2122 695.617 26.7695V13.957H694.504C694.191 13.957 693.951 13.9049 693.781 13.8008C693.612 13.6966 693.488 13.5013 693.41 13.2148C693.319 12.9284 693.273 12.5117 693.273 11.9648C693.273 11.418 693.319 11.0013 693.41 10.7148C693.488 10.4284 693.612 10.2331 693.781 10.1289C693.951 10.0117 694.191 9.95312 694.504 9.95312H697.902C698.345 9.95312 698.658 10.0508 698.84 10.2461C699.035 10.4284 699.133 10.7409 699.133 11.1836V13.9961C699.745 12.5247 700.461 11.4115 701.281 10.6562C702.115 9.90104 703.026 9.52344 704.016 9.52344C705.943 9.52344 707.186 10.8451 707.746 13.4883C708.345 12.1862 709.042 11.2031 709.836 10.5391C710.63 9.86198 711.49 9.52344 712.414 9.52344ZM729.523 9.52344C731.503 9.52344 733.234 9.92708 734.719 10.7344C736.203 11.5417 737.342 12.6615 738.137 14.0938C738.944 15.526 739.348 17.1536 739.348 18.9766C739.348 20.7995 738.944 22.4271 738.137 23.8594C737.342 25.2917 736.203 26.4115 734.719 27.2188C733.234 28.026 731.503 28.4297 729.523 28.4297C727.544 28.4297 725.812 28.026 724.328 27.2188C722.844 26.4115 721.698 25.2917 720.891 23.8594C720.096 22.4271 719.699 20.7995 719.699 18.9766C719.699 17.1536 720.096 15.526 720.891 14.0938C721.698 12.6615 722.844 11.5417 724.328 10.7344C725.812 9.92708 727.544 9.52344 729.523 9.52344ZM729.523 13.957C728.586 13.957 727.772 14.1654 727.082 14.582C726.392 14.9857 725.858 15.5651 725.48 16.3203C725.116 17.0755 724.934 17.9609 724.934 18.9766C724.934 19.9922 725.116 20.8776 725.48 21.6328C725.858 22.388 726.392 22.974 727.082 23.3906C727.772 23.7943 728.586 23.9961 729.523 23.9961C730.461 23.9961 731.275 23.7943 731.965 23.3906C732.655 22.974 733.182 22.388 733.547 21.6328C733.924 20.8776 734.113 19.9922 734.113 18.9766C734.113 17.9609 733.924 17.0755 733.547 16.3203C733.182 15.5651 732.655 14.9857 731.965 14.582C731.275 14.1654 730.461 13.957 729.523 13.957Z" fill="#1C256D"/>
<path d="M759.309 0.675781C760.181 0.675781 760.91 0.81901 761.496 1.10547C762.095 1.39193 762.395 1.75651 762.395 2.19922C762.395 2.34245 762.368 2.47266 762.316 2.58984L749.309 34.1914C749.074 34.7513 748.54 35.0312 747.707 35.0312C746.835 35.0312 746.099 34.888 745.5 34.6016C744.914 34.3151 744.621 33.9505 744.621 33.5078C744.621 33.3646 744.647 33.2344 744.699 33.1172L757.707 1.51562C757.941 0.955729 758.475 0.675781 759.309 0.675781Z" fill="#4854AF"/>
</svg>
