<svg width="356" height="36" viewBox="0 0 356 36" fill="none" xmlns="http://www.w3.org/2000/svg">
<path d="M16.4766 6.92578C16.737 6.79557 16.9518 6.73047 17.1211 6.73047C17.3815 6.73047 17.6289 6.84766 17.8633 7.08203C18.0977 7.31641 18.3516 7.70703 18.625 8.25391C18.9635 8.93099 19.1328 9.47135 19.1328 9.875C19.1328 10.3177 18.8984 10.6628 18.4297 10.9102L7.00391 16.6133L18.4297 22.3164C18.8984 22.5638 19.1328 22.9089 19.1328 23.3516C19.1328 23.7552 18.9635 24.2956 18.625 24.9727C18.3516 25.5195 18.0977 25.9102 17.8633 26.1445C17.6289 26.3789 17.3815 26.4961 17.1211 26.4961C16.9518 26.4961 16.737 26.431 16.4766 26.3008L1.24219 18.4492C0.916667 18.2799 0.682292 18.0651 0.539062 17.8047C0.408854 17.5443 0.34375 17.1471 0.34375 16.6133C0.34375 16.0794 0.408854 15.6823 0.539062 15.4219C0.682292 15.1615 0.916667 14.9466 1.24219 14.7773L16.4766 6.92578ZM354.523 14.7773C354.849 14.9466 355.077 15.1615 355.207 15.4219C355.35 15.6823 355.422 16.0794 355.422 16.6133C355.422 17.1471 355.35 17.5443 355.207 17.8047C355.077 18.0651 354.849 18.2799 354.523 18.4492L339.289 26.3008C339.029 26.431 338.814 26.4961 338.645 26.4961C338.384 26.4961 338.137 26.3789 337.902 26.1445C337.668 25.9102 337.414 25.5195 337.141 24.9727C336.802 24.2956 336.633 23.7552 336.633 23.3516C336.633 22.9089 336.867 22.5638 337.336 22.3164L348.762 16.6133L337.336 10.9102C336.867 10.6628 336.633 10.3177 336.633 9.875C336.633 9.47135 336.802 8.93099 337.141 8.25391C337.414 7.70703 337.668 7.31641 337.902 7.08203C338.137 6.84766 338.384 6.73047 338.645 6.73047C338.814 6.73047 339.029 6.79557 339.289 6.92578L354.523 14.7773Z" fill="#D44A4A"/>
<path d="M41.0469 4.38672C41.8542 4.38672 42.4076 4.47786 42.707 4.66016C43.0065 4.84245 43.1562 5.16146 43.1562 5.61719V12.3359C43.1562 12.7786 42.9544 13.0977 42.5508 13.293C42.1602 13.4753 41.5026 13.5664 40.5781 13.5664C39.9661 13.5664 39.4909 13.5273 39.1523 13.4492C38.8268 13.3581 38.599 13.2279 38.4688 13.0586C38.3385 12.8893 38.2734 12.6484 38.2734 12.3359C38.2734 11.2161 37.9349 10.3503 37.2578 9.73828C36.5807 9.1263 35.5521 8.82031 34.1719 8.82031C32.362 8.82031 30.9883 9.47135 30.0508 10.7734C29.1133 12.0755 28.6445 13.9505 28.6445 16.3984C28.6445 18.8203 29.1393 20.6953 30.1289 22.0234C31.1315 23.3385 32.5443 23.9961 34.3672 23.9961C35.8125 23.9961 37.1797 23.8008 38.4688 23.4102V20.1484H34.6992C34.3867 20.1484 34.1458 20.0964 33.9766 19.9922C33.8073 19.888 33.6771 19.6927 33.5859 19.4062C33.5078 19.1198 33.4688 18.7031 33.4688 18.1562C33.4688 17.6094 33.5078 17.1927 33.5859 16.9062C33.6771 16.6198 33.8073 16.4245 33.9766 16.3203C34.1458 16.2031 34.3867 16.1445 34.6992 16.1445H43.957C44.2695 16.1445 44.5104 16.2031 44.6797 16.3203C44.849 16.4245 44.9727 16.6198 45.0508 16.9062C45.1419 17.1927 45.1875 17.6094 45.1875 18.1562C45.1875 18.7031 45.1419 19.1198 45.0508 19.4062C44.9727 19.6927 44.849 19.888 44.6797 19.9922C44.5104 20.0964 44.2695 20.1484 43.957 20.1484H43.3516V25.207C43.3516 25.5195 43.2865 25.793 43.1562 26.0273C43.0391 26.2617 42.8698 26.4375 42.6484 26.5547C41.4375 27.1797 40.1094 27.6484 38.6641 27.9609C37.2188 28.2734 35.7214 28.4297 34.1719 28.4297C32.0365 28.4297 30.1549 27.9414 28.5273 26.9648C26.8997 25.9883 25.6367 24.5951 24.7383 22.7852C23.8529 20.9622 23.4102 18.8333 23.4102 16.3984C23.4102 13.9766 23.8464 11.8607 24.7188 10.0508C25.5911 8.22786 26.7956 6.82812 28.332 5.85156C29.8815 4.875 31.6328 4.38672 33.5859 4.38672C35.8776 4.38672 37.5703 5.15495 38.6641 6.69141V5.61719C38.6641 5.17448 38.8529 4.86198 39.2305 4.67969C39.6081 4.48438 40.2135 4.38672 41.0469 4.38672ZM59.4453 9.95312C59.888 9.95312 60.2005 10.0508 60.3828 10.2461C60.5781 10.4284 60.6758 10.7409 60.6758 11.1836V23.9961H66.1641C66.4766 23.9961 66.7174 24.0547 66.8867 24.1719C67.056 24.276 67.1797 24.4714 67.2578 24.7578C67.349 25.0443 67.3945 25.4609 67.3945 26.0078C67.3945 26.5547 67.349 26.9714 67.2578 27.2578C67.1797 27.5443 67.056 27.7396 66.8867 27.8438C66.7174 27.9479 66.4766 28 66.1641 28H50.4609C50.1484 28 49.9076 27.9479 49.7383 27.8438C49.569 27.7396 49.4388 27.5443 49.3477 27.2578C49.2695 26.9714 49.2305 26.5547 49.2305 26.0078C49.2305 25.4609 49.2695 25.0443 49.3477 24.7578C49.4388 24.4714 49.569 24.276 49.7383 24.1719C49.9076 24.0547 50.1484 23.9961 50.4609 23.9961H55.793V13.957H51.6328C51.3203 13.957 51.0794 13.9049 50.9102 13.8008C50.7409 13.6966 50.6107 13.5013 50.5195 13.2148C50.4414 12.9284 50.4023 12.5117 50.4023 11.9648C50.4023 11.418 50.4414 11.0013 50.5195 10.7148C50.6107 10.4284 50.7409 10.2331 50.9102 10.1289C51.0794 10.0117 51.3203 9.95312 51.6328 9.95312H59.4453ZM58.1758 1.37891C59.1003 1.37891 59.7448 1.47656 60.1094 1.67188C60.487 1.85417 60.6758 2.16667 60.6758 2.60938V5.8125C60.6758 6.25521 60.5 6.57422 60.1484 6.76953C59.8099 6.95182 59.1849 7.04297 58.2734 7.04297C57.362 7.04297 56.7174 6.95182 56.3398 6.76953C55.9753 6.57422 55.793 6.25521 55.793 5.8125V2.60938C55.793 2.15365 55.9622 1.83464 56.3008 1.65234C56.6393 1.47005 57.2643 1.37891 58.1758 1.37891ZM79.4258 4.38672C80.0378 4.38672 80.5065 4.43229 80.832 4.52344C81.1706 4.60156 81.4049 4.72526 81.5352 4.89453C81.6654 5.0638 81.7305 5.30469 81.7305 5.61719V11.125H88.9766C89.4323 11.125 89.7513 11.2747 89.9336 11.5742C90.1159 11.8737 90.207 12.4271 90.207 13.2344C90.207 14.0417 90.1159 14.5951 89.9336 14.8945C89.7513 15.181 89.4323 15.3242 88.9766 15.3242H81.7305V20.7539C81.7305 22.9154 82.5703 23.9961 84.25 23.9961C84.849 23.9961 85.5456 23.8659 86.3398 23.6055C87.1471 23.332 88.0846 22.9544 89.1523 22.4727C89.4388 22.3555 89.6667 22.2969 89.8359 22.2969C90.1094 22.2969 90.3633 22.4141 90.5977 22.6484C90.832 22.8698 91.0534 23.2409 91.2617 23.7617C91.4961 24.3477 91.6133 24.8229 91.6133 25.1875C91.6133 25.474 91.5417 25.7148 91.3984 25.9102C91.2682 26.0924 91.0664 26.2552 90.793 26.3984C88.1107 27.7526 85.7865 28.4297 83.8203 28.4297C81.5547 28.4297 79.8229 27.7982 78.625 26.5352C77.4401 25.2721 76.8477 23.4297 76.8477 21.0078V15.3242H73.0781C72.6224 15.3242 72.3034 15.181 72.1211 14.8945C71.9388 14.5951 71.8477 14.0417 71.8477 13.2344C71.8477 12.4271 71.9388 11.8737 72.1211 11.5742C72.3034 11.2747 72.6224 11.125 73.0781 11.125H76.8477V5.61719C76.8477 5.17448 77.043 4.86198 77.4336 4.67969C77.8372 4.48438 78.5013 4.38672 79.4258 4.38672ZM129.309 4.38672C131.327 4.38672 133.469 5.01172 135.734 6.26172C136.021 6.41797 136.229 6.59375 136.359 6.78906C136.503 6.97135 136.574 7.19922 136.574 7.47266V11.3203C136.574 11.763 136.385 12.082 136.008 12.2773C135.63 12.4596 135.025 12.5508 134.191 12.5508C133.384 12.5508 132.831 12.4596 132.531 12.2773C132.232 12.0951 132.082 11.776 132.082 11.3203V9.32812C131.145 8.85938 130.214 8.625 129.289 8.625C128.56 8.625 127.967 8.85938 127.512 9.32812C127.056 9.79688 126.828 10.4154 126.828 11.1836C126.828 11.8086 127.01 12.4271 127.375 13.0391C127.74 13.638 128.26 14.2891 128.938 14.9922L132.473 18.6836C132.824 17.8372 133.13 17.0169 133.391 16.2227C133.482 15.9622 133.605 15.7604 133.762 15.6172C133.918 15.474 134.133 15.4023 134.406 15.4023H138.703C139.016 15.4023 139.257 15.4544 139.426 15.5586C139.595 15.6628 139.719 15.8581 139.797 16.1445C139.888 16.431 139.934 16.8477 139.934 17.3945C139.934 17.9414 139.888 18.3581 139.797 18.6445C139.719 18.931 139.595 19.1328 139.426 19.25C139.257 19.3542 139.016 19.4062 138.703 19.4062H136.926C136.574 20.4089 136.203 21.3268 135.812 22.1602L137.59 23.9961H139.094C139.406 23.9961 139.647 24.0547 139.816 24.1719C139.986 24.276 140.109 24.4714 140.188 24.7578C140.279 25.0443 140.324 25.4609 140.324 26.0078C140.324 26.5547 140.279 26.9714 140.188 27.2578C140.109 27.5443 139.986 27.7396 139.816 27.8438C139.647 27.9479 139.406 28 139.094 28H135.754C135.233 28 134.764 27.7852 134.348 27.3555L133.078 26.0469C131.398 27.6354 129.315 28.4297 126.828 28.4297C125.461 28.4297 124.263 28.1497 123.234 27.5898C122.206 27.0169 121.411 26.2292 120.852 25.2266C120.292 24.2109 120.012 23.0521 120.012 21.75C120.012 20.513 120.305 19.4193 120.891 18.4688C121.477 17.5052 122.355 16.6328 123.527 15.8516C122.421 14.2891 121.867 12.7005 121.867 11.0859C121.867 9.79688 122.167 8.64453 122.766 7.62891C123.365 6.61328 124.224 5.81901 125.344 5.24609C126.464 4.67318 127.785 4.38672 129.309 4.38672ZM126.164 18.8398C125.721 19.2435 125.389 19.6667 125.168 20.1094C124.96 20.5391 124.855 21.0208 124.855 21.5547C124.855 22.2969 125.07 22.8893 125.5 23.332C125.93 23.7747 126.503 23.9961 127.219 23.9961C128.234 23.9961 129.152 23.599 129.973 22.8047L126.164 18.8398ZM184.953 4.38672C185.76 4.38672 186.314 4.47786 186.613 4.66016C186.913 4.84245 187.062 5.16146 187.062 5.61719V12.3359C187.062 12.7786 186.861 13.0977 186.457 13.293C186.066 13.4753 185.409 13.5664 184.484 13.5664C183.872 13.5664 183.397 13.5273 183.059 13.4492C182.733 13.3581 182.505 13.2279 182.375 13.0586C182.245 12.8893 182.18 12.6484 182.18 12.3359C182.18 11.2161 181.841 10.3503 181.164 9.73828C180.487 9.1263 179.458 8.82031 178.078 8.82031C176.268 8.82031 174.895 9.47135 173.957 10.7734C173.02 12.0755 172.551 13.9505 172.551 16.3984C172.551 18.8203 173.046 20.6953 174.035 22.0234C175.038 23.3385 176.451 23.9961 178.273 23.9961C179.719 23.9961 181.086 23.8008 182.375 23.4102V20.1484H178.605C178.293 20.1484 178.052 20.0964 177.883 19.9922C177.714 19.888 177.583 19.6927 177.492 19.4062C177.414 19.1198 177.375 18.7031 177.375 18.1562C177.375 17.6094 177.414 17.1927 177.492 16.9062C177.583 16.6198 177.714 16.4245 177.883 16.3203C178.052 16.2031 178.293 16.1445 178.605 16.1445H187.863C188.176 16.1445 188.417 16.2031 188.586 16.3203C188.755 16.4245 188.879 16.6198 188.957 16.9062C189.048 17.1927 189.094 17.6094 189.094 18.1562C189.094 18.7031 189.048 19.1198 188.957 19.4062C188.879 19.6927 188.755 19.888 188.586 19.9922C188.417 20.0964 188.176 20.1484 187.863 20.1484H187.258V25.207C187.258 25.5195 187.193 25.793 187.062 26.0273C186.945 26.2617 186.776 26.4375 186.555 26.5547C185.344 27.1797 184.016 27.6484 182.57 27.9609C181.125 28.2734 179.628 28.4297 178.078 28.4297C175.943 28.4297 174.061 27.9414 172.434 26.9648C170.806 25.9883 169.543 24.5951 168.645 22.7852C167.759 20.9622 167.316 18.8333 167.316 16.3984C167.316 13.9766 167.753 11.8607 168.625 10.0508C169.497 8.22786 170.702 6.82812 172.238 5.85156C173.788 4.875 175.539 4.38672 177.492 4.38672C179.784 4.38672 181.477 5.15495 182.57 6.69141V5.61719C182.57 5.17448 182.759 4.86198 183.137 4.67969C183.514 4.48438 184.12 4.38672 184.953 4.38672ZM203.352 9.95312C203.794 9.95312 204.107 10.0508 204.289 10.2461C204.484 10.4284 204.582 10.7409 204.582 11.1836V23.9961H210.07C210.383 23.9961 210.624 24.0547 210.793 24.1719C210.962 24.276 211.086 24.4714 211.164 24.7578C211.255 25.0443 211.301 25.4609 211.301 26.0078C211.301 26.5547 211.255 26.9714 211.164 27.2578C211.086 27.5443 210.962 27.7396 210.793 27.8438C210.624 27.9479 210.383 28 210.07 28H194.367C194.055 28 193.814 27.9479 193.645 27.8438C193.475 27.7396 193.345 27.5443 193.254 27.2578C193.176 26.9714 193.137 26.5547 193.137 26.0078C193.137 25.4609 193.176 25.0443 193.254 24.7578C193.345 24.4714 193.475 24.276 193.645 24.1719C193.814 24.0547 194.055 23.9961 194.367 23.9961H199.699V13.957H195.539C195.227 13.957 194.986 13.9049 194.816 13.8008C194.647 13.6966 194.517 13.5013 194.426 13.2148C194.348 12.9284 194.309 12.5117 194.309 11.9648C194.309 11.418 194.348 11.0013 194.426 10.7148C194.517 10.4284 194.647 10.2331 194.816 10.1289C194.986 10.0117 195.227 9.95312 195.539 9.95312H203.352ZM202.082 1.37891C203.007 1.37891 203.651 1.47656 204.016 1.67188C204.393 1.85417 204.582 2.16667 204.582 2.60938V5.8125C204.582 6.25521 204.406 6.57422 204.055 6.76953C203.716 6.95182 203.091 7.04297 202.18 7.04297C201.268 7.04297 200.624 6.95182 200.246 6.76953C199.882 6.57422 199.699 6.25521 199.699 5.8125V2.60938C199.699 2.15365 199.868 1.83464 200.207 1.65234C200.546 1.47005 201.171 1.37891 202.082 1.37891ZM223.332 4.38672C223.944 4.38672 224.413 4.43229 224.738 4.52344C225.077 4.60156 225.311 4.72526 225.441 4.89453C225.572 5.0638 225.637 5.30469 225.637 5.61719V11.125H232.883C233.339 11.125 233.658 11.2747 233.84 11.5742C234.022 11.8737 234.113 12.4271 234.113 13.2344C234.113 14.0417 234.022 14.5951 233.84 14.8945C233.658 15.181 233.339 15.3242 232.883 15.3242H225.637V20.7539C225.637 22.9154 226.477 23.9961 228.156 23.9961C228.755 23.9961 229.452 23.8659 230.246 23.6055C231.053 23.332 231.991 22.9544 233.059 22.4727C233.345 22.3555 233.573 22.2969 233.742 22.2969C234.016 22.2969 234.27 22.4141 234.504 22.6484C234.738 22.8698 234.96 23.2409 235.168 23.7617C235.402 24.3477 235.52 24.8229 235.52 25.1875C235.52 25.474 235.448 25.7148 235.305 25.9102C235.174 26.0924 234.973 26.2552 234.699 26.3984C232.017 27.7526 229.693 28.4297 227.727 28.4297C225.461 28.4297 223.729 27.7982 222.531 26.5352C221.346 25.2721 220.754 23.4297 220.754 21.0078V15.3242H216.984C216.529 15.3242 216.21 15.181 216.027 14.8945C215.845 14.5951 215.754 14.0417 215.754 13.2344C215.754 12.4271 215.845 11.8737 216.027 11.5742C216.21 11.2747 216.529 11.125 216.984 11.125H220.754V5.61719C220.754 5.17448 220.949 4.86198 221.34 4.67969C221.743 4.48438 222.408 4.38672 223.332 4.38672ZM245.539 2.375C245.982 2.375 246.294 2.47266 246.477 2.66797C246.672 2.85026 246.77 3.16276 246.77 3.60547V13.0977C248.332 10.7148 250.22 9.52344 252.434 9.52344C253.618 9.52344 254.654 9.78385 255.539 10.3047C256.438 10.8255 257.128 11.5677 257.609 12.5312C258.091 13.4818 258.332 14.6016 258.332 15.8906V23.9961H259.836C260.148 23.9961 260.389 24.0547 260.559 24.1719C260.728 24.276 260.852 24.4714 260.93 24.7578C261.021 25.0443 261.066 25.4609 261.066 26.0078C261.066 26.5547 261.021 26.9714 260.93 27.2578C260.852 27.5443 260.728 27.7396 260.559 27.8438C260.389 27.9479 260.148 28 259.836 28H252.531C252.219 28 251.978 27.9479 251.809 27.8438C251.639 27.7396 251.509 27.5443 251.418 27.2578C251.34 26.9714 251.301 26.5547 251.301 26.0078C251.301 25.4609 251.34 25.0443 251.418 24.7578C251.509 24.4714 251.639 24.276 251.809 24.1719C251.978 24.0547 252.219 23.9961 252.531 23.9961H253.449V17.043C253.449 16.0273 253.273 15.2591 252.922 14.7383C252.57 14.2174 251.984 13.957 251.164 13.957C250.409 13.957 249.693 14.276 249.016 14.9141C248.339 15.5391 247.792 16.3789 247.375 17.4336C246.971 18.4883 246.77 19.6146 246.77 20.8125V23.9961H247.688C248 23.9961 248.241 24.0547 248.41 24.1719C248.579 24.276 248.703 24.4714 248.781 24.7578C248.872 25.0443 248.918 25.4609 248.918 26.0078C248.918 26.5547 248.872 26.9714 248.781 27.2578C248.703 27.5443 248.579 27.7396 248.41 27.8438C248.241 27.9479 248 28 247.688 28H240.383C240.07 28 239.829 27.9479 239.66 27.8438C239.491 27.7396 239.361 27.5443 239.27 27.2578C239.191 26.9714 239.152 26.5547 239.152 26.0078C239.152 25.4609 239.191 25.0443 239.27 24.7578C239.361 24.4714 239.491 24.276 239.66 24.1719C239.829 24.0547 240.07 23.9961 240.383 23.9961H241.887V6.37891H239.992C239.68 6.37891 239.439 6.32682 239.27 6.22266C239.1 6.11849 238.97 5.92318 238.879 5.63672C238.801 5.35026 238.762 4.93359 238.762 4.38672C238.762 3.83984 238.801 3.42318 238.879 3.13672C238.97 2.85026 239.1 2.65495 239.27 2.55078C239.439 2.43359 239.68 2.375 239.992 2.375H245.539ZM280.754 9.95312C281.197 9.95312 281.509 10.0508 281.691 10.2461C281.887 10.4284 281.984 10.7409 281.984 11.1836V23.9961H283.488C283.801 23.9961 284.042 24.0482 284.211 24.1523C284.38 24.2565 284.504 24.4518 284.582 24.7383C284.673 25.0247 284.719 25.4414 284.719 25.9883C284.719 26.5352 284.673 26.9518 284.582 27.2383C284.504 27.5247 284.38 27.7266 284.211 27.8438C284.042 27.9479 283.801 28 283.488 28H279.113C278.671 28 278.352 27.9089 278.156 27.7266C277.974 27.5312 277.883 27.2122 277.883 26.7695V23.9375C276.164 26.9323 274.016 28.4297 271.438 28.4297C270.253 28.4297 269.211 28.1693 268.312 27.6484C267.427 27.1276 266.743 26.3919 266.262 25.4414C265.78 24.4779 265.539 23.3516 265.539 22.0625V13.957H264.035C263.723 13.957 263.482 13.9049 263.312 13.8008C263.143 13.6836 263.013 13.4818 262.922 13.1953C262.844 12.9089 262.805 12.4922 262.805 11.9453C262.805 11.3984 262.844 10.9818 262.922 10.6953C263.013 10.4089 263.143 10.2135 263.312 10.1094C263.482 10.0052 263.723 9.95312 264.035 9.95312H269.191C269.634 9.95312 269.947 10.0508 270.129 10.2461C270.324 10.4284 270.422 10.7409 270.422 11.1836V20.9102C270.422 21.9258 270.598 22.694 270.949 23.2148C271.301 23.7357 271.887 23.9961 272.707 23.9961C273.462 23.9961 274.178 23.6836 274.855 23.0586C275.533 22.4206 276.073 21.5742 276.477 20.5195C276.893 19.4648 277.102 18.3385 277.102 17.1406V13.957H275.012C274.699 13.957 274.458 13.9049 274.289 13.8008C274.12 13.6836 273.99 13.4818 273.898 13.1953C273.82 12.9089 273.781 12.4922 273.781 11.9453C273.781 11.3984 273.82 10.9818 273.898 10.6953C273.99 10.4089 274.12 10.2135 274.289 10.1094C274.458 10.0052 274.699 9.95312 275.012 9.95312H280.754ZM293.117 2.375C293.56 2.375 293.872 2.47266 294.055 2.66797C294.25 2.85026 294.348 3.16276 294.348 3.60547V11.8281C295.012 11.0859 295.78 10.5195 296.652 10.1289C297.525 9.72526 298.469 9.52344 299.484 9.52344C301.19 9.52344 302.681 9.9401 303.957 10.7734C305.233 11.6068 306.21 12.7396 306.887 14.1719C307.564 15.6042 307.902 17.2057 307.902 18.9766C307.902 20.7474 307.564 22.349 306.887 23.7812C306.21 25.2135 305.233 26.3464 303.957 27.1797C302.681 28.013 301.19 28.4297 299.484 28.4297C298.247 28.4297 297.121 28.1432 296.105 27.5703C295.09 26.9844 294.243 26.1706 293.566 25.1289V26.7695C293.566 27.2122 293.469 27.5312 293.273 27.7266C293.091 27.9089 292.779 28 292.336 28H287.961C287.648 28 287.408 27.9479 287.238 27.8438C287.069 27.7266 286.939 27.5247 286.848 27.2383C286.77 26.9518 286.73 26.5352 286.73 25.9883C286.73 25.4414 286.77 25.0247 286.848 24.7383C286.939 24.4518 287.069 24.2565 287.238 24.1523C287.408 24.0482 287.648 23.9961 287.961 23.9961H289.465V6.37891H287.57C287.258 6.37891 287.017 6.32682 286.848 6.22266C286.678 6.11849 286.548 5.92318 286.457 5.63672C286.379 5.35026 286.34 4.93359 286.34 4.38672C286.34 3.83984 286.379 3.42318 286.457 3.13672C286.548 2.85026 286.678 2.65495 286.848 2.55078C287.017 2.43359 287.258 2.375 287.57 2.375H293.117ZM298.703 13.957C297.87 13.957 297.115 14.1523 296.438 14.543C295.76 14.9336 295.22 15.513 294.816 16.2812C294.413 17.0365 294.211 17.9349 294.211 18.9766C294.211 20.0182 294.413 20.9232 294.816 21.6914C295.22 22.4466 295.76 23.0195 296.438 23.4102C297.115 23.8008 297.87 23.9961 298.703 23.9961C299.51 23.9961 300.214 23.7943 300.812 23.3906C301.411 22.974 301.867 22.388 302.18 21.6328C302.505 20.8776 302.668 19.9922 302.668 18.9766C302.668 17.9609 302.505 17.0755 302.18 16.3203C301.867 15.5651 301.411 14.9857 300.812 14.582C300.214 14.1654 299.51 13.957 298.703 13.957Z" fill="#1C256D"/>
<path d="M327.59 0.675781C328.462 0.675781 329.191 0.81901 329.777 1.10547C330.376 1.39193 330.676 1.75651 330.676 2.19922C330.676 2.34245 330.65 2.47266 330.598 2.58984L317.59 34.1914C317.355 34.7513 316.822 35.0312 315.988 35.0312C315.116 35.0312 314.38 34.888 313.781 34.6016C313.195 34.3151 312.902 33.9505 312.902 33.5078C312.902 33.3646 312.928 33.2344 312.98 33.1172L325.988 1.51562C326.223 0.955729 326.757 0.675781 327.59 0.675781Z" fill="#4854AF"/>
</svg>
