<svg width="428" height="36" viewBox="0 0 428 36" fill="none" xmlns="http://www.w3.org/2000/svg">
<path d="M16.4766 6.92578C16.737 6.79557 16.9518 6.73047 17.1211 6.73047C17.3815 6.73047 17.6289 6.84766 17.8633 7.08203C18.0977 7.31641 18.3516 7.70703 18.625 8.25391C18.9635 8.93099 19.1328 9.47135 19.1328 9.875C19.1328 10.3177 18.8984 10.6628 18.4297 10.9102L7.00391 16.6133L18.4297 22.3164C18.8984 22.5638 19.1328 22.9089 19.1328 23.3516C19.1328 23.7552 18.9635 24.2956 18.625 24.9727C18.3516 25.5195 18.0977 25.9102 17.8633 26.1445C17.6289 26.3789 17.3815 26.4961 17.1211 26.4961C16.9518 26.4961 16.737 26.431 16.4766 26.3008L1.24219 18.4492C0.916667 18.2799 0.682292 18.0651 0.539062 17.8047C0.408854 17.5443 0.34375 17.1471 0.34375 16.6133C0.34375 16.0794 0.408854 15.6823 0.539062 15.4219C0.682292 15.1615 0.916667 14.9466 1.24219 14.7773L16.4766 6.92578ZM426.477 14.7773C426.802 14.9466 427.03 15.1615 427.16 15.4219C427.303 15.6823 427.375 16.0794 427.375 16.6133C427.375 17.1471 427.303 17.5443 427.16 17.8047C427.03 18.0651 426.802 18.2799 426.477 18.4492L411.242 26.3008C410.982 26.431 410.767 26.4961 410.598 26.4961C410.337 26.4961 410.09 26.3789 409.855 26.1445C409.621 25.9102 409.367 25.5195 409.094 24.9727C408.755 24.2956 408.586 23.7552 408.586 23.3516C408.586 22.9089 408.82 22.5638 409.289 22.3164L420.715 16.6133L409.289 10.9102C408.82 10.6628 408.586 10.3177 408.586 9.875C408.586 9.47135 408.755 8.93099 409.094 8.25391C409.367 7.70703 409.621 7.31641 409.855 7.08203C410.09 6.84766 410.337 6.73047 410.598 6.73047C410.767 6.73047 410.982 6.79557 411.242 6.92578L426.477 14.7773Z" fill="#D44A4A"/>
<path d="M42.7852 4.81641C43.2409 4.81641 43.5664 4.91406 43.7617 5.10938C43.957 5.30469 44.0547 5.63021 44.0547 6.08594V14.3281C44.0547 14.7578 43.8724 15.0703 43.5078 15.2656C43.1562 15.4609 42.6094 15.5586 41.8672 15.5586C41.151 15.5586 40.6497 15.4674 40.3633 15.2852C40.0898 15.0898 39.9531 14.7708 39.9531 14.3281V9.01562H36.418V23.9961H40.6367C40.9492 23.9961 41.1901 24.0547 41.3594 24.1719C41.5286 24.276 41.6523 24.4714 41.7305 24.7578C41.8216 25.0443 41.8672 25.4609 41.8672 26.0078C41.8672 26.5547 41.8216 26.9714 41.7305 27.2578C41.6523 27.5443 41.5286 27.7396 41.3594 27.8438C41.1901 27.9479 40.9492 28 40.6367 28H27.3164C27.0039 28 26.763 27.9479 26.5938 27.8438C26.4245 27.7396 26.2943 27.5443 26.2031 27.2578C26.125 26.9714 26.0859 26.5547 26.0859 26.0078C26.0859 25.4609 26.125 25.0443 26.2031 24.7578C26.2943 24.4714 26.4245 24.276 26.5938 24.1719C26.763 24.0547 27.0039 23.9961 27.3164 23.9961H31.5352V9.01562H28V14.3281C28 14.7578 27.8177 15.0703 27.4531 15.2656C27.1016 15.4609 26.5547 15.5586 25.8125 15.5586C25.0964 15.5586 24.5951 15.4674 24.3086 15.2852C24.0352 15.0898 23.8984 14.7708 23.8984 14.3281V6.08594C23.8984 5.63021 23.9961 5.30469 24.1914 5.10938C24.3997 4.91406 24.7253 4.81641 25.168 4.81641H42.7852ZM64.0742 9.52344C65.181 9.52344 66.2227 9.88802 67.1992 10.6172C67.7721 11.0339 68.0586 11.5807 68.0586 12.2578C68.0586 12.6875 67.9414 13.1953 67.707 13.7812C67.4727 14.3672 67.2057 14.8099 66.9062 15.1094C66.6198 15.4089 66.3138 15.5586 65.9883 15.5586C65.806 15.5586 65.6107 15.5065 65.4023 15.4023C64.6732 14.9987 63.918 14.7969 63.1367 14.7969C62.1341 14.7969 61.1966 15.1159 60.3242 15.7539C59.4518 16.3919 58.7487 17.2708 58.2148 18.3906C57.694 19.5104 57.4336 20.7604 57.4336 22.1406V23.9961H63.0391C63.3516 23.9961 63.5924 24.0547 63.7617 24.1719C63.931 24.276 64.0547 24.4714 64.1328 24.7578C64.224 25.0443 64.2695 25.4609 64.2695 26.0078C64.2695 26.5547 64.224 26.9714 64.1328 27.2578C64.0547 27.5443 63.931 27.7396 63.7617 27.8438C63.5924 27.9479 63.3516 28 63.0391 28H49.6797C49.3672 28 49.1263 27.9479 48.957 27.8438C48.7878 27.7396 48.6576 27.5443 48.5664 27.2578C48.4883 26.9714 48.4492 26.5547 48.4492 26.0078C48.4492 25.4609 48.4883 25.0443 48.5664 24.7578C48.6576 24.4714 48.7878 24.276 48.957 24.1719C49.1263 24.0547 49.3672 23.9961 49.6797 23.9961H52.5508V13.957H50.2656C49.9531 13.957 49.7122 13.9049 49.543 13.8008C49.3737 13.6966 49.2435 13.5013 49.1523 13.2148C49.0742 12.9284 49.0352 12.5117 49.0352 11.9648C49.0352 11.418 49.0742 11.0013 49.1523 10.7148C49.2435 10.4284 49.3737 10.2331 49.543 10.1289C49.7122 10.0117 49.9531 9.95312 50.2656 9.95312H55.6172C56.0599 9.95312 56.3724 10.0508 56.5547 10.2461C56.75 10.4284 56.8477 10.7409 56.8477 11.1836V15.4219C57.8242 13.5339 58.944 12.082 60.207 11.0664C61.4831 10.0378 62.7721 9.52344 64.0742 9.52344ZM83.4297 9.95312C83.8724 9.95312 84.1849 10.0508 84.3672 10.2461C84.5625 10.4284 84.6602 10.7409 84.6602 11.1836V23.9961H90.1484C90.4609 23.9961 90.7018 24.0547 90.8711 24.1719C91.0404 24.276 91.1641 24.4714 91.2422 24.7578C91.3333 25.0443 91.3789 25.4609 91.3789 26.0078C91.3789 26.5547 91.3333 26.9714 91.2422 27.2578C91.1641 27.5443 91.0404 27.7396 90.8711 27.8438C90.7018 27.9479 90.4609 28 90.1484 28H74.4453C74.1328 28 73.8919 27.9479 73.7227 27.8438C73.5534 27.7396 73.4232 27.5443 73.332 27.2578C73.2539 26.9714 73.2148 26.5547 73.2148 26.0078C73.2148 25.4609 73.2539 25.0443 73.332 24.7578C73.4232 24.4714 73.5534 24.276 73.7227 24.1719C73.8919 24.0547 74.1328 23.9961 74.4453 23.9961H79.7773V13.957H75.6172C75.3047 13.957 75.0638 13.9049 74.8945 13.8008C74.7253 13.6966 74.5951 13.5013 74.5039 13.2148C74.4258 12.9284 74.3867 12.5117 74.3867 11.9648C74.3867 11.418 74.4258 11.0013 74.5039 10.7148C74.5951 10.4284 74.7253 10.2331 74.8945 10.1289C75.0638 10.0117 75.3047 9.95312 75.6172 9.95312H83.4297ZM82.1602 1.37891C83.0846 1.37891 83.7292 1.47656 84.0938 1.67188C84.4714 1.85417 84.6602 2.16667 84.6602 2.60938V5.8125C84.6602 6.25521 84.4844 6.57422 84.1328 6.76953C83.7943 6.95182 83.1693 7.04297 82.2578 7.04297C81.3464 7.04297 80.7018 6.95182 80.3242 6.76953C79.9596 6.57422 79.7773 6.25521 79.7773 5.8125V2.60938C79.7773 2.15365 79.9466 1.83464 80.2852 1.65234C80.6237 1.47005 81.2487 1.37891 82.1602 1.37891ZM107.219 2.375C107.661 2.375 107.974 2.47266 108.156 2.66797C108.352 2.85026 108.449 3.16276 108.449 3.60547V23.9961H113.938C114.25 23.9961 114.491 24.0547 114.66 24.1719C114.829 24.276 114.953 24.4714 115.031 24.7578C115.122 25.0443 115.168 25.4609 115.168 26.0078C115.168 26.5547 115.122 26.9714 115.031 27.2578C114.953 27.5443 114.829 27.7396 114.66 27.8438C114.491 27.9479 114.25 28 113.938 28H98.2344C97.9219 28 97.681 27.9479 97.5117 27.8438C97.3424 27.7396 97.2122 27.5443 97.1211 27.2578C97.043 26.9714 97.0039 26.5547 97.0039 26.0078C97.0039 25.4609 97.043 25.0443 97.1211 24.7578C97.2122 24.4714 97.3424 24.276 97.5117 24.1719C97.681 24.0547 97.9219 23.9961 98.2344 23.9961H103.566V6.37891H99.0156C98.7031 6.37891 98.4622 6.32682 98.293 6.22266C98.1237 6.11849 97.9935 5.92318 97.9023 5.63672C97.8242 5.35026 97.7852 4.93359 97.7852 4.38672C97.7852 3.83984 97.8242 3.42318 97.9023 3.13672C97.9935 2.85026 98.1237 2.65495 98.293 2.55078C98.4622 2.43359 98.7031 2.375 99.0156 2.375H107.219ZM125.617 2.375C126.06 2.375 126.372 2.47266 126.555 2.66797C126.75 2.85026 126.848 3.16276 126.848 3.60547V13.0977C128.41 10.7148 130.298 9.52344 132.512 9.52344C133.697 9.52344 134.732 9.78385 135.617 10.3047C136.516 10.8255 137.206 11.5677 137.688 12.5312C138.169 13.4818 138.41 14.6016 138.41 15.8906V23.9961H139.914C140.227 23.9961 140.467 24.0547 140.637 24.1719C140.806 24.276 140.93 24.4714 141.008 24.7578C141.099 25.0443 141.145 25.4609 141.145 26.0078C141.145 26.5547 141.099 26.9714 141.008 27.2578C140.93 27.5443 140.806 27.7396 140.637 27.8438C140.467 27.9479 140.227 28 139.914 28H132.609C132.297 28 132.056 27.9479 131.887 27.8438C131.717 27.7396 131.587 27.5443 131.496 27.2578C131.418 26.9714 131.379 26.5547 131.379 26.0078C131.379 25.4609 131.418 25.0443 131.496 24.7578C131.587 24.4714 131.717 24.276 131.887 24.1719C132.056 24.0547 132.297 23.9961 132.609 23.9961H133.527V17.043C133.527 16.0273 133.352 15.2591 133 14.7383C132.648 14.2174 132.062 13.957 131.242 13.957C130.487 13.957 129.771 14.276 129.094 14.9141C128.417 15.5391 127.87 16.3789 127.453 17.4336C127.049 18.4883 126.848 19.6146 126.848 20.8125V23.9961H127.766C128.078 23.9961 128.319 24.0547 128.488 24.1719C128.658 24.276 128.781 24.4714 128.859 24.7578C128.951 25.0443 128.996 25.4609 128.996 26.0078C128.996 26.5547 128.951 26.9714 128.859 27.2578C128.781 27.5443 128.658 27.7396 128.488 27.8438C128.319 27.9479 128.078 28 127.766 28H120.461C120.148 28 119.908 27.9479 119.738 27.8438C119.569 27.7396 119.439 27.5443 119.348 27.2578C119.27 26.9714 119.23 26.5547 119.23 26.0078C119.23 25.4609 119.27 25.0443 119.348 24.7578C119.439 24.4714 119.569 24.276 119.738 24.1719C119.908 24.0547 120.148 23.9961 120.461 23.9961H121.965V6.37891H120.07C119.758 6.37891 119.517 6.32682 119.348 6.22266C119.178 6.11849 119.048 5.92318 118.957 5.63672C118.879 5.35026 118.84 4.93359 118.84 4.38672C118.84 3.83984 118.879 3.42318 118.957 3.13672C119.048 2.85026 119.178 2.65495 119.348 2.55078C119.517 2.43359 119.758 2.375 120.07 2.375H125.617ZM153.684 9.52344C156.548 9.52344 158.618 10.1419 159.895 11.3789C161.171 12.6159 161.809 14.3867 161.809 16.6914V22.3359C161.809 22.8568 161.919 23.2669 162.141 23.5664C162.362 23.8529 162.681 23.9961 163.098 23.9961H163.703C164.016 23.9961 164.257 24.0547 164.426 24.1719C164.595 24.276 164.719 24.4714 164.797 24.7578C164.888 25.0443 164.934 25.4609 164.934 26.0078C164.934 26.5547 164.888 26.9714 164.797 27.2578C164.719 27.5443 164.595 27.7396 164.426 27.8438C164.257 27.9479 164.016 28 163.703 28H161.516C160.708 28 159.992 27.8372 159.367 27.5117C158.755 27.1732 158.286 26.6458 157.961 25.9297C156.932 26.724 155.845 27.3424 154.699 27.7852C153.553 28.2148 152.375 28.4297 151.164 28.4297C149.693 28.4297 148.423 28.1823 147.355 27.6875C146.288 27.1797 145.467 26.4635 144.895 25.5391C144.335 24.6016 144.055 23.5013 144.055 22.2383C144.055 20.4154 144.699 19.0026 145.988 18C147.277 16.9974 149.081 16.4961 151.398 16.4961C153.13 16.4961 154.973 16.6914 156.926 17.082V16.5156C156.926 15.6432 156.652 14.9987 156.105 14.582C155.559 14.1654 154.595 13.957 153.215 13.957C152.447 13.957 151.587 14.0547 150.637 14.25C149.699 14.4323 148.768 14.6797 147.844 14.9922C147.622 15.0573 147.434 15.0898 147.277 15.0898C146.952 15.0898 146.659 14.9727 146.398 14.7383C146.151 14.4909 145.923 14.0807 145.715 13.5078C145.52 12.9349 145.422 12.4661 145.422 12.1016C145.422 11.4375 145.721 10.9948 146.32 10.7734C147.479 10.3568 148.71 10.0443 150.012 9.83594C151.314 9.6276 152.538 9.52344 153.684 9.52344ZM151.887 20.5195C150.975 20.5195 150.279 20.6823 149.797 21.0078C149.328 21.3333 149.094 21.8086 149.094 22.4336C149.094 23.0456 149.322 23.5143 149.777 23.8398C150.246 24.1523 150.917 24.3086 151.789 24.3086C152.688 24.3086 153.573 24.1328 154.445 23.7812C155.331 23.4167 156.158 22.9219 156.926 22.2969V21.0469C155.207 20.6953 153.527 20.5195 151.887 20.5195ZM202.648 4.81641C205.37 4.81641 207.382 5.3763 208.684 6.49609C209.999 7.60286 210.656 9.14583 210.656 11.125C210.656 12.1927 210.389 13.1107 209.855 13.8789C209.335 14.6341 208.599 15.2396 207.648 15.6953C210.63 16.5026 212.121 18.3646 212.121 21.2812C212.121 23.4818 211.398 25.1549 209.953 26.3008C208.508 27.4336 206.438 28 203.742 28H192.473C192.16 28 191.919 27.9479 191.75 27.8438C191.581 27.7396 191.451 27.5443 191.359 27.2578C191.281 26.9714 191.242 26.5547 191.242 26.0078C191.242 25.4609 191.281 25.0443 191.359 24.7578C191.451 24.4714 191.581 24.276 191.75 24.1719C191.919 24.0547 192.16 23.9961 192.473 23.9961H194.562V8.82031H192.473C192.16 8.82031 191.919 8.76823 191.75 8.66406C191.581 8.5599 191.451 8.36458 191.359 8.07812C191.281 7.79167 191.242 7.375 191.242 6.82812C191.242 6.28125 191.281 5.86458 191.359 5.57812C191.451 5.29167 191.581 5.09635 191.75 4.99219C191.919 4.875 192.16 4.81641 192.473 4.81641H202.648ZM199.445 14.0547H202.219C203.391 14.0547 204.263 13.8464 204.836 13.4297C205.409 13.013 205.695 12.375 205.695 11.5156C205.695 10.6432 205.415 10.0117 204.855 9.62109C204.309 9.21745 203.43 9.01562 202.219 9.01562H199.445V14.0547ZM199.445 23.8008H203.195C205.721 23.8008 206.984 22.8958 206.984 21.0859C206.984 20.1224 206.672 19.4128 206.047 18.957C205.435 18.4883 204.484 18.2539 203.195 18.2539H199.445V23.8008ZM225.637 9.52344C228.501 9.52344 230.572 10.1419 231.848 11.3789C233.124 12.6159 233.762 14.3867 233.762 16.6914V22.3359C233.762 22.8568 233.872 23.2669 234.094 23.5664C234.315 23.8529 234.634 23.9961 235.051 23.9961H235.656C235.969 23.9961 236.21 24.0547 236.379 24.1719C236.548 24.276 236.672 24.4714 236.75 24.7578C236.841 25.0443 236.887 25.4609 236.887 26.0078C236.887 26.5547 236.841 26.9714 236.75 27.2578C236.672 27.5443 236.548 27.7396 236.379 27.8438C236.21 27.9479 235.969 28 235.656 28H233.469C232.661 28 231.945 27.8372 231.32 27.5117C230.708 27.1732 230.24 26.6458 229.914 25.9297C228.885 26.724 227.798 27.3424 226.652 27.7852C225.507 28.2148 224.328 28.4297 223.117 28.4297C221.646 28.4297 220.376 28.1823 219.309 27.6875C218.241 27.1797 217.421 26.4635 216.848 25.5391C216.288 24.6016 216.008 23.5013 216.008 22.2383C216.008 20.4154 216.652 19.0026 217.941 18C219.23 16.9974 221.034 16.4961 223.352 16.4961C225.083 16.4961 226.926 16.6914 228.879 17.082V16.5156C228.879 15.6432 228.605 14.9987 228.059 14.582C227.512 14.1654 226.548 13.957 225.168 13.957C224.4 13.957 223.54 14.0547 222.59 14.25C221.652 14.4323 220.721 14.6797 219.797 14.9922C219.576 15.0573 219.387 15.0898 219.23 15.0898C218.905 15.0898 218.612 14.9727 218.352 14.7383C218.104 14.4909 217.876 14.0807 217.668 13.5078C217.473 12.9349 217.375 12.4661 217.375 12.1016C217.375 11.4375 217.674 10.9948 218.273 10.7734C219.432 10.3568 220.663 10.0443 221.965 9.83594C223.267 9.6276 224.491 9.52344 225.637 9.52344ZM223.84 20.5195C222.928 20.5195 222.232 20.6823 221.75 21.0078C221.281 21.3333 221.047 21.8086 221.047 22.4336C221.047 23.0456 221.275 23.5143 221.73 23.8398C222.199 24.1523 222.87 24.3086 223.742 24.3086C224.641 24.3086 225.526 24.1328 226.398 23.7812C227.284 23.4167 228.111 22.9219 228.879 22.2969V21.0469C227.16 20.6953 225.48 20.5195 223.84 20.5195ZM256.496 9.52344C257.303 9.52344 257.857 9.61458 258.156 9.79688C258.456 9.97917 258.605 10.2982 258.605 10.7539V17.0234C258.605 17.4661 258.404 17.7852 258 17.9805C257.609 18.1628 256.952 18.2539 256.027 18.2539C255.415 18.2539 254.94 18.2148 254.602 18.1367C254.276 18.0456 254.048 17.9154 253.918 17.7461C253.788 17.5768 253.723 17.3359 253.723 17.0234C253.723 16.4766 253.586 15.9688 253.312 15.5C253.052 15.0312 252.655 14.6602 252.121 14.3867C251.6 14.1003 250.969 13.957 250.227 13.957C249.289 13.957 248.469 14.1654 247.766 14.582C247.062 14.9857 246.516 15.5716 246.125 16.3398C245.747 17.0951 245.559 17.974 245.559 18.9766C245.559 19.9792 245.747 20.8646 246.125 21.6328C246.516 22.388 247.062 22.974 247.766 23.3906C248.469 23.7943 249.289 23.9961 250.227 23.9961C251.229 23.9961 252.251 23.8333 253.293 23.5078C254.348 23.1823 255.37 22.7331 256.359 22.1602C256.594 22.0299 256.809 21.9648 257.004 21.9648C257.59 21.9648 258.104 22.4792 258.547 23.5078C258.781 24.0677 258.898 24.543 258.898 24.9336C258.898 25.5195 258.618 25.9688 258.059 26.2812C256.848 26.9583 255.572 27.4857 254.23 27.8633C252.902 28.2409 251.568 28.4297 250.227 28.4297C248.247 28.4297 246.509 28.026 245.012 27.2188C243.514 26.4115 242.355 25.2917 241.535 23.8594C240.728 22.4271 240.324 20.7995 240.324 18.9766C240.324 17.1536 240.734 15.526 241.555 14.0938C242.375 12.6484 243.488 11.5286 244.895 10.7344C246.314 9.92708 247.896 9.52344 249.641 9.52344C251.75 9.52344 253.241 10.2852 254.113 11.8086V10.7539C254.113 10.3112 254.302 9.9987 254.68 9.81641C255.057 9.62109 255.663 9.52344 256.496 9.52344ZM283.43 23.9961C283.885 23.9961 284.204 24.1328 284.387 24.4062C284.569 24.6797 284.66 25.2135 284.66 26.0078C284.66 26.5547 284.615 26.9714 284.523 27.2578C284.445 27.5443 284.322 27.7396 284.152 27.8438C283.983 27.9479 283.742 28 283.43 28H280.09C279.439 28 278.931 27.7396 278.566 27.2188L273.645 20.3828L270.949 22.4336V23.9961H272.648C272.961 23.9961 273.202 24.0547 273.371 24.1719C273.54 24.276 273.664 24.4714 273.742 24.7578C273.833 25.0443 273.879 25.4609 273.879 26.0078C273.879 26.5547 273.833 26.9714 273.742 27.2578C273.664 27.5443 273.54 27.7396 273.371 27.8438C273.202 27.9479 272.961 28 272.648 28H264.562C264.25 28 264.009 27.9479 263.84 27.8438C263.671 27.7396 263.54 27.5443 263.449 27.2578C263.371 26.9714 263.332 26.5547 263.332 26.0078C263.332 25.4609 263.371 25.0443 263.449 24.7578C263.54 24.4714 263.671 24.276 263.84 24.1719C264.009 24.0547 264.25 23.9961 264.562 23.9961H266.066V6.37891H264.172C263.859 6.37891 263.618 6.32682 263.449 6.22266C263.28 6.11849 263.15 5.92318 263.059 5.63672C262.98 5.35026 262.941 4.93359 262.941 4.38672C262.941 3.83984 262.98 3.42318 263.059 3.13672C263.15 2.85026 263.28 2.65495 263.449 2.55078C263.618 2.43359 263.859 2.375 264.172 2.375H269.719C270.161 2.375 270.474 2.47266 270.656 2.66797C270.852 2.85026 270.949 3.16276 270.949 3.60547V17.707L276.027 13.5664H275.051C274.595 13.5664 274.276 13.4427 274.094 13.1953C273.911 12.9479 273.82 12.4727 273.82 11.7695C273.82 11.0534 273.911 10.5716 274.094 10.3242C274.276 10.0768 274.595 9.95312 275.051 9.95312H283.137C283.592 9.95312 283.911 10.0768 284.094 10.3242C284.276 10.5716 284.367 11.0534 284.367 11.7695C284.367 12.4727 284.276 12.9479 284.094 13.1953C283.911 13.4427 283.592 13.5664 283.137 13.5664H282.355L277.492 17.4922L282.238 23.9961H283.43ZM305.246 14.4258C305.559 14.4258 305.799 14.4844 305.969 14.6016C306.138 14.7188 306.262 14.9336 306.34 15.2461C306.431 15.5586 306.477 16.0208 306.477 16.6328C306.477 17.2448 306.431 17.707 306.34 18.0195C306.262 18.332 306.138 18.5469 305.969 18.6641C305.799 18.7682 305.559 18.8203 305.246 18.8203H290.363C290.051 18.8203 289.81 18.7682 289.641 18.6641C289.471 18.5469 289.341 18.332 289.25 18.0195C289.172 17.707 289.133 17.2448 289.133 16.6328C289.133 16.0208 289.172 15.5586 289.25 15.2461C289.341 14.9336 289.471 14.7188 289.641 14.6016C289.81 14.4844 290.051 14.4258 290.363 14.4258H305.246ZM322.062 9.52344C324.042 9.52344 325.728 9.95312 327.121 10.8125C328.514 11.6589 329.562 12.8438 330.266 14.3672C330.982 15.8776 331.34 17.6094 331.34 19.5625C331.34 20.0052 331.242 20.3177 331.047 20.5C330.865 20.6823 330.552 20.7734 330.109 20.7734H317.57C317.818 21.8151 318.345 22.6159 319.152 23.1758C319.973 23.7227 321.008 23.9961 322.258 23.9961C324.276 23.9961 326.464 23.638 328.82 22.9219C328.977 22.8698 329.133 22.8438 329.289 22.8438C329.576 22.8438 329.823 22.974 330.031 23.2344C330.24 23.4948 330.428 23.9375 330.598 24.5625C330.728 25.0443 330.793 25.4544 330.793 25.793C330.793 26.1315 330.715 26.3984 330.559 26.5938C330.415 26.776 330.174 26.9258 329.836 27.043C328.534 27.4727 327.206 27.8112 325.852 28.0586C324.497 28.306 323.169 28.4297 321.867 28.4297C319.888 28.4297 318.182 28.026 316.75 27.2188C315.318 26.4115 314.224 25.2982 313.469 23.8789C312.727 22.4466 312.355 20.8125 312.355 18.9766C312.355 17.1536 312.746 15.526 313.527 14.0938C314.309 12.6615 315.435 11.5417 316.906 10.7344C318.378 9.92708 320.096 9.52344 322.062 9.52344ZM322.062 13.957C319.68 13.957 318.208 14.9596 317.648 16.9648H326.242C326.021 16.0143 325.546 15.2786 324.816 14.7578C324.1 14.224 323.182 13.957 322.062 13.957ZM348.566 9.52344C349.751 9.52344 350.786 9.78385 351.672 10.3047C352.57 10.8255 353.26 11.5677 353.742 12.5312C354.224 13.4818 354.465 14.6016 354.465 15.8906V23.9961H355.969C356.281 23.9961 356.522 24.0547 356.691 24.1719C356.861 24.276 356.984 24.4714 357.062 24.7578C357.154 25.0443 357.199 25.4609 357.199 26.0078C357.199 26.5547 357.154 26.9714 357.062 27.2578C356.984 27.5443 356.861 27.7396 356.691 27.8438C356.522 27.9479 356.281 28 355.969 28H348.664C348.352 28 348.111 27.9479 347.941 27.8438C347.772 27.7396 347.642 27.5443 347.551 27.2578C347.473 26.9714 347.434 26.5547 347.434 26.0078C347.434 25.4609 347.473 25.0443 347.551 24.7578C347.642 24.4714 347.772 24.276 347.941 24.1719C348.111 24.0547 348.352 23.9961 348.664 23.9961H349.582V17.043C349.582 16.0273 349.406 15.2591 349.055 14.7383C348.703 14.2174 348.117 13.957 347.297 13.957C346.542 13.957 345.826 14.276 345.148 14.9141C344.471 15.5391 343.924 16.3789 343.508 17.4336C343.104 18.4883 342.902 19.6146 342.902 20.8125V23.9961H343.82C344.133 23.9961 344.374 24.0547 344.543 24.1719C344.712 24.276 344.836 24.4714 344.914 24.7578C345.005 25.0443 345.051 25.4609 345.051 26.0078C345.051 26.5547 345.005 26.9714 344.914 27.2578C344.836 27.5443 344.712 27.7396 344.543 27.8438C344.374 27.9479 344.133 28 343.82 28H336.516C336.203 28 335.962 27.9479 335.793 27.8438C335.624 27.7396 335.493 27.5443 335.402 27.2578C335.324 26.9714 335.285 26.5547 335.285 26.0078C335.285 25.4609 335.324 25.0443 335.402 24.7578C335.493 24.4714 335.624 24.276 335.793 24.1719C335.962 24.0547 336.203 23.9961 336.516 23.9961H338.02V13.957H336.125C335.812 13.957 335.572 13.9049 335.402 13.8008C335.233 13.6966 335.103 13.5013 335.012 13.2148C334.934 12.9284 334.895 12.5117 334.895 11.9648C334.895 11.418 334.934 11.0013 335.012 10.7148C335.103 10.4284 335.233 10.2331 335.402 10.1289C335.572 10.0117 335.812 9.95312 336.125 9.95312H340.891C341.333 9.95312 341.646 10.0508 341.828 10.2461C342.023 10.4284 342.121 10.7409 342.121 11.1836V14.0156C343.84 11.0208 345.988 9.52344 348.566 9.52344ZM376.867 2.375C377.31 2.375 377.622 2.47266 377.805 2.66797C378 2.85026 378.098 3.16276 378.098 3.60547V23.9961H379.797C380.109 23.9961 380.35 24.0482 380.52 24.1523C380.689 24.2565 380.812 24.4518 380.891 24.7383C380.982 25.0247 381.027 25.4414 381.027 25.9883C381.027 26.5352 380.982 26.9518 380.891 27.2383C380.812 27.5247 380.689 27.7266 380.52 27.8438C380.35 27.9479 380.109 28 379.797 28H375.227C374.784 28 374.465 27.9089 374.27 27.7266C374.087 27.5312 373.996 27.2122 373.996 26.7695V25.1289C373.319 26.1706 372.473 26.9844 371.457 27.5703C370.441 28.1432 369.315 28.4297 368.078 28.4297C366.372 28.4297 364.882 28.013 363.605 27.1797C362.329 26.3464 361.353 25.2135 360.676 23.7812C359.999 22.349 359.66 20.7474 359.66 18.9766C359.66 17.2057 359.999 15.6042 360.676 14.1719C361.353 12.7396 362.329 11.6068 363.605 10.7734C364.882 9.9401 366.372 9.52344 368.078 9.52344C369.094 9.52344 370.038 9.72526 370.91 10.1289C371.783 10.5195 372.551 11.0859 373.215 11.8281V6.37891H370.344C370.031 6.37891 369.79 6.32682 369.621 6.22266C369.452 6.11849 369.322 5.92318 369.23 5.63672C369.152 5.35026 369.113 4.93359 369.113 4.38672C369.113 3.83984 369.152 3.42318 369.23 3.13672C369.322 2.85026 369.452 2.65495 369.621 2.55078C369.79 2.43359 370.031 2.375 370.344 2.375H376.867ZM368.859 13.957C368.052 13.957 367.349 14.1654 366.75 14.582C366.151 14.9857 365.689 15.5651 365.363 16.3203C365.051 17.0755 364.895 17.9609 364.895 18.9766C364.895 19.9922 365.051 20.8776 365.363 21.6328C365.689 22.388 366.151 22.974 366.75 23.3906C367.349 23.7943 368.052 23.9961 368.859 23.9961C369.693 23.9961 370.448 23.8008 371.125 23.4102C371.802 23.0195 372.342 22.4466 372.746 21.6914C373.15 20.9232 373.352 20.0182 373.352 18.9766C373.352 17.9349 373.15 17.0365 372.746 16.2812C372.342 15.513 371.802 14.9336 371.125 14.543C370.448 14.1523 369.693 13.957 368.859 13.957Z" fill="#1C256D"/>
<path d="M399.543 0.675781C400.415 0.675781 401.145 0.81901 401.73 1.10547C402.329 1.39193 402.629 1.75651 402.629 2.19922C402.629 2.34245 402.603 2.47266 402.551 2.58984L389.543 34.1914C389.309 34.7513 388.775 35.0312 387.941 35.0312C387.069 35.0312 386.333 34.888 385.734 34.6016C385.148 34.3151 384.855 33.9505 384.855 33.5078C384.855 33.3646 384.882 33.2344 384.934 33.1172L397.941 1.51562C398.176 0.955729 398.71 0.675781 399.543 0.675781Z" fill="#4854AF"/>
</svg>
