<svg width="340" height="37" viewBox="0 0 340 37" fill="none" xmlns="http://www.w3.org/2000/svg">
<path d="M16.4766 7.92578C16.737 7.79557 16.9518 7.73047 17.1211 7.73047C17.3815 7.73047 17.6289 7.84766 17.8633 8.08203C18.0977 8.31641 18.3516 8.70703 18.625 9.25391C18.9635 9.93099 19.1328 10.4714 19.1328 10.875C19.1328 11.3177 18.8984 11.6628 18.4297 11.9102L7.00391 17.6133L18.4297 23.3164C18.8984 23.5638 19.1328 23.9089 19.1328 24.3516C19.1328 24.7552 18.9635 25.2956 18.625 25.9727C18.3516 26.5195 18.0977 26.9102 17.8633 27.1445C17.6289 27.3789 17.3815 27.4961 17.1211 27.4961C16.9518 27.4961 16.737 27.431 16.4766 27.3008L1.24219 19.4492C0.916667 19.2799 0.682292 19.0651 0.539062 18.8047C0.408854 18.5443 0.34375 18.1471 0.34375 17.6133C0.34375 17.0794 0.408854 16.6823 0.539062 16.4219C0.682292 16.1615 0.916667 15.9466 1.24219 15.7773L16.4766 7.92578ZM338.117 15.7773C338.443 15.9466 338.671 16.1615 338.801 16.4219C338.944 16.6823 339.016 17.0794 339.016 17.6133C339.016 18.1471 338.944 18.5443 338.801 18.8047C338.671 19.0651 338.443 19.2799 338.117 19.4492L322.883 27.3008C322.622 27.431 322.408 27.4961 322.238 27.4961C321.978 27.4961 321.73 27.3789 321.496 27.1445C321.262 26.9102 321.008 26.5195 320.734 25.9727C320.396 25.2956 320.227 24.7552 320.227 24.3516C320.227 23.9089 320.461 23.5638 320.93 23.3164L332.355 17.6133L320.93 11.9102C320.461 11.6628 320.227 11.3177 320.227 10.875C320.227 10.4714 320.396 9.93099 320.734 9.25391C321.008 8.70703 321.262 8.31641 321.496 8.08203C321.73 7.84766 321.978 7.73047 322.238 7.73047C322.408 7.73047 322.622 7.79557 322.883 7.92578L338.117 15.7773Z" fill="#AD2647"/>
<path d="M29.7844 29V6.36H22.4244V1.68H42.4244V6.36H35.3044V29H29.7844ZM45.1219 29V8.92H50.4419V11.28C50.8952 10.9333 51.4552 10.5733 52.1219 10.2C52.7885 9.8 53.5085 9.44 54.2819 9.12C55.0819 8.77333 55.8419 8.54667 56.5619 8.44V13.6C55.8685 13.7067 55.1352 13.8933 54.3619 14.16C53.5885 14.4 52.8552 14.6667 52.1619 14.96C51.4952 15.2533 50.9219 15.52 50.4419 15.76V29H45.1219ZM59.3406 29V8.92H64.6606V29H59.3406ZM59.3406 5.72V1.16H64.7006V5.72H59.3406ZM69.2663 29V0.719999H74.5863V29H69.2663ZM79.1453 29V0.719999H84.4653V9.64C85.132 9.4 85.9853 9.14667 87.0253 8.88C88.0653 8.61333 89.0253 8.48 89.9053 8.48C91.772 8.48 93.2253 8.81333 94.2653 9.48C95.3053 10.12 96.0253 11.1733 96.4253 12.64C96.852 14.1067 97.0653 16.0533 97.0653 18.48V29H91.7053V18.88C91.7053 17.4933 91.6253 16.3867 91.4653 15.56C91.3053 14.7067 90.9986 14.0933 90.5453 13.72C90.1186 13.3467 89.452 13.16 88.5453 13.16C87.8253 13.16 87.0786 13.2533 86.3053 13.44C85.5586 13.6267 84.9453 13.8 84.4653 13.96V29H79.1453ZM106.495 29.44C104.415 29.44 102.841 28.92 101.775 27.88C100.735 26.8133 100.215 25.2133 100.215 23.08C100.215 21.5867 100.481 20.4267 101.015 19.6C101.548 18.7467 102.335 18.1333 103.375 17.76C104.441 17.36 105.735 17.12 107.255 17.04L112.135 16.6V15.4C112.135 14.44 111.895 13.7733 111.415 13.4C110.935 13 110.228 12.8 109.295 12.8C108.548 12.8 107.681 12.8267 106.695 12.88C105.735 12.9333 104.775 13 103.815 13.08C102.881 13.16 102.068 13.24 101.375 13.32L101.215 9.56C101.908 9.4 102.735 9.24 103.695 9.08C104.681 8.89333 105.708 8.74667 106.775 8.64C107.841 8.53333 108.828 8.48 109.735 8.48C111.441 8.48 112.868 8.69333 114.015 9.12C115.161 9.54667 116.028 10.2533 116.615 11.24C117.201 12.2 117.495 13.5067 117.495 15.16V24.32C117.548 24.6933 117.748 24.9867 118.095 25.2C118.441 25.3867 118.841 25.52 119.295 25.6L119.175 29.28C118.535 29.3067 117.908 29.32 117.295 29.32C116.681 29.32 116.161 29.28 115.735 29.2C115.121 29.12 114.588 28.96 114.135 28.72C113.708 28.48 113.361 28.2267 113.095 27.96C112.668 28.1467 112.095 28.36 111.375 28.6C110.655 28.84 109.868 29.04 109.015 29.2C108.188 29.36 107.348 29.44 106.495 29.44ZM107.775 25.48C108.281 25.48 108.815 25.4267 109.375 25.32C109.935 25.2133 110.455 25.0933 110.935 24.96C111.441 24.8 111.841 24.6533 112.135 24.52V19.92L108.055 20.28C107.175 20.36 106.535 20.6267 106.135 21.08C105.761 21.5067 105.575 22.12 105.575 22.92C105.575 23.72 105.748 24.3467 106.095 24.8C106.468 25.2533 107.028 25.48 107.775 25.48ZM131.223 29V1.68H142.103C143.916 1.68 145.476 1.90667 146.783 2.36C148.09 2.81333 149.103 3.54667 149.823 4.56C150.57 5.54667 150.943 6.88 150.943 8.56C150.943 9.70667 150.823 10.68 150.583 11.48C150.37 12.2533 150.023 12.92 149.543 13.48C149.09 14.0133 148.49 14.5067 147.743 14.96C148.543 15.2533 149.236 15.6533 149.823 16.16C150.436 16.64 150.903 17.2933 151.223 18.12C151.543 18.92 151.703 19.9867 151.703 21.32C151.703 22.7867 151.476 24.0133 151.023 25C150.57 25.9867 149.916 26.7733 149.063 27.36C148.236 27.9467 147.263 28.3733 146.143 28.64C145.023 28.88 143.796 29 142.463 29H131.223ZM136.743 24.92H142.063C142.996 24.92 143.77 24.8133 144.383 24.6C145.023 24.36 145.503 23.9467 145.823 23.36C146.17 22.7733 146.343 21.96 146.343 20.92C146.343 20.12 146.21 19.4667 145.943 18.96C145.676 18.4533 145.33 18.08 144.903 17.84C144.476 17.5733 143.996 17.3867 143.463 17.28C142.956 17.1733 142.45 17.12 141.943 17.12H136.743V24.92ZM136.743 13.2H141.903C143.263 13.2 144.236 12.88 144.823 12.24C145.436 11.6 145.743 10.6267 145.743 9.32C145.743 8.06667 145.41 7.16 144.743 6.6C144.103 6.04 143.09 5.76 141.703 5.76H136.743V13.2ZM160.635 29.44C158.555 29.44 156.982 28.92 155.915 27.88C154.875 26.8133 154.355 25.2133 154.355 23.08C154.355 21.5867 154.622 20.4267 155.155 19.6C155.689 18.7467 156.475 18.1333 157.515 17.76C158.582 17.36 159.875 17.12 161.395 17.04L166.275 16.6V15.4C166.275 14.44 166.035 13.7733 165.555 13.4C165.075 13 164.369 12.8 163.435 12.8C162.689 12.8 161.822 12.8267 160.835 12.88C159.875 12.9333 158.915 13 157.955 13.08C157.022 13.16 156.209 13.24 155.515 13.32L155.355 9.56C156.049 9.4 156.875 9.24 157.835 9.08C158.822 8.89333 159.849 8.74667 160.915 8.64C161.982 8.53333 162.969 8.48 163.875 8.48C165.582 8.48 167.009 8.69333 168.155 9.12C169.302 9.54667 170.169 10.2533 170.755 11.24C171.342 12.2 171.635 13.5067 171.635 15.16V24.32C171.689 24.6933 171.889 24.9867 172.235 25.2C172.582 25.3867 172.982 25.52 173.435 25.6L173.315 29.28C172.675 29.3067 172.049 29.32 171.435 29.32C170.822 29.32 170.302 29.28 169.875 29.2C169.262 29.12 168.729 28.96 168.275 28.72C167.849 28.48 167.502 28.2267 167.235 27.96C166.809 28.1467 166.235 28.36 165.515 28.6C164.795 28.84 164.009 29.04 163.155 29.2C162.329 29.36 161.489 29.44 160.635 29.44ZM161.915 25.48C162.422 25.48 162.955 25.4267 163.515 25.32C164.075 25.2133 164.595 25.0933 165.075 24.96C165.582 24.8 165.982 24.6533 166.275 24.52V19.92L162.195 20.28C161.315 20.36 160.675 20.6267 160.275 21.08C159.902 21.5067 159.715 22.12 159.715 22.92C159.715 23.72 159.889 24.3467 160.235 24.8C160.609 25.2533 161.169 25.48 161.915 25.48ZM184.533 29.44C182.239 29.44 180.439 29.0933 179.133 28.4C177.853 27.68 176.946 26.5333 176.413 24.96C175.906 23.3867 175.653 21.32 175.653 18.76C175.653 16.2267 175.946 14.2133 176.533 12.72C177.119 11.2 178.066 10.12 179.373 9.48C180.706 8.81333 182.439 8.48 184.573 8.48C185.133 8.48 185.786 8.52 186.533 8.6C187.279 8.68 188.026 8.78667 188.773 8.92C189.546 9.02667 190.199 9.13333 190.733 9.24L190.533 13.52C190.026 13.4667 189.453 13.4267 188.813 13.4C188.173 13.3467 187.546 13.3067 186.933 13.28C186.346 13.2267 185.866 13.2 185.493 13.2C184.346 13.2 183.439 13.3867 182.773 13.76C182.133 14.1067 181.679 14.6933 181.413 15.52C181.173 16.32 181.053 17.4 181.053 18.76C181.053 20.2267 181.173 21.4 181.413 22.28C181.653 23.16 182.079 23.7867 182.693 24.16C183.333 24.5333 184.266 24.72 185.493 24.72C185.866 24.72 186.359 24.7067 186.973 24.68C187.586 24.6267 188.213 24.5733 188.853 24.52C189.519 24.4667 190.106 24.4267 190.613 24.4L190.773 28.68C190.239 28.7867 189.599 28.8933 188.853 29C188.106 29.1333 187.346 29.24 186.573 29.32C185.826 29.4 185.146 29.44 184.533 29.44ZM194.223 29V0.719999H199.543V16.48L201.903 16.4L206.063 8.92H211.623L206.543 18.36L211.903 29H206.303L201.983 21.04L199.543 21.16V29H194.223ZM214.416 20.64V16.08H226.496V20.64H214.416ZM238.867 29.44C236.654 29.44 234.894 29.0667 233.587 28.32C232.307 27.5733 231.387 26.44 230.827 24.92C230.267 23.4 229.987 21.4933 229.987 19.2C229.987 16.72 230.334 14.6933 231.027 13.12C231.747 11.5467 232.787 10.3867 234.147 9.64C235.507 8.86667 237.187 8.48 239.187 8.48C242.147 8.48 244.374 9.22667 245.867 10.72C247.387 12.2133 248.147 14.5733 248.147 17.8L247.907 20.76H235.347C235.374 22.2533 235.68 23.3733 236.267 24.12C236.854 24.8667 237.867 25.24 239.307 25.24C240.134 25.24 241.04 25.2267 242.027 25.2C243.014 25.1467 243.987 25.0933 244.947 25.04C245.934 24.9867 246.774 24.9333 247.467 24.88L247.587 28.6C246.92 28.7067 246.08 28.8267 245.067 28.96C244.054 29.0933 243 29.2 241.907 29.28C240.84 29.3867 239.827 29.44 238.867 29.44ZM235.347 17.36H242.827C242.827 15.5467 242.534 14.28 241.947 13.56C241.387 12.84 240.467 12.48 239.187 12.48C237.934 12.48 236.974 12.8533 236.307 13.6C235.667 14.3467 235.347 15.6 235.347 17.36ZM251.684 29V8.92H257.004V10.2C257.431 9.93333 257.951 9.68 258.564 9.44C259.178 9.17333 259.818 8.94667 260.484 8.76C261.178 8.57333 261.844 8.48 262.484 8.48C264.351 8.48 265.791 8.81333 266.804 9.48C267.844 10.12 268.578 11.1867 269.004 12.68C269.431 14.1467 269.644 16.12 269.644 18.6V29H264.284V18.88C264.284 17.4933 264.204 16.3867 264.044 15.56C263.884 14.7067 263.578 14.0933 263.124 13.72C262.671 13.3467 262.004 13.16 261.124 13.16C260.644 13.16 260.138 13.2133 259.604 13.32C259.098 13.4 258.604 13.52 258.124 13.68C257.671 13.84 257.298 14 257.004 14.16V29H251.684ZM280.554 29.44C279.594 29.44 278.714 29.32 277.914 29.08C277.114 28.8667 276.407 28.52 275.794 28.04C275.207 27.5333 274.7 26.88 274.274 26.08C273.874 25.28 273.567 24.3067 273.354 23.16C273.14 21.9867 273.034 20.6267 273.034 19.08C273.034 16.7867 273.314 14.8533 273.874 13.28C274.46 11.7067 275.38 10.52 276.634 9.72C277.887 8.89333 279.554 8.48 281.634 8.48C282.247 8.48 282.967 8.53333 283.794 8.64C284.647 8.72 285.327 8.8 285.834 8.88V0.719999H291.194V29H285.914L285.874 27.84C285.5 28.0533 285.007 28.2933 284.394 28.56C283.807 28.8 283.18 29 282.514 29.16C281.847 29.3467 281.194 29.44 280.554 29.44ZM281.914 24.96C282.394 24.96 282.874 24.9067 283.354 24.8C283.86 24.6933 284.327 24.5733 284.754 24.44C285.207 24.28 285.567 24.1333 285.834 24V13.24C285.594 13.1867 285.274 13.1467 284.874 13.12C284.474 13.0667 284.06 13.0267 283.634 13C283.207 12.9467 282.82 12.92 282.474 12.92C281.434 12.92 280.62 13.16 280.034 13.64C279.474 14.12 279.074 14.8267 278.834 15.76C278.594 16.6667 278.474 17.7733 278.474 19.08C278.474 20.2267 278.554 21.1867 278.714 21.96C278.874 22.7067 279.1 23.3067 279.394 23.76C279.714 24.1867 280.087 24.4933 280.514 24.68C280.94 24.8667 281.407 24.96 281.914 24.96Z" fill="#1C256D"/>
<path d="M311.184 1.67578C312.056 1.67578 312.785 1.81901 313.371 2.10547C313.97 2.39193 314.27 2.75651 314.27 3.19922C314.27 3.34245 314.243 3.47266 314.191 3.58984L301.184 35.1914C300.949 35.7513 300.415 36.0312 299.582 36.0312C298.71 36.0312 297.974 35.888 297.375 35.6016C296.789 35.3151 296.496 34.9505 296.496 34.5078C296.496 34.3646 296.522 34.2344 296.574 34.1172L309.582 2.51562C309.816 1.95573 310.35 1.67578 311.184 1.67578Z" fill="#4854AF"/>
</svg>
