<svg width="356" height="37" viewBox="0 0 356 37" fill="none" xmlns="http://www.w3.org/2000/svg">
<path d="M16.4766 7.92578C16.737 7.79557 16.9518 7.73047 17.1211 7.73047C17.3815 7.73047 17.6289 7.84766 17.8633 8.08203C18.0977 8.31641 18.3516 8.70703 18.625 9.25391C18.9635 9.93099 19.1328 10.4714 19.1328 10.875C19.1328 11.3177 18.8984 11.6628 18.4297 11.9102L7.00391 17.6133L18.4297 23.3164C18.8984 23.5638 19.1328 23.9089 19.1328 24.3516C19.1328 24.7552 18.9635 25.2956 18.625 25.9727C18.3516 26.5195 18.0977 26.9102 17.8633 27.1445C17.6289 27.3789 17.3815 27.4961 17.1211 27.4961C16.9518 27.4961 16.737 27.431 16.4766 27.3008L1.24219 19.4492C0.916667 19.2799 0.682292 19.0651 0.539062 18.8047C0.408854 18.5443 0.34375 18.1471 0.34375 17.6133C0.34375 17.0794 0.408854 16.6823 0.539062 16.4219C0.682292 16.1615 0.916667 15.9466 1.24219 15.7773L16.4766 7.92578ZM354.523 15.7773C354.849 15.9466 355.077 16.1615 355.207 16.4219C355.35 16.6823 355.422 17.0794 355.422 17.6133C355.422 18.1471 355.35 18.5443 355.207 18.8047C355.077 19.0651 354.849 19.2799 354.523 19.4492L339.289 27.3008C339.029 27.431 338.814 27.4961 338.645 27.4961C338.384 27.4961 338.137 27.3789 337.902 27.1445C337.668 26.9102 337.414 26.5195 337.141 25.9727C336.802 25.2956 336.633 24.7552 336.633 24.3516C336.633 23.9089 336.867 23.5638 337.336 23.3164L348.762 17.6133L337.336 11.9102C336.867 11.6628 336.633 11.3177 336.633 10.875C336.633 10.4714 336.802 9.93099 337.141 9.25391C337.414 8.70703 337.668 8.31641 337.902 8.08203C338.137 7.84766 338.384 7.73047 338.645 7.73047C338.814 7.73047 339.029 7.79557 339.289 7.92578L354.523 15.7773Z" fill="#D44A4A"/>
<path d="M41.6328 5.38672C42.4401 5.38672 42.9935 5.47786 43.293 5.66016C43.5924 5.84245 43.7422 6.16146 43.7422 6.61719V14.1172C43.7422 14.5599 43.5404 14.8789 43.1367 15.0742C42.7461 15.2565 42.0885 15.3477 41.1641 15.3477C40.5521 15.3477 40.0768 15.3086 39.7383 15.2305C39.4128 15.1393 39.1849 15.0091 39.0547 14.8398C38.9245 14.6706 38.8594 14.4297 38.8594 14.1172C38.8594 12.8151 38.5013 11.7734 37.7852 10.9922C37.082 10.2109 36.0729 9.82031 34.7578 9.82031C32.9479 9.82031 31.5742 10.4714 30.6367 11.7734C29.6992 13.0755 29.2305 14.9505 29.2305 17.3984C29.2305 19.8203 29.7253 21.6953 30.7148 23.0234C31.7174 24.3385 33.1302 24.9961 34.9531 24.9961C36.0859 24.9961 37.1732 24.8464 38.2148 24.5469C39.2565 24.2344 40.3893 23.7656 41.6133 23.1406C41.8216 23.0365 42.0169 22.9844 42.1992 22.9844C42.8112 22.9844 43.319 23.5247 43.7227 24.6055C43.9049 25.1003 43.9961 25.543 43.9961 25.9336C43.9961 26.5977 43.6966 27.0729 43.0977 27.3594C40.3112 28.7396 37.5312 29.4297 34.7578 29.4297C32.6224 29.4297 30.7409 28.9414 29.1133 27.9648C27.4857 26.9883 26.2227 25.5951 25.3242 23.7852C24.4388 21.9622 23.9961 19.8333 23.9961 17.3984C23.9961 14.9766 24.4323 12.8607 25.3047 11.0508C26.1771 9.22786 27.3815 7.82812 28.918 6.85156C30.4674 5.875 32.2188 5.38672 34.1719 5.38672C36.4505 5.38672 38.1432 6.20703 39.25 7.84766V6.61719C39.25 6.17448 39.4388 5.86198 39.8164 5.67969C40.194 5.48438 40.7995 5.38672 41.6328 5.38672ZM59.4453 10.9531C59.888 10.9531 60.2005 11.0508 60.3828 11.2461C60.5781 11.4284 60.6758 11.7409 60.6758 12.1836V24.9961H66.1641C66.4766 24.9961 66.7174 25.0547 66.8867 25.1719C67.056 25.276 67.1797 25.4714 67.2578 25.7578C67.349 26.0443 67.3945 26.4609 67.3945 27.0078C67.3945 27.5547 67.349 27.9714 67.2578 28.2578C67.1797 28.5443 67.056 28.7396 66.8867 28.8438C66.7174 28.9479 66.4766 29 66.1641 29H50.4609C50.1484 29 49.9076 28.9479 49.7383 28.8438C49.569 28.7396 49.4388 28.5443 49.3477 28.2578C49.2695 27.9714 49.2305 27.5547 49.2305 27.0078C49.2305 26.4609 49.2695 26.0443 49.3477 25.7578C49.4388 25.4714 49.569 25.276 49.7383 25.1719C49.9076 25.0547 50.1484 24.9961 50.4609 24.9961H55.793V14.957H51.6328C51.3203 14.957 51.0794 14.9049 50.9102 14.8008C50.7409 14.6966 50.6107 14.5013 50.5195 14.2148C50.4414 13.9284 50.4023 13.5117 50.4023 12.9648C50.4023 12.418 50.4414 12.0013 50.5195 11.7148C50.6107 11.4284 50.7409 11.2331 50.9102 11.1289C51.0794 11.0117 51.3203 10.9531 51.6328 10.9531H59.4453ZM58.1758 2.37891C59.1003 2.37891 59.7448 2.47656 60.1094 2.67188C60.487 2.85417 60.6758 3.16667 60.6758 3.60938V6.8125C60.6758 7.25521 60.5 7.57422 60.1484 7.76953C59.8099 7.95182 59.1849 8.04297 58.2734 8.04297C57.362 8.04297 56.7174 7.95182 56.3398 7.76953C55.9753 7.57422 55.793 7.25521 55.793 6.8125V3.60938C55.793 3.15365 55.9622 2.83464 56.3008 2.65234C56.6393 2.47005 57.2643 2.37891 58.1758 2.37891ZM88.6055 10.5234C89.4128 10.5234 89.9661 10.6146 90.2656 10.7969C90.5651 10.9792 90.7148 11.2982 90.7148 11.7539V18.0234C90.7148 18.4661 90.513 18.7852 90.1094 18.9805C89.7188 19.1628 89.0612 19.2539 88.1367 19.2539C87.5247 19.2539 87.0495 19.2148 86.7109 19.1367C86.3854 19.0456 86.1576 18.9154 86.0273 18.7461C85.8971 18.5768 85.832 18.3359 85.832 18.0234C85.832 17.4766 85.6953 16.9688 85.4219 16.5C85.1615 16.0312 84.7643 15.6602 84.2305 15.3867C83.7096 15.1003 83.0781 14.957 82.3359 14.957C81.3984 14.957 80.5781 15.1654 79.875 15.582C79.1719 15.9857 78.625 16.5716 78.2344 17.3398C77.8568 18.0951 77.668 18.974 77.668 19.9766C77.668 20.9792 77.8568 21.8646 78.2344 22.6328C78.625 23.388 79.1719 23.974 79.875 24.3906C80.5781 24.7943 81.3984 24.9961 82.3359 24.9961C83.3385 24.9961 84.3607 24.8333 85.4023 24.5078C86.457 24.1823 87.4792 23.7331 88.4688 23.1602C88.7031 23.0299 88.918 22.9648 89.1133 22.9648C89.6992 22.9648 90.2135 23.4792 90.6562 24.5078C90.8906 25.0677 91.0078 25.543 91.0078 25.9336C91.0078 26.5195 90.7279 26.9688 90.168 27.2812C88.957 27.9583 87.681 28.4857 86.3398 28.8633C85.0117 29.2409 83.6771 29.4297 82.3359 29.4297C80.3568 29.4297 78.6185 29.026 77.1211 28.2188C75.6237 27.4115 74.4648 26.2917 73.6445 24.8594C72.8372 23.4271 72.4336 21.7995 72.4336 19.9766C72.4336 18.1536 72.8438 16.526 73.6641 15.0938C74.4844 13.6484 75.5977 12.5286 77.0039 11.7344C78.4232 10.9271 80.0052 10.5234 81.75 10.5234C83.8594 10.5234 85.3503 11.2852 86.2227 12.8086V11.7539C86.2227 11.3112 86.4115 10.9987 86.7891 10.8164C87.1667 10.6211 87.7721 10.5234 88.6055 10.5234ZM107.219 3.375C107.661 3.375 107.974 3.47266 108.156 3.66797C108.352 3.85026 108.449 4.16276 108.449 4.60547V24.9961H113.938C114.25 24.9961 114.491 25.0547 114.66 25.1719C114.829 25.276 114.953 25.4714 115.031 25.7578C115.122 26.0443 115.168 26.4609 115.168 27.0078C115.168 27.5547 115.122 27.9714 115.031 28.2578C114.953 28.5443 114.829 28.7396 114.66 28.8438C114.491 28.9479 114.25 29 113.938 29H98.2344C97.9219 29 97.681 28.9479 97.5117 28.8438C97.3424 28.7396 97.2122 28.5443 97.1211 28.2578C97.043 27.9714 97.0039 27.5547 97.0039 27.0078C97.0039 26.4609 97.043 26.0443 97.1211 25.7578C97.2122 25.4714 97.3424 25.276 97.5117 25.1719C97.681 25.0547 97.9219 24.9961 98.2344 24.9961H103.566V7.37891H99.0156C98.7031 7.37891 98.4622 7.32682 98.293 7.22266C98.1237 7.11849 97.9935 6.92318 97.9023 6.63672C97.8242 6.35026 97.7852 5.93359 97.7852 5.38672C97.7852 4.83984 97.8242 4.42318 97.9023 4.13672C97.9935 3.85026 98.1237 3.65495 98.293 3.55078C98.4622 3.43359 98.7031 3.375 99.0156 3.375H107.219ZM129.914 10.5234C131.893 10.5234 133.625 10.9271 135.109 11.7344C136.594 12.5417 137.733 13.6615 138.527 15.0938C139.335 16.526 139.738 18.1536 139.738 19.9766C139.738 21.7995 139.335 23.4271 138.527 24.8594C137.733 26.2917 136.594 27.4115 135.109 28.2188C133.625 29.026 131.893 29.4297 129.914 29.4297C127.935 29.4297 126.203 29.026 124.719 28.2188C123.234 27.4115 122.089 26.2917 121.281 24.8594C120.487 23.4271 120.09 21.7995 120.09 19.9766C120.09 18.1536 120.487 16.526 121.281 15.0938C122.089 13.6615 123.234 12.5417 124.719 11.7344C126.203 10.9271 127.935 10.5234 129.914 10.5234ZM129.914 14.957C128.977 14.957 128.163 15.1654 127.473 15.582C126.783 15.9857 126.249 16.5651 125.871 17.3203C125.507 18.0755 125.324 18.9609 125.324 19.9766C125.324 20.9922 125.507 21.8776 125.871 22.6328C126.249 23.388 126.783 23.974 127.473 24.3906C128.163 24.7943 128.977 24.9961 129.914 24.9961C130.852 24.9961 131.665 24.7943 132.355 24.3906C133.046 23.974 133.573 23.388 133.938 22.6328C134.315 21.8776 134.504 20.9922 134.504 19.9766C134.504 18.9609 134.315 18.0755 133.938 17.3203C133.573 16.5651 133.046 15.9857 132.355 15.582C131.665 15.1654 130.852 14.957 129.914 14.957ZM173.195 3.375C173.638 3.375 173.951 3.47266 174.133 3.66797C174.328 3.85026 174.426 4.16276 174.426 4.60547V12.8281C175.09 12.0859 175.858 11.5195 176.73 11.1289C177.603 10.7253 178.547 10.5234 179.562 10.5234C181.268 10.5234 182.759 10.9401 184.035 11.7734C185.311 12.6068 186.288 13.7396 186.965 15.1719C187.642 16.6042 187.98 18.2057 187.98 19.9766C187.98 21.7474 187.642 23.349 186.965 24.7812C186.288 26.2135 185.311 27.3464 184.035 28.1797C182.759 29.013 181.268 29.4297 179.562 29.4297C178.326 29.4297 177.199 29.1432 176.184 28.5703C175.168 27.9844 174.322 27.1706 173.645 26.1289V27.7695C173.645 28.2122 173.547 28.5312 173.352 28.7266C173.169 28.9089 172.857 29 172.414 29H168.039C167.727 29 167.486 28.9479 167.316 28.8438C167.147 28.7266 167.017 28.5247 166.926 28.2383C166.848 27.9518 166.809 27.5352 166.809 26.9883C166.809 26.4414 166.848 26.0247 166.926 25.7383C167.017 25.4518 167.147 25.2565 167.316 25.1523C167.486 25.0482 167.727 24.9961 168.039 24.9961H169.543V7.37891H167.648C167.336 7.37891 167.095 7.32682 166.926 7.22266C166.757 7.11849 166.626 6.92318 166.535 6.63672C166.457 6.35026 166.418 5.93359 166.418 5.38672C166.418 4.83984 166.457 4.42318 166.535 4.13672C166.626 3.85026 166.757 3.65495 166.926 3.55078C167.095 3.43359 167.336 3.375 167.648 3.375H173.195ZM178.781 14.957C177.948 14.957 177.193 15.1523 176.516 15.543C175.839 15.9336 175.298 16.513 174.895 17.2812C174.491 18.0365 174.289 18.9349 174.289 19.9766C174.289 21.0182 174.491 21.9232 174.895 22.6914C175.298 23.4466 175.839 24.0195 176.516 24.4102C177.193 24.8008 177.948 24.9961 178.781 24.9961C179.589 24.9961 180.292 24.7943 180.891 24.3906C181.49 23.974 181.945 23.388 182.258 22.6328C182.583 21.8776 182.746 20.9922 182.746 19.9766C182.746 18.9609 182.583 18.0755 182.258 17.3203C181.945 16.5651 181.49 15.9857 180.891 15.582C180.292 15.1654 179.589 14.957 178.781 14.957ZM201.652 10.5234C204.517 10.5234 206.587 11.1419 207.863 12.3789C209.139 13.6159 209.777 15.3867 209.777 17.6914V23.3359C209.777 23.8568 209.888 24.2669 210.109 24.5664C210.331 24.8529 210.65 24.9961 211.066 24.9961H211.672C211.984 24.9961 212.225 25.0547 212.395 25.1719C212.564 25.276 212.688 25.4714 212.766 25.7578C212.857 26.0443 212.902 26.4609 212.902 27.0078C212.902 27.5547 212.857 27.9714 212.766 28.2578C212.688 28.5443 212.564 28.7396 212.395 28.8438C212.225 28.9479 211.984 29 211.672 29H209.484C208.677 29 207.961 28.8372 207.336 28.5117C206.724 28.1732 206.255 27.6458 205.93 26.9297C204.901 27.724 203.814 28.3424 202.668 28.7852C201.522 29.2148 200.344 29.4297 199.133 29.4297C197.661 29.4297 196.392 29.1823 195.324 28.6875C194.257 28.1797 193.436 27.4635 192.863 26.5391C192.303 25.6016 192.023 24.5013 192.023 23.2383C192.023 21.4154 192.668 20.0026 193.957 19C195.246 17.9974 197.049 17.4961 199.367 17.4961C201.099 17.4961 202.941 17.6914 204.895 18.082V17.5156C204.895 16.6432 204.621 15.9987 204.074 15.582C203.527 15.1654 202.564 14.957 201.184 14.957C200.415 14.957 199.556 15.0547 198.605 15.25C197.668 15.4323 196.737 15.6797 195.812 15.9922C195.591 16.0573 195.402 16.0898 195.246 16.0898C194.921 16.0898 194.628 15.9727 194.367 15.7383C194.12 15.4909 193.892 15.0807 193.684 14.5078C193.488 13.9349 193.391 13.4661 193.391 13.1016C193.391 12.4375 193.69 11.9948 194.289 11.7734C195.448 11.3568 196.678 11.0443 197.98 10.8359C199.283 10.6276 200.507 10.5234 201.652 10.5234ZM199.855 21.5195C198.944 21.5195 198.247 21.6823 197.766 22.0078C197.297 22.3333 197.062 22.8086 197.062 23.4336C197.062 24.0456 197.29 24.5143 197.746 24.8398C198.215 25.1523 198.885 25.3086 199.758 25.3086C200.656 25.3086 201.542 25.1328 202.414 24.7812C203.299 24.4167 204.126 23.9219 204.895 23.2969V22.0469C203.176 21.6953 201.496 21.5195 199.855 21.5195ZM203.82 1.01172C204.029 0.86849 204.243 0.796875 204.465 0.796875C205.064 0.796875 205.734 1.28516 206.477 2.26172C206.997 2.96484 207.258 3.57031 207.258 4.07812C207.258 4.49479 207.102 4.78125 206.789 4.9375L198.84 8.94141C198.71 9.01953 198.56 9.05859 198.391 9.05859C197.922 9.05859 197.479 8.72656 197.062 8.0625C196.776 7.60677 196.633 7.19661 196.633 6.83203C196.633 6.46745 196.77 6.1875 197.043 5.99219L203.82 1.01172ZM231.555 10.5234C232.388 10.5234 232.98 10.6211 233.332 10.8164C233.684 10.9987 233.859 11.3112 233.859 11.7539V15.875C233.859 16.3177 233.716 16.6367 233.43 16.832C233.156 17.0143 232.701 17.1055 232.062 17.1055C231.372 17.1055 230.897 16.9688 230.637 16.6953C229.868 15.875 228.99 15.2956 228 14.957C227.01 14.6055 225.865 14.4297 224.562 14.4297C223.794 14.4297 223.189 14.5664 222.746 14.8398C222.316 15.1133 222.102 15.4779 222.102 15.9336C222.102 16.4805 222.583 16.8711 223.547 17.1055C224.055 17.2357 224.921 17.3594 226.145 17.4766C227.355 17.6198 228.358 17.763 229.152 17.9062C229.96 18.0495 230.721 18.2643 231.438 18.5508C232.479 18.9805 233.293 19.5794 233.879 20.3477C234.465 21.1159 234.758 22.1315 234.758 23.3945C234.758 24.6315 234.452 25.7057 233.84 26.6172C233.241 27.5156 232.355 28.2122 231.184 28.707C230.025 29.1888 228.625 29.4297 226.984 29.4297C225.174 29.4297 223.495 28.9674 221.945 28.043V28.1992C221.945 28.6419 221.757 28.9544 221.379 29.1367C221.001 29.332 220.396 29.4297 219.562 29.4297C218.729 29.4297 218.137 29.332 217.785 29.1367C217.434 28.9544 217.258 28.6419 217.258 28.1992V23.8438C217.258 23.4141 217.408 23.1016 217.707 22.9062C218.02 22.7109 218.495 22.6133 219.133 22.6133C219.927 22.6133 220.467 22.7956 220.754 23.1602C221.405 23.9805 222.238 24.5794 223.254 24.957C224.27 25.3346 225.383 25.5234 226.594 25.5234C228.677 25.5234 229.719 24.9831 229.719 23.9023C229.719 23.5768 229.569 23.3164 229.27 23.1211C228.983 22.9258 228.553 22.763 227.98 22.6328C227.655 22.5677 226.9 22.4505 225.715 22.2812C224.4 22.125 223.267 21.9492 222.316 21.7539C221.379 21.5456 220.526 21.2266 219.758 20.7969C217.961 19.8073 217.062 18.2448 217.062 16.1094C217.062 14.9766 217.368 13.987 217.98 13.1406C218.592 12.2943 219.432 11.6497 220.5 11.207C221.581 10.7513 222.792 10.5234 224.133 10.5234C226.099 10.5234 227.844 10.9987 229.367 11.9492V11.7539C229.367 11.3112 229.523 10.9987 229.836 10.8164C230.161 10.6211 230.734 10.5234 231.555 10.5234ZM251.32 10.9531C251.763 10.9531 252.076 11.0508 252.258 11.2461C252.453 11.4284 252.551 11.7409 252.551 12.1836V24.9961H258.039C258.352 24.9961 258.592 25.0547 258.762 25.1719C258.931 25.276 259.055 25.4714 259.133 25.7578C259.224 26.0443 259.27 26.4609 259.27 27.0078C259.27 27.5547 259.224 27.9714 259.133 28.2578C259.055 28.5443 258.931 28.7396 258.762 28.8438C258.592 28.9479 258.352 29 258.039 29H242.336C242.023 29 241.783 28.9479 241.613 28.8438C241.444 28.7396 241.314 28.5443 241.223 28.2578C241.145 27.9714 241.105 27.5547 241.105 27.0078C241.105 26.4609 241.145 26.0443 241.223 25.7578C241.314 25.4714 241.444 25.276 241.613 25.1719C241.783 25.0547 242.023 24.9961 242.336 24.9961H247.668V14.957H243.508C243.195 14.957 242.954 14.9049 242.785 14.8008C242.616 14.6966 242.486 14.5013 242.395 14.2148C242.316 13.9284 242.277 13.5117 242.277 12.9648C242.277 12.418 242.316 12.0013 242.395 11.7148C242.486 11.4284 242.616 11.2331 242.785 11.1289C242.954 11.0117 243.195 10.9531 243.508 10.9531H251.32ZM250.051 2.37891C250.975 2.37891 251.62 2.47656 251.984 2.67188C252.362 2.85417 252.551 3.16667 252.551 3.60938V6.8125C252.551 7.25521 252.375 7.57422 252.023 7.76953C251.685 7.95182 251.06 8.04297 250.148 8.04297C249.237 8.04297 248.592 7.95182 248.215 7.76953C247.85 7.57422 247.668 7.25521 247.668 6.8125V3.60938C247.668 3.15365 247.837 2.83464 248.176 2.65234C248.514 2.47005 249.139 2.37891 250.051 2.37891ZM280.48 10.5234C281.288 10.5234 281.841 10.6146 282.141 10.7969C282.44 10.9792 282.59 11.2982 282.59 11.7539V18.0234C282.59 18.4661 282.388 18.7852 281.984 18.9805C281.594 19.1628 280.936 19.2539 280.012 19.2539C279.4 19.2539 278.924 19.2148 278.586 19.1367C278.26 19.0456 278.033 18.9154 277.902 18.7461C277.772 18.5768 277.707 18.3359 277.707 18.0234C277.707 17.4766 277.57 16.9688 277.297 16.5C277.036 16.0312 276.639 15.6602 276.105 15.3867C275.585 15.1003 274.953 14.957 274.211 14.957C273.273 14.957 272.453 15.1654 271.75 15.582C271.047 15.9857 270.5 16.5716 270.109 17.3398C269.732 18.0951 269.543 18.974 269.543 19.9766C269.543 20.9792 269.732 21.8646 270.109 22.6328C270.5 23.388 271.047 23.974 271.75 24.3906C272.453 24.7943 273.273 24.9961 274.211 24.9961C275.214 24.9961 276.236 24.8333 277.277 24.5078C278.332 24.1823 279.354 23.7331 280.344 23.1602C280.578 23.0299 280.793 22.9648 280.988 22.9648C281.574 22.9648 282.089 23.4792 282.531 24.5078C282.766 25.0677 282.883 25.543 282.883 25.9336C282.883 26.5195 282.603 26.9688 282.043 27.2812C280.832 27.9583 279.556 28.4857 278.215 28.8633C276.887 29.2409 275.552 29.4297 274.211 29.4297C272.232 29.4297 270.493 29.026 268.996 28.2188C267.499 27.4115 266.34 26.2917 265.52 24.8594C264.712 23.4271 264.309 21.7995 264.309 19.9766C264.309 18.1536 264.719 16.526 265.539 15.0938C266.359 13.6484 267.473 12.5286 268.879 11.7344C270.298 10.9271 271.88 10.5234 273.625 10.5234C275.734 10.5234 277.225 11.2852 278.098 12.8086V11.7539C278.098 11.3112 278.286 10.9987 278.664 10.8164C279.042 10.6211 279.647 10.5234 280.48 10.5234ZM297.805 10.5234C299.784 10.5234 301.516 10.9271 303 11.7344C304.484 12.5417 305.624 13.6615 306.418 15.0938C307.225 16.526 307.629 18.1536 307.629 19.9766C307.629 21.7995 307.225 23.4271 306.418 24.8594C305.624 26.2917 304.484 27.4115 303 28.2188C301.516 29.026 299.784 29.4297 297.805 29.4297C295.826 29.4297 294.094 29.026 292.609 28.2188C291.125 27.4115 289.979 26.2917 289.172 24.8594C288.378 23.4271 287.98 21.7995 287.98 19.9766C287.98 18.1536 288.378 16.526 289.172 15.0938C289.979 13.6615 291.125 12.5417 292.609 11.7344C294.094 10.9271 295.826 10.5234 297.805 10.5234ZM297.805 14.957C296.867 14.957 296.053 15.1654 295.363 15.582C294.673 15.9857 294.139 16.5651 293.762 17.3203C293.397 18.0755 293.215 18.9609 293.215 19.9766C293.215 20.9922 293.397 21.8776 293.762 22.6328C294.139 23.388 294.673 23.974 295.363 24.3906C296.053 24.7943 296.867 24.9961 297.805 24.9961C298.742 24.9961 299.556 24.7943 300.246 24.3906C300.936 23.974 301.464 23.388 301.828 22.6328C302.206 21.8776 302.395 20.9922 302.395 19.9766C302.395 18.9609 302.206 18.0755 301.828 17.3203C301.464 16.5651 300.936 15.9857 300.246 15.582C299.556 15.1654 298.742 14.957 297.805 14.957Z" fill="#1C256D"/>
<path d="M327.59 1.67578C328.462 1.67578 329.191 1.81901 329.777 2.10547C330.376 2.39193 330.676 2.75651 330.676 3.19922C330.676 3.34245 330.65 3.47266 330.598 3.58984L317.59 35.1914C317.355 35.7513 316.822 36.0312 315.988 36.0312C315.116 36.0312 314.38 35.888 313.781 35.6016C313.195 35.3151 312.902 34.9505 312.902 34.5078C312.902 34.3646 312.928 34.2344 312.98 34.1172L325.988 2.51562C326.223 1.95573 326.757 1.67578 327.59 1.67578Z" fill="#4854AF"/>
</svg>
