<svg width="774" height="48" viewBox="0 0 774 48" fill="none" xmlns="http://www.w3.org/2000/svg">
<path d="M23.0957 12.6572C23.4212 12.4945 23.6898 12.4131 23.9014 12.4131C24.2269 12.4131 24.5361 12.5596 24.8291 12.8525C25.1221 13.1455 25.4395 13.6338 25.7812 14.3174C26.2044 15.1637 26.416 15.8392 26.416 16.3438C26.416 16.8971 26.123 17.3285 25.5371 17.6377L11.2549 24.7666L25.5371 31.8955C26.123 32.2048 26.416 32.6361 26.416 33.1895C26.416 33.694 26.2044 34.3695 25.7812 35.2158C25.4395 35.8994 25.1221 36.3877 24.8291 36.6807C24.5361 36.9736 24.2269 37.1201 23.9014 37.1201C23.6898 37.1201 23.4212 37.0387 23.0957 36.876L4.05273 27.0615C3.64583 26.8499 3.35286 26.5814 3.17383 26.2559C3.01107 25.9303 2.92969 25.4339 2.92969 24.7666C2.92969 24.0993 3.01107 23.6029 3.17383 23.2773C3.35286 22.9518 3.64583 22.6833 4.05273 22.4717L23.0957 12.6572ZM565.576 22.4717C565.983 22.6833 566.268 22.9518 566.431 23.2773C566.61 23.6029 566.699 24.0993 566.699 24.7666C566.699 25.4339 566.61 25.9303 566.431 26.2559C566.268 26.5814 565.983 26.8499 565.576 27.0615L546.533 36.876C546.208 37.0387 545.939 37.1201 545.728 37.1201C545.402 37.1201 545.093 36.9736 544.8 36.6807C544.507 36.3877 544.189 35.8994 543.848 35.2158C543.424 34.3695 543.213 33.694 543.213 33.1895C543.213 32.6361 543.506 32.2048 544.092 31.8955L558.374 24.7666L544.092 17.6377C543.506 17.3285 543.213 16.8971 543.213 16.3438C543.213 15.8392 543.424 15.1637 543.848 14.3174C544.189 13.6338 544.507 13.1455 544.8 12.8525C545.093 12.5596 545.402 12.4131 545.728 12.4131C545.939 12.4131 546.208 12.4945 546.533 12.6572L565.576 22.4717Z" fill="#AD2647"/>
<path d="M53.8086 9.4834C54.8177 9.4834 55.5094 9.59733 55.8838 9.8252C56.2581 10.0531 56.4453 10.4518 56.4453 11.0215V19.4199C56.4453 19.9733 56.193 20.3721 55.6885 20.6162C55.2002 20.8441 54.3783 20.958 53.2227 20.958C52.4577 20.958 51.8636 20.9092 51.4404 20.8115C51.0335 20.6976 50.7487 20.5348 50.5859 20.3232C50.4232 20.1117 50.3418 19.8105 50.3418 19.4199C50.3418 18.0202 49.9186 16.9378 49.0723 16.1729C48.2259 15.4079 46.9401 15.0254 45.2148 15.0254C42.9525 15.0254 41.2354 15.8392 40.0635 17.4668C38.8916 19.0944 38.3057 21.4382 38.3057 24.498C38.3057 27.5254 38.9242 29.8691 40.1611 31.5293C41.4144 33.1732 43.1803 33.9951 45.459 33.9951C47.2656 33.9951 48.9746 33.751 50.5859 33.2627V29.1855H45.874C45.4834 29.1855 45.1823 29.1204 44.9707 28.9902C44.7591 28.86 44.5964 28.6159 44.4824 28.2578C44.3848 27.8997 44.3359 27.3789 44.3359 26.6953C44.3359 26.0117 44.3848 25.4909 44.4824 25.1328C44.5964 24.7747 44.7591 24.5306 44.9707 24.4004C45.1823 24.2539 45.4834 24.1807 45.874 24.1807H57.4463C57.8369 24.1807 58.138 24.2539 58.3496 24.4004C58.5612 24.5306 58.7158 24.7747 58.8135 25.1328C58.9274 25.4909 58.9844 26.0117 58.9844 26.6953C58.9844 27.3789 58.9274 27.8997 58.8135 28.2578C58.7158 28.6159 58.5612 28.86 58.3496 28.9902C58.138 29.1204 57.8369 29.1855 57.4463 29.1855H56.6895V35.5088C56.6895 35.8994 56.6081 36.2412 56.4453 36.5342C56.2988 36.8271 56.0872 37.0469 55.8105 37.1934C54.2969 37.9746 52.6367 38.5605 50.8301 38.9512C49.0234 39.3418 47.1517 39.5371 45.2148 39.5371C42.5456 39.5371 40.1937 38.9268 38.1592 37.7061C36.1247 36.4854 34.5459 34.7438 33.4229 32.4814C32.3161 30.2028 31.7627 27.5417 31.7627 24.498C31.7627 21.4707 32.3079 18.8258 33.3984 16.5635C34.4889 14.2848 35.9945 12.5352 37.915 11.3145C39.8519 10.0938 42.041 9.4834 44.4824 9.4834C47.347 9.4834 49.4629 10.4437 50.8301 12.3643V11.0215C50.8301 10.4681 51.0661 10.0775 51.5381 9.84961C52.0101 9.60547 52.7669 9.4834 53.8086 9.4834ZM83.6182 16.4414C84.1715 16.4414 84.5622 16.5635 84.79 16.8076C85.0342 17.0355 85.1562 17.4261 85.1562 17.9795V33.9951H87.0361C87.4268 33.9951 87.7279 34.0602 87.9395 34.1904C88.151 34.3206 88.3057 34.5648 88.4033 34.9229C88.5173 35.2809 88.5742 35.8018 88.5742 36.4854C88.5742 37.1689 88.5173 37.6898 88.4033 38.0479C88.3057 38.4059 88.151 38.6582 87.9395 38.8047C87.7279 38.9349 87.4268 39 87.0361 39H81.5674C81.014 39 80.6152 38.8861 80.3711 38.6582C80.1432 38.4141 80.0293 38.0153 80.0293 37.4619V33.9219C77.8809 37.6654 75.1953 39.5371 71.9727 39.5371C70.4915 39.5371 69.1895 39.2116 68.0664 38.5605C66.9596 37.9095 66.1051 36.9899 65.5029 35.8018C64.9007 34.5973 64.5996 33.1895 64.5996 31.5781V21.4463H62.7197C62.3291 21.4463 62.028 21.3812 61.8164 21.251C61.6048 21.1045 61.4421 20.8522 61.3281 20.4941C61.2305 20.1361 61.1816 19.6152 61.1816 18.9316C61.1816 18.248 61.2305 17.7272 61.3281 17.3691C61.4421 17.0111 61.6048 16.7669 61.8164 16.6367C62.028 16.5065 62.3291 16.4414 62.7197 16.4414H69.165C69.7184 16.4414 70.109 16.5635 70.3369 16.8076C70.5811 17.0355 70.7031 17.4261 70.7031 17.9795V30.1377C70.7031 31.4072 70.9229 32.3675 71.3623 33.0186C71.8018 33.6696 72.5342 33.9951 73.5596 33.9951C74.5036 33.9951 75.3988 33.6045 76.2451 32.8232C77.0915 32.0257 77.7669 30.9678 78.2715 29.6494C78.7923 28.3311 79.0527 26.9232 79.0527 25.4258V21.4463H76.4404C76.0498 21.4463 75.7487 21.3812 75.5371 21.251C75.3255 21.1045 75.1628 20.8522 75.0488 20.4941C74.9512 20.1361 74.9023 19.6152 74.9023 18.9316C74.9023 18.248 74.9512 17.7272 75.0488 17.3691C75.1628 17.0111 75.3255 16.7669 75.5371 16.6367C75.7487 16.5065 76.0498 16.4414 76.4404 16.4414H83.6182ZM106.787 16.4414C107.34 16.4414 107.731 16.5635 107.959 16.8076C108.203 17.0355 108.325 17.4261 108.325 17.9795V33.9951H115.186C115.576 33.9951 115.877 34.0684 116.089 34.2148C116.3 34.3451 116.455 34.5892 116.553 34.9473C116.667 35.3053 116.724 35.8262 116.724 36.5098C116.724 37.1934 116.667 37.7142 116.553 38.0723C116.455 38.4303 116.3 38.6745 116.089 38.8047C115.877 38.9349 115.576 39 115.186 39H95.5566C95.166 39 94.8649 38.9349 94.6533 38.8047C94.4417 38.6745 94.279 38.4303 94.165 38.0723C94.0674 37.7142 94.0186 37.1934 94.0186 36.5098C94.0186 35.8262 94.0674 35.3053 94.165 34.9473C94.279 34.5892 94.4417 34.3451 94.6533 34.2148C94.8649 34.0684 95.166 33.9951 95.5566 33.9951H102.222V21.4463H97.0215C96.6309 21.4463 96.3298 21.3812 96.1182 21.251C95.9066 21.1208 95.7438 20.8766 95.6299 20.5186C95.5322 20.1605 95.4834 19.6396 95.4834 18.9561C95.4834 18.2725 95.5322 17.7516 95.6299 17.3936C95.7438 17.0355 95.9066 16.7913 96.1182 16.6611C96.3298 16.5146 96.6309 16.4414 97.0215 16.4414H106.787ZM105.2 5.72363C106.356 5.72363 107.161 5.8457 107.617 6.08984C108.089 6.31771 108.325 6.70833 108.325 7.26172V11.2656C108.325 11.819 108.105 12.2178 107.666 12.4619C107.243 12.6898 106.462 12.8037 105.322 12.8037C104.183 12.8037 103.377 12.6898 102.905 12.4619C102.45 12.2178 102.222 11.819 102.222 11.2656V7.26172C102.222 6.69206 102.433 6.29329 102.856 6.06543C103.28 5.83757 104.061 5.72363 105.2 5.72363ZM134.644 15.9043C138.224 15.9043 140.812 16.6774 142.407 18.2236C144.002 19.7699 144.8 21.9834 144.8 24.8643V31.9199C144.8 32.571 144.938 33.0837 145.215 33.458C145.492 33.8161 145.89 33.9951 146.411 33.9951H147.168C147.559 33.9951 147.86 34.0684 148.071 34.2148C148.283 34.3451 148.438 34.5892 148.535 34.9473C148.649 35.3053 148.706 35.8262 148.706 36.5098C148.706 37.1934 148.649 37.7142 148.535 38.0723C148.438 38.4303 148.283 38.6745 148.071 38.8047C147.86 38.9349 147.559 39 147.168 39H144.434C143.424 39 142.529 38.7965 141.748 38.3896C140.983 37.9665 140.397 37.3073 139.99 36.4121C138.704 37.4049 137.345 38.1781 135.913 38.7314C134.481 39.2686 133.008 39.5371 131.494 39.5371C129.655 39.5371 128.068 39.2279 126.733 38.6094C125.399 37.9746 124.373 37.0794 123.657 35.9238C122.957 34.752 122.607 33.3766 122.607 31.7979C122.607 29.5192 123.413 27.7533 125.024 26.5C126.636 25.2467 128.89 24.6201 131.787 24.6201C133.952 24.6201 136.255 24.8643 138.696 25.3525V24.6445C138.696 23.554 138.354 22.7484 137.671 22.2275C136.987 21.7067 135.783 21.4463 134.058 21.4463C133.097 21.4463 132.023 21.5684 130.835 21.8125C129.663 22.0404 128.499 22.3496 127.344 22.7402C127.067 22.8216 126.831 22.8623 126.636 22.8623C126.229 22.8623 125.863 22.7158 125.537 22.4229C125.228 22.1136 124.943 21.6009 124.683 20.8848C124.438 20.1686 124.316 19.5827 124.316 19.127C124.316 18.2969 124.691 17.7435 125.439 17.4668C126.888 16.946 128.426 16.5553 130.054 16.2949C131.681 16.0345 133.211 15.9043 134.644 15.9043ZM132.397 29.6494C131.258 29.6494 130.387 29.8529 129.785 30.2598C129.199 30.6667 128.906 31.2607 128.906 32.042C128.906 32.807 129.191 33.3929 129.761 33.7998C130.347 34.1904 131.185 34.3857 132.275 34.3857C133.398 34.3857 134.505 34.166 135.596 33.7266C136.702 33.2708 137.736 32.6523 138.696 31.8711V30.3086C136.548 29.8691 134.448 29.6494 132.397 29.6494ZM172.021 15.9043C173.063 15.9043 173.804 16.0264 174.243 16.2705C174.683 16.4984 174.902 16.889 174.902 17.4424V22.5938C174.902 23.1471 174.723 23.5459 174.365 23.79C174.023 24.0179 173.454 24.1318 172.656 24.1318C171.794 24.1318 171.2 23.9609 170.874 23.6191C169.914 22.5938 168.815 21.8695 167.578 21.4463C166.341 21.0068 164.909 20.7871 163.281 20.7871C162.321 20.7871 161.564 20.958 161.011 21.2998C160.474 21.6416 160.205 22.0973 160.205 22.667C160.205 23.3506 160.807 23.8389 162.012 24.1318C162.646 24.2946 163.729 24.4492 165.259 24.5957C166.772 24.7747 168.026 24.9538 169.019 25.1328C170.028 25.3118 170.98 25.5804 171.875 25.9385C173.177 26.4756 174.194 27.2243 174.927 28.1846C175.659 29.1449 176.025 30.4144 176.025 31.9932C176.025 33.5394 175.643 34.8822 174.878 36.0215C174.129 37.1445 173.022 38.0153 171.558 38.6338C170.109 39.236 168.359 39.5371 166.309 39.5371C164.046 39.5371 161.947 38.9593 160.01 37.8037V37.999C160.01 38.5524 159.774 38.943 159.302 39.1709C158.83 39.415 158.073 39.5371 157.031 39.5371C155.99 39.5371 155.249 39.415 154.81 39.1709C154.37 38.943 154.15 38.5524 154.15 37.999V32.5547C154.15 32.0176 154.338 31.627 154.712 31.3828C155.103 31.1387 155.697 31.0166 156.494 31.0166C157.487 31.0166 158.162 31.2445 158.521 31.7002C159.334 32.7256 160.376 33.4743 161.646 33.9463C162.915 34.4183 164.307 34.6543 165.82 34.6543C168.424 34.6543 169.727 33.9788 169.727 32.6279C169.727 32.221 169.539 31.8955 169.165 31.6514C168.807 31.4072 168.27 31.2038 167.554 31.041C167.147 30.9596 166.203 30.8132 164.722 30.6016C163.078 30.4062 161.662 30.1865 160.474 29.9424C159.302 29.682 158.236 29.2832 157.275 28.7461C155.029 27.5091 153.906 25.556 153.906 22.8867C153.906 21.4707 154.289 20.2337 155.054 19.1758C155.819 18.1178 156.868 17.3122 158.203 16.7588C159.554 16.1891 161.068 15.9043 162.744 15.9043C165.202 15.9043 167.383 16.4984 169.287 17.6865V17.4424C169.287 16.889 169.482 16.4984 169.873 16.2705C170.28 16.0264 170.996 15.9043 172.021 15.9043ZM233.74 6.96875C234.294 6.96875 234.684 7.09082 234.912 7.33496C235.156 7.56283 235.278 7.95345 235.278 8.50684V33.9951H237.402C237.793 33.9951 238.094 34.0602 238.306 34.1904C238.517 34.3206 238.672 34.5648 238.77 34.9229C238.883 35.2809 238.94 35.8018 238.94 36.4854C238.94 37.1689 238.883 37.6898 238.77 38.0479C238.672 38.4059 238.517 38.6582 238.306 38.8047C238.094 38.9349 237.793 39 237.402 39H231.689C231.136 39 230.737 38.8861 230.493 38.6582C230.265 38.4141 230.151 38.0153 230.151 37.4619V35.4111C229.305 36.7132 228.247 37.7305 226.978 38.4629C225.708 39.179 224.3 39.5371 222.754 39.5371C220.622 39.5371 218.758 39.0163 217.163 37.9746C215.568 36.9329 214.347 35.5169 213.501 33.7266C212.655 31.9362 212.231 29.9342 212.231 27.7207C212.231 25.5072 212.655 23.5052 213.501 21.7148C214.347 19.9245 215.568 18.5085 217.163 17.4668C218.758 16.4251 220.622 15.9043 222.754 15.9043C224.023 15.9043 225.203 16.1566 226.294 16.6611C227.384 17.1494 228.345 17.8574 229.175 18.7852V11.9736H225.586C225.195 11.9736 224.894 11.9085 224.683 11.7783C224.471 11.6481 224.308 11.404 224.194 11.0459C224.097 10.6878 224.048 10.167 224.048 9.4834C224.048 8.7998 224.097 8.27897 224.194 7.9209C224.308 7.56283 224.471 7.31868 224.683 7.18848C224.894 7.04199 225.195 6.96875 225.586 6.96875H233.74ZM223.73 21.4463C222.721 21.4463 221.842 21.7067 221.094 22.2275C220.345 22.7321 219.767 23.4564 219.36 24.4004C218.97 25.3444 218.774 26.4512 218.774 27.7207C218.774 28.9902 218.97 30.097 219.36 31.041C219.767 31.985 220.345 32.7174 221.094 33.2383C221.842 33.7428 222.721 33.9951 223.73 33.9951C224.772 33.9951 225.716 33.751 226.562 33.2627C227.409 32.7744 228.084 32.0583 228.589 31.1143C229.093 30.154 229.346 29.0228 229.346 27.7207C229.346 26.4186 229.093 25.2956 228.589 24.3516C228.084 23.3913 227.409 22.667 226.562 22.1787C225.716 21.6904 224.772 21.4463 223.73 21.4463ZM255.176 15.9043C257.65 15.9043 259.757 16.4414 261.499 17.5156C263.241 18.5736 264.551 20.0547 265.43 21.959C266.325 23.847 266.772 26.0117 266.772 28.4531C266.772 29.0065 266.65 29.3971 266.406 29.625C266.178 29.8529 265.788 29.9668 265.234 29.9668H249.561C249.87 31.2689 250.529 32.2699 251.538 32.9697C252.563 33.6533 253.857 33.9951 255.42 33.9951C257.943 33.9951 260.677 33.5475 263.623 32.6523C263.818 32.5872 264.014 32.5547 264.209 32.5547C264.567 32.5547 264.876 32.7174 265.137 33.043C265.397 33.3685 265.633 33.9219 265.845 34.7031C266.007 35.3053 266.089 35.818 266.089 36.2412C266.089 36.6644 265.991 36.998 265.796 37.2422C265.617 37.4701 265.316 37.6572 264.893 37.8037C263.265 38.3408 261.605 38.764 259.912 39.0732C258.219 39.3825 256.559 39.5371 254.932 39.5371C252.458 39.5371 250.326 39.0326 248.535 38.0234C246.745 37.0143 245.378 35.6227 244.434 33.8486C243.506 32.0583 243.042 30.0156 243.042 27.7207C243.042 25.4421 243.53 23.4076 244.507 21.6172C245.483 19.8268 246.891 18.4271 248.73 17.418C250.57 16.4089 252.718 15.9043 255.176 15.9043ZM255.176 21.4463C252.197 21.4463 250.358 22.6995 249.658 25.2061H260.4C260.124 24.0179 259.53 23.0983 258.618 22.4473C257.723 21.7799 256.576 21.4463 255.176 21.4463ZM325.073 10.0205C325.643 10.0205 326.05 10.1426 326.294 10.3867C326.538 10.6309 326.66 11.0378 326.66 11.6074V18.9805C326.66 19.5339 326.424 19.9326 325.952 20.1768C325.48 20.4046 324.723 20.5186 323.682 20.5186C322.673 20.5186 321.981 20.4046 321.606 20.1768C321.232 19.9489 321.045 19.5501 321.045 18.9805V15.2695H311.279V21.4463H317.236C317.806 21.4463 318.205 21.6335 318.433 22.0078C318.66 22.3822 318.774 23.0739 318.774 24.083C318.774 25.0921 318.66 25.7839 318.433 26.1582C318.205 26.5163 317.806 26.6953 317.236 26.6953H311.279V33.751H321.289V28.8193C321.289 28.266 321.525 27.8753 321.997 27.6475C322.485 27.4033 323.275 27.2812 324.365 27.2812C325.439 27.2812 326.172 27.3952 326.562 27.623C326.953 27.8509 327.148 28.2497 327.148 28.8193V37.4131C327.148 37.9665 327.026 38.3734 326.782 38.6338C326.538 38.8779 326.131 39 325.562 39H302.808C302.417 39 302.116 38.9349 301.904 38.8047C301.693 38.6745 301.53 38.4303 301.416 38.0723C301.318 37.7142 301.27 37.1934 301.27 36.5098C301.27 35.8262 301.318 35.3053 301.416 34.9473C301.53 34.5892 301.693 34.3451 301.904 34.2148C302.116 34.0684 302.417 33.9951 302.808 33.9951H305.176V15.0254H302.808C302.417 15.0254 302.116 14.9603 301.904 14.8301C301.693 14.6999 301.53 14.4557 301.416 14.0977C301.318 13.7396 301.27 13.2188 301.27 12.5352C301.27 11.8516 301.318 11.3307 301.416 10.9727C301.53 10.6146 301.693 10.3704 301.904 10.2402C302.116 10.0938 302.417 10.0205 302.808 10.0205H325.073ZM351.904 15.9043C352.946 15.9043 353.687 16.0264 354.126 16.2705C354.565 16.4984 354.785 16.889 354.785 17.4424V22.5938C354.785 23.1471 354.606 23.5459 354.248 23.79C353.906 24.0179 353.337 24.1318 352.539 24.1318C351.676 24.1318 351.082 23.9609 350.757 23.6191C349.797 22.5938 348.698 21.8695 347.461 21.4463C346.224 21.0068 344.792 20.7871 343.164 20.7871C342.204 20.7871 341.447 20.958 340.894 21.2998C340.356 21.6416 340.088 22.0973 340.088 22.667C340.088 23.3506 340.69 23.8389 341.895 24.1318C342.529 24.2946 343.612 24.4492 345.142 24.5957C346.655 24.7747 347.909 24.9538 348.901 25.1328C349.91 25.3118 350.863 25.5804 351.758 25.9385C353.06 26.4756 354.077 27.2243 354.81 28.1846C355.542 29.1449 355.908 30.4144 355.908 31.9932C355.908 33.5394 355.526 34.8822 354.761 36.0215C354.012 37.1445 352.905 38.0153 351.44 38.6338C349.992 39.236 348.242 39.5371 346.191 39.5371C343.929 39.5371 341.829 38.9593 339.893 37.8037V37.999C339.893 38.5524 339.657 38.943 339.185 39.1709C338.713 39.415 337.956 39.5371 336.914 39.5371C335.872 39.5371 335.132 39.415 334.692 39.1709C334.253 38.943 334.033 38.5524 334.033 37.999V32.5547C334.033 32.0176 334.22 31.627 334.595 31.3828C334.985 31.1387 335.579 31.0166 336.377 31.0166C337.37 31.0166 338.045 31.2445 338.403 31.7002C339.217 32.7256 340.259 33.4743 341.528 33.9463C342.798 34.4183 344.189 34.6543 345.703 34.6543C348.307 34.6543 349.609 33.9788 349.609 32.6279C349.609 32.221 349.422 31.8955 349.048 31.6514C348.69 31.4072 348.153 31.2038 347.437 31.041C347.03 30.9596 346.086 30.8132 344.604 30.6016C342.961 30.4062 341.545 30.1865 340.356 29.9424C339.185 29.682 338.118 29.2832 337.158 28.7461C334.912 27.5091 333.789 25.556 333.789 22.8867C333.789 21.4707 334.172 20.2337 334.937 19.1758C335.701 18.1178 336.751 17.3122 338.086 16.7588C339.437 16.1891 340.951 15.9043 342.627 15.9043C345.085 15.9043 347.266 16.4984 349.17 17.6865V17.4424C349.17 16.889 349.365 16.4984 349.756 16.2705C350.163 16.0264 350.879 15.9043 351.904 15.9043ZM371.606 9.4834C372.371 9.4834 372.957 9.54036 373.364 9.6543C373.787 9.75195 374.08 9.90658 374.243 10.1182C374.406 10.3298 374.487 10.6309 374.487 11.0215V17.9062H383.545C384.115 17.9062 384.513 18.0934 384.741 18.4678C384.969 18.8421 385.083 19.5339 385.083 20.543C385.083 21.5521 384.969 22.2438 384.741 22.6182C384.513 22.9762 384.115 23.1553 383.545 23.1553H374.487V29.9424C374.487 32.6442 375.537 33.9951 377.637 33.9951C378.385 33.9951 379.256 33.8324 380.249 33.5068C381.258 33.165 382.43 32.693 383.765 32.0908C384.123 31.9443 384.408 31.8711 384.619 31.8711C384.961 31.8711 385.278 32.0176 385.571 32.3105C385.864 32.5872 386.141 33.0511 386.401 33.7021C386.694 34.4346 386.841 35.0286 386.841 35.4844C386.841 35.8424 386.751 36.1436 386.572 36.3877C386.41 36.6156 386.157 36.819 385.815 36.998C382.463 38.6908 379.557 39.5371 377.1 39.5371C374.268 39.5371 372.103 38.7477 370.605 37.1689C369.124 35.5902 368.384 33.2871 368.384 30.2598V23.1553H363.672C363.102 23.1553 362.703 22.9762 362.476 22.6182C362.248 22.2438 362.134 21.5521 362.134 20.543C362.134 19.5339 362.248 18.8421 362.476 18.4678C362.703 18.0934 363.102 17.9062 363.672 17.9062H368.384V11.0215C368.384 10.4681 368.628 10.0775 369.116 9.84961C369.621 9.60547 370.451 9.4834 371.606 9.4834ZM413.403 16.4414C413.957 16.4414 414.347 16.5635 414.575 16.8076C414.819 17.0355 414.941 17.4261 414.941 17.9795V33.9951H416.821C417.212 33.9951 417.513 34.0602 417.725 34.1904C417.936 34.3206 418.091 34.5648 418.188 34.9229C418.302 35.2809 418.359 35.8018 418.359 36.4854C418.359 37.1689 418.302 37.6898 418.188 38.0479C418.091 38.4059 417.936 38.6582 417.725 38.8047C417.513 38.9349 417.212 39 416.821 39H411.353C410.799 39 410.4 38.8861 410.156 38.6582C409.928 38.4141 409.814 38.0153 409.814 37.4619V33.9219C407.666 37.6654 404.98 39.5371 401.758 39.5371C400.277 39.5371 398.975 39.2116 397.852 38.5605C396.745 37.9095 395.89 36.9899 395.288 35.8018C394.686 34.5973 394.385 33.1895 394.385 31.5781V21.4463H392.505C392.114 21.4463 391.813 21.3812 391.602 21.251C391.39 21.1045 391.227 20.8522 391.113 20.4941C391.016 20.1361 390.967 19.6152 390.967 18.9316C390.967 18.248 391.016 17.7272 391.113 17.3691C391.227 17.0111 391.39 16.7669 391.602 16.6367C391.813 16.5065 392.114 16.4414 392.505 16.4414H398.95C399.504 16.4414 399.894 16.5635 400.122 16.8076C400.366 17.0355 400.488 17.4261 400.488 17.9795V30.1377C400.488 31.4072 400.708 32.3675 401.147 33.0186C401.587 33.6696 402.319 33.9951 403.345 33.9951C404.289 33.9951 405.184 33.6045 406.03 32.8232C406.877 32.0257 407.552 30.9678 408.057 29.6494C408.577 28.3311 408.838 26.9232 408.838 25.4258V21.4463H406.226C405.835 21.4463 405.534 21.3812 405.322 21.251C405.111 21.1045 404.948 20.8522 404.834 20.4941C404.736 20.1361 404.688 19.6152 404.688 18.9316C404.688 18.248 404.736 17.7272 404.834 17.3691C404.948 17.0111 405.111 16.7669 405.322 16.6367C405.534 16.5065 405.835 16.4414 406.226 16.4414H413.403ZM443.604 6.96875C444.157 6.96875 444.548 7.09082 444.775 7.33496C445.02 7.56283 445.142 7.95345 445.142 8.50684V33.9951H447.266C447.656 33.9951 447.957 34.0602 448.169 34.1904C448.381 34.3206 448.535 34.5648 448.633 34.9229C448.747 35.2809 448.804 35.8018 448.804 36.4854C448.804 37.1689 448.747 37.6898 448.633 38.0479C448.535 38.4059 448.381 38.6582 448.169 38.8047C447.957 38.9349 447.656 39 447.266 39H441.553C440.999 39 440.601 38.8861 440.356 38.6582C440.129 38.4141 440.015 38.0153 440.015 37.4619V35.4111C439.168 36.7132 438.11 37.7305 436.841 38.4629C435.571 39.179 434.163 39.5371 432.617 39.5371C430.485 39.5371 428.621 39.0163 427.026 37.9746C425.431 36.9329 424.211 35.5169 423.364 33.7266C422.518 31.9362 422.095 29.9342 422.095 27.7207C422.095 25.5072 422.518 23.5052 423.364 21.7148C424.211 19.9245 425.431 18.5085 427.026 17.4668C428.621 16.4251 430.485 15.9043 432.617 15.9043C433.887 15.9043 435.067 16.1566 436.157 16.6611C437.248 17.1494 438.208 17.8574 439.038 18.7852V11.9736H435.449C435.059 11.9736 434.757 11.9085 434.546 11.7783C434.334 11.6481 434.172 11.404 434.058 11.0459C433.96 10.6878 433.911 10.167 433.911 9.4834C433.911 8.7998 433.96 8.27897 434.058 7.9209C434.172 7.56283 434.334 7.31868 434.546 7.18848C434.757 7.04199 435.059 6.96875 435.449 6.96875H443.604ZM433.594 21.4463C432.585 21.4463 431.706 21.7067 430.957 22.2275C430.208 22.7321 429.631 23.4564 429.224 24.4004C428.833 25.3444 428.638 26.4512 428.638 27.7207C428.638 28.9902 428.833 30.097 429.224 31.041C429.631 31.985 430.208 32.7174 430.957 33.2383C431.706 33.7428 432.585 33.9951 433.594 33.9951C434.635 33.9951 435.579 33.751 436.426 33.2627C437.272 32.7744 437.948 32.0583 438.452 31.1143C438.957 30.154 439.209 29.0228 439.209 27.7207C439.209 26.4186 438.957 25.2956 438.452 24.3516C437.948 23.3913 437.272 22.667 436.426 22.1787C435.579 21.6904 434.635 21.4463 433.594 21.4463ZM464.697 15.9043C467.171 15.9043 469.336 16.4089 471.191 17.418C473.047 18.4271 474.471 19.8268 475.464 21.6172C476.473 23.4076 476.978 25.4421 476.978 27.7207C476.978 29.9993 476.473 32.0339 475.464 33.8242C474.471 35.6146 473.047 37.0143 471.191 38.0234C469.336 39.0326 467.171 39.5371 464.697 39.5371C462.223 39.5371 460.059 39.0326 458.203 38.0234C456.348 37.0143 454.915 35.6146 453.906 33.8242C452.913 32.0339 452.417 29.9993 452.417 27.7207C452.417 25.4421 452.913 23.4076 453.906 21.6172C454.915 19.8268 456.348 18.4271 458.203 17.418C460.059 16.4089 462.223 15.9043 464.697 15.9043ZM464.697 21.4463C463.525 21.4463 462.508 21.7067 461.646 22.2275C460.783 22.7321 460.116 23.4564 459.644 24.4004C459.188 25.3444 458.96 26.4512 458.96 27.7207C458.96 28.9902 459.188 30.097 459.644 31.041C460.116 31.985 460.783 32.7174 461.646 33.2383C462.508 33.7428 463.525 33.9951 464.697 33.9951C465.869 33.9951 466.886 33.7428 467.749 33.2383C468.612 32.7174 469.271 31.985 469.727 31.041C470.199 30.097 470.435 28.9902 470.435 27.7207C470.435 26.4512 470.199 25.3444 469.727 24.4004C469.271 23.4564 468.612 22.7321 467.749 22.2275C466.886 21.7067 465.869 21.4463 464.697 21.4463ZM501.807 15.9043C502.848 15.9043 503.589 16.0264 504.028 16.2705C504.468 16.4984 504.688 16.889 504.688 17.4424V22.5938C504.688 23.1471 504.508 23.5459 504.15 23.79C503.809 24.0179 503.239 24.1318 502.441 24.1318C501.579 24.1318 500.985 23.9609 500.659 23.6191C499.699 22.5938 498.6 21.8695 497.363 21.4463C496.126 21.0068 494.694 20.7871 493.066 20.7871C492.106 20.7871 491.349 20.958 490.796 21.2998C490.259 21.6416 489.99 22.0973 489.99 22.667C489.99 23.3506 490.592 23.8389 491.797 24.1318C492.432 24.2946 493.514 24.4492 495.044 24.5957C496.558 24.7747 497.811 24.9538 498.804 25.1328C499.813 25.3118 500.765 25.5804 501.66 25.9385C502.962 26.4756 503.979 27.2243 504.712 28.1846C505.444 29.1449 505.811 30.4144 505.811 31.9932C505.811 33.5394 505.428 34.8822 504.663 36.0215C503.914 37.1445 502.808 38.0153 501.343 38.6338C499.894 39.236 498.145 39.5371 496.094 39.5371C493.831 39.5371 491.732 38.9593 489.795 37.8037V37.999C489.795 38.5524 489.559 38.943 489.087 39.1709C488.615 39.415 487.858 39.5371 486.816 39.5371C485.775 39.5371 485.034 39.415 484.595 39.1709C484.155 38.943 483.936 38.5524 483.936 37.999V32.5547C483.936 32.0176 484.123 31.627 484.497 31.3828C484.888 31.1387 485.482 31.0166 486.279 31.0166C487.272 31.0166 487.948 31.2445 488.306 31.7002C489.119 32.7256 490.161 33.4743 491.431 33.9463C492.7 34.4183 494.092 34.6543 495.605 34.6543C498.21 34.6543 499.512 33.9788 499.512 32.6279C499.512 32.221 499.325 31.8955 498.95 31.6514C498.592 31.4072 498.055 31.2038 497.339 31.041C496.932 30.9596 495.988 30.8132 494.507 30.6016C492.863 30.4062 491.447 30.1865 490.259 29.9424C489.087 29.682 488.021 29.2832 487.061 28.7461C484.814 27.5091 483.691 25.556 483.691 22.8867C483.691 21.4707 484.074 20.2337 484.839 19.1758C485.604 18.1178 486.654 17.3122 487.988 16.7588C489.339 16.1891 490.853 15.9043 492.529 15.9043C494.987 15.9043 497.168 16.4984 499.072 17.6865V17.4424C499.072 16.889 499.268 16.4984 499.658 16.2705C500.065 16.0264 500.781 15.9043 501.807 15.9043Z" fill="white"/>
<path d="M531.909 4.84473C533 4.84473 533.911 5.02376 534.644 5.38184C535.392 5.73991 535.767 6.19564 535.767 6.74902C535.767 6.92806 535.734 7.09082 535.669 7.2373L519.409 46.7393C519.116 47.4391 518.449 47.7891 517.407 47.7891C516.317 47.7891 515.397 47.61 514.648 47.252C513.916 46.8939 513.55 46.4382 513.55 45.8848C513.55 45.7057 513.582 45.543 513.647 45.3965L529.907 5.89453C530.2 5.19466 530.868 4.84473 531.909 4.84473Z" fill="#4854AF"/>
</svg>
