<svg width="452" height="36" viewBox="0 0 452 36" fill="none" xmlns="http://www.w3.org/2000/svg">
<path d="M16.4766 6.92578C16.737 6.79557 16.9518 6.73047 17.1211 6.73047C17.3815 6.73047 17.6289 6.84766 17.8633 7.08203C18.0977 7.31641 18.3516 7.70703 18.625 8.25391C18.9635 8.93099 19.1328 9.47135 19.1328 9.875C19.1328 10.3177 18.8984 10.6628 18.4297 10.9102L7.00391 16.6133L18.4297 22.3164C18.8984 22.5638 19.1328 22.9089 19.1328 23.3516C19.1328 23.7552 18.9635 24.2956 18.625 24.9727C18.3516 25.5195 18.0977 25.9102 17.8633 26.1445C17.6289 26.3789 17.3815 26.4961 17.1211 26.4961C16.9518 26.4961 16.737 26.431 16.4766 26.3008L1.24219 18.4492C0.916667 18.2799 0.682292 18.0651 0.539062 17.8047C0.408854 17.5443 0.34375 17.1471 0.34375 16.6133C0.34375 16.0794 0.408854 15.6823 0.539062 15.4219C0.682292 15.1615 0.916667 14.9466 1.24219 14.7773L16.4766 6.92578ZM450.461 14.7773C450.786 14.9466 451.014 15.1615 451.145 15.4219C451.288 15.6823 451.359 16.0794 451.359 16.6133C451.359 17.1471 451.288 17.5443 451.145 17.8047C451.014 18.0651 450.786 18.2799 450.461 18.4492L435.227 26.3008C434.966 26.431 434.751 26.4961 434.582 26.4961C434.322 26.4961 434.074 26.3789 433.84 26.1445C433.605 25.9102 433.352 25.5195 433.078 24.9727C432.74 24.2956 432.57 23.7552 432.57 23.3516C432.57 22.9089 432.805 22.5638 433.273 22.3164L444.699 16.6133L433.273 10.9102C432.805 10.6628 432.57 10.3177 432.57 9.875C432.57 9.47135 432.74 8.93099 433.078 8.25391C433.352 7.70703 433.605 7.31641 433.84 7.08203C434.074 6.84766 434.322 6.73047 434.582 6.73047C434.751 6.73047 434.966 6.79557 435.227 6.92578L450.461 14.7773Z" fill="#D44A4A"/>
<path d="M42.7852 4.81641C43.2409 4.81641 43.5664 4.91406 43.7617 5.10938C43.957 5.30469 44.0547 5.63021 44.0547 6.08594V14.3281C44.0547 14.7578 43.8724 15.0703 43.5078 15.2656C43.1562 15.4609 42.6094 15.5586 41.8672 15.5586C41.151 15.5586 40.6497 15.4674 40.3633 15.2852C40.0898 15.0898 39.9531 14.7708 39.9531 14.3281V9.01562H36.418V23.9961H40.6367C40.9492 23.9961 41.1901 24.0547 41.3594 24.1719C41.5286 24.276 41.6523 24.4714 41.7305 24.7578C41.8216 25.0443 41.8672 25.4609 41.8672 26.0078C41.8672 26.5547 41.8216 26.9714 41.7305 27.2578C41.6523 27.5443 41.5286 27.7396 41.3594 27.8438C41.1901 27.9479 40.9492 28 40.6367 28H27.3164C27.0039 28 26.763 27.9479 26.5938 27.8438C26.4245 27.7396 26.2943 27.5443 26.2031 27.2578C26.125 26.9714 26.0859 26.5547 26.0859 26.0078C26.0859 25.4609 26.125 25.0443 26.2031 24.7578C26.2943 24.4714 26.4245 24.276 26.5938 24.1719C26.763 24.0547 27.0039 23.9961 27.3164 23.9961H31.5352V9.01562H28V14.3281C28 14.7578 27.8177 15.0703 27.4531 15.2656C27.1016 15.4609 26.5547 15.5586 25.8125 15.5586C25.0964 15.5586 24.5951 15.4674 24.3086 15.2852C24.0352 15.0898 23.8984 14.7708 23.8984 14.3281V6.08594C23.8984 5.63021 23.9961 5.30469 24.1914 5.10938C24.3997 4.91406 24.7253 4.81641 25.168 4.81641H42.7852ZM64.0742 9.52344C65.181 9.52344 66.2227 9.88802 67.1992 10.6172C67.7721 11.0339 68.0586 11.5807 68.0586 12.2578C68.0586 12.6875 67.9414 13.1953 67.707 13.7812C67.4727 14.3672 67.2057 14.8099 66.9062 15.1094C66.6198 15.4089 66.3138 15.5586 65.9883 15.5586C65.806 15.5586 65.6107 15.5065 65.4023 15.4023C64.6732 14.9987 63.918 14.7969 63.1367 14.7969C62.1341 14.7969 61.1966 15.1159 60.3242 15.7539C59.4518 16.3919 58.7487 17.2708 58.2148 18.3906C57.694 19.5104 57.4336 20.7604 57.4336 22.1406V23.9961H63.0391C63.3516 23.9961 63.5924 24.0547 63.7617 24.1719C63.931 24.276 64.0547 24.4714 64.1328 24.7578C64.224 25.0443 64.2695 25.4609 64.2695 26.0078C64.2695 26.5547 64.224 26.9714 64.1328 27.2578C64.0547 27.5443 63.931 27.7396 63.7617 27.8438C63.5924 27.9479 63.3516 28 63.0391 28H49.6797C49.3672 28 49.1263 27.9479 48.957 27.8438C48.7878 27.7396 48.6576 27.5443 48.5664 27.2578C48.4883 26.9714 48.4492 26.5547 48.4492 26.0078C48.4492 25.4609 48.4883 25.0443 48.5664 24.7578C48.6576 24.4714 48.7878 24.276 48.957 24.1719C49.1263 24.0547 49.3672 23.9961 49.6797 23.9961H52.5508V13.957H50.2656C49.9531 13.957 49.7122 13.9049 49.543 13.8008C49.3737 13.6966 49.2435 13.5013 49.1523 13.2148C49.0742 12.9284 49.0352 12.5117 49.0352 11.9648C49.0352 11.418 49.0742 11.0013 49.1523 10.7148C49.2435 10.4284 49.3737 10.2331 49.543 10.1289C49.7122 10.0117 49.9531 9.95312 50.2656 9.95312H55.6172C56.0599 9.95312 56.3724 10.0508 56.5547 10.2461C56.75 10.4284 56.8477 10.7409 56.8477 11.1836V15.4219C57.8242 13.5339 58.944 12.082 60.207 11.0664C61.4831 10.0378 62.7721 9.52344 64.0742 9.52344ZM83.4297 9.95312C83.8724 9.95312 84.1849 10.0508 84.3672 10.2461C84.5625 10.4284 84.6602 10.7409 84.6602 11.1836V23.9961H90.1484C90.4609 23.9961 90.7018 24.0547 90.8711 24.1719C91.0404 24.276 91.1641 24.4714 91.2422 24.7578C91.3333 25.0443 91.3789 25.4609 91.3789 26.0078C91.3789 26.5547 91.3333 26.9714 91.2422 27.2578C91.1641 27.5443 91.0404 27.7396 90.8711 27.8438C90.7018 27.9479 90.4609 28 90.1484 28H74.4453C74.1328 28 73.8919 27.9479 73.7227 27.8438C73.5534 27.7396 73.4232 27.5443 73.332 27.2578C73.2539 26.9714 73.2148 26.5547 73.2148 26.0078C73.2148 25.4609 73.2539 25.0443 73.332 24.7578C73.4232 24.4714 73.5534 24.276 73.7227 24.1719C73.8919 24.0547 74.1328 23.9961 74.4453 23.9961H79.7773V13.957H75.6172C75.3047 13.957 75.0638 13.9049 74.8945 13.8008C74.7253 13.6966 74.5951 13.5013 74.5039 13.2148C74.4258 12.9284 74.3867 12.5117 74.3867 11.9648C74.3867 11.418 74.4258 11.0013 74.5039 10.7148C74.5951 10.4284 74.7253 10.2331 74.8945 10.1289C75.0638 10.0117 75.3047 9.95312 75.6172 9.95312H83.4297ZM82.1602 1.37891C83.0846 1.37891 83.7292 1.47656 84.0938 1.67188C84.4714 1.85417 84.6602 2.16667 84.6602 2.60938V5.8125C84.6602 6.25521 84.4844 6.57422 84.1328 6.76953C83.7943 6.95182 83.1693 7.04297 82.2578 7.04297C81.3464 7.04297 80.7018 6.95182 80.3242 6.76953C79.9596 6.57422 79.7773 6.25521 79.7773 5.8125V2.60938C79.7773 2.15365 79.9466 1.83464 80.2852 1.65234C80.6237 1.47005 81.2487 1.37891 82.1602 1.37891ZM107.219 2.375C107.661 2.375 107.974 2.47266 108.156 2.66797C108.352 2.85026 108.449 3.16276 108.449 3.60547V23.9961H113.938C114.25 23.9961 114.491 24.0547 114.66 24.1719C114.829 24.276 114.953 24.4714 115.031 24.7578C115.122 25.0443 115.168 25.4609 115.168 26.0078C115.168 26.5547 115.122 26.9714 115.031 27.2578C114.953 27.5443 114.829 27.7396 114.66 27.8438C114.491 27.9479 114.25 28 113.938 28H98.2344C97.9219 28 97.681 27.9479 97.5117 27.8438C97.3424 27.7396 97.2122 27.5443 97.1211 27.2578C97.043 26.9714 97.0039 26.5547 97.0039 26.0078C97.0039 25.4609 97.043 25.0443 97.1211 24.7578C97.2122 24.4714 97.3424 24.276 97.5117 24.1719C97.681 24.0547 97.9219 23.9961 98.2344 23.9961H103.566V6.37891H99.0156C98.7031 6.37891 98.4622 6.32682 98.293 6.22266C98.1237 6.11849 97.9935 5.92318 97.9023 5.63672C97.8242 5.35026 97.7852 4.93359 97.7852 4.38672C97.7852 3.83984 97.8242 3.42318 97.9023 3.13672C97.9935 2.85026 98.1237 2.65495 98.293 2.55078C98.4622 2.43359 98.7031 2.375 99.0156 2.375H107.219ZM125.617 2.375C126.06 2.375 126.372 2.47266 126.555 2.66797C126.75 2.85026 126.848 3.16276 126.848 3.60547V13.0977C128.41 10.7148 130.298 9.52344 132.512 9.52344C133.697 9.52344 134.732 9.78385 135.617 10.3047C136.516 10.8255 137.206 11.5677 137.688 12.5312C138.169 13.4818 138.41 14.6016 138.41 15.8906V23.9961H139.914C140.227 23.9961 140.467 24.0547 140.637 24.1719C140.806 24.276 140.93 24.4714 141.008 24.7578C141.099 25.0443 141.145 25.4609 141.145 26.0078C141.145 26.5547 141.099 26.9714 141.008 27.2578C140.93 27.5443 140.806 27.7396 140.637 27.8438C140.467 27.9479 140.227 28 139.914 28H132.609C132.297 28 132.056 27.9479 131.887 27.8438C131.717 27.7396 131.587 27.5443 131.496 27.2578C131.418 26.9714 131.379 26.5547 131.379 26.0078C131.379 25.4609 131.418 25.0443 131.496 24.7578C131.587 24.4714 131.717 24.276 131.887 24.1719C132.056 24.0547 132.297 23.9961 132.609 23.9961H133.527V17.043C133.527 16.0273 133.352 15.2591 133 14.7383C132.648 14.2174 132.062 13.957 131.242 13.957C130.487 13.957 129.771 14.276 129.094 14.9141C128.417 15.5391 127.87 16.3789 127.453 17.4336C127.049 18.4883 126.848 19.6146 126.848 20.8125V23.9961H127.766C128.078 23.9961 128.319 24.0547 128.488 24.1719C128.658 24.276 128.781 24.4714 128.859 24.7578C128.951 25.0443 128.996 25.4609 128.996 26.0078C128.996 26.5547 128.951 26.9714 128.859 27.2578C128.781 27.5443 128.658 27.7396 128.488 27.8438C128.319 27.9479 128.078 28 127.766 28H120.461C120.148 28 119.908 27.9479 119.738 27.8438C119.569 27.7396 119.439 27.5443 119.348 27.2578C119.27 26.9714 119.23 26.5547 119.23 26.0078C119.23 25.4609 119.27 25.0443 119.348 24.7578C119.439 24.4714 119.569 24.276 119.738 24.1719C119.908 24.0547 120.148 23.9961 120.461 23.9961H121.965V6.37891H120.07C119.758 6.37891 119.517 6.32682 119.348 6.22266C119.178 6.11849 119.048 5.92318 118.957 5.63672C118.879 5.35026 118.84 4.93359 118.84 4.38672C118.84 3.83984 118.879 3.42318 118.957 3.13672C119.048 2.85026 119.178 2.65495 119.348 2.55078C119.517 2.43359 119.758 2.375 120.07 2.375H125.617ZM153.684 9.52344C156.548 9.52344 158.618 10.1419 159.895 11.3789C161.171 12.6159 161.809 14.3867 161.809 16.6914V22.3359C161.809 22.8568 161.919 23.2669 162.141 23.5664C162.362 23.8529 162.681 23.9961 163.098 23.9961H163.703C164.016 23.9961 164.257 24.0547 164.426 24.1719C164.595 24.276 164.719 24.4714 164.797 24.7578C164.888 25.0443 164.934 25.4609 164.934 26.0078C164.934 26.5547 164.888 26.9714 164.797 27.2578C164.719 27.5443 164.595 27.7396 164.426 27.8438C164.257 27.9479 164.016 28 163.703 28H161.516C160.708 28 159.992 27.8372 159.367 27.5117C158.755 27.1732 158.286 26.6458 157.961 25.9297C156.932 26.724 155.845 27.3424 154.699 27.7852C153.553 28.2148 152.375 28.4297 151.164 28.4297C149.693 28.4297 148.423 28.1823 147.355 27.6875C146.288 27.1797 145.467 26.4635 144.895 25.5391C144.335 24.6016 144.055 23.5013 144.055 22.2383C144.055 20.4154 144.699 19.0026 145.988 18C147.277 16.9974 149.081 16.4961 151.398 16.4961C153.13 16.4961 154.973 16.6914 156.926 17.082V16.5156C156.926 15.6432 156.652 14.9987 156.105 14.582C155.559 14.1654 154.595 13.957 153.215 13.957C152.447 13.957 151.587 14.0547 150.637 14.25C149.699 14.4323 148.768 14.6797 147.844 14.9922C147.622 15.0573 147.434 15.0898 147.277 15.0898C146.952 15.0898 146.659 14.9727 146.398 14.7383C146.151 14.4909 145.923 14.0807 145.715 13.5078C145.52 12.9349 145.422 12.4661 145.422 12.1016C145.422 11.4375 145.721 10.9948 146.32 10.7734C147.479 10.3568 148.71 10.0443 150.012 9.83594C151.314 9.6276 152.538 9.52344 153.684 9.52344ZM151.887 20.5195C150.975 20.5195 150.279 20.6823 149.797 21.0078C149.328 21.3333 149.094 21.8086 149.094 22.4336C149.094 23.0456 149.322 23.5143 149.777 23.8398C150.246 24.1523 150.917 24.3086 151.789 24.3086C152.688 24.3086 153.573 24.1328 154.445 23.7812C155.331 23.4167 156.158 22.9219 156.926 22.2969V21.0469C155.207 20.6953 153.527 20.5195 151.887 20.5195ZM210.48 4.81641C210.936 4.81641 211.262 4.91406 211.457 5.10938C211.652 5.30469 211.75 5.63021 211.75 6.08594V11.9844C211.75 12.4271 211.561 12.7461 211.184 12.9414C210.806 13.1237 210.201 13.2148 209.367 13.2148C208.56 13.2148 208.007 13.1237 207.707 12.9414C207.408 12.7591 207.258 12.4401 207.258 11.9844V9.01562H199.641V14.9727H205.578C206.034 14.9727 206.353 15.1224 206.535 15.4219C206.717 15.7214 206.809 16.2747 206.809 17.082C206.809 17.8893 206.717 18.4427 206.535 18.7422C206.353 19.0286 206.034 19.1719 205.578 19.1719H199.641V23.9961H203.879C204.191 23.9961 204.432 24.0547 204.602 24.1719C204.771 24.276 204.895 24.4714 204.973 24.7578C205.064 25.0443 205.109 25.4609 205.109 26.0078C205.109 26.5547 205.064 26.9714 204.973 27.2578C204.895 27.5443 204.771 27.7396 204.602 27.8438C204.432 27.9479 204.191 28 203.879 28H192.277C191.965 28 191.724 27.9479 191.555 27.8438C191.385 27.7396 191.255 27.5443 191.164 27.2578C191.086 26.9714 191.047 26.5547 191.047 26.0078C191.047 25.4609 191.086 25.0443 191.164 24.7578C191.255 24.4714 191.385 24.276 191.555 24.1719C191.724 24.0547 191.965 23.9961 192.277 23.9961H194.758V8.82031H192.277C191.965 8.82031 191.724 8.76823 191.555 8.66406C191.385 8.5599 191.255 8.36458 191.164 8.07812C191.086 7.79167 191.047 7.375 191.047 6.82812C191.047 6.28125 191.086 5.86458 191.164 5.57812C191.255 5.29167 191.385 5.09635 191.555 4.99219C191.724 4.875 191.965 4.81641 192.277 4.81641H210.48ZM231.965 9.52344C233.072 9.52344 234.113 9.88802 235.09 10.6172C235.663 11.0339 235.949 11.5807 235.949 12.2578C235.949 12.6875 235.832 13.1953 235.598 13.7812C235.363 14.3672 235.096 14.8099 234.797 15.1094C234.51 15.4089 234.204 15.5586 233.879 15.5586C233.697 15.5586 233.501 15.5065 233.293 15.4023C232.564 14.9987 231.809 14.7969 231.027 14.7969C230.025 14.7969 229.087 15.1159 228.215 15.7539C227.342 16.3919 226.639 17.2708 226.105 18.3906C225.585 19.5104 225.324 20.7604 225.324 22.1406V23.9961H230.93C231.242 23.9961 231.483 24.0547 231.652 24.1719C231.822 24.276 231.945 24.4714 232.023 24.7578C232.115 25.0443 232.16 25.4609 232.16 26.0078C232.16 26.5547 232.115 26.9714 232.023 27.2578C231.945 27.5443 231.822 27.7396 231.652 27.8438C231.483 27.9479 231.242 28 230.93 28H217.57C217.258 28 217.017 27.9479 216.848 27.8438C216.678 27.7396 216.548 27.5443 216.457 27.2578C216.379 26.9714 216.34 26.5547 216.34 26.0078C216.34 25.4609 216.379 25.0443 216.457 24.7578C216.548 24.4714 216.678 24.276 216.848 24.1719C217.017 24.0547 217.258 23.9961 217.57 23.9961H220.441V13.957H218.156C217.844 13.957 217.603 13.9049 217.434 13.8008C217.264 13.6966 217.134 13.5013 217.043 13.2148C216.965 12.9284 216.926 12.5117 216.926 11.9648C216.926 11.418 216.965 11.0013 217.043 10.7148C217.134 10.4284 217.264 10.2331 217.434 10.1289C217.603 10.0117 217.844 9.95312 218.156 9.95312H223.508C223.951 9.95312 224.263 10.0508 224.445 10.2461C224.641 10.4284 224.738 10.7409 224.738 11.1836V15.4219C225.715 13.5339 226.835 12.082 228.098 11.0664C229.374 10.0378 230.663 9.52344 231.965 9.52344ZM249.836 9.52344C251.815 9.52344 253.547 9.92708 255.031 10.7344C256.516 11.5417 257.655 12.6615 258.449 14.0938C259.257 15.526 259.66 17.1536 259.66 18.9766C259.66 20.7995 259.257 22.4271 258.449 23.8594C257.655 25.2917 256.516 26.4115 255.031 27.2188C253.547 28.026 251.815 28.4297 249.836 28.4297C247.857 28.4297 246.125 28.026 244.641 27.2188C243.156 26.4115 242.01 25.2917 241.203 23.8594C240.409 22.4271 240.012 20.7995 240.012 18.9766C240.012 17.1536 240.409 15.526 241.203 14.0938C242.01 12.6615 243.156 11.5417 244.641 10.7344C246.125 9.92708 247.857 9.52344 249.836 9.52344ZM249.836 13.957C248.898 13.957 248.085 14.1654 247.395 14.582C246.704 14.9857 246.171 15.5651 245.793 16.3203C245.428 17.0755 245.246 17.9609 245.246 18.9766C245.246 19.9922 245.428 20.8776 245.793 21.6328C246.171 22.388 246.704 22.974 247.395 23.3906C248.085 23.7943 248.898 23.9961 249.836 23.9961C250.773 23.9961 251.587 23.7943 252.277 23.3906C252.967 22.974 253.495 22.388 253.859 21.6328C254.237 20.8776 254.426 19.9922 254.426 18.9766C254.426 17.9609 254.237 17.0755 253.859 16.3203C253.495 15.5651 252.967 14.9857 252.277 14.582C251.587 14.1654 250.773 13.957 249.836 13.957ZM276.613 9.52344C277.798 9.52344 278.833 9.78385 279.719 10.3047C280.617 10.8255 281.307 11.5677 281.789 12.5312C282.271 13.4818 282.512 14.6016 282.512 15.8906V23.9961H284.016C284.328 23.9961 284.569 24.0547 284.738 24.1719C284.908 24.276 285.031 24.4714 285.109 24.7578C285.201 25.0443 285.246 25.4609 285.246 26.0078C285.246 26.5547 285.201 26.9714 285.109 27.2578C285.031 27.5443 284.908 27.7396 284.738 27.8438C284.569 27.9479 284.328 28 284.016 28H276.711C276.398 28 276.158 27.9479 275.988 27.8438C275.819 27.7396 275.689 27.5443 275.598 27.2578C275.52 26.9714 275.48 26.5547 275.48 26.0078C275.48 25.4609 275.52 25.0443 275.598 24.7578C275.689 24.4714 275.819 24.276 275.988 24.1719C276.158 24.0547 276.398 23.9961 276.711 23.9961H277.629V17.043C277.629 16.0273 277.453 15.2591 277.102 14.7383C276.75 14.2174 276.164 13.957 275.344 13.957C274.589 13.957 273.872 14.276 273.195 14.9141C272.518 15.5391 271.971 16.3789 271.555 17.4336C271.151 18.4883 270.949 19.6146 270.949 20.8125V23.9961H271.867C272.18 23.9961 272.421 24.0547 272.59 24.1719C272.759 24.276 272.883 24.4714 272.961 24.7578C273.052 25.0443 273.098 25.4609 273.098 26.0078C273.098 26.5547 273.052 26.9714 272.961 27.2578C272.883 27.5443 272.759 27.7396 272.59 27.8438C272.421 27.9479 272.18 28 271.867 28H264.562C264.25 28 264.009 27.9479 263.84 27.8438C263.671 27.7396 263.54 27.5443 263.449 27.2578C263.371 26.9714 263.332 26.5547 263.332 26.0078C263.332 25.4609 263.371 25.0443 263.449 24.7578C263.54 24.4714 263.671 24.276 263.84 24.1719C264.009 24.0547 264.25 23.9961 264.562 23.9961H266.066V13.957H264.172C263.859 13.957 263.618 13.9049 263.449 13.8008C263.28 13.6966 263.15 13.5013 263.059 13.2148C262.98 12.9284 262.941 12.5117 262.941 11.9648C262.941 11.418 262.98 11.0013 263.059 10.7148C263.15 10.4284 263.28 10.2331 263.449 10.1289C263.618 10.0117 263.859 9.95312 264.172 9.95312H268.938C269.38 9.95312 269.693 10.0508 269.875 10.2461C270.07 10.4284 270.168 10.7409 270.168 11.1836V14.0156C271.887 11.0208 274.035 9.52344 276.613 9.52344ZM295.285 4.38672C295.897 4.38672 296.366 4.43229 296.691 4.52344C297.03 4.60156 297.264 4.72526 297.395 4.89453C297.525 5.0638 297.59 5.30469 297.59 5.61719V11.125H304.836C305.292 11.125 305.611 11.2747 305.793 11.5742C305.975 11.8737 306.066 12.4271 306.066 13.2344C306.066 14.0417 305.975 14.5951 305.793 14.8945C305.611 15.181 305.292 15.3242 304.836 15.3242H297.59V20.7539C297.59 22.9154 298.43 23.9961 300.109 23.9961C300.708 23.9961 301.405 23.8659 302.199 23.6055C303.007 23.332 303.944 22.9544 305.012 22.4727C305.298 22.3555 305.526 22.2969 305.695 22.2969C305.969 22.2969 306.223 22.4141 306.457 22.6484C306.691 22.8698 306.913 23.2409 307.121 23.7617C307.355 24.3477 307.473 24.8229 307.473 25.1875C307.473 25.474 307.401 25.7148 307.258 25.9102C307.128 26.0924 306.926 26.2552 306.652 26.3984C303.97 27.7526 301.646 28.4297 299.68 28.4297C297.414 28.4297 295.682 27.7982 294.484 26.5352C293.299 25.2721 292.707 23.4297 292.707 21.0078V15.3242H288.938C288.482 15.3242 288.163 15.181 287.98 14.8945C287.798 14.5951 287.707 14.0417 287.707 13.2344C287.707 12.4271 287.798 11.8737 287.98 11.5742C288.163 11.2747 288.482 11.125 288.938 11.125H292.707V5.61719C292.707 5.17448 292.902 4.86198 293.293 4.67969C293.697 4.48438 294.361 4.38672 295.285 4.38672ZM329.23 14.4258C329.543 14.4258 329.784 14.4844 329.953 14.6016C330.122 14.7188 330.246 14.9336 330.324 15.2461C330.415 15.5586 330.461 16.0208 330.461 16.6328C330.461 17.2448 330.415 17.707 330.324 18.0195C330.246 18.332 330.122 18.5469 329.953 18.6641C329.784 18.7682 329.543 18.8203 329.23 18.8203H314.348C314.035 18.8203 313.794 18.7682 313.625 18.6641C313.456 18.5469 313.326 18.332 313.234 18.0195C313.156 17.707 313.117 17.2448 313.117 16.6328C313.117 16.0208 313.156 15.5586 313.234 15.2461C313.326 14.9336 313.456 14.7188 313.625 14.6016C313.794 14.4844 314.035 14.4258 314.348 14.4258H329.23ZM346.047 9.52344C348.026 9.52344 349.712 9.95312 351.105 10.8125C352.499 11.6589 353.547 12.8438 354.25 14.3672C354.966 15.8776 355.324 17.6094 355.324 19.5625C355.324 20.0052 355.227 20.3177 355.031 20.5C354.849 20.6823 354.536 20.7734 354.094 20.7734H341.555C341.802 21.8151 342.329 22.6159 343.137 23.1758C343.957 23.7227 344.992 23.9961 346.242 23.9961C348.26 23.9961 350.448 23.638 352.805 22.9219C352.961 22.8698 353.117 22.8438 353.273 22.8438C353.56 22.8438 353.807 22.974 354.016 23.2344C354.224 23.4948 354.413 23.9375 354.582 24.5625C354.712 25.0443 354.777 25.4544 354.777 25.793C354.777 26.1315 354.699 26.3984 354.543 26.5938C354.4 26.776 354.159 26.9258 353.82 27.043C352.518 27.4727 351.19 27.8112 349.836 28.0586C348.482 28.306 347.154 28.4297 345.852 28.4297C343.872 28.4297 342.167 28.026 340.734 27.2188C339.302 26.4115 338.208 25.2982 337.453 23.8789C336.711 22.4466 336.34 20.8125 336.34 18.9766C336.34 17.1536 336.73 15.526 337.512 14.0938C338.293 12.6615 339.419 11.5417 340.891 10.7344C342.362 9.92708 344.081 9.52344 346.047 9.52344ZM346.047 13.957C343.664 13.957 342.193 14.9596 341.633 16.9648H350.227C350.005 16.0143 349.53 15.2786 348.801 14.7578C348.085 14.224 347.167 13.957 346.047 13.957ZM372.551 9.52344C373.736 9.52344 374.771 9.78385 375.656 10.3047C376.555 10.8255 377.245 11.5677 377.727 12.5312C378.208 13.4818 378.449 14.6016 378.449 15.8906V23.9961H379.953C380.266 23.9961 380.507 24.0547 380.676 24.1719C380.845 24.276 380.969 24.4714 381.047 24.7578C381.138 25.0443 381.184 25.4609 381.184 26.0078C381.184 26.5547 381.138 26.9714 381.047 27.2578C380.969 27.5443 380.845 27.7396 380.676 27.8438C380.507 27.9479 380.266 28 379.953 28H372.648C372.336 28 372.095 27.9479 371.926 27.8438C371.757 27.7396 371.626 27.5443 371.535 27.2578C371.457 26.9714 371.418 26.5547 371.418 26.0078C371.418 25.4609 371.457 25.0443 371.535 24.7578C371.626 24.4714 371.757 24.276 371.926 24.1719C372.095 24.0547 372.336 23.9961 372.648 23.9961H373.566V17.043C373.566 16.0273 373.391 15.2591 373.039 14.7383C372.688 14.2174 372.102 13.957 371.281 13.957C370.526 13.957 369.81 14.276 369.133 14.9141C368.456 15.5391 367.909 16.3789 367.492 17.4336C367.089 18.4883 366.887 19.6146 366.887 20.8125V23.9961H367.805C368.117 23.9961 368.358 24.0547 368.527 24.1719C368.697 24.276 368.82 24.4714 368.898 24.7578C368.99 25.0443 369.035 25.4609 369.035 26.0078C369.035 26.5547 368.99 26.9714 368.898 27.2578C368.82 27.5443 368.697 27.7396 368.527 27.8438C368.358 27.9479 368.117 28 367.805 28H360.5C360.188 28 359.947 27.9479 359.777 27.8438C359.608 27.7396 359.478 27.5443 359.387 27.2578C359.309 26.9714 359.27 26.5547 359.27 26.0078C359.27 25.4609 359.309 25.0443 359.387 24.7578C359.478 24.4714 359.608 24.276 359.777 24.1719C359.947 24.0547 360.188 23.9961 360.5 23.9961H362.004V13.957H360.109C359.797 13.957 359.556 13.9049 359.387 13.8008C359.217 13.6966 359.087 13.5013 358.996 13.2148C358.918 12.9284 358.879 12.5117 358.879 11.9648C358.879 11.418 358.918 11.0013 358.996 10.7148C359.087 10.4284 359.217 10.2331 359.387 10.1289C359.556 10.0117 359.797 9.95312 360.109 9.95312H364.875C365.318 9.95312 365.63 10.0508 365.812 10.2461C366.008 10.4284 366.105 10.7409 366.105 11.1836V14.0156C367.824 11.0208 369.973 9.52344 372.551 9.52344ZM400.852 2.375C401.294 2.375 401.607 2.47266 401.789 2.66797C401.984 2.85026 402.082 3.16276 402.082 3.60547V23.9961H403.781C404.094 23.9961 404.335 24.0482 404.504 24.1523C404.673 24.2565 404.797 24.4518 404.875 24.7383C404.966 25.0247 405.012 25.4414 405.012 25.9883C405.012 26.5352 404.966 26.9518 404.875 27.2383C404.797 27.5247 404.673 27.7266 404.504 27.8438C404.335 27.9479 404.094 28 403.781 28H399.211C398.768 28 398.449 27.9089 398.254 27.7266C398.072 27.5312 397.98 27.2122 397.98 26.7695V25.1289C397.303 26.1706 396.457 26.9844 395.441 27.5703C394.426 28.1432 393.299 28.4297 392.062 28.4297C390.357 28.4297 388.866 28.013 387.59 27.1797C386.314 26.3464 385.337 25.2135 384.66 23.7812C383.983 22.349 383.645 20.7474 383.645 18.9766C383.645 17.2057 383.983 15.6042 384.66 14.1719C385.337 12.7396 386.314 11.6068 387.59 10.7734C388.866 9.9401 390.357 9.52344 392.062 9.52344C393.078 9.52344 394.022 9.72526 394.895 10.1289C395.767 10.5195 396.535 11.0859 397.199 11.8281V6.37891H394.328C394.016 6.37891 393.775 6.32682 393.605 6.22266C393.436 6.11849 393.306 5.92318 393.215 5.63672C393.137 5.35026 393.098 4.93359 393.098 4.38672C393.098 3.83984 393.137 3.42318 393.215 3.13672C393.306 2.85026 393.436 2.65495 393.605 2.55078C393.775 2.43359 394.016 2.375 394.328 2.375H400.852ZM392.844 13.957C392.036 13.957 391.333 14.1654 390.734 14.582C390.135 14.9857 389.673 15.5651 389.348 16.3203C389.035 17.0755 388.879 17.9609 388.879 18.9766C388.879 19.9922 389.035 20.8776 389.348 21.6328C389.673 22.388 390.135 22.974 390.734 23.3906C391.333 23.7943 392.036 23.9961 392.844 23.9961C393.677 23.9961 394.432 23.8008 395.109 23.4102C395.786 23.0195 396.327 22.4466 396.73 21.6914C397.134 20.9232 397.336 20.0182 397.336 18.9766C397.336 17.9349 397.134 17.0365 396.73 16.2812C396.327 15.513 395.786 14.9336 395.109 14.543C394.432 14.1523 393.677 13.957 392.844 13.957Z" fill="#1C256D"/>
<path d="M423.527 0.675781C424.4 0.675781 425.129 0.81901 425.715 1.10547C426.314 1.39193 426.613 1.75651 426.613 2.19922C426.613 2.34245 426.587 2.47266 426.535 2.58984L413.527 34.1914C413.293 34.7513 412.759 35.0312 411.926 35.0312C411.053 35.0312 410.318 34.888 409.719 34.6016C409.133 34.3151 408.84 33.9505 408.84 33.5078C408.84 33.3646 408.866 33.2344 408.918 33.1172L421.926 1.51562C422.16 0.955729 422.694 0.675781 423.527 0.675781Z" fill="#4854AF"/>
</svg>
