<svg width="269" height="39" viewBox="0 0 269 39" fill="none" xmlns="http://www.w3.org/2000/svg">
<path d="M16.4766 9.92578C16.737 9.79557 16.9518 9.73047 17.1211 9.73047C17.3815 9.73047 17.6289 9.84766 17.8633 10.082C18.0977 10.3164 18.3516 10.707 18.625 11.2539C18.9635 11.931 19.1328 12.4714 19.1328 12.875C19.1328 13.3177 18.8984 13.6628 18.4297 13.9102L7.00391 19.6133L18.4297 25.3164C18.8984 25.5638 19.1328 25.9089 19.1328 26.3516C19.1328 26.7552 18.9635 27.2956 18.625 27.9727C18.3516 28.5195 18.0977 28.9102 17.8633 29.1445C17.6289 29.3789 17.3815 29.4961 17.1211 29.4961C16.9518 29.4961 16.737 29.431 16.4766 29.3008L1.24219 21.4492C0.916667 21.2799 0.682292 21.0651 0.539062 20.8047C0.408854 20.5443 0.34375 20.1471 0.34375 19.6133C0.34375 19.0794 0.408854 18.6823 0.539062 18.4219C0.682292 18.1615 0.916667 17.9466 1.24219 17.7773L16.4766 9.92578ZM267.375 17.7773C267.701 17.9466 267.928 18.1615 268.059 18.4219C268.202 18.6823 268.273 19.0794 268.273 19.6133C268.273 20.1471 268.202 20.5443 268.059 20.8047C267.928 21.0651 267.701 21.2799 267.375 21.4492L252.141 29.3008C251.88 29.431 251.665 29.4961 251.496 29.4961C251.236 29.4961 250.988 29.3789 250.754 29.1445C250.52 28.9102 250.266 28.5195 249.992 27.9727C249.654 27.2956 249.484 26.7552 249.484 26.3516C249.484 25.9089 249.719 25.5638 250.188 25.3164L261.613 19.6133L250.188 13.9102C249.719 13.6628 249.484 13.3177 249.484 12.875C249.484 12.4714 249.654 11.931 249.992 11.2539C250.266 10.707 250.52 10.3164 250.754 10.082C250.988 9.84766 251.236 9.73047 251.496 9.73047C251.665 9.73047 251.88 9.79557 252.141 9.92578L267.375 17.7773Z" fill="#AD2647"/>
<path d="M34.3444 31.44C32.211 31.44 30.451 31.1733 29.0644 30.64C27.7044 30.08 26.6244 29.2267 25.8244 28.08C25.0244 26.9333 24.4644 25.48 24.1444 23.72C23.851 21.9333 23.7044 19.8133 23.7044 17.36C23.7044 14.88 23.851 12.76 24.1444 11C24.4644 9.21333 25.0244 7.74667 25.8244 6.6C26.6244 5.45333 27.7177 4.6 29.1044 4.04C30.5177 3.48 32.3177 3.2 34.5044 3.2C35.3844 3.2 36.3044 3.25333 37.2644 3.36C38.2244 3.46667 39.1444 3.6 40.0244 3.76C40.931 3.89333 41.7044 4.04 42.3444 4.2L42.1844 8.6C41.651 8.49333 40.9844 8.4 40.1844 8.32C39.3844 8.21333 38.571 8.13333 37.7444 8.08C36.9177 8.02667 36.1444 8 35.4244 8C34.1444 8 33.1044 8.16 32.3044 8.48C31.5044 8.8 30.8777 9.33333 30.4244 10.08C29.9977 10.8267 29.7044 11.8 29.5444 13C29.3844 14.1733 29.3044 15.6267 29.3044 17.36C29.3044 19.0667 29.3844 20.52 29.5444 21.72C29.7044 22.8933 29.9977 23.8533 30.4244 24.6C30.851 25.32 31.4644 25.8533 32.2644 26.2C33.091 26.52 34.1577 26.68 35.4644 26.68C36.531 26.68 37.7044 26.6267 38.9844 26.52C40.291 26.3867 41.371 26.2667 42.2244 26.16L42.3444 30.52C41.7044 30.6533 40.9444 30.8 40.0644 30.96C39.1844 31.0933 38.251 31.2 37.2644 31.28C36.2777 31.3867 35.3044 31.44 34.3444 31.44ZM45.7859 31V10.92H51.1059V31H45.7859ZM45.7859 7.72V3.16H51.1459V7.72H45.7859ZM63.7516 31.44C61.4582 31.44 59.6582 31.0933 58.3516 30.4C57.0716 29.68 56.1649 28.5333 55.6316 26.96C55.1249 25.3867 54.8716 23.32 54.8716 20.76C54.8716 18.2267 55.1649 16.2133 55.7516 14.72C56.3382 13.2 57.2849 12.12 58.5916 11.48C59.9249 10.8133 61.6582 10.48 63.7916 10.48C64.3516 10.48 65.0049 10.52 65.7516 10.6C66.4982 10.68 67.2449 10.7867 67.9916 10.92C68.7649 11.0267 69.4182 11.1333 69.9516 11.24L69.7516 15.52C69.2449 15.4667 68.6716 15.4267 68.0316 15.4C67.3916 15.3467 66.7649 15.3067 66.1516 15.28C65.5649 15.2267 65.0849 15.2 64.7116 15.2C63.5649 15.2 62.6582 15.3867 61.9916 15.76C61.3516 16.1067 60.8982 16.6933 60.6316 17.52C60.3916 18.32 60.2716 19.4 60.2716 20.76C60.2716 22.2267 60.3916 23.4 60.6316 24.28C60.8716 25.16 61.2982 25.7867 61.9116 26.16C62.5516 26.5333 63.4849 26.72 64.7116 26.72C65.0849 26.72 65.5782 26.7067 66.1916 26.68C66.8049 26.6267 67.4316 26.5733 68.0716 26.52C68.7382 26.4667 69.3249 26.4267 69.8316 26.4L69.9916 30.68C69.4582 30.7867 68.8182 30.8933 68.0716 31C67.3249 31.1333 66.5649 31.24 65.7916 31.32C65.0449 31.4 64.3649 31.44 63.7516 31.44ZM73.6022 31V2.72H78.9222V31H73.6022ZM92.1213 31.44C89.8546 31.44 88.0279 31.0667 86.6413 30.32C85.2813 29.5733 84.2946 28.4267 83.6813 26.88C83.0679 25.3067 82.7613 23.28 82.7613 20.8C82.7613 18.4 83.0813 16.4533 83.7213 14.96C84.3613 13.44 85.3746 12.32 86.7613 11.6C88.1479 10.8533 89.9346 10.48 92.1213 10.48C94.3346 10.48 96.1213 10.8533 97.4813 11.6C98.8679 12.32 99.8813 13.44 100.521 14.96C101.188 16.4533 101.521 18.4 101.521 20.8C101.521 23.28 101.215 25.3067 100.601 26.88C99.9879 28.4267 98.9879 29.5733 97.6013 30.32C96.2413 31.0667 94.4146 31.44 92.1213 31.44ZM92.1213 27.04C93.2413 27.04 94.0813 26.84 94.6413 26.44C95.2013 26.0133 95.5746 25.3467 95.7613 24.44C95.9746 23.5067 96.0813 22.2933 96.0813 20.8C96.0813 19.3333 95.9613 18.1733 95.7213 17.32C95.4813 16.44 95.0813 15.8133 94.5213 15.44C93.9613 15.0667 93.1613 14.88 92.1213 14.88C91.1079 14.88 90.3079 15.0667 89.7213 15.44C89.1613 15.8133 88.7613 16.44 88.5213 17.32C88.2813 18.1733 88.1613 19.3333 88.1613 20.8C88.1613 22.2933 88.2546 23.5067 88.4413 24.44C88.6546 25.3467 89.0413 26.0133 89.6013 26.44C90.1613 26.84 91.0013 27.04 92.1213 27.04ZM121.872 31.44C121.205 31.44 120.392 31.4133 119.432 31.36C118.472 31.3067 117.485 31.2267 116.472 31.12C115.485 31.0133 114.605 30.92 113.832 30.84V2.72H119.192V11.56C119.805 11.32 120.605 11.08 121.592 10.84C122.579 10.6 123.499 10.48 124.352 10.48C126.219 10.48 127.699 10.8667 128.792 11.64C129.912 12.3867 130.712 13.5067 131.192 15C131.672 16.4933 131.912 18.3733 131.912 20.64C131.912 23.3067 131.605 25.44 130.992 27.04C130.405 28.6133 129.379 29.7467 127.912 30.44C126.445 31.1067 124.432 31.44 121.872 31.44ZM121.912 26.96C123.219 26.96 124.192 26.7333 124.832 26.28C125.472 25.8 125.899 25.0933 126.112 24.16C126.352 23.2267 126.472 22.08 126.472 20.72C126.472 19.3333 126.365 18.2267 126.152 17.4C125.939 16.5467 125.579 15.9333 125.072 15.56C124.592 15.16 123.912 14.96 123.032 14.96C122.365 14.96 121.672 15.0533 120.952 15.24C120.232 15.4267 119.645 15.6 119.192 15.76V26.8C119.592 26.8267 120.059 26.8667 120.592 26.92C121.125 26.9467 121.565 26.96 121.912 26.96ZM140.831 31.44C138.751 31.44 137.177 30.92 136.111 29.88C135.071 28.8133 134.551 27.2133 134.551 25.08C134.551 23.5867 134.817 22.4267 135.351 21.6C135.884 20.7467 136.671 20.1333 137.711 19.76C138.777 19.36 140.071 19.12 141.591 19.04L146.471 18.6V17.4C146.471 16.44 146.231 15.7733 145.751 15.4C145.271 15 144.564 14.8 143.631 14.8C142.884 14.8 142.017 14.8267 141.031 14.88C140.071 14.9333 139.111 15 138.151 15.08C137.217 15.16 136.404 15.24 135.711 15.32L135.551 11.56C136.244 11.4 137.071 11.24 138.031 11.08C139.017 10.8933 140.044 10.7467 141.111 10.64C142.177 10.5333 143.164 10.48 144.071 10.48C145.777 10.48 147.204 10.6933 148.351 11.12C149.497 11.5467 150.364 12.2533 150.951 13.24C151.537 14.2 151.831 15.5067 151.831 17.16V26.32C151.884 26.6933 152.084 26.9867 152.431 27.2C152.777 27.3867 153.177 27.52 153.631 27.6L153.511 31.28C152.871 31.3067 152.244 31.32 151.631 31.32C151.017 31.32 150.497 31.28 150.071 31.2C149.457 31.12 148.924 30.96 148.471 30.72C148.044 30.48 147.697 30.2267 147.431 29.96C147.004 30.1467 146.431 30.36 145.711 30.6C144.991 30.84 144.204 31.04 143.351 31.2C142.524 31.36 141.684 31.44 140.831 31.44ZM142.111 27.48C142.617 27.48 143.151 27.4267 143.711 27.32C144.271 27.2133 144.791 27.0933 145.271 26.96C145.777 26.8 146.177 26.6533 146.471 26.52V21.92L142.391 22.28C141.511 22.36 140.871 22.6267 140.471 23.08C140.097 23.5067 139.911 24.12 139.911 24.92C139.911 25.72 140.084 26.3467 140.431 26.8C140.804 27.2533 141.364 27.48 142.111 27.48ZM140.351 7.92L138.031 4.92L145.831 0.959998L148.871 5L140.351 7.92ZM163.768 31.44C162.888 31.44 161.941 31.3867 160.928 31.28C159.941 31.2 159.008 31.0933 158.128 30.96C157.275 30.8267 156.541 30.6933 155.928 30.56L156.088 26.6C156.781 26.68 157.555 26.7733 158.408 26.88C159.288 26.9867 160.141 27.08 160.968 27.16C161.821 27.2133 162.515 27.24 163.048 27.24C163.848 27.24 164.501 27.1733 165.008 27.04C165.541 26.9067 165.941 26.6933 166.208 26.4C166.475 26.08 166.608 25.6267 166.608 25.04C166.608 24.5867 166.488 24.24 166.248 24C166.035 23.76 165.608 23.56 164.968 23.4C164.355 23.2133 163.448 23.0267 162.248 22.84C160.755 22.6267 159.515 22.32 158.528 21.92C157.568 21.52 156.861 20.9333 156.408 20.16C155.955 19.36 155.728 18.28 155.728 16.92C155.728 15.2667 156.088 13.9733 156.808 13.04C157.528 12.1067 158.488 11.4533 159.688 11.08C160.888 10.68 162.195 10.48 163.608 10.48C164.541 10.48 165.501 10.5333 166.488 10.64C167.475 10.72 168.408 10.8267 169.288 10.96C170.168 11.0933 170.901 11.2267 171.488 11.36L171.328 15.4C170.661 15.2933 169.888 15.2 169.008 15.12C168.128 15.0133 167.248 14.9333 166.368 14.88C165.515 14.8267 164.795 14.8 164.208 14.8C163.595 14.8 163.048 14.8667 162.568 15C162.088 15.1067 161.715 15.2933 161.448 15.56C161.208 15.8267 161.088 16.2267 161.088 16.76C161.088 17.1333 161.195 17.44 161.408 17.68C161.621 17.92 162.021 18.1333 162.608 18.32C163.221 18.48 164.101 18.64 165.248 18.8C166.901 19.04 168.221 19.3733 169.208 19.8C170.195 20.2267 170.901 20.84 171.328 21.64C171.781 22.44 172.008 23.52 172.008 24.88C172.008 27.3067 171.288 29.0133 169.848 30C168.435 30.96 166.408 31.44 163.768 31.44ZM175.513 31V10.92H180.833V31H175.513ZM175.513 7.72V3.16H180.873V7.72H175.513ZM193.478 31.44C191.185 31.44 189.385 31.0933 188.078 30.4C186.798 29.68 185.891 28.5333 185.358 26.96C184.851 25.3867 184.598 23.32 184.598 20.76C184.598 18.2267 184.891 16.2133 185.478 14.72C186.065 13.2 187.011 12.12 188.318 11.48C189.651 10.8133 191.385 10.48 193.518 10.48C194.078 10.48 194.731 10.52 195.478 10.6C196.225 10.68 196.971 10.7867 197.718 10.92C198.491 11.0267 199.145 11.1333 199.678 11.24L199.478 15.52C198.971 15.4667 198.398 15.4267 197.758 15.4C197.118 15.3467 196.491 15.3067 195.878 15.28C195.291 15.2267 194.811 15.2 194.438 15.2C193.291 15.2 192.385 15.3867 191.718 15.76C191.078 16.1067 190.625 16.6933 190.358 17.52C190.118 18.32 189.998 19.4 189.998 20.76C189.998 22.2267 190.118 23.4 190.358 24.28C190.598 25.16 191.025 25.7867 191.638 26.16C192.278 26.5333 193.211 26.72 194.438 26.72C194.811 26.72 195.305 26.7067 195.918 26.68C196.531 26.6267 197.158 26.5733 197.798 26.52C198.465 26.4667 199.051 26.4267 199.558 26.4L199.718 30.68C199.185 30.7867 198.545 30.8933 197.798 31C197.051 31.1333 196.291 31.24 195.518 31.32C194.771 31.4 194.091 31.44 193.478 31.44ZM211.809 31.44C209.542 31.44 207.715 31.0667 206.329 30.32C204.969 29.5733 203.982 28.4267 203.369 26.88C202.755 25.3067 202.449 23.28 202.449 20.8C202.449 18.4 202.769 16.4533 203.409 14.96C204.049 13.44 205.062 12.32 206.449 11.6C207.835 10.8533 209.622 10.48 211.809 10.48C214.022 10.48 215.809 10.8533 217.169 11.6C218.555 12.32 219.569 13.44 220.209 14.96C220.875 16.4533 221.209 18.4 221.209 20.8C221.209 23.28 220.902 25.3067 220.289 26.88C219.675 28.4267 218.675 29.5733 217.289 30.32C215.929 31.0667 214.102 31.44 211.809 31.44ZM211.809 27.04C212.929 27.04 213.769 26.84 214.329 26.44C214.889 26.0133 215.262 25.3467 215.449 24.44C215.662 23.5067 215.769 22.2933 215.769 20.8C215.769 19.3333 215.649 18.1733 215.409 17.32C215.169 16.44 214.769 15.8133 214.209 15.44C213.649 15.0667 212.849 14.88 211.809 14.88C210.795 14.88 209.995 15.0667 209.409 15.44C208.849 15.8133 208.449 16.44 208.209 17.32C207.969 18.1733 207.849 19.3333 207.849 20.8C207.849 22.2933 207.942 23.5067 208.129 24.44C208.342 25.3467 208.729 26.0133 209.289 26.44C209.849 26.84 210.689 27.04 211.809 27.04Z" fill="#1C256D"/>
<path d="M240.441 3.67578C241.314 3.67578 242.043 3.81901 242.629 4.10547C243.228 4.39193 243.527 4.75651 243.527 5.19922C243.527 5.34245 243.501 5.47266 243.449 5.58984L230.441 37.1914C230.207 37.7513 229.673 38.0312 228.84 38.0312C227.967 38.0312 227.232 37.888 226.633 37.6016C226.047 37.3151 225.754 36.9505 225.754 36.5078C225.754 36.3646 225.78 36.2344 225.832 36.1172L238.84 4.51562C239.074 3.95573 239.608 3.67578 240.441 3.67578Z" fill="#4854AF"/>
</svg>
