<svg width="349" height="37" viewBox="0 0 349 37" fill="none" xmlns="http://www.w3.org/2000/svg">
<path d="M16.4766 7.92578C16.737 7.79557 16.9518 7.73047 17.1211 7.73047C17.3815 7.73047 17.6289 7.84766 17.8633 8.08203C18.0977 8.31641 18.3516 8.70703 18.625 9.25391C18.9635 9.93099 19.1328 10.4714 19.1328 10.875C19.1328 11.3177 18.8984 11.6628 18.4297 11.9102L7.00391 17.6133L18.4297 23.3164C18.8984 23.5638 19.1328 23.9089 19.1328 24.3516C19.1328 24.7552 18.9635 25.2956 18.625 25.9727C18.3516 26.5195 18.0977 26.9102 17.8633 27.1445C17.6289 27.3789 17.3815 27.4961 17.1211 27.4961C16.9518 27.4961 16.737 27.431 16.4766 27.3008L1.24219 19.4492C0.916667 19.2799 0.682292 19.0651 0.539062 18.8047C0.408854 18.5443 0.34375 18.1471 0.34375 17.6133C0.34375 17.0794 0.408854 16.6823 0.539062 16.4219C0.682292 16.1615 0.916667 15.9466 1.24219 15.7773L16.4766 7.92578ZM347.844 15.7773C348.169 15.9466 348.397 16.1615 348.527 16.4219C348.671 16.6823 348.742 17.0794 348.742 17.6133C348.742 18.1471 348.671 18.5443 348.527 18.8047C348.397 19.0651 348.169 19.2799 347.844 19.4492L332.609 27.3008C332.349 27.431 332.134 27.4961 331.965 27.4961C331.704 27.4961 331.457 27.3789 331.223 27.1445C330.988 26.9102 330.734 26.5195 330.461 25.9727C330.122 25.2956 329.953 24.7552 329.953 24.3516C329.953 23.9089 330.188 23.5638 330.656 23.3164L342.082 17.6133L330.656 11.9102C330.188 11.6628 329.953 11.3177 329.953 10.875C329.953 10.4714 330.122 9.93099 330.461 9.25391C330.734 8.70703 330.988 8.31641 331.223 8.08203C331.457 7.84766 331.704 7.73047 331.965 7.73047C332.134 7.73047 332.349 7.79557 332.609 7.92578L347.844 15.7773Z" fill="#AD2647"/>
<path d="M29.7844 29V6.36H22.4244V1.68H42.4244V6.36H35.3044V29H29.7844ZM45.1219 29V8.92H50.4419V11.28C50.8952 10.9333 51.4552 10.5733 52.1219 10.2C52.7885 9.8 53.5085 9.44 54.2819 9.12C55.0819 8.77333 55.8419 8.54667 56.5619 8.44V13.6C55.8685 13.7067 55.1352 13.8933 54.3619 14.16C53.5885 14.4 52.8552 14.6667 52.1619 14.96C51.4952 15.2533 50.9219 15.52 50.4419 15.76V29H45.1219ZM59.3406 29V8.92H64.6606V29H59.3406ZM59.3406 5.72V1.16H64.7006V5.72H59.3406ZM69.2663 29V0.719999H74.5863V29H69.2663ZM79.1453 29V0.719999H84.4653V9.64C85.132 9.4 85.9853 9.14667 87.0253 8.88C88.0653 8.61333 89.0253 8.48 89.9053 8.48C91.772 8.48 93.2253 8.81333 94.2653 9.48C95.3053 10.12 96.0253 11.1733 96.4253 12.64C96.852 14.1067 97.0653 16.0533 97.0653 18.48V29H91.7053V18.88C91.7053 17.4933 91.6253 16.3867 91.4653 15.56C91.3053 14.7067 90.9986 14.0933 90.5453 13.72C90.1186 13.3467 89.452 13.16 88.5453 13.16C87.8253 13.16 87.0786 13.2533 86.3053 13.44C85.5586 13.6267 84.9453 13.8 84.4653 13.96V29H79.1453ZM106.495 29.44C104.415 29.44 102.841 28.92 101.775 27.88C100.735 26.8133 100.215 25.2133 100.215 23.08C100.215 21.5867 100.481 20.4267 101.015 19.6C101.548 18.7467 102.335 18.1333 103.375 17.76C104.441 17.36 105.735 17.12 107.255 17.04L112.135 16.6V15.4C112.135 14.44 111.895 13.7733 111.415 13.4C110.935 13 110.228 12.8 109.295 12.8C108.548 12.8 107.681 12.8267 106.695 12.88C105.735 12.9333 104.775 13 103.815 13.08C102.881 13.16 102.068 13.24 101.375 13.32L101.215 9.56C101.908 9.4 102.735 9.24 103.695 9.08C104.681 8.89333 105.708 8.74667 106.775 8.64C107.841 8.53333 108.828 8.48 109.735 8.48C111.441 8.48 112.868 8.69333 114.015 9.12C115.161 9.54667 116.028 10.2533 116.615 11.24C117.201 12.2 117.495 13.5067 117.495 15.16V24.32C117.548 24.6933 117.748 24.9867 118.095 25.2C118.441 25.3867 118.841 25.52 119.295 25.6L119.175 29.28C118.535 29.3067 117.908 29.32 117.295 29.32C116.681 29.32 116.161 29.28 115.735 29.2C115.121 29.12 114.588 28.96 114.135 28.72C113.708 28.48 113.361 28.2267 113.095 27.96C112.668 28.1467 112.095 28.36 111.375 28.6C110.655 28.84 109.868 29.04 109.015 29.2C108.188 29.36 107.348 29.44 106.495 29.44ZM107.775 25.48C108.281 25.48 108.815 25.4267 109.375 25.32C109.935 25.2133 110.455 25.0933 110.935 24.96C111.441 24.8 111.841 24.6533 112.135 24.52V19.92L108.055 20.28C107.175 20.36 106.535 20.6267 106.135 21.08C105.761 21.5067 105.575 22.12 105.575 22.92C105.575 23.72 105.748 24.3467 106.095 24.8C106.468 25.2533 107.028 25.48 107.775 25.48ZM131.223 29V1.68H148.863V6.32H136.743V14.56H146.663V19.2H136.743V29H131.223ZM151.88 29V8.92H157.2V11.28C157.653 10.9333 158.213 10.5733 158.88 10.2C159.546 9.8 160.266 9.44 161.04 9.12C161.84 8.77333 162.6 8.54667 163.32 8.44V13.6C162.626 13.7067 161.893 13.8933 161.12 14.16C160.346 14.4 159.613 14.6667 158.92 14.96C158.253 15.2533 157.68 15.52 157.2 15.76V29H151.88ZM174.738 29.44C172.472 29.44 170.645 29.0667 169.258 28.32C167.898 27.5733 166.912 26.4267 166.298 24.88C165.685 23.3067 165.378 21.28 165.378 18.8C165.378 16.4 165.698 14.4533 166.338 12.96C166.978 11.44 167.992 10.32 169.378 9.6C170.765 8.85333 172.552 8.48 174.738 8.48C176.952 8.48 178.738 8.85333 180.098 9.6C181.485 10.32 182.498 11.44 183.138 12.96C183.805 14.4533 184.138 16.4 184.138 18.8C184.138 21.28 183.832 23.3067 183.218 24.88C182.605 26.4267 181.605 27.5733 180.218 28.32C178.858 29.0667 177.032 29.44 174.738 29.44ZM174.738 25.04C175.858 25.04 176.698 24.84 177.258 24.44C177.818 24.0133 178.192 23.3467 178.378 22.44C178.592 21.5067 178.698 20.2933 178.698 18.8C178.698 17.3333 178.578 16.1733 178.338 15.32C178.098 14.44 177.698 13.8133 177.138 13.44C176.578 13.0667 175.778 12.88 174.738 12.88C173.725 12.88 172.925 13.0667 172.338 13.44C171.778 13.8133 171.378 14.44 171.138 15.32C170.898 16.1733 170.778 17.3333 170.778 18.8C170.778 20.2933 170.872 21.5067 171.058 22.44C171.272 23.3467 171.658 24.0133 172.218 24.44C172.778 24.84 173.618 25.04 174.738 25.04ZM187.778 29V8.92H193.098V10.2C193.525 9.93333 194.045 9.68 194.658 9.44C195.271 9.17333 195.911 8.94667 196.578 8.76C197.271 8.57333 197.938 8.48 198.578 8.48C200.445 8.48 201.885 8.81333 202.898 9.48C203.938 10.12 204.671 11.1867 205.098 12.68C205.525 14.1467 205.738 16.12 205.738 18.6V29H200.378V18.88C200.378 17.4933 200.298 16.3867 200.138 15.56C199.978 14.7067 199.671 14.0933 199.218 13.72C198.765 13.3467 198.098 13.16 197.218 13.16C196.738 13.16 196.231 13.2133 195.698 13.32C195.191 13.4 194.698 13.52 194.218 13.68C193.765 13.84 193.391 14 193.098 14.16V29H187.778ZM216.928 29.48C215.461 29.48 214.274 29.2667 213.368 28.84C212.461 28.4133 211.808 27.68 211.408 26.64C211.034 25.5733 210.848 24.0933 210.848 22.2V13.36H208.488V8.92H210.848V3.6H216.168V8.92H221.288V13.36H216.168V20.8C216.168 21.84 216.208 22.6533 216.288 23.24C216.394 23.8267 216.608 24.24 216.928 24.48C217.248 24.72 217.741 24.84 218.408 24.84C218.594 24.84 218.874 24.8267 219.248 24.8C219.621 24.7733 219.994 24.7467 220.368 24.72C220.741 24.6933 221.048 24.6667 221.288 24.64L221.448 28.92C220.808 29.0267 220.034 29.1467 219.128 29.28C218.248 29.4133 217.514 29.48 216.928 29.48ZM224.143 20.64V16.08H236.223V20.64H224.143ZM248.593 29.44C246.38 29.44 244.62 29.0667 243.313 28.32C242.033 27.5733 241.113 26.44 240.553 24.92C239.993 23.4 239.713 21.4933 239.713 19.2C239.713 16.72 240.06 14.6933 240.753 13.12C241.473 11.5467 242.513 10.3867 243.873 9.64C245.233 8.86667 246.913 8.48 248.913 8.48C251.873 8.48 254.1 9.22667 255.593 10.72C257.113 12.2133 257.873 14.5733 257.873 17.8L257.633 20.76H245.073C245.1 22.2533 245.407 23.3733 245.993 24.12C246.58 24.8667 247.593 25.24 249.033 25.24C249.86 25.24 250.767 25.2267 251.753 25.2C252.74 25.1467 253.713 25.0933 254.673 25.04C255.66 24.9867 256.5 24.9333 257.193 24.88L257.313 28.6C256.647 28.7067 255.807 28.8267 254.793 28.96C253.78 29.0933 252.727 29.2 251.633 29.28C250.567 29.3867 249.553 29.44 248.593 29.44ZM245.073 17.36H252.553C252.553 15.5467 252.26 14.28 251.673 13.56C251.113 12.84 250.193 12.48 248.913 12.48C247.66 12.48 246.7 12.8533 246.033 13.6C245.393 14.3467 245.073 15.6 245.073 17.36ZM261.411 29V8.92H266.731V10.2C267.158 9.93333 267.678 9.68 268.291 9.44C268.904 9.17333 269.544 8.94667 270.211 8.76C270.904 8.57333 271.571 8.48 272.211 8.48C274.078 8.48 275.518 8.81333 276.531 9.48C277.571 10.12 278.304 11.1867 278.731 12.68C279.158 14.1467 279.371 16.12 279.371 18.6V29H274.011V18.88C274.011 17.4933 273.931 16.3867 273.771 15.56C273.611 14.7067 273.304 14.0933 272.851 13.72C272.398 13.3467 271.731 13.16 270.851 13.16C270.371 13.16 269.864 13.2133 269.331 13.32C268.824 13.4 268.331 13.52 267.851 13.68C267.398 13.84 267.024 14 266.731 14.16V29H261.411ZM290.28 29.44C289.32 29.44 288.44 29.32 287.64 29.08C286.84 28.8667 286.134 28.52 285.52 28.04C284.934 27.5333 284.427 26.88 284 26.08C283.6 25.28 283.294 24.3067 283.08 23.16C282.867 21.9867 282.76 20.6267 282.76 19.08C282.76 16.7867 283.04 14.8533 283.6 13.28C284.187 11.7067 285.107 10.52 286.36 9.72C287.614 8.89333 289.28 8.48 291.36 8.48C291.974 8.48 292.694 8.53333 293.52 8.64C294.374 8.72 295.054 8.8 295.56 8.88V0.719999H300.92V29H295.64L295.6 27.84C295.227 28.0533 294.734 28.2933 294.12 28.56C293.534 28.8 292.907 29 292.24 29.16C291.574 29.3467 290.92 29.44 290.28 29.44ZM291.64 24.96C292.12 24.96 292.6 24.9067 293.08 24.8C293.587 24.6933 294.054 24.5733 294.48 24.44C294.934 24.28 295.294 24.1333 295.56 24V13.24C295.32 13.1867 295 13.1467 294.6 13.12C294.2 13.0667 293.787 13.0267 293.36 13C292.934 12.9467 292.547 12.92 292.2 12.92C291.16 12.92 290.347 13.16 289.76 13.64C289.2 14.12 288.8 14.8267 288.56 15.76C288.32 16.6667 288.2 17.7733 288.2 19.08C288.2 20.2267 288.28 21.1867 288.44 21.96C288.6 22.7067 288.827 23.3067 289.12 23.76C289.44 24.1867 289.814 24.4933 290.24 24.68C290.667 24.8667 291.134 24.96 291.64 24.96Z" fill="#1C256D"/>
<path d="M320.91 1.67578C321.783 1.67578 322.512 1.81901 323.098 2.10547C323.697 2.39193 323.996 2.75651 323.996 3.19922C323.996 3.34245 323.97 3.47266 323.918 3.58984L310.91 35.1914C310.676 35.7513 310.142 36.0312 309.309 36.0312C308.436 36.0312 307.701 35.888 307.102 35.6016C306.516 35.3151 306.223 34.9505 306.223 34.5078C306.223 34.3646 306.249 34.2344 306.301 34.1172L319.309 2.51562C319.543 1.95573 320.077 1.67578 320.91 1.67578Z" fill="#4854AF"/>
</svg>
