<svg width="545" height="97" viewBox="0 0 545 97" fill="none" xmlns="http://www.w3.org/2000/svg">
<path d="M51.0312 5.71094C51.3438 5.55469 51.6016 5.47656 51.8047 5.47656C52.1172 5.47656 52.4141 5.61719 52.6953 5.89844C52.9766 6.17969 53.2812 6.64844 53.6094 7.30469C54.0156 8.11719 54.2188 8.76562 54.2188 9.25C54.2188 9.78125 53.9375 10.1953 53.375 10.4922L39.6641 17.3359L53.375 24.1797C53.9375 24.4766 54.2188 24.8906 54.2188 25.4219C54.2188 25.9062 54.0156 26.5547 53.6094 27.3672C53.2812 28.0234 52.9766 28.4922 52.6953 28.7734C52.4141 29.0547 52.1172 29.1953 51.8047 29.1953C51.6016 29.1953 51.3438 29.1172 51.0312 28.9609L32.75 19.5391C32.3594 19.3359 32.0781 19.0781 31.9062 18.7656C31.75 18.4531 31.6719 17.9766 31.6719 17.3359C31.6719 16.6953 31.75 16.2188 31.9062 15.9062C32.0781 15.5938 32.3594 15.3359 32.75 15.1328L51.0312 5.71094ZM543.031 69.1328C543.422 69.3359 543.695 69.5938 543.852 69.9062C544.023 70.2188 544.109 70.6953 544.109 71.3359C544.109 71.9766 544.023 72.4531 543.852 72.7656C543.695 73.0781 543.422 73.3359 543.031 73.5391L524.75 82.9609C524.438 83.1172 524.18 83.1953 523.977 83.1953C523.664 83.1953 523.367 83.0547 523.086 82.7734C522.805 82.4922 522.5 82.0234 522.172 81.3672C521.766 80.5547 521.562 79.9062 521.562 79.4219C521.562 78.8906 521.844 78.4766 522.406 78.1797L536.117 71.3359L522.406 64.4922C521.844 64.1953 521.562 63.7812 521.562 63.25C521.562 62.7656 521.766 62.1172 522.172 61.3047C522.5 60.6484 522.805 60.1797 523.086 59.8984C523.367 59.6172 523.664 59.4766 523.977 59.4766C524.18 59.4766 524.438 59.5547 524.75 59.7109L543.031 69.1328Z" fill="#D44A4A"/>
<path d="M81.2188 2.66406C82.1875 2.66406 82.8516 2.77344 83.2109 2.99219C83.5703 3.21094 83.75 3.59375 83.75 4.14062V13.1406C83.75 13.6719 83.5078 14.0547 83.0234 14.2891C82.5547 14.5078 81.7656 14.6172 80.6562 14.6172C79.9219 14.6172 79.3516 14.5703 78.9453 14.4766C78.5547 14.3672 78.2812 14.2109 78.125 14.0078C77.9688 13.8047 77.8906 13.5156 77.8906 13.1406C77.8906 11.5781 77.4609 10.3281 76.6016 9.39062C75.7578 8.45312 74.5469 7.98438 72.9688 7.98438C70.7969 7.98438 69.1484 8.76562 68.0234 10.3281C66.8984 11.8906 66.3359 14.1406 66.3359 17.0781C66.3359 19.9844 66.9297 22.2344 68.1172 23.8281C69.3203 25.4062 71.0156 26.1953 73.2031 26.1953C74.5625 26.1953 75.8672 26.0156 77.1172 25.6562C78.3672 25.2812 79.7266 24.7188 81.1953 23.9688C81.4453 23.8438 81.6797 23.7812 81.8984 23.7812C82.6328 23.7812 83.2422 24.4297 83.7266 25.7266C83.9453 26.3203 84.0547 26.8516 84.0547 27.3203C84.0547 28.1172 83.6953 28.6875 82.9766 29.0312C79.6328 30.6875 76.2969 31.5156 72.9688 31.5156C70.4062 31.5156 68.1484 30.9297 66.1953 29.7578C64.2422 28.5859 62.7266 26.9141 61.6484 24.7422C60.5859 22.5547 60.0547 20 60.0547 17.0781C60.0547 14.1719 60.5781 11.6328 61.625 9.46094C62.6719 7.27344 64.1172 5.59375 65.9609 4.42188C67.8203 3.25 69.9219 2.66406 72.2656 2.66406C75 2.66406 77.0312 3.64844 78.3594 5.61719V4.14062C78.3594 3.60937 78.5859 3.23437 79.0391 3.01562C79.4922 2.78125 80.2188 2.66406 81.2188 2.66406ZM100.812 8.82812C103.188 8.82812 105.266 9.3125 107.047 10.2812C108.828 11.25 110.195 12.5938 111.148 14.3125C112.117 16.0312 112.602 17.9844 112.602 20.1719C112.602 22.3594 112.117 24.3125 111.148 26.0312C110.195 27.75 108.828 29.0938 107.047 30.0625C105.266 31.0312 103.188 31.5156 100.812 31.5156C98.4375 31.5156 96.3594 31.0312 94.5781 30.0625C92.7969 29.0938 91.4219 27.75 90.4531 26.0312C89.5 24.3125 89.0234 22.3594 89.0234 20.1719C89.0234 17.9844 89.5 16.0312 90.4531 14.3125C91.4219 12.5938 92.7969 11.25 94.5781 10.2812C96.3594 9.3125 98.4375 8.82812 100.812 8.82812ZM100.812 14.1484C99.6875 14.1484 98.7109 14.3984 97.8828 14.8984C97.0547 15.3828 96.4141 16.0781 95.9609 16.9844C95.5234 17.8906 95.3047 18.9531 95.3047 20.1719C95.3047 21.3906 95.5234 22.4531 95.9609 23.3594C96.4141 24.2656 97.0547 24.9688 97.8828 25.4688C98.7109 25.9531 99.6875 26.1953 100.812 26.1953C101.938 26.1953 102.914 25.9531 103.742 25.4688C104.57 24.9688 105.203 24.2656 105.641 23.3594C106.094 22.4531 106.32 21.3906 106.32 20.1719C106.32 18.9531 106.094 17.8906 105.641 16.9844C105.203 16.0781 104.57 15.3828 103.742 14.8984C102.914 14.3984 101.938 14.1484 100.812 14.1484ZM137.844 8.82812C139.281 8.82812 140.414 9.41406 141.242 10.5859C142.07 11.7578 142.484 13.5391 142.484 15.9297V29.5234C142.484 30.0547 142.367 30.4375 142.133 30.6719C141.914 30.8906 141.539 31 141.008 31H138.102C137.57 31 137.188 30.8906 136.953 30.6719C136.734 30.4375 136.625 30.0547 136.625 29.5234V17.2656C136.625 16.4375 136.523 15.8281 136.32 15.4375C136.133 15.0469 135.828 14.8516 135.406 14.8516C134.672 14.8516 134.086 15.4219 133.648 16.5625C133.227 17.7031 133.016 19.3672 133.016 21.5547V29.5234C133.016 30.0547 132.898 30.4375 132.664 30.6719C132.445 30.8906 132.07 31 131.539 31H128.633C128.102 31 127.719 30.8906 127.484 30.6719C127.266 30.4375 127.156 30.0547 127.156 29.5234V17.2656C127.156 16.4375 127.055 15.8281 126.852 15.4375C126.664 15.0469 126.359 14.8516 125.938 14.8516C125.203 14.8516 124.617 15.4219 124.18 16.5625C123.758 17.7031 123.547 19.3672 123.547 21.5547V29.5234C123.547 30.0547 123.43 30.4375 123.195 30.6719C122.977 30.8906 122.602 31 122.07 31H119.164C118.633 31 118.25 30.8906 118.016 30.6719C117.797 30.4375 117.688 30.0547 117.688 29.5234V14.1484H116.352C115.977 14.1484 115.688 14.0859 115.484 13.9609C115.281 13.8359 115.133 13.6016 115.039 13.2578C114.93 12.9141 114.875 12.4141 114.875 11.7578C114.875 11.1016 114.93 10.6016 115.039 10.2578C115.133 9.91406 115.281 9.67969 115.484 9.55469C115.688 9.41406 115.977 9.34375 116.352 9.34375H120.43C120.961 9.34375 121.336 9.46094 121.555 9.69531C121.789 9.91406 121.906 10.2891 121.906 10.8203V14.1953C122.641 12.4297 123.5 11.0938 124.484 10.1875C125.484 9.28125 126.578 8.82812 127.766 8.82812C130.078 8.82812 131.57 10.4141 132.242 13.5859C132.961 12.0234 133.797 10.8438 134.75 10.0469C135.703 9.23438 136.734 8.82812 137.844 8.82812ZM158.703 8.82812C161.078 8.82812 163.102 9.34375 164.773 10.375C166.445 11.3906 167.703 12.8125 168.547 14.6406C169.406 16.4531 169.836 18.5312 169.836 20.875C169.836 21.4062 169.719 21.7812 169.484 22C169.266 22.2188 168.891 22.3281 168.359 22.3281H153.312C153.609 23.5781 154.242 24.5391 155.211 25.2109C156.195 25.8672 157.438 26.1953 158.938 26.1953C161.359 26.1953 163.984 25.7656 166.812 24.9062C167 24.8438 167.188 24.8125 167.375 24.8125C167.719 24.8125 168.016 24.9688 168.266 25.2812C168.516 25.5938 168.742 26.125 168.945 26.875C169.102 27.4531 169.18 27.9453 169.18 28.3516C169.18 28.7578 169.086 29.0781 168.898 29.3125C168.727 29.5312 168.438 29.7109 168.031 29.8516C166.469 30.3672 164.875 30.7734 163.25 31.0703C161.625 31.3672 160.031 31.5156 158.469 31.5156C156.094 31.5156 154.047 31.0312 152.328 30.0625C150.609 29.0938 149.297 27.7578 148.391 26.0547C147.5 24.3359 147.055 22.375 147.055 20.1719C147.055 17.9844 147.523 16.0312 148.461 14.3125C149.398 12.5938 150.75 11.25 152.516 10.2812C154.281 9.3125 156.344 8.82812 158.703 8.82812ZM158.703 14.1484C155.844 14.1484 154.078 15.3516 153.406 17.7578H163.719C163.453 16.6172 162.883 15.7344 162.008 15.1094C161.148 14.4688 160.047 14.1484 158.703 14.1484ZM195.148 8.82812C196.117 8.82812 196.781 8.9375 197.141 9.15625C197.5 9.375 197.68 9.75781 197.68 10.3047V17.8281C197.68 18.3594 197.438 18.7422 196.953 18.9766C196.484 19.1953 195.695 19.3047 194.586 19.3047C193.852 19.3047 193.281 19.2578 192.875 19.1641C192.484 19.0547 192.211 18.8984 192.055 18.6953C191.898 18.4922 191.82 18.2031 191.82 17.8281C191.82 17.1719 191.656 16.5625 191.328 16C191.016 15.4375 190.539 14.9922 189.898 14.6641C189.273 14.3203 188.516 14.1484 187.625 14.1484C186.5 14.1484 185.516 14.3984 184.672 14.8984C183.828 15.3828 183.172 16.0859 182.703 17.0078C182.25 17.9141 182.023 18.9688 182.023 20.1719C182.023 21.375 182.25 22.4375 182.703 23.3594C183.172 24.2656 183.828 24.9688 184.672 25.4688C185.516 25.9531 186.5 26.1953 187.625 26.1953C188.828 26.1953 190.055 26 191.305 25.6094C192.57 25.2188 193.797 24.6797 194.984 23.9922C195.266 23.8359 195.523 23.7578 195.758 23.7578C196.461 23.7578 197.078 24.375 197.609 25.6094C197.891 26.2812 198.031 26.8516 198.031 27.3203C198.031 28.0234 197.695 28.5625 197.023 28.9375C195.57 29.75 194.039 30.3828 192.43 30.8359C190.836 31.2891 189.234 31.5156 187.625 31.5156C185.25 31.5156 183.164 31.0312 181.367 30.0625C179.57 29.0938 178.18 27.75 177.195 26.0312C176.227 24.3125 175.742 22.3594 175.742 20.1719C175.742 17.9844 176.234 16.0312 177.219 14.3125C178.203 12.5781 179.539 11.2344 181.227 10.2812C182.93 9.3125 184.828 8.82812 186.922 8.82812C189.453 8.82812 191.242 9.74219 192.289 11.5703V10.3047C192.289 9.77344 192.516 9.39844 192.969 9.17969C193.422 8.94531 194.148 8.82812 195.148 8.82812ZM216.266 8.82812C218.641 8.82812 220.664 9.34375 222.336 10.375C224.008 11.3906 225.266 12.8125 226.109 14.6406C226.969 16.4531 227.398 18.5312 227.398 20.875C227.398 21.4062 227.281 21.7812 227.047 22C226.828 22.2188 226.453 22.3281 225.922 22.3281H210.875C211.172 23.5781 211.805 24.5391 212.773 25.2109C213.758 25.8672 215 26.1953 216.5 26.1953C218.922 26.1953 221.547 25.7656 224.375 24.9062C224.562 24.8438 224.75 24.8125 224.938 24.8125C225.281 24.8125 225.578 24.9688 225.828 25.2812C226.078 25.5938 226.305 26.125 226.508 26.875C226.664 27.4531 226.742 27.9453 226.742 28.3516C226.742 28.7578 226.648 29.0781 226.461 29.3125C226.289 29.5312 226 29.7109 225.594 29.8516C224.031 30.3672 222.438 30.7734 220.812 31.0703C219.188 31.3672 217.594 31.5156 216.031 31.5156C213.656 31.5156 211.609 31.0312 209.891 30.0625C208.172 29.0938 206.859 27.7578 205.953 26.0547C205.062 24.3359 204.617 22.375 204.617 20.1719C204.617 17.9844 205.086 16.0312 206.023 14.3125C206.961 12.5938 208.312 11.25 210.078 10.2812C211.844 9.3125 213.906 8.82812 216.266 8.82812ZM216.266 14.1484C213.406 14.1484 211.641 15.3516 210.969 17.7578H221.281C221.016 16.6172 220.445 15.7344 219.57 15.1094C218.711 14.4688 217.609 14.1484 216.266 14.1484ZM273.242 8.82812C276.68 8.82812 279.164 9.57031 280.695 11.0547C282.227 12.5391 282.992 14.6641 282.992 17.4297V24.2031C282.992 24.8281 283.125 25.3203 283.391 25.6797C283.656 26.0234 284.039 26.1953 284.539 26.1953H285.266C285.641 26.1953 285.93 26.2656 286.133 26.4062C286.336 26.5312 286.484 26.7656 286.578 27.1094C286.688 27.4531 286.742 27.9531 286.742 28.6094C286.742 29.2656 286.688 29.7656 286.578 30.1094C286.484 30.4531 286.336 30.6875 286.133 30.8125C285.93 30.9375 285.641 31 285.266 31H282.641C281.672 31 280.812 30.8047 280.062 30.4141C279.328 30.0078 278.766 29.375 278.375 28.5156C277.141 29.4688 275.836 30.2109 274.461 30.7422C273.086 31.2578 271.672 31.5156 270.219 31.5156C268.453 31.5156 266.93 31.2188 265.648 30.625C264.367 30.0156 263.383 29.1562 262.695 28.0469C262.023 26.9219 261.688 25.6016 261.688 24.0859C261.688 21.8984 262.461 20.2031 264.008 19C265.555 17.7969 267.719 17.1953 270.5 17.1953C272.578 17.1953 274.789 17.4297 277.133 17.8984V17.2188C277.133 16.1719 276.805 15.3984 276.148 14.8984C275.492 14.3984 274.336 14.1484 272.68 14.1484C271.758 14.1484 270.727 14.2656 269.586 14.5C268.461 14.7188 267.344 15.0156 266.234 15.3906C265.969 15.4688 265.742 15.5078 265.555 15.5078C265.164 15.5078 264.812 15.3672 264.5 15.0859C264.203 14.7891 263.93 14.2969 263.68 13.6094C263.445 12.9219 263.328 12.3594 263.328 11.9219C263.328 11.125 263.688 10.5938 264.406 10.3281C265.797 9.82812 267.273 9.45312 268.836 9.20312C270.398 8.95312 271.867 8.82812 273.242 8.82812ZM271.086 22.0234C269.992 22.0234 269.156 22.2188 268.578 22.6094C268.016 23 267.734 23.5703 267.734 24.3203C267.734 25.0547 268.008 25.6172 268.555 26.0078C269.117 26.3828 269.922 26.5703 270.969 26.5703C272.047 26.5703 273.109 26.3594 274.156 25.9375C275.219 25.5 276.211 24.9062 277.133 24.1562V22.6562C275.07 22.2344 273.055 22.0234 271.086 22.0234ZM331.391 8.82812C333.766 8.82812 335.789 9.34375 337.461 10.375C339.133 11.3906 340.391 12.8125 341.234 14.6406C342.094 16.4531 342.523 18.5312 342.523 20.875C342.523 21.4062 342.406 21.7812 342.172 22C341.953 22.2188 341.578 22.3281 341.047 22.3281H326C326.297 23.5781 326.93 24.5391 327.898 25.2109C328.883 25.8672 330.125 26.1953 331.625 26.1953C334.047 26.1953 336.672 25.7656 339.5 24.9062C339.688 24.8438 339.875 24.8125 340.062 24.8125C340.406 24.8125 340.703 24.9688 340.953 25.2812C341.203 25.5938 341.43 26.125 341.633 26.875C341.789 27.4531 341.867 27.9453 341.867 28.3516C341.867 28.7578 341.773 29.0781 341.586 29.3125C341.414 29.5312 341.125 29.7109 340.719 29.8516C339.156 30.3672 337.562 30.7734 335.938 31.0703C334.312 31.3672 332.719 31.5156 331.156 31.5156C328.781 31.5156 326.734 31.0312 325.016 30.0625C323.297 29.0938 321.984 27.7578 321.078 26.0547C320.188 24.3359 319.742 22.375 319.742 20.1719C319.742 17.9844 320.211 16.0312 321.148 14.3125C322.086 12.5938 323.438 11.25 325.203 10.2812C326.969 9.3125 329.031 8.82812 331.391 8.82812ZM331.391 14.1484C328.531 14.1484 326.766 15.3516 326.094 17.7578H336.406C336.141 16.6172 335.57 15.7344 334.695 15.1094C333.836 14.4688 332.734 14.1484 331.391 14.1484ZM366.688 8.82812C367.688 8.82812 368.398 8.94531 368.82 9.17969C369.242 9.39844 369.453 9.77344 369.453 10.3047V15.25C369.453 15.7812 369.281 16.1641 368.938 16.3984C368.609 16.6172 368.062 16.7266 367.297 16.7266C366.469 16.7266 365.898 16.5625 365.586 16.2344C364.664 15.25 363.609 14.5547 362.422 14.1484C361.234 13.7266 359.859 13.5156 358.297 13.5156C357.375 13.5156 356.648 13.6797 356.117 14.0078C355.602 14.3359 355.344 14.7734 355.344 15.3203C355.344 15.9766 355.922 16.4453 357.078 16.7266C357.688 16.8828 358.727 17.0312 360.195 17.1719C361.648 17.3438 362.852 17.5156 363.805 17.6875C364.773 17.8594 365.688 18.1172 366.547 18.4609C367.797 18.9766 368.773 19.6953 369.477 20.6172C370.18 21.5391 370.531 22.7578 370.531 24.2734C370.531 25.7578 370.164 27.0469 369.43 28.1406C368.711 29.2188 367.648 30.0547 366.242 30.6484C364.852 31.2266 363.172 31.5156 361.203 31.5156C359.031 31.5156 357.016 30.9609 355.156 29.8516V30.0391C355.156 30.5703 354.93 30.9453 354.477 31.1641C354.023 31.3984 353.297 31.5156 352.297 31.5156C351.297 31.5156 350.586 31.3984 350.164 31.1641C349.742 30.9453 349.531 30.5703 349.531 30.0391V24.8125C349.531 24.2969 349.711 23.9219 350.07 23.6875C350.445 23.4531 351.016 23.3359 351.781 23.3359C352.734 23.3359 353.383 23.5547 353.727 23.9922C354.508 24.9766 355.508 25.6953 356.727 26.1484C357.945 26.6016 359.281 26.8281 360.734 26.8281C363.234 26.8281 364.484 26.1797 364.484 24.8828C364.484 24.4922 364.305 24.1797 363.945 23.9453C363.602 23.7109 363.086 23.5156 362.398 23.3594C362.008 23.2812 361.102 23.1406 359.68 22.9375C358.102 22.75 356.742 22.5391 355.602 22.3047C354.477 22.0547 353.453 21.6719 352.531 21.1562C350.375 19.9688 349.297 18.0938 349.297 15.5312C349.297 14.1719 349.664 12.9844 350.398 11.9688C351.133 10.9531 352.141 10.1797 353.422 9.64844C354.719 9.10156 356.172 8.82812 357.781 8.82812C360.141 8.82812 362.234 9.39844 364.062 10.5391V10.3047C364.062 9.77344 364.25 9.39844 364.625 9.17969C365.016 8.94531 365.703 8.82812 366.688 8.82812ZM385.602 2.66406C386.336 2.66406 386.898 2.71875 387.289 2.82812C387.695 2.92188 387.977 3.07031 388.133 3.27344C388.289 3.47656 388.367 3.76562 388.367 4.14062V10.75H397.062C397.609 10.75 397.992 10.9297 398.211 11.2891C398.43 11.6484 398.539 12.3125 398.539 13.2812C398.539 14.25 398.43 14.9141 398.211 15.2734C397.992 15.6172 397.609 15.7891 397.062 15.7891H388.367V22.3047C388.367 24.8984 389.375 26.1953 391.391 26.1953C392.109 26.1953 392.945 26.0391 393.898 25.7266C394.867 25.3984 395.992 24.9453 397.273 24.3672C397.617 24.2266 397.891 24.1562 398.094 24.1562C398.422 24.1562 398.727 24.2969 399.008 24.5781C399.289 24.8438 399.555 25.2891 399.805 25.9141C400.086 26.6172 400.227 27.1875 400.227 27.625C400.227 27.9688 400.141 28.2578 399.969 28.4922C399.812 28.7109 399.57 28.9062 399.242 29.0781C396.023 30.7031 393.234 31.5156 390.875 31.5156C388.156 31.5156 386.078 30.7578 384.641 29.2422C383.219 27.7266 382.508 25.5156 382.508 22.6094V15.7891H377.984C377.438 15.7891 377.055 15.6172 376.836 15.2734C376.617 14.9141 376.508 14.25 376.508 13.2812C376.508 12.3125 376.617 11.6484 376.836 11.2891C377.055 10.9297 377.438 10.75 377.984 10.75H382.508V4.14062C382.508 3.60937 382.742 3.23437 383.211 3.01562C383.695 2.78125 384.492 2.66406 385.602 2.66406ZM425.727 9.34375C426.258 9.34375 426.633 9.46094 426.852 9.69531C427.086 9.91406 427.203 10.2891 427.203 10.8203V26.1953H429.008C429.383 26.1953 429.672 26.2578 429.875 26.3828C430.078 26.5078 430.227 26.7422 430.32 27.0859C430.43 27.4297 430.484 27.9297 430.484 28.5859C430.484 29.2422 430.43 29.7422 430.32 30.0859C430.227 30.4297 430.078 30.6719 429.875 30.8125C429.672 30.9375 429.383 31 429.008 31H423.758C423.227 31 422.844 30.8906 422.609 30.6719C422.391 30.4375 422.281 30.0547 422.281 29.5234V26.125C420.219 29.7188 417.641 31.5156 414.547 31.5156C413.125 31.5156 411.875 31.2031 410.797 30.5781C409.734 29.9531 408.914 29.0703 408.336 27.9297C407.758 26.7734 407.469 25.4219 407.469 23.875V14.1484H405.664C405.289 14.1484 405 14.0859 404.797 13.9609C404.594 13.8203 404.438 13.5781 404.328 13.2344C404.234 12.8906 404.188 12.3906 404.188 11.7344C404.188 11.0781 404.234 10.5781 404.328 10.2344C404.438 9.89062 404.594 9.65625 404.797 9.53125C405 9.40625 405.289 9.34375 405.664 9.34375H411.852C412.383 9.34375 412.758 9.46094 412.977 9.69531C413.211 9.91406 413.328 10.2891 413.328 10.8203V22.4922C413.328 23.7109 413.539 24.6328 413.961 25.2578C414.383 25.8828 415.086 26.1953 416.07 26.1953C416.977 26.1953 417.836 25.8203 418.648 25.0703C419.461 24.3047 420.109 23.2891 420.594 22.0234C421.094 20.7578 421.344 19.4062 421.344 17.9688V14.1484H418.836C418.461 14.1484 418.172 14.0859 417.969 13.9609C417.766 13.8203 417.609 13.5781 417.5 13.2344C417.406 12.8906 417.359 12.3906 417.359 11.7344C417.359 11.0781 417.406 10.5781 417.5 10.2344C417.609 9.89062 417.766 9.65625 417.969 9.53125C418.172 9.40625 418.461 9.34375 418.836 9.34375H425.727ZM454.719 0.25C455.25 0.25 455.625 0.367188 455.844 0.601562C456.078 0.820312 456.195 1.19531 456.195 1.72656V26.1953H458.234C458.609 26.1953 458.898 26.2578 459.102 26.3828C459.305 26.5078 459.453 26.7422 459.547 27.0859C459.656 27.4297 459.711 27.9297 459.711 28.5859C459.711 29.2422 459.656 29.7422 459.547 30.0859C459.453 30.4297 459.305 30.6719 459.102 30.8125C458.898 30.9375 458.609 31 458.234 31H452.75C452.219 31 451.836 30.8906 451.602 30.6719C451.383 30.4375 451.273 30.0547 451.273 29.5234V27.5547C450.461 28.8047 449.445 29.7812 448.227 30.4844C447.008 31.1719 445.656 31.5156 444.172 31.5156C442.125 31.5156 440.336 31.0156 438.805 30.0156C437.273 29.0156 436.102 27.6562 435.289 25.9375C434.477 24.2188 434.07 22.2969 434.07 20.1719C434.07 18.0469 434.477 16.125 435.289 14.4062C436.102 12.6875 437.273 11.3281 438.805 10.3281C440.336 9.32812 442.125 8.82812 444.172 8.82812C445.391 8.82812 446.523 9.07031 447.57 9.55469C448.617 10.0234 449.539 10.7031 450.336 11.5938V5.05469H446.891C446.516 5.05469 446.227 4.99219 446.023 4.86719C445.82 4.74219 445.664 4.50781 445.555 4.16406C445.461 3.82031 445.414 3.32031 445.414 2.66406C445.414 2.00781 445.461 1.50781 445.555 1.16406C445.664 0.820312 445.82 0.585937 446.023 0.460938C446.227 0.320312 446.516 0.25 446.891 0.25H454.719ZM445.109 14.1484C444.141 14.1484 443.297 14.3984 442.578 14.8984C441.859 15.3828 441.305 16.0781 440.914 16.9844C440.539 17.8906 440.352 18.9531 440.352 20.1719C440.352 21.3906 440.539 22.4531 440.914 23.3594C441.305 24.2656 441.859 24.9688 442.578 25.4688C443.297 25.9531 444.141 26.1953 445.109 26.1953C446.109 26.1953 447.016 25.9609 447.828 25.4922C448.641 25.0234 449.289 24.3359 449.773 23.4297C450.258 22.5078 450.5 21.4219 450.5 20.1719C450.5 18.9219 450.258 17.8438 449.773 16.9375C449.289 16.0156 448.641 15.3203 447.828 14.8516C447.016 14.3828 446.109 14.1484 445.109 14.1484ZM474.711 8.82812C478.148 8.82812 480.633 9.57031 482.164 11.0547C483.695 12.5391 484.461 14.6641 484.461 17.4297V24.2031C484.461 24.8281 484.594 25.3203 484.859 25.6797C485.125 26.0234 485.508 26.1953 486.008 26.1953H486.734C487.109 26.1953 487.398 26.2656 487.602 26.4062C487.805 26.5312 487.953 26.7656 488.047 27.1094C488.156 27.4531 488.211 27.9531 488.211 28.6094C488.211 29.2656 488.156 29.7656 488.047 30.1094C487.953 30.4531 487.805 30.6875 487.602 30.8125C487.398 30.9375 487.109 31 486.734 31H484.109C483.141 31 482.281 30.8047 481.531 30.4141C480.797 30.0078 480.234 29.375 479.844 28.5156C478.609 29.4688 477.305 30.2109 475.93 30.7422C474.555 31.2578 473.141 31.5156 471.688 31.5156C469.922 31.5156 468.398 31.2188 467.117 30.625C465.836 30.0156 464.852 29.1562 464.164 28.0469C463.492 26.9219 463.156 25.6016 463.156 24.0859C463.156 21.8984 463.93 20.2031 465.477 19C467.023 17.7969 469.188 17.1953 471.969 17.1953C474.047 17.1953 476.258 17.4297 478.602 17.8984V17.2188C478.602 16.1719 478.273 15.3984 477.617 14.8984C476.961 14.3984 475.805 14.1484 474.148 14.1484C473.227 14.1484 472.195 14.2656 471.055 14.5C469.93 14.7188 468.812 15.0156 467.703 15.3906C467.438 15.4688 467.211 15.5078 467.023 15.5078C466.633 15.5078 466.281 15.3672 465.969 15.0859C465.672 14.7891 465.398 14.2969 465.148 13.6094C464.914 12.9219 464.797 12.3594 464.797 11.9219C464.797 11.125 465.156 10.5938 465.875 10.3281C467.266 9.82812 468.742 9.45312 470.305 9.20312C471.867 8.95312 473.336 8.82812 474.711 8.82812ZM472.555 22.0234C471.461 22.0234 470.625 22.2188 470.047 22.6094C469.484 23 469.203 23.5703 469.203 24.3203C469.203 25.0547 469.477 25.6172 470.023 26.0078C470.586 26.3828 471.391 26.5703 472.438 26.5703C473.516 26.5703 474.578 26.3594 475.625 25.9375C476.688 25.5 477.68 24.9062 478.602 24.1562V22.6562C476.539 22.2344 474.523 22.0234 472.555 22.0234ZM511.086 8.82812C512.414 8.82812 513.664 9.26562 514.836 10.1406C515.523 10.6406 515.867 11.2969 515.867 12.1094C515.867 12.625 515.727 13.2344 515.445 13.9375C515.164 14.6406 514.844 15.1719 514.484 15.5312C514.141 15.8906 513.773 16.0703 513.383 16.0703C513.164 16.0703 512.93 16.0078 512.68 15.8828C511.805 15.3984 510.898 15.1562 509.961 15.1562C508.758 15.1562 507.633 15.5391 506.586 16.3047C505.539 17.0703 504.695 18.125 504.055 19.4688C503.43 20.8125 503.117 22.3125 503.117 23.9688V26.1953H509.844C510.219 26.1953 510.508 26.2656 510.711 26.4062C510.914 26.5312 511.062 26.7656 511.156 27.1094C511.266 27.4531 511.32 27.9531 511.32 28.6094C511.32 29.2656 511.266 29.7656 511.156 30.1094C511.062 30.4531 510.914 30.6875 510.711 30.8125C510.508 30.9375 510.219 31 509.844 31H493.812C493.438 31 493.148 30.9375 492.945 30.8125C492.742 30.6875 492.586 30.4531 492.477 30.1094C492.383 29.7656 492.336 29.2656 492.336 28.6094C492.336 27.9531 492.383 27.4531 492.477 27.1094C492.586 26.7656 492.742 26.5312 492.945 26.4062C493.148 26.2656 493.438 26.1953 493.812 26.1953H497.258V14.1484H494.516C494.141 14.1484 493.852 14.0859 493.648 13.9609C493.445 13.8359 493.289 13.6016 493.18 13.2578C493.086 12.9141 493.039 12.4141 493.039 11.7578C493.039 11.1016 493.086 10.6016 493.18 10.2578C493.289 9.91406 493.445 9.67969 493.648 9.55469C493.852 9.41406 494.141 9.34375 494.516 9.34375H500.938C501.469 9.34375 501.844 9.46094 502.062 9.69531C502.297 9.91406 502.414 10.2891 502.414 10.8203V15.9062C503.586 13.6406 504.93 11.8984 506.445 10.6797C507.977 9.44531 509.523 8.82812 511.086 8.82812ZM16.4844 62.8281C18.5312 62.8281 20.3203 63.3281 21.8516 64.3281C23.3828 65.3281 24.5547 66.6875 25.3672 68.4062C26.1797 70.125 26.5859 72.0469 26.5859 74.1719C26.5859 76.2969 26.1797 78.2188 25.3672 79.9375C24.5547 81.6562 23.3828 83.0156 21.8516 84.0156C20.3203 85.0156 18.5312 85.5156 16.4844 85.5156C15.2656 85.5156 14.1328 85.2812 13.0859 84.8125C12.0391 84.3281 11.1172 83.6406 10.3203 82.75V89.2891H14.2344C14.6094 89.2891 14.8984 89.3516 15.1016 89.4766C15.3047 89.6016 15.4531 89.8359 15.5469 90.1797C15.6562 90.5234 15.7109 91.0234 15.7109 91.6797C15.7109 92.3359 15.6562 92.8359 15.5469 93.1797C15.4531 93.5234 15.3047 93.7578 15.1016 93.8828C14.8984 94.0234 14.6094 94.0938 14.2344 94.0938H2.42188C2.04688 94.0938 1.75781 94.0312 1.55469 93.9062C1.35156 93.7812 1.19531 93.5469 1.08594 93.2031C0.992188 92.8594 0.945312 92.3594 0.945312 91.7031C0.945312 91.0469 0.992188 90.5469 1.08594 90.2031C1.19531 89.8594 1.35156 89.6172 1.55469 89.4766C1.75781 89.3516 2.04688 89.2891 2.42188 89.2891H4.46094V68.1484H2.42188C2.04688 68.1484 1.75781 68.0859 1.55469 67.9609C1.35156 67.8359 1.19531 67.6016 1.08594 67.2578C0.992188 66.9141 0.945312 66.4141 0.945312 65.7578C0.945312 65.1016 0.992188 64.6016 1.08594 64.2578C1.19531 63.9141 1.35156 63.6797 1.55469 63.5547C1.75781 63.4141 2.04688 63.3438 2.42188 63.3438H7.90625C8.4375 63.3438 8.8125 63.4609 9.03125 63.6953C9.26562 63.9141 9.38281 64.2891 9.38281 64.8203V66.7891C10.1953 65.5391 11.2109 64.5703 12.4297 63.8828C13.6484 63.1797 15 62.8281 16.4844 62.8281ZM15.5469 68.1484C14.5469 68.1484 13.6406 68.3828 12.8281 68.8516C12.0156 69.3203 11.3672 70.0156 10.8828 70.9375C10.3984 71.8438 10.1562 72.9219 10.1562 74.1719C10.1562 75.4219 10.3984 76.5078 10.8828 77.4297C11.3672 78.3359 12.0156 79.0234 12.8281 79.4922C13.6406 79.9609 14.5469 80.1953 15.5469 80.1953C16.5156 80.1953 17.3594 79.9531 18.0781 79.4688C18.7969 78.9688 19.3438 78.2656 19.7188 77.3594C20.1094 76.4531 20.3047 75.3906 20.3047 74.1719C20.3047 72.9531 20.1094 71.8906 19.7188 70.9844C19.3438 70.0781 18.7969 69.3828 18.0781 68.8984C17.3594 68.3984 16.5156 68.1484 15.5469 68.1484ZM50.5859 62.8281C51.9141 62.8281 53.1641 63.2656 54.3359 64.1406C55.0234 64.6406 55.3672 65.2969 55.3672 66.1094C55.3672 66.625 55.2266 67.2344 54.9453 67.9375C54.6641 68.6406 54.3438 69.1719 53.9844 69.5312C53.6406 69.8906 53.2734 70.0703 52.8828 70.0703C52.6641 70.0703 52.4297 70.0078 52.1797 69.8828C51.3047 69.3984 50.3984 69.1562 49.4609 69.1562C48.2578 69.1562 47.1328 69.5391 46.0859 70.3047C45.0391 71.0703 44.1953 72.125 43.5547 73.4688C42.9297 74.8125 42.6172 76.3125 42.6172 77.9688V80.1953H49.3438C49.7188 80.1953 50.0078 80.2656 50.2109 80.4062C50.4141 80.5312 50.5625 80.7656 50.6562 81.1094C50.7656 81.4531 50.8203 81.9531 50.8203 82.6094C50.8203 83.2656 50.7656 83.7656 50.6562 84.1094C50.5625 84.4531 50.4141 84.6875 50.2109 84.8125C50.0078 84.9375 49.7188 85 49.3438 85H33.3125C32.9375 85 32.6484 84.9375 32.4453 84.8125C32.2422 84.6875 32.0859 84.4531 31.9766 84.1094C31.8828 83.7656 31.8359 83.2656 31.8359 82.6094C31.8359 81.9531 31.8828 81.4531 31.9766 81.1094C32.0859 80.7656 32.2422 80.5312 32.4453 80.4062C32.6484 80.2656 32.9375 80.1953 33.3125 80.1953H36.7578V68.1484H34.0156C33.6406 68.1484 33.3516 68.0859 33.1484 67.9609C32.9453 67.8359 32.7891 67.6016 32.6797 67.2578C32.5859 66.9141 32.5391 66.4141 32.5391 65.7578C32.5391 65.1016 32.5859 64.6016 32.6797 64.2578C32.7891 63.9141 32.9453 63.6797 33.1484 63.5547C33.3516 63.4141 33.6406 63.3438 34.0156 63.3438H40.4375C40.9688 63.3438 41.3438 63.4609 41.5625 63.6953C41.7969 63.9141 41.9141 64.2891 41.9141 64.8203V69.9062C43.0859 67.6406 44.4297 65.8984 45.9453 64.6797C47.4766 63.4453 49.0234 62.8281 50.5859 62.8281ZM72.0312 62.8281C74.4062 62.8281 76.4844 63.3125 78.2656 64.2812C80.0469 65.25 81.4141 66.5938 82.3672 68.3125C83.3359 70.0312 83.8203 71.9844 83.8203 74.1719C83.8203 76.3594 83.3359 78.3125 82.3672 80.0312C81.4141 81.75 80.0469 83.0938 78.2656 84.0625C76.4844 85.0312 74.4062 85.5156 72.0312 85.5156C69.6562 85.5156 67.5781 85.0312 65.7969 84.0625C64.0156 83.0938 62.6406 81.75 61.6719 80.0312C60.7188 78.3125 60.2422 76.3594 60.2422 74.1719C60.2422 71.9844 60.7188 70.0312 61.6719 68.3125C62.6406 66.5938 64.0156 65.25 65.7969 64.2812C67.5781 63.3125 69.6562 62.8281 72.0312 62.8281ZM72.0312 68.1484C70.9062 68.1484 69.9297 68.3984 69.1016 68.8984C68.2734 69.3828 67.6328 70.0781 67.1797 70.9844C66.7422 71.8906 66.5234 72.9531 66.5234 74.1719C66.5234 75.3906 66.7422 76.4531 67.1797 77.3594C67.6328 78.2656 68.2734 78.9688 69.1016 79.4688C69.9297 79.9531 70.9062 80.1953 72.0312 80.1953C73.1562 80.1953 74.1328 79.9531 74.9609 79.4688C75.7891 78.9688 76.4219 78.2656 76.8594 77.3594C77.3125 76.4531 77.5391 75.3906 77.5391 74.1719C77.5391 72.9531 77.3125 71.8906 76.8594 70.9844C76.4219 70.0781 75.7891 69.3828 74.9609 68.8984C74.1328 68.3984 73.1562 68.1484 72.0312 68.1484ZM98.7969 62.8281C100.281 62.8281 101.633 63.1406 102.852 63.7656C104.07 64.3906 105.086 65.2891 105.898 66.4609V64.8203C105.898 64.2891 106.008 63.9141 106.227 63.6953C106.461 63.4609 106.844 63.3438 107.375 63.3438H112.859C113.234 63.3438 113.523 63.4141 113.727 63.5547C113.93 63.6797 114.078 63.9141 114.172 64.2578C114.281 64.6016 114.336 65.1016 114.336 65.7578C114.336 66.4141 114.281 66.9141 114.172 67.2578C114.078 67.6016 113.93 67.8359 113.727 67.9609C113.523 68.0859 113.234 68.1484 112.859 68.1484H110.82V84.9766C110.82 88.0391 109.898 90.4062 108.055 92.0781C106.227 93.7656 103.484 94.6094 99.8281 94.6094C98.4844 94.6094 97.0156 94.4766 95.4219 94.2109C93.8281 93.9609 92.3047 93.6094 90.8516 93.1562C90.1016 92.9219 89.7266 92.3828 89.7266 91.5391C89.7266 91.1641 89.8281 90.6172 90.0312 89.8984C90.2656 89.1641 90.5234 88.6328 90.8047 88.3047C91.1016 87.9766 91.4453 87.8125 91.8359 87.8125C92.0391 87.8125 92.2266 87.8438 92.3984 87.9062C95.3828 88.8281 97.7812 89.2891 99.5938 89.2891C101.484 89.2891 102.852 88.8906 103.695 88.0938C104.539 87.3125 104.961 86.1172 104.961 84.5078V82.1172C104.164 82.9766 103.242 83.6406 102.195 84.1094C101.148 84.5781 100.016 84.8125 98.7969 84.8125C96.7812 84.8125 95.0078 84.3438 93.4766 83.4062C91.9453 82.4531 90.7656 81.1484 89.9375 79.4922C89.1094 77.8203 88.6953 75.9297 88.6953 73.8203C88.6953 71.7109 89.1094 69.8281 89.9375 68.1719C90.7656 66.5 91.9453 65.1953 93.4766 64.2578C95.0078 63.3047 96.7812 62.8281 98.7969 62.8281ZM99.7344 68.1484C98.2812 68.1484 97.125 68.6484 96.2656 69.6484C95.4062 70.6328 94.9766 72.0234 94.9766 73.8203C94.9766 75.6172 95.4062 77.0156 96.2656 78.0156C97.125 79 98.2812 79.4922 99.7344 79.4922C100.734 79.4922 101.641 79.2812 102.453 78.8594C103.281 78.4219 103.93 77.7812 104.398 76.9375C104.883 76.0781 105.125 75.0391 105.125 73.8203C105.125 72.6016 104.883 71.5703 104.398 70.7266C103.93 69.8672 103.281 69.2266 102.453 68.8047C101.641 68.3672 100.734 68.1484 99.7344 68.1484ZM136.93 62.8281C138.258 62.8281 139.508 63.2656 140.68 64.1406C141.367 64.6406 141.711 65.2969 141.711 66.1094C141.711 66.625 141.57 67.2344 141.289 67.9375C141.008 68.6406 140.688 69.1719 140.328 69.5312C139.984 69.8906 139.617 70.0703 139.227 70.0703C139.008 70.0703 138.773 70.0078 138.523 69.8828C137.648 69.3984 136.742 69.1562 135.805 69.1562C134.602 69.1562 133.477 69.5391 132.43 70.3047C131.383 71.0703 130.539 72.125 129.898 73.4688C129.273 74.8125 128.961 76.3125 128.961 77.9688V80.1953H135.688C136.062 80.1953 136.352 80.2656 136.555 80.4062C136.758 80.5312 136.906 80.7656 137 81.1094C137.109 81.4531 137.164 81.9531 137.164 82.6094C137.164 83.2656 137.109 83.7656 137 84.1094C136.906 84.4531 136.758 84.6875 136.555 84.8125C136.352 84.9375 136.062 85 135.688 85H119.656C119.281 85 118.992 84.9375 118.789 84.8125C118.586 84.6875 118.43 84.4531 118.32 84.1094C118.227 83.7656 118.18 83.2656 118.18 82.6094C118.18 81.9531 118.227 81.4531 118.32 81.1094C118.43 80.7656 118.586 80.5312 118.789 80.4062C118.992 80.2656 119.281 80.1953 119.656 80.1953H123.102V68.1484H120.359C119.984 68.1484 119.695 68.0859 119.492 67.9609C119.289 67.8359 119.133 67.6016 119.023 67.2578C118.93 66.9141 118.883 66.4141 118.883 65.7578C118.883 65.1016 118.93 64.6016 119.023 64.2578C119.133 63.9141 119.289 63.6797 119.492 63.5547C119.695 63.4141 119.984 63.3438 120.359 63.3438H126.781C127.312 63.3438 127.688 63.4609 127.906 63.6953C128.141 63.9141 128.258 64.2891 128.258 64.8203V69.9062C129.43 67.6406 130.773 65.8984 132.289 64.6797C133.82 63.4453 135.367 62.8281 136.93 62.8281ZM158.117 62.8281C161.555 62.8281 164.039 63.5703 165.57 65.0547C167.102 66.5391 167.867 68.6641 167.867 71.4297V78.2031C167.867 78.8281 168 79.3203 168.266 79.6797C168.531 80.0234 168.914 80.1953 169.414 80.1953H170.141C170.516 80.1953 170.805 80.2656 171.008 80.4062C171.211 80.5312 171.359 80.7656 171.453 81.1094C171.562 81.4531 171.617 81.9531 171.617 82.6094C171.617 83.2656 171.562 83.7656 171.453 84.1094C171.359 84.4531 171.211 84.6875 171.008 84.8125C170.805 84.9375 170.516 85 170.141 85H167.516C166.547 85 165.688 84.8047 164.938 84.4141C164.203 84.0078 163.641 83.375 163.25 82.5156C162.016 83.4688 160.711 84.2109 159.336 84.7422C157.961 85.2578 156.547 85.5156 155.094 85.5156C153.328 85.5156 151.805 85.2188 150.523 84.625C149.242 84.0156 148.258 83.1562 147.57 82.0469C146.898 80.9219 146.562 79.6016 146.562 78.0859C146.562 75.8984 147.336 74.2031 148.883 73C150.43 71.7969 152.594 71.1953 155.375 71.1953C157.453 71.1953 159.664 71.4297 162.008 71.8984V71.2188C162.008 70.1719 161.68 69.3984 161.023 68.8984C160.367 68.3984 159.211 68.1484 157.555 68.1484C156.633 68.1484 155.602 68.2656 154.461 68.5C153.336 68.7188 152.219 69.0156 151.109 69.3906C150.844 69.4688 150.617 69.5078 150.43 69.5078C150.039 69.5078 149.688 69.3672 149.375 69.0859C149.078 68.7891 148.805 68.2969 148.555 67.6094C148.32 66.9219 148.203 66.3594 148.203 65.9219C148.203 65.125 148.562 64.5938 149.281 64.3281C150.672 63.8281 152.148 63.4531 153.711 63.2031C155.273 62.9531 156.742 62.8281 158.117 62.8281ZM155.961 76.0234C154.867 76.0234 154.031 76.2188 153.453 76.6094C152.891 77 152.609 77.5703 152.609 78.3203C152.609 79.0547 152.883 79.6172 153.43 80.0078C153.992 80.3828 154.797 80.5703 155.844 80.5703C156.922 80.5703 157.984 80.3594 159.031 79.9375C160.094 79.5 161.086 78.9062 162.008 78.1562V76.6562C159.945 76.2344 157.93 76.0234 155.961 76.0234ZM195.406 62.8281C196.844 62.8281 197.977 63.4141 198.805 64.5859C199.633 65.7578 200.047 67.5391 200.047 69.9297V83.5234C200.047 84.0547 199.93 84.4375 199.695 84.6719C199.477 84.8906 199.102 85 198.57 85H195.664C195.133 85 194.75 84.8906 194.516 84.6719C194.297 84.4375 194.188 84.0547 194.188 83.5234V71.2656C194.188 70.4375 194.086 69.8281 193.883 69.4375C193.695 69.0469 193.391 68.8516 192.969 68.8516C192.234 68.8516 191.648 69.4219 191.211 70.5625C190.789 71.7031 190.578 73.3672 190.578 75.5547V83.5234C190.578 84.0547 190.461 84.4375 190.227 84.6719C190.008 84.8906 189.633 85 189.102 85H186.195C185.664 85 185.281 84.8906 185.047 84.6719C184.828 84.4375 184.719 84.0547 184.719 83.5234V71.2656C184.719 70.4375 184.617 69.8281 184.414 69.4375C184.227 69.0469 183.922 68.8516 183.5 68.8516C182.766 68.8516 182.18 69.4219 181.742 70.5625C181.32 71.7031 181.109 73.3672 181.109 75.5547V83.5234C181.109 84.0547 180.992 84.4375 180.758 84.6719C180.539 84.8906 180.164 85 179.633 85H176.727C176.195 85 175.812 84.8906 175.578 84.6719C175.359 84.4375 175.25 84.0547 175.25 83.5234V68.1484H173.914C173.539 68.1484 173.25 68.0859 173.047 67.9609C172.844 67.8359 172.695 67.6016 172.602 67.2578C172.492 66.9141 172.438 66.4141 172.438 65.7578C172.438 65.1016 172.492 64.6016 172.602 64.2578C172.695 63.9141 172.844 63.6797 173.047 63.5547C173.25 63.4141 173.539 63.3438 173.914 63.3438H177.992C178.523 63.3438 178.898 63.4609 179.117 63.6953C179.352 63.9141 179.469 64.2891 179.469 64.8203V68.1953C180.203 66.4297 181.062 65.0938 182.047 64.1875C183.047 63.2812 184.141 62.8281 185.328 62.8281C187.641 62.8281 189.133 64.4141 189.805 67.5859C190.523 66.0234 191.359 64.8438 192.312 64.0469C193.266 63.2344 194.297 62.8281 195.406 62.8281ZM215.68 62.8281C219.117 62.8281 221.602 63.5703 223.133 65.0547C224.664 66.5391 225.43 68.6641 225.43 71.4297V78.2031C225.43 78.8281 225.562 79.3203 225.828 79.6797C226.094 80.0234 226.477 80.1953 226.977 80.1953H227.703C228.078 80.1953 228.367 80.2656 228.57 80.4062C228.773 80.5312 228.922 80.7656 229.016 81.1094C229.125 81.4531 229.18 81.9531 229.18 82.6094C229.18 83.2656 229.125 83.7656 229.016 84.1094C228.922 84.4531 228.773 84.6875 228.57 84.8125C228.367 84.9375 228.078 85 227.703 85H225.078C224.109 85 223.25 84.8047 222.5 84.4141C221.766 84.0078 221.203 83.375 220.812 82.5156C219.578 83.4688 218.273 84.2109 216.898 84.7422C215.523 85.2578 214.109 85.5156 212.656 85.5156C210.891 85.5156 209.367 85.2188 208.086 84.625C206.805 84.0156 205.82 83.1562 205.133 82.0469C204.461 80.9219 204.125 79.6016 204.125 78.0859C204.125 75.8984 204.898 74.2031 206.445 73C207.992 71.7969 210.156 71.1953 212.938 71.1953C215.016 71.1953 217.227 71.4297 219.57 71.8984V71.2188C219.57 70.1719 219.242 69.3984 218.586 68.8984C217.93 68.3984 216.773 68.1484 215.117 68.1484C214.195 68.1484 213.164 68.2656 212.023 68.5C210.898 68.7188 209.781 69.0156 208.672 69.3906C208.406 69.4688 208.18 69.5078 207.992 69.5078C207.602 69.5078 207.25 69.3672 206.938 69.0859C206.641 68.7891 206.367 68.2969 206.117 67.6094C205.883 66.9219 205.766 66.3594 205.766 65.9219C205.766 65.125 206.125 64.5938 206.844 64.3281C208.234 63.8281 209.711 63.4531 211.273 63.2031C212.836 62.9531 214.305 62.8281 215.68 62.8281ZM213.523 76.0234C212.43 76.0234 211.594 76.2188 211.016 76.6094C210.453 77 210.172 77.5703 210.172 78.3203C210.172 79.0547 210.445 79.6172 210.992 80.0078C211.555 80.3828 212.359 80.5703 213.406 80.5703C214.484 80.5703 215.547 80.3594 216.594 79.9375C217.656 79.5 218.648 78.9062 219.57 78.1562V76.6562C217.508 76.2344 215.492 76.0234 213.523 76.0234ZM255.172 79.6094C255.453 80.2812 255.594 80.8516 255.594 81.3203C255.594 82.0234 255.258 82.5625 254.586 82.9375C253.352 83.625 252.055 84.1875 250.695 84.625C249.336 85.0625 247.969 85.3359 246.594 85.4453V86.9453C248.266 86.9453 249.523 87.3516 250.367 88.1641C251.227 88.9922 251.656 90.0703 251.656 91.3984C251.656 92.8984 251.094 94.0469 249.969 94.8438C248.859 95.6562 247.242 96.0625 245.117 96.0625C242.82 96.0625 240.82 95.7344 239.117 95.0781C238.742 94.9219 238.555 94.6172 238.555 94.1641C238.555 93.8672 238.633 93.5156 238.789 93.1094C239.164 92.1094 239.586 91.6094 240.055 91.6094C240.117 91.6094 240.211 91.625 240.336 91.6562C241.617 92.1094 242.875 92.3359 244.109 92.3359C244.875 92.3359 245.438 92.2344 245.797 92.0312C246.172 91.8438 246.359 91.5469 246.359 91.1406C246.359 90.7344 246.172 90.4453 245.797 90.2734C245.422 90.1172 244.898 90.0391 244.227 90.0391L243.688 90.0625C243.562 90.0781 243.375 90.0859 243.125 90.0859C242.547 90.0859 242.258 89.7656 242.258 89.125V85.2344C240.43 84.8594 238.844 84.1562 237.5 83.125C236.156 82.0938 235.117 80.8125 234.383 79.2812C233.664 77.7344 233.305 76.0312 233.305 74.1719C233.305 71.9844 233.797 70.0312 234.781 68.3125C235.766 66.5781 237.102 65.2344 238.789 64.2812C240.492 63.3125 242.391 62.8281 244.484 62.8281C247.016 62.8281 248.805 63.7422 249.852 65.5703V64.3047C249.852 63.7734 250.078 63.3984 250.531 63.1797C250.984 62.9453 251.711 62.8281 252.711 62.8281C253.68 62.8281 254.344 62.9375 254.703 63.1562C255.062 63.375 255.242 63.7578 255.242 64.3047V71.8281C255.242 72.3594 255 72.7422 254.516 72.9766C254.047 73.1953 253.258 73.3047 252.148 73.3047C251.414 73.3047 250.844 73.2578 250.438 73.1641C250.047 73.0547 249.773 72.8984 249.617 72.6953C249.461 72.4922 249.383 72.2031 249.383 71.8281C249.383 71.1719 249.219 70.5625 248.891 70C248.578 69.4375 248.102 68.9922 247.461 68.6641C246.836 68.3203 246.078 68.1484 245.188 68.1484C244.062 68.1484 243.078 68.3984 242.234 68.8984C241.391 69.3828 240.734 70.0859 240.266 71.0078C239.812 71.9141 239.586 72.9688 239.586 74.1719C239.586 75.375 239.812 76.4375 240.266 77.3594C240.734 78.2656 241.391 78.9688 242.234 79.4688C243.078 79.9531 244.062 80.1953 245.188 80.1953C246.391 80.1953 247.617 80 248.867 79.6094C250.133 79.2188 251.359 78.6797 252.547 77.9922C252.828 77.8359 253.086 77.7578 253.32 77.7578C254.023 77.7578 254.641 78.375 255.172 79.6094ZM273.242 62.8281C276.68 62.8281 279.164 63.5703 280.695 65.0547C282.227 66.5391 282.992 68.6641 282.992 71.4297V78.2031C282.992 78.8281 283.125 79.3203 283.391 79.6797C283.656 80.0234 284.039 80.1953 284.539 80.1953H285.266C285.641 80.1953 285.93 80.2656 286.133 80.4062C286.336 80.5312 286.484 80.7656 286.578 81.1094C286.688 81.4531 286.742 81.9531 286.742 82.6094C286.742 83.2656 286.688 83.7656 286.578 84.1094C286.484 84.4531 286.336 84.6875 286.133 84.8125C285.93 84.9375 285.641 85 285.266 85H282.641C281.672 85 280.812 84.8047 280.062 84.4141C279.328 84.0078 278.766 83.375 278.375 82.5156C277.141 83.4688 275.836 84.2109 274.461 84.7422C273.086 85.2578 271.672 85.5156 270.219 85.5156C268.453 85.5156 266.93 85.2188 265.648 84.625C264.367 84.0156 263.383 83.1562 262.695 82.0469C262.023 80.9219 261.688 79.6016 261.688 78.0859C261.688 75.8984 262.461 74.2031 264.008 73C265.555 71.7969 267.719 71.1953 270.5 71.1953C272.578 71.1953 274.789 71.4297 277.133 71.8984V71.2188C277.133 70.1719 276.805 69.3984 276.148 68.8984C275.492 68.3984 274.336 68.1484 272.68 68.1484C271.758 68.1484 270.727 68.2656 269.586 68.5C268.461 68.7188 267.344 69.0156 266.234 69.3906C265.969 69.4688 265.742 69.5078 265.555 69.5078C265.164 69.5078 264.812 69.3672 264.5 69.0859C264.203 68.7891 263.93 68.2969 263.68 67.6094C263.445 66.9219 263.328 66.3594 263.328 65.9219C263.328 65.125 263.688 64.5938 264.406 64.3281C265.797 63.8281 267.273 63.4531 268.836 63.2031C270.398 62.9531 271.867 62.8281 273.242 62.8281ZM271.086 76.0234C269.992 76.0234 269.156 76.2188 268.578 76.6094C268.016 77 267.734 77.5703 267.734 78.3203C267.734 79.0547 268.008 79.6172 268.555 80.0078C269.117 80.3828 269.922 80.5703 270.969 80.5703C272.047 80.5703 273.109 80.3594 274.156 79.9375C275.219 79.5 276.211 78.9062 277.133 78.1562V76.6562C275.07 76.2344 273.055 76.0234 271.086 76.0234ZM270.477 52.8672C271.102 52.8672 271.672 52.9609 272.188 53.1484C272.703 53.3359 273.305 53.6016 273.992 53.9453C274.555 54.2266 275.008 54.4375 275.352 54.5781C275.711 54.7031 276.078 54.7656 276.453 54.7656C277.406 54.7656 278.414 54.2031 279.477 53.0781C279.695 52.8594 279.93 52.75 280.18 52.75C280.633 52.75 281.148 53.0625 281.727 53.6875C282.289 54.3125 282.57 54.9062 282.57 55.4688C282.57 55.7812 282.492 56.0469 282.336 56.2656C281.539 57.4531 280.641 58.3828 279.641 59.0547C278.641 59.7109 277.602 60.0391 276.523 60.0391C275.898 60.0391 275.328 59.9453 274.812 59.7578C274.297 59.5703 273.695 59.3047 273.008 58.9609C272.445 58.6797 271.984 58.4766 271.625 58.3516C271.281 58.2109 270.922 58.1406 270.547 58.1406C269.594 58.1406 268.586 58.7031 267.523 59.8281C267.305 60.0469 267.07 60.1562 266.82 60.1562C266.367 60.1562 265.852 59.8438 265.273 59.2188C264.711 58.5938 264.43 58 264.43 57.4375C264.43 57.125 264.508 56.8594 264.664 56.6406C265.461 55.4531 266.359 54.5312 267.359 53.875C268.359 53.2031 269.398 52.8672 270.477 52.8672ZM302.281 62.8281C304.656 62.8281 306.734 63.3125 308.516 64.2812C310.297 65.25 311.664 66.5938 312.617 68.3125C313.586 70.0312 314.07 71.9844 314.07 74.1719C314.07 76.3594 313.586 78.3125 312.617 80.0312C311.664 81.75 310.297 83.0938 308.516 84.0625C306.734 85.0312 304.656 85.5156 302.281 85.5156C299.906 85.5156 297.828 85.0312 296.047 84.0625C294.266 83.0938 292.891 81.75 291.922 80.0312C290.969 78.3125 290.492 76.3594 290.492 74.1719C290.492 71.9844 290.969 70.0312 291.922 68.3125C292.891 66.5938 294.266 65.25 296.047 64.2812C297.828 63.3125 299.906 62.8281 302.281 62.8281ZM302.281 68.1484C301.156 68.1484 300.18 68.3984 299.352 68.8984C298.523 69.3828 297.883 70.0781 297.43 70.9844C296.992 71.8906 296.773 72.9531 296.773 74.1719C296.773 75.3906 296.992 76.4531 297.43 77.3594C297.883 78.2656 298.523 78.9688 299.352 79.4688C300.18 79.9531 301.156 80.1953 302.281 80.1953C303.406 80.1953 304.383 79.9531 305.211 79.4688C306.039 78.9688 306.672 78.2656 307.109 77.3594C307.562 76.4531 307.789 75.3906 307.789 74.1719C307.789 72.9531 307.562 71.8906 307.109 70.9844C306.672 70.0781 306.039 69.3828 305.211 68.8984C304.383 68.3984 303.406 68.1484 302.281 68.1484ZM361.789 57.1797C362.414 57.1797 362.922 57.3047 363.312 57.5547C363.703 57.7891 363.984 58.1719 364.156 58.7031L370.953 80.1953H372.992C373.367 80.1953 373.656 80.2578 373.859 80.3828C374.062 80.5078 374.211 80.7422 374.305 81.0859C374.414 81.4297 374.469 81.9297 374.469 82.5859C374.469 83.2422 374.414 83.7422 374.305 84.0859C374.211 84.4297 374.062 84.6719 373.859 84.8125C373.656 84.9375 373.367 85 372.992 85H363.055C362.68 85 362.391 84.9375 362.188 84.8125C361.984 84.6719 361.828 84.4297 361.719 84.0859C361.625 83.7422 361.578 83.2422 361.578 82.5859C361.578 81.9297 361.625 81.4297 361.719 81.0859C361.828 80.7422 361.984 80.5078 362.188 80.3828C362.391 80.2578 362.68 80.1953 363.055 80.1953H365.07L364.016 76.7969H355.484L354.43 80.1953H356.164C356.539 80.1953 356.828 80.2578 357.031 80.3828C357.234 80.5078 357.383 80.7422 357.477 81.0859C357.586 81.4297 357.641 81.9297 357.641 82.5859C357.641 83.2422 357.586 83.7422 357.477 84.0859C357.383 84.4297 357.234 84.6719 357.031 84.8125C356.828 84.9375 356.539 85 356.164 85H346.695C346.32 85 346.031 84.9375 345.828 84.8125C345.625 84.6719 345.477 84.4297 345.383 84.0859C345.273 83.7422 345.219 83.2422 345.219 82.5859C345.219 81.9297 345.273 81.4297 345.383 81.0859C345.477 80.7422 345.625 80.5078 345.828 80.3828C346.031 80.2578 346.32 80.1953 346.695 80.1953H348.664L354.594 61.9844H350.68C350.305 61.9844 350.016 61.9219 349.812 61.7969C349.609 61.6562 349.453 61.4141 349.344 61.0703C349.25 60.7266 349.203 60.2266 349.203 59.5703C349.203 58.9141 349.25 58.4141 349.344 58.0703C349.453 57.7266 349.609 57.4922 349.812 57.3672C350.016 57.2422 350.305 57.1797 350.68 57.1797H361.789ZM359.727 61.9844L356.844 71.9922H362.68L359.867 61.9844H359.727ZM397.109 56.6641C398.078 56.6641 398.742 56.7734 399.102 56.9922C399.461 57.2109 399.641 57.5938 399.641 58.1406V66.2031C399.641 66.7344 399.398 67.1172 398.914 67.3516C398.445 67.5703 397.656 67.6797 396.547 67.6797C395.812 67.6797 395.242 67.6328 394.836 67.5391C394.445 67.4297 394.172 67.2734 394.016 67.0703C393.859 66.8672 393.781 66.5781 393.781 66.2031C393.781 64.8594 393.375 63.8203 392.562 63.0859C391.75 62.3516 390.516 61.9844 388.859 61.9844C386.688 61.9844 385.039 62.7656 383.914 64.3281C382.789 65.8906 382.227 68.1406 382.227 71.0781C382.227 73.9844 382.82 76.2344 384.008 77.8281C385.211 79.4062 386.906 80.1953 389.094 80.1953C390.828 80.1953 392.469 79.9609 394.016 79.4922V75.5781H389.492C389.117 75.5781 388.828 75.5156 388.625 75.3906C388.422 75.2656 388.266 75.0312 388.156 74.6875C388.062 74.3438 388.016 73.8438 388.016 73.1875C388.016 72.5312 388.062 72.0312 388.156 71.6875C388.266 71.3438 388.422 71.1094 388.625 70.9844C388.828 70.8438 389.117 70.7734 389.492 70.7734H400.602C400.977 70.7734 401.266 70.8438 401.469 70.9844C401.672 71.1094 401.82 71.3438 401.914 71.6875C402.023 72.0312 402.078 72.5312 402.078 73.1875C402.078 73.8438 402.023 74.3438 401.914 74.6875C401.82 75.0312 401.672 75.2656 401.469 75.3906C401.266 75.5156 400.977 75.5781 400.602 75.5781H399.875V81.6484C399.875 82.0234 399.797 82.3516 399.641 82.6328C399.5 82.9141 399.297 83.125 399.031 83.2656C397.578 84.0156 395.984 84.5781 394.25 84.9531C392.516 85.3281 390.719 85.5156 388.859 85.5156C386.297 85.5156 384.039 84.9297 382.086 83.7578C380.133 82.5859 378.617 80.9141 377.539 78.7422C376.477 76.5547 375.945 74 375.945 71.0781C375.945 68.1719 376.469 65.6328 377.516 63.4609C378.562 61.2734 380.008 59.5938 381.852 58.4219C383.711 57.25 385.812 56.6641 388.156 56.6641C390.906 56.6641 392.938 57.5859 394.25 59.4297V58.1406C394.25 57.6094 394.477 57.2344 394.93 57.0156C395.383 56.7812 396.109 56.6641 397.109 56.6641ZM417.406 56.6641C419.969 56.6641 422.227 57.25 424.18 58.4219C426.133 59.5781 427.641 61.25 428.703 63.4375C429.781 65.6094 430.32 68.1562 430.32 71.0781C430.32 74 429.781 76.5547 428.703 78.7422C427.641 80.9141 426.133 82.5859 424.18 83.7578C422.227 84.9297 419.969 85.5156 417.406 85.5156C414.844 85.5156 412.586 84.9297 410.633 83.7578C408.68 82.5859 407.164 80.9141 406.086 78.7422C405.023 76.5547 404.492 74 404.492 71.0781C404.492 68.1562 405.023 65.6094 406.086 63.4375C407.164 61.25 408.68 59.5781 410.633 58.4219C412.586 57.25 414.844 56.6641 417.406 56.6641ZM417.406 61.9844C415.234 61.9844 413.586 62.7656 412.461 64.3281C411.336 65.8906 410.773 68.1406 410.773 71.0781C410.773 74.0156 411.336 76.2734 412.461 77.8516C413.586 79.4141 415.234 80.1953 417.406 80.1953C419.578 80.1953 421.227 79.4141 422.352 77.8516C423.477 76.2734 424.039 74.0156 424.039 71.0781C424.039 68.1406 423.477 65.8906 422.352 64.3281C421.227 62.7656 419.578 61.9844 417.406 61.9844ZM447.031 57.1797C450.328 57.1797 452.859 57.9062 454.625 59.3594C456.391 60.8125 457.273 62.9219 457.273 65.6875C457.273 69.2969 455.336 71.5703 451.461 72.5078C452.305 72.8359 452.977 73.3203 453.477 73.9609C453.805 74.3828 454.102 74.8281 454.367 75.2969C454.648 75.75 454.969 76.3281 455.328 77.0312C455.703 77.7812 455.992 78.3203 456.195 78.6484C456.508 79.1641 456.82 79.5547 457.133 79.8203C457.445 80.0703 457.797 80.1953 458.188 80.1953H458.633C459.008 80.1953 459.297 80.2656 459.5 80.4062C459.703 80.5312 459.852 80.7656 459.945 81.1094C460.055 81.4531 460.109 81.9531 460.109 82.6094C460.109 83.2656 460.055 83.7656 459.945 84.1094C459.852 84.4531 459.703 84.6875 459.5 84.8125C459.297 84.9375 459.008 85 458.633 85H456.359C455.125 85 454.125 84.75 453.359 84.25C452.594 83.75 451.891 82.9141 451.25 81.7422C450.938 81.1953 450.562 80.4453 450.125 79.4922C449.812 78.7734 449.516 78.1562 449.234 77.6406C448.953 77.1094 448.641 76.5938 448.297 76.0938C447.812 75.4219 447.273 74.9375 446.68 74.6406C446.086 74.3438 445.375 74.1953 444.547 74.1953H443.047V80.1953H445.32C445.695 80.1953 445.984 80.2656 446.188 80.4062C446.391 80.5312 446.539 80.7656 446.633 81.1094C446.742 81.4531 446.797 81.9531 446.797 82.6094C446.797 83.2656 446.742 83.7656 446.633 84.1094C446.539 84.4531 446.391 84.6875 446.188 84.8125C445.984 84.9375 445.695 85 445.32 85H434.68C434.305 85 434.016 84.9375 433.812 84.8125C433.609 84.6875 433.453 84.4531 433.344 84.1094C433.25 83.7656 433.203 83.2656 433.203 82.6094C433.203 81.9531 433.25 81.4531 433.344 81.1094C433.453 80.7656 433.609 80.5312 433.812 80.4062C434.016 80.2656 434.305 80.1953 434.68 80.1953H437.188V61.9844H434.68C434.305 61.9844 434.016 61.9219 433.812 61.7969C433.609 61.6719 433.453 61.4375 433.344 61.0938C433.25 60.75 433.203 60.25 433.203 59.5938C433.203 58.9375 433.25 58.4375 433.344 58.0938C433.453 57.75 433.609 57.5156 433.812 57.3906C434.016 57.25 434.305 57.1797 434.68 57.1797H447.031ZM443.047 69.1562H446.539C448.133 69.1562 449.312 68.875 450.078 68.3125C450.844 67.7344 451.227 66.8594 451.227 65.6875C451.227 64.5156 450.844 63.6484 450.078 63.0859C449.312 62.5078 448.133 62.2188 446.539 62.2188H443.047V69.1562ZM476.914 57.1797C477.539 57.1797 478.047 57.3047 478.438 57.5547C478.828 57.7891 479.109 58.1719 479.281 58.7031L486.078 80.1953H488.117C488.492 80.1953 488.781 80.2578 488.984 80.3828C489.188 80.5078 489.336 80.7422 489.43 81.0859C489.539 81.4297 489.594 81.9297 489.594 82.5859C489.594 83.2422 489.539 83.7422 489.43 84.0859C489.336 84.4297 489.188 84.6719 488.984 84.8125C488.781 84.9375 488.492 85 488.117 85H478.18C477.805 85 477.516 84.9375 477.312 84.8125C477.109 84.6719 476.953 84.4297 476.844 84.0859C476.75 83.7422 476.703 83.2422 476.703 82.5859C476.703 81.9297 476.75 81.4297 476.844 81.0859C476.953 80.7422 477.109 80.5078 477.312 80.3828C477.516 80.2578 477.805 80.1953 478.18 80.1953H480.195L479.141 76.7969H470.609L469.555 80.1953H471.289C471.664 80.1953 471.953 80.2578 472.156 80.3828C472.359 80.5078 472.508 80.7422 472.602 81.0859C472.711 81.4297 472.766 81.9297 472.766 82.5859C472.766 83.2422 472.711 83.7422 472.602 84.0859C472.508 84.4297 472.359 84.6719 472.156 84.8125C471.953 84.9375 471.664 85 471.289 85H461.82C461.445 85 461.156 84.9375 460.953 84.8125C460.75 84.6719 460.602 84.4297 460.508 84.0859C460.398 83.7422 460.344 83.2422 460.344 82.5859C460.344 81.9297 460.398 81.4297 460.508 81.0859C460.602 80.7422 460.75 80.5078 460.953 80.3828C461.156 80.2578 461.445 80.1953 461.82 80.1953H463.789L469.719 61.9844H465.805C465.43 61.9844 465.141 61.9219 464.938 61.7969C464.734 61.6562 464.578 61.4141 464.469 61.0703C464.375 60.7266 464.328 60.2266 464.328 59.5703C464.328 58.9141 464.375 58.4141 464.469 58.0703C464.578 57.7266 464.734 57.4922 464.938 57.3672C465.141 57.2422 465.43 57.1797 465.805 57.1797H476.914ZM474.852 61.9844L471.969 71.9922H477.805L474.992 61.9844H474.852Z" fill="white"/>
<path d="M510.711 52.2109C511.758 52.2109 512.633 52.3828 513.336 52.7266C514.055 53.0703 514.414 53.5078 514.414 54.0391C514.414 54.2109 514.383 54.3672 514.32 54.5078L498.711 92.4297C498.43 93.1016 497.789 93.4375 496.789 93.4375C495.742 93.4375 494.859 93.2656 494.141 92.9219C493.438 92.5781 493.086 92.1406 493.086 91.6094C493.086 91.4375 493.117 91.2812 493.18 91.1406L508.789 53.2188C509.07 52.5469 509.711 52.2109 510.711 52.2109Z" fill="#4854AF"/>
</svg>
