<svg width="572" height="38" viewBox="0 0 572 38" fill="none" xmlns="http://www.w3.org/2000/svg">
<path d="M16.4766 6.92578C16.737 6.79557 16.9518 6.73047 17.1211 6.73047C17.3815 6.73047 17.6289 6.84766 17.8633 7.08203C18.0977 7.31641 18.3516 7.70703 18.625 8.25391C18.9635 8.93099 19.1328 9.47135 19.1328 9.875C19.1328 10.3177 18.8984 10.6628 18.4297 10.9102L7.00391 16.6133L18.4297 22.3164C18.8984 22.5638 19.1328 22.9089 19.1328 23.3516C19.1328 23.7552 18.9635 24.2956 18.625 24.9727C18.3516 25.5195 18.0977 25.9102 17.8633 26.1445C17.6289 26.3789 17.3815 26.4961 17.1211 26.4961C16.9518 26.4961 16.737 26.431 16.4766 26.3008L1.24219 18.4492C0.916667 18.2799 0.682292 18.0651 0.539062 17.8047C0.408854 17.5443 0.34375 17.1471 0.34375 16.6133C0.34375 16.0794 0.408854 15.6823 0.539062 15.4219C0.682292 15.1615 0.916667 14.9466 1.24219 14.7773L16.4766 6.92578ZM570.383 14.7773C570.708 14.9466 570.936 15.1615 571.066 15.4219C571.21 15.6823 571.281 16.0794 571.281 16.6133C571.281 17.1471 571.21 17.5443 571.066 17.8047C570.936 18.0651 570.708 18.2799 570.383 18.4492L555.148 26.3008C554.888 26.431 554.673 26.4961 554.504 26.4961C554.243 26.4961 553.996 26.3789 553.762 26.1445C553.527 25.9102 553.273 25.5195 553 24.9727C552.661 24.2956 552.492 23.7552 552.492 23.3516C552.492 22.9089 552.727 22.5638 553.195 22.3164L564.621 16.6133L553.195 10.9102C552.727 10.6628 552.492 10.3177 552.492 9.875C552.492 9.47135 552.661 8.93099 553 8.25391C553.273 7.70703 553.527 7.31641 553.762 7.08203C553.996 6.84766 554.243 6.73047 554.504 6.73047C554.673 6.73047 554.888 6.79557 555.148 6.92578L570.383 14.7773Z" fill="#D44A4A"/>
<path d="M36.3789 4.81641C36.6914 4.81641 36.9323 4.875 37.1016 4.99219C37.2708 5.09635 37.3945 5.29167 37.4727 5.57812C37.5638 5.86458 37.6094 6.28125 37.6094 6.82812C37.6094 7.375 37.5638 7.79167 37.4727 8.07812C37.3945 8.36458 37.2708 8.5599 37.1016 8.66406C36.9323 8.76823 36.6914 8.82031 36.3789 8.82031H32.1211V23.8008H38.9766V17.707C38.9766 17.2643 39.1719 16.9518 39.5625 16.7695C39.9661 16.5742 40.6302 16.4766 41.5547 16.4766C42.1667 16.4766 42.6354 16.5221 42.9609 16.6133C43.2995 16.6914 43.5339 16.8151 43.6641 16.9844C43.7943 17.1536 43.8594 17.3945 43.8594 17.707V26.7305C43.8594 27.1732 43.7617 27.4987 43.5664 27.707C43.3711 27.9023 43.0456 28 42.5898 28H24.3867C24.0742 28 23.8333 27.9479 23.6641 27.8438C23.4948 27.7396 23.3646 27.5443 23.2734 27.2578C23.1953 26.9714 23.1562 26.5547 23.1562 26.0078C23.1562 25.4609 23.1953 25.0443 23.2734 24.7578C23.3646 24.4714 23.4948 24.276 23.6641 24.1719C23.8333 24.0547 24.0742 23.9961 24.3867 23.9961H27.2383V8.82031H24.3867C24.0742 8.82031 23.8333 8.76823 23.6641 8.66406C23.4948 8.5599 23.3646 8.36458 23.2734 8.07812C23.1953 7.79167 23.1562 7.375 23.1562 6.82812C23.1562 6.28125 23.1953 5.86458 23.2734 5.57812C23.3646 5.29167 23.4948 5.09635 23.6641 4.99219C23.8333 4.875 24.0742 4.81641 24.3867 4.81641H36.3789ZM57.9609 9.52344C59.9401 9.52344 61.6719 9.92708 63.1562 10.7344C64.6406 11.5417 65.7799 12.6615 66.5742 14.0938C67.3815 15.526 67.7852 17.1536 67.7852 18.9766C67.7852 20.7995 67.3815 22.4271 66.5742 23.8594C65.7799 25.2917 64.6406 26.4115 63.1562 27.2188C61.6719 28.026 59.9401 28.4297 57.9609 28.4297C55.9818 28.4297 54.25 28.026 52.7656 27.2188C51.2812 26.4115 50.1354 25.2917 49.3281 23.8594C48.5339 22.4271 48.1367 20.7995 48.1367 18.9766C48.1367 17.1536 48.5339 15.526 49.3281 14.0938C50.1354 12.6615 51.2812 11.5417 52.7656 10.7344C54.25 9.92708 55.9818 9.52344 57.9609 9.52344ZM57.9609 13.957C57.0234 13.957 56.2096 14.1654 55.5195 14.582C54.8294 14.9857 54.2956 15.5651 53.918 16.3203C53.5534 17.0755 53.3711 17.9609 53.3711 18.9766C53.3711 19.9922 53.5534 20.8776 53.918 21.6328C54.2956 22.388 54.8294 22.974 55.5195 23.3906C56.2096 23.7943 57.0234 23.9961 57.9609 23.9961C58.8984 23.9961 59.7122 23.7943 60.4023 23.3906C61.0924 22.974 61.6198 22.388 61.9844 21.6328C62.362 20.8776 62.5508 19.9922 62.5508 18.9766C62.5508 17.9609 62.362 17.0755 61.9844 16.3203C61.6198 15.5651 61.0924 14.9857 60.4023 14.582C59.7122 14.1654 58.8984 13.957 57.9609 13.957ZM80.2656 9.52344C81.5026 9.52344 82.6289 9.78385 83.6445 10.3047C84.6602 10.8255 85.5065 11.5742 86.1836 12.5508V11.1836C86.1836 10.7409 86.2747 10.4284 86.457 10.2461C86.6523 10.0508 86.9714 9.95312 87.4141 9.95312H91.9844C92.2969 9.95312 92.5378 10.0117 92.707 10.1289C92.8763 10.2331 93 10.4284 93.0781 10.7148C93.1693 11.0013 93.2148 11.418 93.2148 11.9648C93.2148 12.5117 93.1693 12.9284 93.0781 13.2148C93 13.5013 92.8763 13.6966 92.707 13.8008C92.5378 13.9049 92.2969 13.957 91.9844 13.957H90.2852V27.9805C90.2852 30.5326 89.5169 32.5052 87.9805 33.8984C86.457 35.3047 84.1719 36.0078 81.125 36.0078C80.0052 36.0078 78.7812 35.8971 77.4531 35.6758C76.125 35.4674 74.8555 35.1745 73.6445 34.7969C73.0195 34.6016 72.707 34.1523 72.707 33.4492C72.707 33.1367 72.7917 32.681 72.9609 32.082C73.1562 31.4701 73.3711 31.0273 73.6055 30.7539C73.8529 30.4805 74.1393 30.3438 74.4648 30.3438C74.6341 30.3438 74.7904 30.3698 74.9336 30.4219C77.4206 31.1901 79.4193 31.5742 80.9297 31.5742C82.5052 31.5742 83.6445 31.2422 84.3477 30.5781C85.0508 29.9271 85.4023 28.931 85.4023 27.5898V25.5977C84.7383 26.3138 83.9701 26.8672 83.0977 27.2578C82.2253 27.6484 81.2812 27.8438 80.2656 27.8438C78.5859 27.8438 77.1081 27.4531 75.832 26.6719C74.556 25.8776 73.5729 24.7904 72.8828 23.4102C72.1927 22.0169 71.8477 20.4414 71.8477 18.6836C71.8477 16.9258 72.1927 15.3568 72.8828 13.9766C73.5729 12.5833 74.556 11.4961 75.832 10.7148C77.1081 9.92057 78.5859 9.52344 80.2656 9.52344ZM81.0469 13.957C79.8359 13.957 78.8724 14.3737 78.1562 15.207C77.4401 16.0273 77.082 17.1862 77.082 18.6836C77.082 20.181 77.4401 21.3464 78.1562 22.1797C78.8724 23 79.8359 23.4102 81.0469 23.4102C81.8802 23.4102 82.6354 23.2344 83.3125 22.8828C84.0026 22.5182 84.543 21.9844 84.9336 21.2812C85.3372 20.5651 85.5391 19.6992 85.5391 18.6836C85.5391 17.668 85.3372 16.8086 84.9336 16.1055C84.543 15.3893 84.0026 14.8555 83.3125 14.5039C82.6354 14.1393 81.8802 13.957 81.0469 13.957ZM107.414 9.95312C107.857 9.95312 108.169 10.0508 108.352 10.2461C108.547 10.4284 108.645 10.7409 108.645 11.1836V23.9961H114.133C114.445 23.9961 114.686 24.0547 114.855 24.1719C115.025 24.276 115.148 24.4714 115.227 24.7578C115.318 25.0443 115.363 25.4609 115.363 26.0078C115.363 26.5547 115.318 26.9714 115.227 27.2578C115.148 27.5443 115.025 27.7396 114.855 27.8438C114.686 27.9479 114.445 28 114.133 28H98.4297C98.1172 28 97.8763 27.9479 97.707 27.8438C97.5378 27.7396 97.4076 27.5443 97.3164 27.2578C97.2383 26.9714 97.1992 26.5547 97.1992 26.0078C97.1992 25.4609 97.2383 25.0443 97.3164 24.7578C97.4076 24.4714 97.5378 24.276 97.707 24.1719C97.8763 24.0547 98.1172 23.9961 98.4297 23.9961H103.762V13.957H99.6016C99.2891 13.957 99.0482 13.9049 98.8789 13.8008C98.7096 13.6966 98.5794 13.5013 98.4883 13.2148C98.4102 12.9284 98.3711 12.5117 98.3711 11.9648C98.3711 11.418 98.4102 11.0013 98.4883 10.7148C98.5794 10.4284 98.7096 10.2331 98.8789 10.1289C99.0482 10.0117 99.2891 9.95312 99.6016 9.95312H107.414ZM106.145 1.37891C107.069 1.37891 107.714 1.47656 108.078 1.67188C108.456 1.85417 108.645 2.16667 108.645 2.60938V5.8125C108.645 6.25521 108.469 6.57422 108.117 6.76953C107.779 6.95182 107.154 7.04297 106.242 7.04297C105.331 7.04297 104.686 6.95182 104.309 6.76953C103.944 6.57422 103.762 6.25521 103.762 5.8125V2.60938C103.762 2.15365 103.931 1.83464 104.27 1.65234C104.608 1.47005 105.233 1.37891 106.145 1.37891ZM136.574 9.52344C137.382 9.52344 137.935 9.61458 138.234 9.79688C138.534 9.97917 138.684 10.2982 138.684 10.7539V17.0234C138.684 17.4661 138.482 17.7852 138.078 17.9805C137.688 18.1628 137.03 18.2539 136.105 18.2539C135.493 18.2539 135.018 18.2148 134.68 18.1367C134.354 18.0456 134.126 17.9154 133.996 17.7461C133.866 17.5768 133.801 17.3359 133.801 17.0234C133.801 16.4766 133.664 15.9688 133.391 15.5C133.13 15.0312 132.733 14.6602 132.199 14.3867C131.678 14.1003 131.047 13.957 130.305 13.957C129.367 13.957 128.547 14.1654 127.844 14.582C127.141 14.9857 126.594 15.5716 126.203 16.3398C125.826 17.0951 125.637 17.974 125.637 18.9766C125.637 19.9792 125.826 20.8646 126.203 21.6328C126.594 22.388 127.141 22.974 127.844 23.3906C128.547 23.7943 129.367 23.9961 130.305 23.9961C131.307 23.9961 132.329 23.8333 133.371 23.5078C134.426 23.1823 135.448 22.7331 136.438 22.1602C136.672 22.0299 136.887 21.9648 137.082 21.9648C137.668 21.9648 138.182 22.4792 138.625 23.5078C138.859 24.0677 138.977 24.543 138.977 24.9336C138.977 25.5195 138.697 25.9688 138.137 26.2812C136.926 26.9583 135.65 27.4857 134.309 27.8633C132.98 28.2409 131.646 28.4297 130.305 28.4297C128.326 28.4297 126.587 28.026 125.09 27.2188C123.592 26.4115 122.434 25.2917 121.613 23.8594C120.806 22.4271 120.402 20.7995 120.402 18.9766C120.402 17.1536 120.812 15.526 121.633 14.0938C122.453 12.6484 123.566 11.5286 124.973 10.7344C126.392 9.92708 127.974 9.52344 129.719 9.52344C131.828 9.52344 133.319 10.2852 134.191 11.8086V10.7539C134.191 10.3112 134.38 9.9987 134.758 9.81641C135.135 9.62109 135.741 9.52344 136.574 9.52344ZM153.684 9.52344C156.548 9.52344 158.618 10.1419 159.895 11.3789C161.171 12.6159 161.809 14.3867 161.809 16.6914V22.3359C161.809 22.8568 161.919 23.2669 162.141 23.5664C162.362 23.8529 162.681 23.9961 163.098 23.9961H163.703C164.016 23.9961 164.257 24.0547 164.426 24.1719C164.595 24.276 164.719 24.4714 164.797 24.7578C164.888 25.0443 164.934 25.4609 164.934 26.0078C164.934 26.5547 164.888 26.9714 164.797 27.2578C164.719 27.5443 164.595 27.7396 164.426 27.8438C164.257 27.9479 164.016 28 163.703 28H161.516C160.708 28 159.992 27.8372 159.367 27.5117C158.755 27.1732 158.286 26.6458 157.961 25.9297C156.932 26.724 155.845 27.3424 154.699 27.7852C153.553 28.2148 152.375 28.4297 151.164 28.4297C149.693 28.4297 148.423 28.1823 147.355 27.6875C146.288 27.1797 145.467 26.4635 144.895 25.5391C144.335 24.6016 144.055 23.5013 144.055 22.2383C144.055 20.4154 144.699 19.0026 145.988 18C147.277 16.9974 149.081 16.4961 151.398 16.4961C153.13 16.4961 154.973 16.6914 156.926 17.082V16.5156C156.926 15.6432 156.652 14.9987 156.105 14.582C155.559 14.1654 154.595 13.957 153.215 13.957C152.447 13.957 151.587 14.0547 150.637 14.25C149.699 14.4323 148.768 14.6797 147.844 14.9922C147.622 15.0573 147.434 15.0898 147.277 15.0898C146.952 15.0898 146.659 14.9727 146.398 14.7383C146.151 14.4909 145.923 14.0807 145.715 13.5078C145.52 12.9349 145.422 12.4661 145.422 12.1016C145.422 11.4375 145.721 10.9948 146.32 10.7734C147.479 10.3568 148.71 10.0443 150.012 9.83594C151.314 9.6276 152.538 9.52344 153.684 9.52344ZM151.887 20.5195C150.975 20.5195 150.279 20.6823 149.797 21.0078C149.328 21.3333 149.094 21.8086 149.094 22.4336C149.094 23.0456 149.322 23.5143 149.777 23.8398C150.246 24.1523 150.917 24.3086 151.789 24.3086C152.688 24.3086 153.573 24.1328 154.445 23.7812C155.331 23.4167 156.158 22.9219 156.926 22.2969V21.0469C155.207 20.6953 153.527 20.5195 151.887 20.5195ZM208.977 2.375C209.419 2.375 209.732 2.47266 209.914 2.66797C210.109 2.85026 210.207 3.16276 210.207 3.60547V23.9961H211.906C212.219 23.9961 212.46 24.0482 212.629 24.1523C212.798 24.2565 212.922 24.4518 213 24.7383C213.091 25.0247 213.137 25.4414 213.137 25.9883C213.137 26.5352 213.091 26.9518 213 27.2383C212.922 27.5247 212.798 27.7266 212.629 27.8438C212.46 27.9479 212.219 28 211.906 28H207.336C206.893 28 206.574 27.9089 206.379 27.7266C206.197 27.5312 206.105 27.2122 206.105 26.7695V25.1289C205.428 26.1706 204.582 26.9844 203.566 27.5703C202.551 28.1432 201.424 28.4297 200.188 28.4297C198.482 28.4297 196.991 28.013 195.715 27.1797C194.439 26.3464 193.462 25.2135 192.785 23.7812C192.108 22.349 191.77 20.7474 191.77 18.9766C191.77 17.2057 192.108 15.6042 192.785 14.1719C193.462 12.7396 194.439 11.6068 195.715 10.7734C196.991 9.9401 198.482 9.52344 200.188 9.52344C201.203 9.52344 202.147 9.72526 203.02 10.1289C203.892 10.5195 204.66 11.0859 205.324 11.8281V6.37891H202.453C202.141 6.37891 201.9 6.32682 201.73 6.22266C201.561 6.11849 201.431 5.92318 201.34 5.63672C201.262 5.35026 201.223 4.93359 201.223 4.38672C201.223 3.83984 201.262 3.42318 201.34 3.13672C201.431 2.85026 201.561 2.65495 201.73 2.55078C201.9 2.43359 202.141 2.375 202.453 2.375H208.977ZM200.969 13.957C200.161 13.957 199.458 14.1654 198.859 14.582C198.26 14.9857 197.798 15.5651 197.473 16.3203C197.16 17.0755 197.004 17.9609 197.004 18.9766C197.004 19.9922 197.16 20.8776 197.473 21.6328C197.798 22.388 198.26 22.974 198.859 23.3906C199.458 23.7943 200.161 23.9961 200.969 23.9961C201.802 23.9961 202.557 23.8008 203.234 23.4102C203.911 23.0195 204.452 22.4466 204.855 21.6914C205.259 20.9232 205.461 20.0182 205.461 18.9766C205.461 17.9349 205.259 17.0365 204.855 16.2812C204.452 15.513 203.911 14.9336 203.234 14.543C202.557 14.1523 201.802 13.957 200.969 13.957ZM226.125 9.52344C228.104 9.52344 229.79 9.95312 231.184 10.8125C232.577 11.6589 233.625 12.8438 234.328 14.3672C235.044 15.8776 235.402 17.6094 235.402 19.5625C235.402 20.0052 235.305 20.3177 235.109 20.5C234.927 20.6823 234.615 20.7734 234.172 20.7734H221.633C221.88 21.8151 222.408 22.6159 223.215 23.1758C224.035 23.7227 225.07 23.9961 226.32 23.9961C228.339 23.9961 230.526 23.638 232.883 22.9219C233.039 22.8698 233.195 22.8438 233.352 22.8438C233.638 22.8438 233.885 22.974 234.094 23.2344C234.302 23.4948 234.491 23.9375 234.66 24.5625C234.79 25.0443 234.855 25.4544 234.855 25.793C234.855 26.1315 234.777 26.3984 234.621 26.5938C234.478 26.776 234.237 26.9258 233.898 27.043C232.596 27.4727 231.268 27.8112 229.914 28.0586C228.56 28.306 227.232 28.4297 225.93 28.4297C223.951 28.4297 222.245 28.026 220.812 27.2188C219.38 26.4115 218.286 25.2982 217.531 23.8789C216.789 22.4466 216.418 20.8125 216.418 18.9766C216.418 17.1536 216.809 15.526 217.59 14.0938C218.371 12.6615 219.497 11.5417 220.969 10.7344C222.44 9.92708 224.159 9.52344 226.125 9.52344ZM226.125 13.957C223.742 13.957 222.271 14.9596 221.711 16.9648H230.305C230.083 16.0143 229.608 15.2786 228.879 14.7578C228.163 14.224 227.245 13.957 226.125 13.957ZM274.914 4.81641C277.909 4.81641 280.174 5.49349 281.711 6.84766C283.26 8.1888 284.035 10.1289 284.035 12.668C284.035 15.207 283.26 17.1536 281.711 18.5078C280.174 19.862 277.909 20.5391 274.914 20.5391H271.984V23.9961H276.223C276.535 23.9961 276.776 24.0547 276.945 24.1719C277.115 24.276 277.238 24.4714 277.316 24.7578C277.408 25.0443 277.453 25.4609 277.453 26.0078C277.453 26.5547 277.408 26.9714 277.316 27.2578C277.238 27.5443 277.115 27.7396 276.945 27.8438C276.776 27.9479 276.535 28 276.223 28H264.23C263.918 28 263.677 27.9479 263.508 27.8438C263.339 27.7396 263.208 27.5443 263.117 27.2578C263.039 26.9714 263 26.5547 263 26.0078C263 25.4609 263.039 25.0443 263.117 24.7578C263.208 24.4714 263.339 24.276 263.508 24.1719C263.677 24.0547 263.918 23.9961 264.23 23.9961H267.102V8.82031H264.23C263.918 8.82031 263.677 8.76823 263.508 8.66406C263.339 8.5599 263.208 8.36458 263.117 8.07812C263.039 7.79167 263 7.375 263 6.82812C263 6.28125 263.039 5.86458 263.117 5.57812C263.208 5.29167 263.339 5.09635 263.508 4.99219C263.677 4.875 263.918 4.81641 264.23 4.81641H274.914ZM271.984 16.3398H274.309C275.858 16.3398 277.023 16.0404 277.805 15.4414C278.599 14.8424 278.996 13.918 278.996 12.668C278.996 11.418 278.599 10.5 277.805 9.91406C277.023 9.3151 275.858 9.01562 274.309 9.01562H271.984V16.3398ZM303.918 9.52344C305.025 9.52344 306.066 9.88802 307.043 10.6172C307.616 11.0339 307.902 11.5807 307.902 12.2578C307.902 12.6875 307.785 13.1953 307.551 13.7812C307.316 14.3672 307.049 14.8099 306.75 15.1094C306.464 15.4089 306.158 15.5586 305.832 15.5586C305.65 15.5586 305.454 15.5065 305.246 15.4023C304.517 14.9987 303.762 14.7969 302.98 14.7969C301.978 14.7969 301.04 15.1159 300.168 15.7539C299.296 16.3919 298.592 17.2708 298.059 18.3906C297.538 19.5104 297.277 20.7604 297.277 22.1406V23.9961H302.883C303.195 23.9961 303.436 24.0547 303.605 24.1719C303.775 24.276 303.898 24.4714 303.977 24.7578C304.068 25.0443 304.113 25.4609 304.113 26.0078C304.113 26.5547 304.068 26.9714 303.977 27.2578C303.898 27.5443 303.775 27.7396 303.605 27.8438C303.436 27.9479 303.195 28 302.883 28H289.523C289.211 28 288.97 27.9479 288.801 27.8438C288.632 27.7396 288.501 27.5443 288.41 27.2578C288.332 26.9714 288.293 26.5547 288.293 26.0078C288.293 25.4609 288.332 25.0443 288.41 24.7578C288.501 24.4714 288.632 24.276 288.801 24.1719C288.97 24.0547 289.211 23.9961 289.523 23.9961H292.395V13.957H290.109C289.797 13.957 289.556 13.9049 289.387 13.8008C289.217 13.6966 289.087 13.5013 288.996 13.2148C288.918 12.9284 288.879 12.5117 288.879 11.9648C288.879 11.418 288.918 11.0013 288.996 10.7148C289.087 10.4284 289.217 10.2331 289.387 10.1289C289.556 10.0117 289.797 9.95312 290.109 9.95312H295.461C295.904 9.95312 296.216 10.0508 296.398 10.2461C296.594 10.4284 296.691 10.7409 296.691 11.1836V15.4219C297.668 13.5339 298.788 12.082 300.051 11.0664C301.327 10.0378 302.616 9.52344 303.918 9.52344ZM321.789 9.52344C323.768 9.52344 325.5 9.92708 326.984 10.7344C328.469 11.5417 329.608 12.6615 330.402 14.0938C331.21 15.526 331.613 17.1536 331.613 18.9766C331.613 20.7995 331.21 22.4271 330.402 23.8594C329.608 25.2917 328.469 26.4115 326.984 27.2188C325.5 28.026 323.768 28.4297 321.789 28.4297C319.81 28.4297 318.078 28.026 316.594 27.2188C315.109 26.4115 313.964 25.2917 313.156 23.8594C312.362 22.4271 311.965 20.7995 311.965 18.9766C311.965 17.1536 312.362 15.526 313.156 14.0938C313.964 12.6615 315.109 11.5417 316.594 10.7344C318.078 9.92708 319.81 9.52344 321.789 9.52344ZM321.789 13.957C320.852 13.957 320.038 14.1654 319.348 14.582C318.658 14.9857 318.124 15.5651 317.746 16.3203C317.382 17.0755 317.199 17.9609 317.199 18.9766C317.199 19.9922 317.382 20.8776 317.746 21.6328C318.124 22.388 318.658 22.974 319.348 23.3906C320.038 23.7943 320.852 23.9961 321.789 23.9961C322.727 23.9961 323.54 23.7943 324.23 23.3906C324.921 22.974 325.448 22.388 325.812 21.6328C326.19 20.8776 326.379 19.9922 326.379 18.9766C326.379 17.9609 326.19 17.0755 325.812 16.3203C325.448 15.5651 324.921 14.9857 324.23 14.582C323.54 14.1654 322.727 13.957 321.789 13.957ZM344.094 9.52344C345.331 9.52344 346.457 9.78385 347.473 10.3047C348.488 10.8255 349.335 11.5742 350.012 12.5508V11.1836C350.012 10.7409 350.103 10.4284 350.285 10.2461C350.48 10.0508 350.799 9.95312 351.242 9.95312H355.812C356.125 9.95312 356.366 10.0117 356.535 10.1289C356.704 10.2331 356.828 10.4284 356.906 10.7148C356.997 11.0013 357.043 11.418 357.043 11.9648C357.043 12.5117 356.997 12.9284 356.906 13.2148C356.828 13.5013 356.704 13.6966 356.535 13.8008C356.366 13.9049 356.125 13.957 355.812 13.957H354.113V27.9805C354.113 30.5326 353.345 32.5052 351.809 33.8984C350.285 35.3047 348 36.0078 344.953 36.0078C343.833 36.0078 342.609 35.8971 341.281 35.6758C339.953 35.4674 338.684 35.1745 337.473 34.7969C336.848 34.6016 336.535 34.1523 336.535 33.4492C336.535 33.1367 336.62 32.681 336.789 32.082C336.984 31.4701 337.199 31.0273 337.434 30.7539C337.681 30.4805 337.967 30.3438 338.293 30.3438C338.462 30.3438 338.618 30.3698 338.762 30.4219C341.249 31.1901 343.247 31.5742 344.758 31.5742C346.333 31.5742 347.473 31.2422 348.176 30.5781C348.879 29.9271 349.23 28.931 349.23 27.5898V25.5977C348.566 26.3138 347.798 26.8672 346.926 27.2578C346.053 27.6484 345.109 27.8438 344.094 27.8438C342.414 27.8438 340.936 27.4531 339.66 26.6719C338.384 25.8776 337.401 24.7904 336.711 23.4102C336.021 22.0169 335.676 20.4414 335.676 18.6836C335.676 16.9258 336.021 15.3568 336.711 13.9766C337.401 12.5833 338.384 11.4961 339.66 10.7148C340.936 9.92057 342.414 9.52344 344.094 9.52344ZM344.875 13.957C343.664 13.957 342.701 14.3737 341.984 15.207C341.268 16.0273 340.91 17.1862 340.91 18.6836C340.91 20.181 341.268 21.3464 341.984 22.1797C342.701 23 343.664 23.4102 344.875 23.4102C345.708 23.4102 346.464 23.2344 347.141 22.8828C347.831 22.5182 348.371 21.9844 348.762 21.2812C349.165 20.5651 349.367 19.6992 349.367 18.6836C349.367 17.668 349.165 16.8086 348.762 16.1055C348.371 15.3893 347.831 14.8555 347.141 14.5039C346.464 14.1393 345.708 13.957 344.875 13.957ZM375.871 9.52344C376.978 9.52344 378.02 9.88802 378.996 10.6172C379.569 11.0339 379.855 11.5807 379.855 12.2578C379.855 12.6875 379.738 13.1953 379.504 13.7812C379.27 14.3672 379.003 14.8099 378.703 15.1094C378.417 15.4089 378.111 15.5586 377.785 15.5586C377.603 15.5586 377.408 15.5065 377.199 15.4023C376.47 14.9987 375.715 14.7969 374.934 14.7969C373.931 14.7969 372.993 15.1159 372.121 15.7539C371.249 16.3919 370.546 17.2708 370.012 18.3906C369.491 19.5104 369.23 20.7604 369.23 22.1406V23.9961H374.836C375.148 23.9961 375.389 24.0547 375.559 24.1719C375.728 24.276 375.852 24.4714 375.93 24.7578C376.021 25.0443 376.066 25.4609 376.066 26.0078C376.066 26.5547 376.021 26.9714 375.93 27.2578C375.852 27.5443 375.728 27.7396 375.559 27.8438C375.389 27.9479 375.148 28 374.836 28H361.477C361.164 28 360.923 27.9479 360.754 27.8438C360.585 27.7396 360.454 27.5443 360.363 27.2578C360.285 26.9714 360.246 26.5547 360.246 26.0078C360.246 25.4609 360.285 25.0443 360.363 24.7578C360.454 24.4714 360.585 24.276 360.754 24.1719C360.923 24.0547 361.164 23.9961 361.477 23.9961H364.348V13.957H362.062C361.75 13.957 361.509 13.9049 361.34 13.8008C361.171 13.6966 361.04 13.5013 360.949 13.2148C360.871 12.9284 360.832 12.5117 360.832 11.9648C360.832 11.418 360.871 11.0013 360.949 10.7148C361.04 10.4284 361.171 10.2331 361.34 10.1289C361.509 10.0117 361.75 9.95312 362.062 9.95312H367.414C367.857 9.95312 368.169 10.0508 368.352 10.2461C368.547 10.4284 368.645 10.7409 368.645 11.1836V15.4219C369.621 13.5339 370.741 12.082 372.004 11.0664C373.28 10.0378 374.569 9.52344 375.871 9.52344ZM393.527 9.52344C396.392 9.52344 398.462 10.1419 399.738 11.3789C401.014 12.6159 401.652 14.3867 401.652 16.6914V22.3359C401.652 22.8568 401.763 23.2669 401.984 23.5664C402.206 23.8529 402.525 23.9961 402.941 23.9961H403.547C403.859 23.9961 404.1 24.0547 404.27 24.1719C404.439 24.276 404.562 24.4714 404.641 24.7578C404.732 25.0443 404.777 25.4609 404.777 26.0078C404.777 26.5547 404.732 26.9714 404.641 27.2578C404.562 27.5443 404.439 27.7396 404.27 27.8438C404.1 27.9479 403.859 28 403.547 28H401.359C400.552 28 399.836 27.8372 399.211 27.5117C398.599 27.1732 398.13 26.6458 397.805 25.9297C396.776 26.724 395.689 27.3424 394.543 27.7852C393.397 28.2148 392.219 28.4297 391.008 28.4297C389.536 28.4297 388.267 28.1823 387.199 27.6875C386.132 27.1797 385.311 26.4635 384.738 25.5391C384.178 24.6016 383.898 23.5013 383.898 22.2383C383.898 20.4154 384.543 19.0026 385.832 18C387.121 16.9974 388.924 16.4961 391.242 16.4961C392.974 16.4961 394.816 16.6914 396.77 17.082V16.5156C396.77 15.6432 396.496 14.9987 395.949 14.582C395.402 14.1654 394.439 13.957 393.059 13.957C392.29 13.957 391.431 14.0547 390.48 14.25C389.543 14.4323 388.612 14.6797 387.688 14.9922C387.466 15.0573 387.277 15.0898 387.121 15.0898C386.796 15.0898 386.503 14.9727 386.242 14.7383C385.995 14.4909 385.767 14.0807 385.559 13.5078C385.363 12.9349 385.266 12.4661 385.266 12.1016C385.266 11.4375 385.565 10.9948 386.164 10.7734C387.323 10.3568 388.553 10.0443 389.855 9.83594C391.158 9.6276 392.382 9.52344 393.527 9.52344ZM391.73 20.5195C390.819 20.5195 390.122 20.6823 389.641 21.0078C389.172 21.3333 388.938 21.8086 388.938 22.4336C388.938 23.0456 389.165 23.5143 389.621 23.8398C390.09 24.1523 390.76 24.3086 391.633 24.3086C392.531 24.3086 393.417 24.1328 394.289 23.7812C395.174 23.4167 396.001 22.9219 396.77 22.2969V21.0469C395.051 20.6953 393.371 20.5195 391.73 20.5195ZM424.602 9.52344C425.799 9.52344 426.743 10.0117 427.434 10.9883C428.124 11.9648 428.469 13.4492 428.469 15.4414V26.7695C428.469 27.2122 428.371 27.5312 428.176 27.7266C427.993 27.9089 427.681 28 427.238 28H424.816C424.374 28 424.055 27.9089 423.859 27.7266C423.677 27.5312 423.586 27.2122 423.586 26.7695V16.5547C423.586 15.8646 423.501 15.3568 423.332 15.0312C423.176 14.7057 422.922 14.543 422.57 14.543C421.958 14.543 421.47 15.0182 421.105 15.9688C420.754 16.9193 420.578 18.306 420.578 20.1289V26.7695C420.578 27.2122 420.48 27.5312 420.285 27.7266C420.103 27.9089 419.79 28 419.348 28H416.926C416.483 28 416.164 27.9089 415.969 27.7266C415.786 27.5312 415.695 27.2122 415.695 26.7695V16.5547C415.695 15.8646 415.611 15.3568 415.441 15.0312C415.285 14.7057 415.031 14.543 414.68 14.543C414.068 14.543 413.579 15.0182 413.215 15.9688C412.863 16.9193 412.688 18.306 412.688 20.1289V26.7695C412.688 27.2122 412.59 27.5312 412.395 27.7266C412.212 27.9089 411.9 28 411.457 28H409.035C408.592 28 408.273 27.9089 408.078 27.7266C407.896 27.5312 407.805 27.2122 407.805 26.7695V13.957H406.691C406.379 13.957 406.138 13.9049 405.969 13.8008C405.799 13.6966 405.676 13.5013 405.598 13.2148C405.507 12.9284 405.461 12.5117 405.461 11.9648C405.461 11.418 405.507 11.0013 405.598 10.7148C405.676 10.4284 405.799 10.2331 405.969 10.1289C406.138 10.0117 406.379 9.95312 406.691 9.95312H410.09C410.533 9.95312 410.845 10.0508 411.027 10.2461C411.223 10.4284 411.32 10.7409 411.32 11.1836V13.9961C411.932 12.5247 412.648 11.4115 413.469 10.6562C414.302 9.90104 415.214 9.52344 416.203 9.52344C418.13 9.52344 419.374 10.8451 419.934 13.4883C420.533 12.1862 421.229 11.2031 422.023 10.5391C422.818 9.86198 423.677 9.52344 424.602 9.52344ZM441.496 9.52344C444.361 9.52344 446.431 10.1419 447.707 11.3789C448.983 12.6159 449.621 14.3867 449.621 16.6914V22.3359C449.621 22.8568 449.732 23.2669 449.953 23.5664C450.174 23.8529 450.493 23.9961 450.91 23.9961H451.516C451.828 23.9961 452.069 24.0547 452.238 24.1719C452.408 24.276 452.531 24.4714 452.609 24.7578C452.701 25.0443 452.746 25.4609 452.746 26.0078C452.746 26.5547 452.701 26.9714 452.609 27.2578C452.531 27.5443 452.408 27.7396 452.238 27.8438C452.069 27.9479 451.828 28 451.516 28H449.328C448.521 28 447.805 27.8372 447.18 27.5117C446.568 27.1732 446.099 26.6458 445.773 25.9297C444.745 26.724 443.658 27.3424 442.512 27.7852C441.366 28.2148 440.188 28.4297 438.977 28.4297C437.505 28.4297 436.236 28.1823 435.168 27.6875C434.1 27.1797 433.28 26.4635 432.707 25.5391C432.147 24.6016 431.867 23.5013 431.867 22.2383C431.867 20.4154 432.512 19.0026 433.801 18C435.09 16.9974 436.893 16.4961 439.211 16.4961C440.943 16.4961 442.785 16.6914 444.738 17.082V16.5156C444.738 15.6432 444.465 14.9987 443.918 14.582C443.371 14.1654 442.408 13.957 441.027 13.957C440.259 13.957 439.4 14.0547 438.449 14.25C437.512 14.4323 436.581 14.6797 435.656 14.9922C435.435 15.0573 435.246 15.0898 435.09 15.0898C434.764 15.0898 434.471 14.9727 434.211 14.7383C433.964 14.4909 433.736 14.0807 433.527 13.5078C433.332 12.9349 433.234 12.4661 433.234 12.1016C433.234 11.4375 433.534 10.9948 434.133 10.7734C435.292 10.3568 436.522 10.0443 437.824 9.83594C439.126 9.6276 440.35 9.52344 441.496 9.52344ZM439.699 20.5195C438.788 20.5195 438.091 20.6823 437.609 21.0078C437.141 21.3333 436.906 21.8086 436.906 22.4336C436.906 23.0456 437.134 23.5143 437.59 23.8398C438.059 24.1523 438.729 24.3086 439.602 24.3086C440.5 24.3086 441.385 24.1328 442.258 23.7812C443.143 23.4167 443.97 22.9219 444.738 22.2969V21.0469C443.02 20.6953 441.34 20.5195 439.699 20.5195ZM474.406 23.5078C474.641 24.0677 474.758 24.543 474.758 24.9336C474.758 25.5195 474.478 25.9688 473.918 26.2812C472.889 26.8542 471.809 27.3229 470.676 27.6875C469.543 28.0521 468.404 28.2799 467.258 28.3711V29.6211C468.651 29.6211 469.699 29.9596 470.402 30.6367C471.118 31.3268 471.477 32.2253 471.477 33.332C471.477 34.582 471.008 35.5391 470.07 36.2031C469.146 36.8802 467.798 37.2188 466.027 37.2188C464.113 37.2188 462.447 36.9453 461.027 36.3984C460.715 36.2682 460.559 36.0143 460.559 35.6367C460.559 35.3893 460.624 35.0964 460.754 34.7578C461.066 33.9245 461.418 33.5078 461.809 33.5078C461.861 33.5078 461.939 33.5208 462.043 33.5469C463.111 33.9245 464.159 34.1133 465.188 34.1133C465.826 34.1133 466.294 34.0286 466.594 33.8594C466.906 33.7031 467.062 33.4557 467.062 33.1172C467.062 32.7786 466.906 32.5378 466.594 32.3945C466.281 32.2643 465.845 32.1992 465.285 32.1992L464.836 32.2188C464.732 32.2318 464.576 32.2383 464.367 32.2383C463.885 32.2383 463.645 31.9714 463.645 31.4375V28.1953C462.121 27.8828 460.799 27.2969 459.68 26.4375C458.56 25.5781 457.694 24.5104 457.082 23.2344C456.483 21.9453 456.184 20.526 456.184 18.9766C456.184 17.1536 456.594 15.526 457.414 14.0938C458.234 12.6484 459.348 11.5286 460.754 10.7344C462.173 9.92708 463.755 9.52344 465.5 9.52344C467.609 9.52344 469.1 10.2852 469.973 11.8086V10.7539C469.973 10.3112 470.161 9.9987 470.539 9.81641C470.917 9.62109 471.522 9.52344 472.355 9.52344C473.163 9.52344 473.716 9.61458 474.016 9.79688C474.315 9.97917 474.465 10.2982 474.465 10.7539V17.0234C474.465 17.4661 474.263 17.7852 473.859 17.9805C473.469 18.1628 472.811 18.2539 471.887 18.2539C471.275 18.2539 470.799 18.2148 470.461 18.1367C470.135 18.0456 469.908 17.9154 469.777 17.7461C469.647 17.5768 469.582 17.3359 469.582 17.0234C469.582 16.4766 469.445 15.9688 469.172 15.5C468.911 15.0312 468.514 14.6602 467.98 14.3867C467.46 14.1003 466.828 13.957 466.086 13.957C465.148 13.957 464.328 14.1654 463.625 14.582C462.922 14.9857 462.375 15.5716 461.984 16.3398C461.607 17.0951 461.418 17.974 461.418 18.9766C461.418 19.9792 461.607 20.8646 461.984 21.6328C462.375 22.388 462.922 22.974 463.625 23.3906C464.328 23.7943 465.148 23.9961 466.086 23.9961C467.089 23.9961 468.111 23.8333 469.152 23.5078C470.207 23.1823 471.229 22.7331 472.219 22.1602C472.453 22.0299 472.668 21.9648 472.863 21.9648C473.449 21.9648 473.964 22.4792 474.406 23.5078ZM489.465 9.52344C492.329 9.52344 494.4 10.1419 495.676 11.3789C496.952 12.6159 497.59 14.3867 497.59 16.6914V22.3359C497.59 22.8568 497.701 23.2669 497.922 23.5664C498.143 23.8529 498.462 23.9961 498.879 23.9961H499.484C499.797 23.9961 500.038 24.0547 500.207 24.1719C500.376 24.276 500.5 24.4714 500.578 24.7578C500.669 25.0443 500.715 25.4609 500.715 26.0078C500.715 26.5547 500.669 26.9714 500.578 27.2578C500.5 27.5443 500.376 27.7396 500.207 27.8438C500.038 27.9479 499.797 28 499.484 28H497.297C496.49 28 495.773 27.8372 495.148 27.5117C494.536 27.1732 494.068 26.6458 493.742 25.9297C492.714 26.724 491.626 27.3424 490.48 27.7852C489.335 28.2148 488.156 28.4297 486.945 28.4297C485.474 28.4297 484.204 28.1823 483.137 27.6875C482.069 27.1797 481.249 26.4635 480.676 25.5391C480.116 24.6016 479.836 23.5013 479.836 22.2383C479.836 20.4154 480.48 19.0026 481.77 18C483.059 16.9974 484.862 16.4961 487.18 16.4961C488.911 16.4961 490.754 16.6914 492.707 17.082V16.5156C492.707 15.6432 492.434 14.9987 491.887 14.582C491.34 14.1654 490.376 13.957 488.996 13.957C488.228 13.957 487.368 14.0547 486.418 14.25C485.48 14.4323 484.549 14.6797 483.625 14.9922C483.404 15.0573 483.215 15.0898 483.059 15.0898C482.733 15.0898 482.44 14.9727 482.18 14.7383C481.932 14.4909 481.704 14.0807 481.496 13.5078C481.301 12.9349 481.203 12.4661 481.203 12.1016C481.203 11.4375 481.503 10.9948 482.102 10.7734C483.26 10.3568 484.491 10.0443 485.793 9.83594C487.095 9.6276 488.319 9.52344 489.465 9.52344ZM487.668 20.5195C486.757 20.5195 486.06 20.6823 485.578 21.0078C485.109 21.3333 484.875 21.8086 484.875 22.4336C484.875 23.0456 485.103 23.5143 485.559 23.8398C486.027 24.1523 486.698 24.3086 487.57 24.3086C488.469 24.3086 489.354 24.1328 490.227 23.7812C491.112 23.4167 491.939 22.9219 492.707 22.2969V21.0469C490.988 20.6953 489.309 20.5195 487.668 20.5195ZM487.16 1.22266C487.681 1.22266 488.156 1.30078 488.586 1.45703C489.016 1.61328 489.517 1.83464 490.09 2.12109C490.559 2.35547 490.936 2.53125 491.223 2.64844C491.522 2.7526 491.828 2.80469 492.141 2.80469C492.935 2.80469 493.775 2.33594 494.66 1.39844C494.842 1.21615 495.038 1.125 495.246 1.125C495.624 1.125 496.053 1.38542 496.535 1.90625C497.004 2.42708 497.238 2.92188 497.238 3.39062C497.238 3.65104 497.173 3.8724 497.043 4.05469C496.379 5.04427 495.63 5.81901 494.797 6.37891C493.964 6.92578 493.098 7.19922 492.199 7.19922C491.678 7.19922 491.203 7.12109 490.773 6.96484C490.344 6.80859 489.842 6.58724 489.27 6.30078C488.801 6.06641 488.417 5.89714 488.117 5.79297C487.831 5.67578 487.531 5.61719 487.219 5.61719C486.424 5.61719 485.585 6.08594 484.699 7.02344C484.517 7.20573 484.322 7.29688 484.113 7.29688C483.736 7.29688 483.306 7.03646 482.824 6.51562C482.355 5.99479 482.121 5.5 482.121 5.03125C482.121 4.77083 482.186 4.54948 482.316 4.36719C482.98 3.3776 483.729 2.60938 484.562 2.0625C485.396 1.5026 486.262 1.22266 487.16 1.22266ZM513.664 9.52344C515.643 9.52344 517.375 9.92708 518.859 10.7344C520.344 11.5417 521.483 12.6615 522.277 14.0938C523.085 15.526 523.488 17.1536 523.488 18.9766C523.488 20.7995 523.085 22.4271 522.277 23.8594C521.483 25.2917 520.344 26.4115 518.859 27.2188C517.375 28.026 515.643 28.4297 513.664 28.4297C511.685 28.4297 509.953 28.026 508.469 27.2188C506.984 26.4115 505.839 25.2917 505.031 23.8594C504.237 22.4271 503.84 20.7995 503.84 18.9766C503.84 17.1536 504.237 15.526 505.031 14.0938C505.839 12.6615 506.984 11.5417 508.469 10.7344C509.953 9.92708 511.685 9.52344 513.664 9.52344ZM513.664 13.957C512.727 13.957 511.913 14.1654 511.223 14.582C510.533 14.9857 509.999 15.5651 509.621 16.3203C509.257 17.0755 509.074 17.9609 509.074 18.9766C509.074 19.9922 509.257 20.8776 509.621 21.6328C509.999 22.388 510.533 22.974 511.223 23.3906C511.913 23.7943 512.727 23.9961 513.664 23.9961C514.602 23.9961 515.415 23.7943 516.105 23.3906C516.796 22.974 517.323 22.388 517.688 21.6328C518.065 20.8776 518.254 19.9922 518.254 18.9766C518.254 17.9609 518.065 17.0755 517.688 16.3203C517.323 15.5651 516.796 14.9857 516.105 14.582C515.415 14.1654 514.602 13.957 513.664 13.957Z" fill="#1C256D"/>
<path d="M543.449 0.675781C544.322 0.675781 545.051 0.81901 545.637 1.10547C546.236 1.39193 546.535 1.75651 546.535 2.19922C546.535 2.34245 546.509 2.47266 546.457 2.58984L533.449 34.1914C533.215 34.7513 532.681 35.0312 531.848 35.0312C530.975 35.0312 530.24 34.888 529.641 34.6016C529.055 34.3151 528.762 33.9505 528.762 33.5078C528.762 33.3646 528.788 33.2344 528.84 33.1172L541.848 1.51562C542.082 0.955729 542.616 0.675781 543.449 0.675781Z" fill="#4854AF"/>
</svg>
