<svg width="284" height="37" viewBox="0 0 284 37" fill="none" xmlns="http://www.w3.org/2000/svg">
<path d="M16.4766 6.92578C16.737 6.79557 16.9518 6.73047 17.1211 6.73047C17.3815 6.73047 17.6289 6.84766 17.8633 7.08203C18.0977 7.31641 18.3516 7.70703 18.625 8.25391C18.9635 8.93099 19.1328 9.47135 19.1328 9.875C19.1328 10.3177 18.8984 10.6628 18.4297 10.9102L7.00391 16.6133L18.4297 22.3164C18.8984 22.5638 19.1328 22.9089 19.1328 23.3516C19.1328 23.7552 18.9635 24.2956 18.625 24.9727C18.3516 25.5195 18.0977 25.9102 17.8633 26.1445C17.6289 26.3789 17.3815 26.4961 17.1211 26.4961C16.9518 26.4961 16.737 26.431 16.4766 26.3008L1.24219 18.4492C0.916667 18.2799 0.682292 18.0651 0.539062 17.8047C0.408854 17.5443 0.34375 17.1471 0.34375 16.6133C0.34375 16.0794 0.408854 15.6823 0.539062 15.4219C0.682292 15.1615 0.916667 14.9466 1.24219 14.7773L16.4766 6.92578ZM282.57 14.7773C282.896 14.9466 283.124 15.1615 283.254 15.4219C283.397 15.6823 283.469 16.0794 283.469 16.6133C283.469 17.1471 283.397 17.5443 283.254 17.8047C283.124 18.0651 282.896 18.2799 282.57 18.4492L267.336 26.3008C267.076 26.431 266.861 26.4961 266.691 26.4961C266.431 26.4961 266.184 26.3789 265.949 26.1445C265.715 25.9102 265.461 25.5195 265.188 24.9727C264.849 24.2956 264.68 23.7552 264.68 23.3516C264.68 22.9089 264.914 22.5638 265.383 22.3164L276.809 16.6133L265.383 10.9102C264.914 10.6628 264.68 10.3177 264.68 9.875C264.68 9.47135 264.849 8.93099 265.188 8.25391C265.461 7.70703 265.715 7.31641 265.949 7.08203C266.184 6.84766 266.431 6.73047 266.691 6.73047C266.861 6.73047 267.076 6.79557 267.336 6.92578L282.57 14.7773Z" fill="#D44A4A"/>
<path d="M41.0859 2.375C41.5286 2.375 41.8411 2.47266 42.0234 2.66797C42.2188 2.85026 42.3164 3.16276 42.3164 3.60547V23.9961H44.0156C44.3281 23.9961 44.569 24.0482 44.7383 24.1523C44.9076 24.2565 45.0312 24.4518 45.1094 24.7383C45.2005 25.0247 45.2461 25.4414 45.2461 25.9883C45.2461 26.5352 45.2005 26.9518 45.1094 27.2383C45.0312 27.5247 44.9076 27.7266 44.7383 27.8438C44.569 27.9479 44.3281 28 44.0156 28H39.4453C39.0026 28 38.6836 27.9089 38.4883 27.7266C38.306 27.5312 38.2148 27.2122 38.2148 26.7695V25.1289C37.5378 26.1706 36.6914 26.9844 35.6758 27.5703C34.6602 28.1432 33.5339 28.4297 32.2969 28.4297C30.5911 28.4297 29.1003 28.013 27.8242 27.1797C26.5482 26.3464 25.5716 25.2135 24.8945 23.7812C24.2174 22.349 23.8789 20.7474 23.8789 18.9766C23.8789 17.2057 24.2174 15.6042 24.8945 14.1719C25.5716 12.7396 26.5482 11.6068 27.8242 10.7734C29.1003 9.9401 30.5911 9.52344 32.2969 9.52344C33.3125 9.52344 34.2565 9.72526 35.1289 10.1289C36.0013 10.5195 36.7695 11.0859 37.4336 11.8281V6.37891H34.5625C34.25 6.37891 34.0091 6.32682 33.8398 6.22266C33.6706 6.11849 33.5404 5.92318 33.4492 5.63672C33.3711 5.35026 33.332 4.93359 33.332 4.38672C33.332 3.83984 33.3711 3.42318 33.4492 3.13672C33.5404 2.85026 33.6706 2.65495 33.8398 2.55078C34.0091 2.43359 34.25 2.375 34.5625 2.375H41.0859ZM33.0781 13.957C32.2708 13.957 31.5677 14.1654 30.9688 14.582C30.3698 14.9857 29.9076 15.5651 29.582 16.3203C29.2695 17.0755 29.1133 17.9609 29.1133 18.9766C29.1133 19.9922 29.2695 20.8776 29.582 21.6328C29.9076 22.388 30.3698 22.974 30.9688 23.3906C31.5677 23.7943 32.2708 23.9961 33.0781 23.9961C33.9115 23.9961 34.6667 23.8008 35.3438 23.4102C36.0208 23.0195 36.5612 22.4466 36.9648 21.6914C37.3685 20.9232 37.5703 20.0182 37.5703 18.9766C37.5703 17.9349 37.3685 17.0365 36.9648 16.2812C36.5612 15.513 36.0208 14.9336 35.3438 14.543C34.6667 14.1523 33.9115 13.957 33.0781 13.957ZM58.2344 9.52344C60.2135 9.52344 61.8997 9.95312 63.293 10.8125C64.6862 11.6589 65.7344 12.8438 66.4375 14.3672C67.1536 15.8776 67.5117 17.6094 67.5117 19.5625C67.5117 20.0052 67.4141 20.3177 67.2188 20.5C67.0365 20.6823 66.724 20.7734 66.2812 20.7734H53.7422C53.9896 21.8151 54.5169 22.6159 55.3242 23.1758C56.1445 23.7227 57.1797 23.9961 58.4297 23.9961C60.4479 23.9961 62.6354 23.638 64.9922 22.9219C65.1484 22.8698 65.3047 22.8438 65.4609 22.8438C65.7474 22.8438 65.9948 22.974 66.2031 23.2344C66.4115 23.4948 66.6003 23.9375 66.7695 24.5625C66.8997 25.0443 66.9648 25.4544 66.9648 25.793C66.9648 26.1315 66.8867 26.3984 66.7305 26.5938C66.5872 26.776 66.3464 26.9258 66.0078 27.043C64.7057 27.4727 63.3776 27.8112 62.0234 28.0586C60.6693 28.306 59.3411 28.4297 58.0391 28.4297C56.0599 28.4297 54.3542 28.026 52.9219 27.2188C51.4896 26.4115 50.3958 25.2982 49.6406 23.8789C48.8984 22.4466 48.5273 20.8125 48.5273 18.9766C48.5273 17.1536 48.918 15.526 49.6992 14.0938C50.4805 12.6615 51.6068 11.5417 53.0781 10.7344C54.5495 9.92708 56.2682 9.52344 58.2344 9.52344ZM58.2344 13.957C55.8516 13.957 54.3802 14.9596 53.8203 16.9648H62.4141C62.1927 16.0143 61.7174 15.2786 60.9883 14.7578C60.2721 14.224 59.3542 13.957 58.2344 13.957ZM77.2578 2.375C77.7005 2.375 78.013 2.47266 78.1953 2.66797C78.3906 2.85026 78.4883 3.16276 78.4883 3.60547V11.8281C79.1523 11.0859 79.9206 10.5195 80.793 10.1289C81.6654 9.72526 82.6094 9.52344 83.625 9.52344C85.3307 9.52344 86.8216 9.9401 88.0977 10.7734C89.3737 11.6068 90.3503 12.7396 91.0273 14.1719C91.7044 15.6042 92.043 17.2057 92.043 18.9766C92.043 20.7474 91.7044 22.349 91.0273 23.7812C90.3503 25.2135 89.3737 26.3464 88.0977 27.1797C86.8216 28.013 85.3307 28.4297 83.625 28.4297C82.388 28.4297 81.2617 28.1432 80.2461 27.5703C79.2305 26.9844 78.3841 26.1706 77.707 25.1289V26.7695C77.707 27.2122 77.6094 27.5312 77.4141 27.7266C77.2318 27.9089 76.9193 28 76.4766 28H72.1016C71.7891 28 71.5482 27.9479 71.3789 27.8438C71.2096 27.7266 71.0794 27.5247 70.9883 27.2383C70.9102 26.9518 70.8711 26.5352 70.8711 25.9883C70.8711 25.4414 70.9102 25.0247 70.9883 24.7383C71.0794 24.4518 71.2096 24.2565 71.3789 24.1523C71.5482 24.0482 71.7891 23.9961 72.1016 23.9961H73.6055V6.37891H71.7109C71.3984 6.37891 71.1576 6.32682 70.9883 6.22266C70.819 6.11849 70.6888 5.92318 70.5977 5.63672C70.5195 5.35026 70.4805 4.93359 70.4805 4.38672C70.4805 3.83984 70.5195 3.42318 70.5977 3.13672C70.6888 2.85026 70.819 2.65495 70.9883 2.55078C71.1576 2.43359 71.3984 2.375 71.7109 2.375H77.2578ZM82.8438 13.957C82.0104 13.957 81.2552 14.1523 80.5781 14.543C79.901 14.9336 79.3607 15.513 78.957 16.2812C78.5534 17.0365 78.3516 17.9349 78.3516 18.9766C78.3516 20.0182 78.5534 20.9232 78.957 21.6914C79.3607 22.4466 79.901 23.0195 80.5781 23.4102C81.2552 23.8008 82.0104 23.9961 82.8438 23.9961C83.651 23.9961 84.3542 23.7943 84.9531 23.3906C85.5521 22.974 86.0078 22.388 86.3203 21.6328C86.6458 20.8776 86.8086 19.9922 86.8086 18.9766C86.8086 17.9609 86.6458 17.0755 86.3203 16.3203C86.0078 15.5651 85.5521 14.9857 84.9531 14.582C84.3542 14.1654 83.651 13.957 82.8438 13.957ZM112.863 9.95312C113.306 9.95312 113.618 10.0508 113.801 10.2461C113.996 10.4284 114.094 10.7409 114.094 11.1836V23.9961H115.598C115.91 23.9961 116.151 24.0482 116.32 24.1523C116.49 24.2565 116.613 24.4518 116.691 24.7383C116.783 25.0247 116.828 25.4414 116.828 25.9883C116.828 26.5352 116.783 26.9518 116.691 27.2383C116.613 27.5247 116.49 27.7266 116.32 27.8438C116.151 27.9479 115.91 28 115.598 28H111.223C110.78 28 110.461 27.9089 110.266 27.7266C110.083 27.5312 109.992 27.2122 109.992 26.7695V23.9375C108.273 26.9323 106.125 28.4297 103.547 28.4297C102.362 28.4297 101.32 28.1693 100.422 27.6484C99.5365 27.1276 98.8529 26.3919 98.3711 25.4414C97.8893 24.4779 97.6484 23.3516 97.6484 22.0625V13.957H96.1445C95.832 13.957 95.5911 13.9049 95.4219 13.8008C95.2526 13.6836 95.1224 13.4818 95.0312 13.1953C94.9531 12.9089 94.9141 12.4922 94.9141 11.9453C94.9141 11.3984 94.9531 10.9818 95.0312 10.6953C95.1224 10.4089 95.2526 10.2135 95.4219 10.1094C95.5911 10.0052 95.832 9.95312 96.1445 9.95312H101.301C101.743 9.95312 102.056 10.0508 102.238 10.2461C102.434 10.4284 102.531 10.7409 102.531 11.1836V20.9102C102.531 21.9258 102.707 22.694 103.059 23.2148C103.41 23.7357 103.996 23.9961 104.816 23.9961C105.572 23.9961 106.288 23.6836 106.965 23.0586C107.642 22.4206 108.182 21.5742 108.586 20.5195C109.003 19.4648 109.211 18.3385 109.211 17.1406V13.957H107.121C106.809 13.957 106.568 13.9049 106.398 13.8008C106.229 13.6836 106.099 13.4818 106.008 13.1953C105.93 12.9089 105.891 12.4922 105.891 11.9453C105.891 11.3984 105.93 10.9818 106.008 10.6953C106.099 10.4089 106.229 10.2135 106.398 10.1094C106.568 10.0052 106.809 9.95312 107.121 9.95312H112.863ZM128.234 9.52344C129.471 9.52344 130.598 9.78385 131.613 10.3047C132.629 10.8255 133.475 11.5742 134.152 12.5508V11.1836C134.152 10.7409 134.243 10.4284 134.426 10.2461C134.621 10.0508 134.94 9.95312 135.383 9.95312H139.953C140.266 9.95312 140.507 10.0117 140.676 10.1289C140.845 10.2331 140.969 10.4284 141.047 10.7148C141.138 11.0013 141.184 11.418 141.184 11.9648C141.184 12.5117 141.138 12.9284 141.047 13.2148C140.969 13.5013 140.845 13.6966 140.676 13.8008C140.507 13.9049 140.266 13.957 139.953 13.957H138.254V27.9805C138.254 30.5326 137.486 32.5052 135.949 33.8984C134.426 35.3047 132.141 36.0078 129.094 36.0078C127.974 36.0078 126.75 35.8971 125.422 35.6758C124.094 35.4674 122.824 35.1745 121.613 34.7969C120.988 34.6016 120.676 34.1523 120.676 33.4492C120.676 33.1367 120.76 32.681 120.93 32.082C121.125 31.4701 121.34 31.0273 121.574 30.7539C121.822 30.4805 122.108 30.3438 122.434 30.3438C122.603 30.3438 122.759 30.3698 122.902 30.4219C125.389 31.1901 127.388 31.5742 128.898 31.5742C130.474 31.5742 131.613 31.2422 132.316 30.5781C133.02 29.9271 133.371 28.931 133.371 27.5898V25.5977C132.707 26.3138 131.939 26.8672 131.066 27.2578C130.194 27.6484 129.25 27.8438 128.234 27.8438C126.555 27.8438 125.077 27.4531 123.801 26.6719C122.525 25.8776 121.542 24.7904 120.852 23.4102C120.161 22.0169 119.816 20.4414 119.816 18.6836C119.816 16.9258 120.161 15.3568 120.852 13.9766C121.542 12.5833 122.525 11.4961 123.801 10.7148C125.077 9.92057 126.555 9.52344 128.234 9.52344ZM129.016 13.957C127.805 13.957 126.841 14.3737 126.125 15.207C125.409 16.0273 125.051 17.1862 125.051 18.6836C125.051 20.181 125.409 21.3464 126.125 22.1797C126.841 23 127.805 23.4102 129.016 23.4102C129.849 23.4102 130.604 23.2344 131.281 22.8828C131.971 22.5182 132.512 21.9844 132.902 21.2812C133.306 20.5651 133.508 19.6992 133.508 18.6836C133.508 17.668 133.306 16.8086 132.902 16.1055C132.512 15.3893 131.971 14.8555 131.281 14.5039C130.604 14.1393 129.849 13.957 129.016 13.957ZM160.012 9.52344C161.118 9.52344 162.16 9.88802 163.137 10.6172C163.71 11.0339 163.996 11.5807 163.996 12.2578C163.996 12.6875 163.879 13.1953 163.645 13.7812C163.41 14.3672 163.143 14.8099 162.844 15.1094C162.557 15.4089 162.251 15.5586 161.926 15.5586C161.743 15.5586 161.548 15.5065 161.34 15.4023C160.611 14.9987 159.855 14.7969 159.074 14.7969C158.072 14.7969 157.134 15.1159 156.262 15.7539C155.389 16.3919 154.686 17.2708 154.152 18.3906C153.632 19.5104 153.371 20.7604 153.371 22.1406V23.9961H158.977C159.289 23.9961 159.53 24.0547 159.699 24.1719C159.868 24.276 159.992 24.4714 160.07 24.7578C160.161 25.0443 160.207 25.4609 160.207 26.0078C160.207 26.5547 160.161 26.9714 160.07 27.2578C159.992 27.5443 159.868 27.7396 159.699 27.8438C159.53 27.9479 159.289 28 158.977 28H145.617C145.305 28 145.064 27.9479 144.895 27.8438C144.725 27.7396 144.595 27.5443 144.504 27.2578C144.426 26.9714 144.387 26.5547 144.387 26.0078C144.387 25.4609 144.426 25.0443 144.504 24.7578C144.595 24.4714 144.725 24.276 144.895 24.1719C145.064 24.0547 145.305 23.9961 145.617 23.9961H148.488V13.957H146.203C145.891 13.957 145.65 13.9049 145.48 13.8008C145.311 13.6966 145.181 13.5013 145.09 13.2148C145.012 12.9284 144.973 12.5117 144.973 11.9648C144.973 11.418 145.012 11.0013 145.09 10.7148C145.181 10.4284 145.311 10.2331 145.48 10.1289C145.65 10.0117 145.891 9.95312 146.203 9.95312H151.555C151.997 9.95312 152.31 10.0508 152.492 10.2461C152.688 10.4284 152.785 10.7409 152.785 11.1836V15.4219C153.762 13.5339 154.882 12.082 156.145 11.0664C157.421 10.0378 158.71 9.52344 160.012 9.52344ZM177.668 9.52344C180.533 9.52344 182.603 10.1419 183.879 11.3789C185.155 12.6159 185.793 14.3867 185.793 16.6914V22.3359C185.793 22.8568 185.904 23.2669 186.125 23.5664C186.346 23.8529 186.665 23.9961 187.082 23.9961H187.688C188 23.9961 188.241 24.0547 188.41 24.1719C188.579 24.276 188.703 24.4714 188.781 24.7578C188.872 25.0443 188.918 25.4609 188.918 26.0078C188.918 26.5547 188.872 26.9714 188.781 27.2578C188.703 27.5443 188.579 27.7396 188.41 27.8438C188.241 27.9479 188 28 187.688 28H185.5C184.693 28 183.977 27.8372 183.352 27.5117C182.74 27.1732 182.271 26.6458 181.945 25.9297C180.917 26.724 179.829 27.3424 178.684 27.7852C177.538 28.2148 176.359 28.4297 175.148 28.4297C173.677 28.4297 172.408 28.1823 171.34 27.6875C170.272 27.1797 169.452 26.4635 168.879 25.5391C168.319 24.6016 168.039 23.5013 168.039 22.2383C168.039 20.4154 168.684 19.0026 169.973 18C171.262 16.9974 173.065 16.4961 175.383 16.4961C177.115 16.4961 178.957 16.6914 180.91 17.082V16.5156C180.91 15.6432 180.637 14.9987 180.09 14.582C179.543 14.1654 178.579 13.957 177.199 13.957C176.431 13.957 175.572 14.0547 174.621 14.25C173.684 14.4323 172.753 14.6797 171.828 14.9922C171.607 15.0573 171.418 15.0898 171.262 15.0898C170.936 15.0898 170.643 14.9727 170.383 14.7383C170.135 14.4909 169.908 14.0807 169.699 13.5078C169.504 12.9349 169.406 12.4661 169.406 12.1016C169.406 11.4375 169.706 10.9948 170.305 10.7734C171.464 10.3568 172.694 10.0443 173.996 9.83594C175.298 9.6276 176.522 9.52344 177.668 9.52344ZM175.871 20.5195C174.96 20.5195 174.263 20.6823 173.781 21.0078C173.312 21.3333 173.078 21.8086 173.078 22.4336C173.078 23.0456 173.306 23.5143 173.762 23.8398C174.23 24.1523 174.901 24.3086 175.773 24.3086C176.672 24.3086 177.557 24.1328 178.43 23.7812C179.315 23.4167 180.142 22.9219 180.91 22.2969V21.0469C179.191 20.6953 177.512 20.5195 175.871 20.5195ZM208.527 9.52344C209.335 9.52344 209.888 9.61458 210.188 9.79688C210.487 9.97917 210.637 10.2982 210.637 10.7539V17.0234C210.637 17.4661 210.435 17.7852 210.031 17.9805C209.641 18.1628 208.983 18.2539 208.059 18.2539C207.447 18.2539 206.971 18.2148 206.633 18.1367C206.307 18.0456 206.079 17.9154 205.949 17.7461C205.819 17.5768 205.754 17.3359 205.754 17.0234C205.754 16.4766 205.617 15.9688 205.344 15.5C205.083 15.0312 204.686 14.6602 204.152 14.3867C203.632 14.1003 203 13.957 202.258 13.957C201.32 13.957 200.5 14.1654 199.797 14.582C199.094 14.9857 198.547 15.5716 198.156 16.3398C197.779 17.0951 197.59 17.974 197.59 18.9766C197.59 19.9792 197.779 20.8646 198.156 21.6328C198.547 22.388 199.094 22.974 199.797 23.3906C200.5 23.7943 201.32 23.9961 202.258 23.9961C203.26 23.9961 204.283 23.8333 205.324 23.5078C206.379 23.1823 207.401 22.7331 208.391 22.1602C208.625 22.0299 208.84 21.9648 209.035 21.9648C209.621 21.9648 210.135 22.4792 210.578 23.5078C210.812 24.0677 210.93 24.543 210.93 24.9336C210.93 25.5195 210.65 25.9688 210.09 26.2812C208.879 26.9583 207.603 27.4857 206.262 27.8633C204.934 28.2409 203.599 28.4297 202.258 28.4297C200.279 28.4297 198.54 28.026 197.043 27.2188C195.546 26.4115 194.387 25.2917 193.566 23.8594C192.759 22.4271 192.355 20.7995 192.355 18.9766C192.355 17.1536 192.766 15.526 193.586 14.0938C194.406 12.6484 195.52 11.5286 196.926 10.7344C198.345 9.92708 199.927 9.52344 201.672 9.52344C203.781 9.52344 205.272 10.2852 206.145 11.8086V10.7539C206.145 10.3112 206.333 9.9987 206.711 9.81641C207.089 9.62109 207.694 9.52344 208.527 9.52344ZM226.125 9.52344C228.104 9.52344 229.79 9.95312 231.184 10.8125C232.577 11.6589 233.625 12.8438 234.328 14.3672C235.044 15.8776 235.402 17.6094 235.402 19.5625C235.402 20.0052 235.305 20.3177 235.109 20.5C234.927 20.6823 234.615 20.7734 234.172 20.7734H221.633C221.88 21.8151 222.408 22.6159 223.215 23.1758C224.035 23.7227 225.07 23.9961 226.32 23.9961C228.339 23.9961 230.526 23.638 232.883 22.9219C233.039 22.8698 233.195 22.8438 233.352 22.8438C233.638 22.8438 233.885 22.974 234.094 23.2344C234.302 23.4948 234.491 23.9375 234.66 24.5625C234.79 25.0443 234.855 25.4544 234.855 25.793C234.855 26.1315 234.777 26.3984 234.621 26.5938C234.478 26.776 234.237 26.9258 233.898 27.043C232.596 27.4727 231.268 27.8112 229.914 28.0586C228.56 28.306 227.232 28.4297 225.93 28.4297C223.951 28.4297 222.245 28.026 220.812 27.2188C219.38 26.4115 218.286 25.2982 217.531 23.8789C216.789 22.4466 216.418 20.8125 216.418 18.9766C216.418 17.1536 216.809 15.526 217.59 14.0938C218.371 12.6615 219.497 11.5417 220.969 10.7344C222.44 9.92708 224.159 9.52344 226.125 9.52344ZM226.125 13.957C223.742 13.957 222.271 14.9596 221.711 16.9648H230.305C230.083 16.0143 229.608 15.2786 228.879 14.7578C228.163 14.224 227.245 13.957 226.125 13.957Z" fill="white"/>
<path d="M255.637 0.675781C256.509 0.675781 257.238 0.81901 257.824 1.10547C258.423 1.39193 258.723 1.75651 258.723 2.19922C258.723 2.34245 258.697 2.47266 258.645 2.58984L245.637 34.1914C245.402 34.7513 244.868 35.0312 244.035 35.0312C243.163 35.0312 242.427 34.888 241.828 34.6016C241.242 34.3151 240.949 33.9505 240.949 33.5078C240.949 33.3646 240.975 33.2344 241.027 33.1172L254.035 1.51562C254.27 0.955729 254.803 0.675781 255.637 0.675781Z" fill="#4854AF"/>
</svg>
