<svg width="260" height="36" viewBox="0 0 260 36" fill="none" xmlns="http://www.w3.org/2000/svg">
<path d="M16.4766 6.92578C16.737 6.79557 16.9518 6.73047 17.1211 6.73047C17.3815 6.73047 17.6289 6.84766 17.8633 7.08203C18.0977 7.31641 18.3516 7.70703 18.625 8.25391C18.9635 8.93099 19.1328 9.47135 19.1328 9.875C19.1328 10.3177 18.8984 10.6628 18.4297 10.9102L7.00391 16.6133L18.4297 22.3164C18.8984 22.5638 19.1328 22.9089 19.1328 23.3516C19.1328 23.7552 18.9635 24.2956 18.625 24.9727C18.3516 25.5195 18.0977 25.9102 17.8633 26.1445C17.6289 26.3789 17.3815 26.4961 17.1211 26.4961C16.9518 26.4961 16.737 26.431 16.4766 26.3008L1.24219 18.4492C0.916667 18.2799 0.682292 18.0651 0.539062 17.8047C0.408854 17.5443 0.34375 17.1471 0.34375 16.6133C0.34375 16.0794 0.408854 15.6823 0.539062 15.4219C0.682292 15.1615 0.916667 14.9466 1.24219 14.7773L16.4766 6.92578ZM258.586 14.7773C258.911 14.9466 259.139 15.1615 259.27 15.4219C259.413 15.6823 259.484 16.0794 259.484 16.6133C259.484 17.1471 259.413 17.5443 259.27 17.8047C259.139 18.0651 258.911 18.2799 258.586 18.4492L243.352 26.3008C243.091 26.431 242.876 26.4961 242.707 26.4961C242.447 26.4961 242.199 26.3789 241.965 26.1445C241.73 25.9102 241.477 25.5195 241.203 24.9727C240.865 24.2956 240.695 23.7552 240.695 23.3516C240.695 22.9089 240.93 22.5638 241.398 22.3164L252.824 16.6133L241.398 10.9102C240.93 10.6628 240.695 10.3177 240.695 9.875C240.695 9.47135 240.865 8.93099 241.203 8.25391C241.477 7.70703 241.73 7.31641 241.965 7.08203C242.199 6.84766 242.447 6.73047 242.707 6.73047C242.876 6.73047 243.091 6.79557 243.352 6.92578L258.586 14.7773Z" fill="#2B3372"/>
<path d="M34.6797 4.81641C37.4271 4.81641 39.5365 5.42188 41.0078 6.63281C42.4792 7.84375 43.2148 9.60156 43.2148 11.9062C43.2148 14.9141 41.6003 16.8086 38.3711 17.5898C39.0742 17.8633 39.6341 18.2669 40.0508 18.8008C40.3242 19.1523 40.5716 19.5234 40.793 19.9141C41.0273 20.2917 41.2943 20.7734 41.5938 21.3594C41.9062 21.9844 42.1471 22.4336 42.3164 22.707C42.5768 23.1367 42.8372 23.4622 43.0977 23.6836C43.3581 23.8919 43.651 23.9961 43.9766 23.9961H44.3477C44.6602 23.9961 44.901 24.0547 45.0703 24.1719C45.2396 24.276 45.3633 24.4714 45.4414 24.7578C45.5326 25.0443 45.5781 25.4609 45.5781 26.0078C45.5781 26.5547 45.5326 26.9714 45.4414 27.2578C45.3633 27.5443 45.2396 27.7396 45.0703 27.8438C44.901 27.9479 44.6602 28 44.3477 28H42.4531C41.4245 28 40.5911 27.7917 39.9531 27.375C39.3151 26.9583 38.7292 26.2617 38.1953 25.2852C37.9349 24.8294 37.6224 24.2044 37.2578 23.4102C36.9974 22.8112 36.75 22.2969 36.5156 21.8672C36.2812 21.4245 36.0208 20.9948 35.7344 20.5781C35.3307 20.0182 34.8815 19.6146 34.3867 19.3672C33.8919 19.1198 33.2995 18.9961 32.6094 18.9961H31.3594V23.9961H33.2539C33.5664 23.9961 33.8073 24.0547 33.9766 24.1719C34.1458 24.276 34.2695 24.4714 34.3477 24.7578C34.4388 25.0443 34.4844 25.4609 34.4844 26.0078C34.4844 26.5547 34.4388 26.9714 34.3477 27.2578C34.2695 27.5443 34.1458 27.7396 33.9766 27.8438C33.8073 27.9479 33.5664 28 33.2539 28H24.3867C24.0742 28 23.8333 27.9479 23.6641 27.8438C23.4948 27.7396 23.3646 27.5443 23.2734 27.2578C23.1953 26.9714 23.1562 26.5547 23.1562 26.0078C23.1562 25.4609 23.1953 25.0443 23.2734 24.7578C23.3646 24.4714 23.4948 24.276 23.6641 24.1719C23.8333 24.0547 24.0742 23.9961 24.3867 23.9961H26.4766V8.82031H24.3867C24.0742 8.82031 23.8333 8.76823 23.6641 8.66406C23.4948 8.5599 23.3646 8.36458 23.2734 8.07812C23.1953 7.79167 23.1562 7.375 23.1562 6.82812C23.1562 6.28125 23.1953 5.86458 23.2734 5.57812C23.3646 5.29167 23.4948 5.09635 23.6641 4.99219C23.8333 4.875 24.0742 4.81641 24.3867 4.81641H34.6797ZM31.3594 14.7969H34.2695C35.5977 14.7969 36.5807 14.5625 37.2188 14.0938C37.8568 13.612 38.1758 12.8828 38.1758 11.9062C38.1758 10.9297 37.8568 10.207 37.2188 9.73828C36.5807 9.25651 35.5977 9.01562 34.2695 9.01562H31.3594V14.7969ZM58.2344 9.52344C60.2135 9.52344 61.8997 9.95312 63.293 10.8125C64.6862 11.6589 65.7344 12.8438 66.4375 14.3672C67.1536 15.8776 67.5117 17.6094 67.5117 19.5625C67.5117 20.0052 67.4141 20.3177 67.2188 20.5C67.0365 20.6823 66.724 20.7734 66.2812 20.7734H53.7422C53.9896 21.8151 54.5169 22.6159 55.3242 23.1758C56.1445 23.7227 57.1797 23.9961 58.4297 23.9961C60.4479 23.9961 62.6354 23.638 64.9922 22.9219C65.1484 22.8698 65.3047 22.8438 65.4609 22.8438C65.7474 22.8438 65.9948 22.974 66.2031 23.2344C66.4115 23.4948 66.6003 23.9375 66.7695 24.5625C66.8997 25.0443 66.9648 25.4544 66.9648 25.793C66.9648 26.1315 66.8867 26.3984 66.7305 26.5938C66.5872 26.776 66.3464 26.9258 66.0078 27.043C64.7057 27.4727 63.3776 27.8112 62.0234 28.0586C60.6693 28.306 59.3411 28.4297 58.0391 28.4297C56.0599 28.4297 54.3542 28.026 52.9219 27.2188C51.4896 26.4115 50.3958 25.2982 49.6406 23.8789C48.8984 22.4466 48.5273 20.8125 48.5273 18.9766C48.5273 17.1536 48.918 15.526 49.6992 14.0938C50.4805 12.6615 51.6068 11.5417 53.0781 10.7344C54.5495 9.92708 56.2682 9.52344 58.2344 9.52344ZM58.2344 13.957C55.8516 13.957 54.3802 14.9596 53.8203 16.9648H62.4141C62.1927 16.0143 61.7174 15.2786 60.9883 14.7578C60.2721 14.224 59.3542 13.957 58.2344 13.957ZM88.6055 9.52344C89.4128 9.52344 89.9661 9.61458 90.2656 9.79688C90.5651 9.97917 90.7148 10.2982 90.7148 10.7539V17.0234C90.7148 17.4661 90.513 17.7852 90.1094 17.9805C89.7188 18.1628 89.0612 18.2539 88.1367 18.2539C87.5247 18.2539 87.0495 18.2148 86.7109 18.1367C86.3854 18.0456 86.1576 17.9154 86.0273 17.7461C85.8971 17.5768 85.832 17.3359 85.832 17.0234C85.832 16.4766 85.6953 15.9688 85.4219 15.5C85.1615 15.0312 84.7643 14.6602 84.2305 14.3867C83.7096 14.1003 83.0781 13.957 82.3359 13.957C81.3984 13.957 80.5781 14.1654 79.875 14.582C79.1719 14.9857 78.625 15.5716 78.2344 16.3398C77.8568 17.0951 77.668 17.974 77.668 18.9766C77.668 19.9792 77.8568 20.8646 78.2344 21.6328C78.625 22.388 79.1719 22.974 79.875 23.3906C80.5781 23.7943 81.3984 23.9961 82.3359 23.9961C83.3385 23.9961 84.3607 23.8333 85.4023 23.5078C86.457 23.1823 87.4792 22.7331 88.4688 22.1602C88.7031 22.0299 88.918 21.9648 89.1133 21.9648C89.6992 21.9648 90.2135 22.4792 90.6562 23.5078C90.8906 24.0677 91.0078 24.543 91.0078 24.9336C91.0078 25.5195 90.7279 25.9688 90.168 26.2812C88.957 26.9583 87.681 27.4857 86.3398 27.8633C85.0117 28.2409 83.6771 28.4297 82.3359 28.4297C80.3568 28.4297 78.6185 28.026 77.1211 27.2188C75.6237 26.4115 74.4648 25.2917 73.6445 23.8594C72.8372 22.4271 72.4336 20.7995 72.4336 18.9766C72.4336 17.1536 72.8438 15.526 73.6641 14.0938C74.4844 12.6484 75.5977 11.5286 77.0039 10.7344C78.4232 9.92708 80.0052 9.52344 81.75 9.52344C83.8594 9.52344 85.3503 10.2852 86.2227 11.8086V10.7539C86.2227 10.3112 86.4115 9.9987 86.7891 9.81641C87.1667 9.62109 87.7721 9.52344 88.6055 9.52344ZM112.863 9.95312C113.306 9.95312 113.618 10.0508 113.801 10.2461C113.996 10.4284 114.094 10.7409 114.094 11.1836V23.9961H115.598C115.91 23.9961 116.151 24.0482 116.32 24.1523C116.49 24.2565 116.613 24.4518 116.691 24.7383C116.783 25.0247 116.828 25.4414 116.828 25.9883C116.828 26.5352 116.783 26.9518 116.691 27.2383C116.613 27.5247 116.49 27.7266 116.32 27.8438C116.151 27.9479 115.91 28 115.598 28H111.223C110.78 28 110.461 27.9089 110.266 27.7266C110.083 27.5312 109.992 27.2122 109.992 26.7695V23.9375C108.273 26.9323 106.125 28.4297 103.547 28.4297C102.362 28.4297 101.32 28.1693 100.422 27.6484C99.5365 27.1276 98.8529 26.3919 98.3711 25.4414C97.8893 24.4779 97.6484 23.3516 97.6484 22.0625V13.957H96.1445C95.832 13.957 95.5911 13.9049 95.4219 13.8008C95.2526 13.6836 95.1224 13.4818 95.0312 13.1953C94.9531 12.9089 94.9141 12.4922 94.9141 11.9453C94.9141 11.3984 94.9531 10.9818 95.0312 10.6953C95.1224 10.4089 95.2526 10.2135 95.4219 10.1094C95.5911 10.0052 95.832 9.95312 96.1445 9.95312H101.301C101.743 9.95312 102.056 10.0508 102.238 10.2461C102.434 10.4284 102.531 10.7409 102.531 11.1836V20.9102C102.531 21.9258 102.707 22.694 103.059 23.2148C103.41 23.7357 103.996 23.9961 104.816 23.9961C105.572 23.9961 106.288 23.6836 106.965 23.0586C107.642 22.4206 108.182 21.5742 108.586 20.5195C109.003 19.4648 109.211 18.3385 109.211 17.1406V13.957H107.121C106.809 13.957 106.568 13.9049 106.398 13.8008C106.229 13.6836 106.099 13.4818 106.008 13.1953C105.93 12.9089 105.891 12.4922 105.891 11.9453C105.891 11.3984 105.93 10.9818 106.008 10.6953C106.099 10.4089 106.229 10.2135 106.398 10.1094C106.568 10.0052 106.809 9.95312 107.121 9.95312H112.863ZM136.027 9.52344C137.134 9.52344 138.176 9.88802 139.152 10.6172C139.725 11.0339 140.012 11.5807 140.012 12.2578C140.012 12.6875 139.895 13.1953 139.66 13.7812C139.426 14.3672 139.159 14.8099 138.859 15.1094C138.573 15.4089 138.267 15.5586 137.941 15.5586C137.759 15.5586 137.564 15.5065 137.355 15.4023C136.626 14.9987 135.871 14.7969 135.09 14.7969C134.087 14.7969 133.15 15.1159 132.277 15.7539C131.405 16.3919 130.702 17.2708 130.168 18.3906C129.647 19.5104 129.387 20.7604 129.387 22.1406V23.9961H134.992C135.305 23.9961 135.546 24.0547 135.715 24.1719C135.884 24.276 136.008 24.4714 136.086 24.7578C136.177 25.0443 136.223 25.4609 136.223 26.0078C136.223 26.5547 136.177 26.9714 136.086 27.2578C136.008 27.5443 135.884 27.7396 135.715 27.8438C135.546 27.9479 135.305 28 134.992 28H121.633C121.32 28 121.079 27.9479 120.91 27.8438C120.741 27.7396 120.611 27.5443 120.52 27.2578C120.441 26.9714 120.402 26.5547 120.402 26.0078C120.402 25.4609 120.441 25.0443 120.52 24.7578C120.611 24.4714 120.741 24.276 120.91 24.1719C121.079 24.0547 121.32 23.9961 121.633 23.9961H124.504V13.957H122.219C121.906 13.957 121.665 13.9049 121.496 13.8008C121.327 13.6966 121.197 13.5013 121.105 13.2148C121.027 12.9284 120.988 12.5117 120.988 11.9648C120.988 11.418 121.027 11.0013 121.105 10.7148C121.197 10.4284 121.327 10.2331 121.496 10.1289C121.665 10.0117 121.906 9.95312 122.219 9.95312H127.57C128.013 9.95312 128.326 10.0508 128.508 10.2461C128.703 10.4284 128.801 10.7409 128.801 11.1836V15.4219C129.777 13.5339 130.897 12.082 132.16 11.0664C133.436 10.0378 134.725 9.52344 136.027 9.52344ZM159.602 9.52344C160.435 9.52344 161.027 9.62109 161.379 9.81641C161.73 9.9987 161.906 10.3112 161.906 10.7539V14.875C161.906 15.3177 161.763 15.6367 161.477 15.832C161.203 16.0143 160.747 16.1055 160.109 16.1055C159.419 16.1055 158.944 15.9688 158.684 15.6953C157.915 14.875 157.036 14.2956 156.047 13.957C155.057 13.6055 153.911 13.4297 152.609 13.4297C151.841 13.4297 151.236 13.5664 150.793 13.8398C150.363 14.1133 150.148 14.4779 150.148 14.9336C150.148 15.4805 150.63 15.8711 151.594 16.1055C152.102 16.2357 152.967 16.3594 154.191 16.4766C155.402 16.6198 156.405 16.763 157.199 16.9062C158.007 17.0495 158.768 17.2643 159.484 17.5508C160.526 17.9805 161.34 18.5794 161.926 19.3477C162.512 20.1159 162.805 21.1315 162.805 22.3945C162.805 23.6315 162.499 24.7057 161.887 25.6172C161.288 26.5156 160.402 27.2122 159.23 27.707C158.072 28.1888 156.672 28.4297 155.031 28.4297C153.221 28.4297 151.542 27.9674 149.992 27.043V27.1992C149.992 27.6419 149.803 27.9544 149.426 28.1367C149.048 28.332 148.443 28.4297 147.609 28.4297C146.776 28.4297 146.184 28.332 145.832 28.1367C145.48 27.9544 145.305 27.6419 145.305 27.1992V22.8438C145.305 22.4141 145.454 22.1016 145.754 21.9062C146.066 21.7109 146.542 21.6133 147.18 21.6133C147.974 21.6133 148.514 21.7956 148.801 22.1602C149.452 22.9805 150.285 23.5794 151.301 23.957C152.316 24.3346 153.43 24.5234 154.641 24.5234C156.724 24.5234 157.766 23.9831 157.766 22.9023C157.766 22.5768 157.616 22.3164 157.316 22.1211C157.03 21.9258 156.6 21.763 156.027 21.6328C155.702 21.5677 154.947 21.4505 153.762 21.2812C152.447 21.125 151.314 20.9492 150.363 20.7539C149.426 20.5456 148.573 20.2266 147.805 19.7969C146.008 18.8073 145.109 17.2448 145.109 15.1094C145.109 13.9766 145.415 12.987 146.027 12.1406C146.639 11.2943 147.479 10.6497 148.547 10.207C149.628 9.7513 150.839 9.52344 152.18 9.52344C154.146 9.52344 155.891 9.9987 157.414 10.9492V10.7539C157.414 10.3112 157.57 9.9987 157.883 9.81641C158.208 9.62109 158.781 9.52344 159.602 9.52344ZM177.883 9.52344C179.862 9.52344 181.594 9.92708 183.078 10.7344C184.562 11.5417 185.702 12.6615 186.496 14.0938C187.303 15.526 187.707 17.1536 187.707 18.9766C187.707 20.7995 187.303 22.4271 186.496 23.8594C185.702 25.2917 184.562 26.4115 183.078 27.2188C181.594 28.026 179.862 28.4297 177.883 28.4297C175.904 28.4297 174.172 28.026 172.688 27.2188C171.203 26.4115 170.057 25.2917 169.25 23.8594C168.456 22.4271 168.059 20.7995 168.059 18.9766C168.059 17.1536 168.456 15.526 169.25 14.0938C170.057 12.6615 171.203 11.5417 172.688 10.7344C174.172 9.92708 175.904 9.52344 177.883 9.52344ZM177.883 13.957C176.945 13.957 176.132 14.1654 175.441 14.582C174.751 14.9857 174.217 15.5651 173.84 16.3203C173.475 17.0755 173.293 17.9609 173.293 18.9766C173.293 19.9922 173.475 20.8776 173.84 21.6328C174.217 22.388 174.751 22.974 175.441 23.3906C176.132 23.7943 176.945 23.9961 177.883 23.9961C178.82 23.9961 179.634 23.7943 180.324 23.3906C181.014 22.974 181.542 22.388 181.906 21.6328C182.284 20.8776 182.473 19.9922 182.473 18.9766C182.473 17.9609 182.284 17.0755 181.906 16.3203C181.542 15.5651 181.014 14.9857 180.324 14.582C179.634 14.1654 178.82 13.957 177.883 13.957ZM207.57 9.52344C208.404 9.52344 208.996 9.62109 209.348 9.81641C209.699 9.9987 209.875 10.3112 209.875 10.7539V14.875C209.875 15.3177 209.732 15.6367 209.445 15.832C209.172 16.0143 208.716 16.1055 208.078 16.1055C207.388 16.1055 206.913 15.9688 206.652 15.6953C205.884 14.875 205.005 14.2956 204.016 13.957C203.026 13.6055 201.88 13.4297 200.578 13.4297C199.81 13.4297 199.204 13.5664 198.762 13.8398C198.332 14.1133 198.117 14.4779 198.117 14.9336C198.117 15.4805 198.599 15.8711 199.562 16.1055C200.07 16.2357 200.936 16.3594 202.16 16.4766C203.371 16.6198 204.374 16.763 205.168 16.9062C205.975 17.0495 206.737 17.2643 207.453 17.5508C208.495 17.9805 209.309 18.5794 209.895 19.3477C210.48 20.1159 210.773 21.1315 210.773 22.3945C210.773 23.6315 210.467 24.7057 209.855 25.6172C209.257 26.5156 208.371 27.2122 207.199 27.707C206.04 28.1888 204.641 28.4297 203 28.4297C201.19 28.4297 199.51 27.9674 197.961 27.043V27.1992C197.961 27.6419 197.772 27.9544 197.395 28.1367C197.017 28.332 196.411 28.4297 195.578 28.4297C194.745 28.4297 194.152 28.332 193.801 28.1367C193.449 27.9544 193.273 27.6419 193.273 27.1992V22.8438C193.273 22.4141 193.423 22.1016 193.723 21.9062C194.035 21.7109 194.51 21.6133 195.148 21.6133C195.943 21.6133 196.483 21.7956 196.77 22.1602C197.421 22.9805 198.254 23.5794 199.27 23.957C200.285 24.3346 201.398 24.5234 202.609 24.5234C204.693 24.5234 205.734 23.9831 205.734 22.9023C205.734 22.5768 205.585 22.3164 205.285 22.1211C204.999 21.9258 204.569 21.763 203.996 21.6328C203.671 21.5677 202.915 21.4505 201.73 21.2812C200.415 21.125 199.283 20.9492 198.332 20.7539C197.395 20.5456 196.542 20.2266 195.773 19.7969C193.977 18.8073 193.078 17.2448 193.078 15.1094C193.078 13.9766 193.384 12.987 193.996 12.1406C194.608 11.2943 195.448 10.6497 196.516 10.207C197.596 9.7513 198.807 9.52344 200.148 9.52344C202.115 9.52344 203.859 9.9987 205.383 10.9492V10.7539C205.383 10.3112 205.539 9.9987 205.852 9.81641C206.177 9.62109 206.75 9.52344 207.57 9.52344Z" fill="black"/>
<path d="M231.652 0.675781C232.525 0.675781 233.254 0.81901 233.84 1.10547C234.439 1.39193 234.738 1.75651 234.738 2.19922C234.738 2.34245 234.712 2.47266 234.66 2.58984L221.652 34.1914C221.418 34.7513 220.884 35.0312 220.051 35.0312C219.178 35.0312 218.443 34.888 217.844 34.6016C217.258 34.3151 216.965 33.9505 216.965 33.5078C216.965 33.3646 216.991 33.2344 217.043 33.1172L230.051 1.51562C230.285 0.955729 230.819 0.675781 231.652 0.675781Z" fill="#D44A4A"/>
</svg>
