<svg width="1026" height="83" viewBox="0 0 1026 83" fill="none" xmlns="http://www.w3.org/2000/svg">
<path d="M39.3076 15.3604C39.9326 15.0479 40.4482 14.8916 40.8545 14.8916C41.4795 14.8916 42.0732 15.1729 42.6357 15.7354C43.1982 16.2979 43.8076 17.2354 44.4639 18.5479C45.2764 20.1729 45.6826 21.4697 45.6826 22.4385C45.6826 23.501 45.1201 24.3291 43.9951 24.9229L16.5732 38.6104L43.9951 52.2979C45.1201 52.8916 45.6826 53.7197 45.6826 54.7822C45.6826 55.751 45.2764 57.0479 44.4639 58.6729C43.8076 59.9854 43.1982 60.9229 42.6357 61.4854C42.0732 62.0479 41.4795 62.3291 40.8545 62.3291C40.4482 62.3291 39.9326 62.1729 39.3076 61.8604L2.74512 43.0166C1.96387 42.6104 1.40137 42.0947 1.05762 41.4697C0.745117 40.8447 0.588867 39.8916 0.588867 38.6104C0.588867 37.3291 0.745117 36.376 1.05762 35.751C1.40137 35.126 1.96387 34.6104 2.74512 34.2041L39.3076 15.3604ZM1023.31 34.2041C1024.09 34.6104 1024.64 35.126 1024.95 35.751C1025.29 36.376 1025.46 37.3291 1025.46 38.6104C1025.46 39.8916 1025.29 40.8447 1024.95 41.4697C1024.64 42.0947 1024.09 42.6104 1023.31 43.0166L986.745 61.8604C986.12 62.1729 985.604 62.3291 985.198 62.3291C984.573 62.3291 983.979 62.0479 983.417 61.4854C982.854 60.9229 982.245 59.9854 981.589 58.6729C980.776 57.0479 980.37 55.751 980.37 54.7822C980.37 53.7197 980.933 52.8916 982.058 52.2979L1009.48 38.6104L982.058 24.9229C980.933 24.3291 980.37 23.501 980.37 22.4385C980.37 21.4697 980.776 20.1729 981.589 18.5479C982.245 17.2354 982.854 16.2979 983.417 15.7354C983.979 15.1729 984.573 14.8916 985.198 14.8916C985.604 14.8916 986.12 15.0479 986.745 15.3604L1023.31 34.2041Z" fill="#D44A4A"/>
<path d="M102.448 10.2979C103.542 10.2979 104.323 10.5322 104.792 11.001C105.261 11.4697 105.495 12.251 105.495 13.3447V33.126C105.495 34.1572 105.058 34.9072 104.183 35.376C103.339 35.8447 102.026 36.0791 100.245 36.0791C98.5264 36.0791 97.3232 35.8604 96.6357 35.4229C95.9795 34.9541 95.6514 34.1885 95.6514 33.126V20.376H87.167V56.3291H97.292C98.042 56.3291 98.6201 56.4697 99.0264 56.751C99.4326 57.001 99.7295 57.4697 99.917 58.1572C100.136 58.8447 100.245 59.8447 100.245 61.1572C100.245 62.4697 100.136 63.4697 99.917 64.1572C99.7295 64.8447 99.4326 65.3135 99.0264 65.5635C98.6201 65.8135 98.042 65.9385 97.292 65.9385H65.3232C64.5732 65.9385 63.9951 65.8135 63.5889 65.5635C63.1826 65.3135 62.8701 64.8447 62.6514 64.1572C62.4639 63.4697 62.3701 62.4697 62.3701 61.1572C62.3701 59.8447 62.4639 58.8447 62.6514 58.1572C62.8701 57.4697 63.1826 57.001 63.5889 56.751C63.9951 56.4697 64.5732 56.3291 65.3232 56.3291H75.4482V20.376H66.9639V33.126C66.9639 34.1572 66.5264 34.9072 65.6514 35.376C64.8076 35.8447 63.4951 36.0791 61.7139 36.0791C59.9951 36.0791 58.792 35.8604 58.1045 35.4229C57.4482 34.9541 57.1201 34.1885 57.1201 33.126V13.3447C57.1201 12.251 57.3545 11.4697 57.8232 11.001C58.3232 10.5322 59.1045 10.2979 60.167 10.2979H102.448ZM153.542 21.5947C156.198 21.5947 158.698 22.4697 161.042 24.2197C162.417 25.2197 163.104 26.5322 163.104 28.1572C163.104 29.1885 162.823 30.4072 162.261 31.8135C161.698 33.2197 161.058 34.2822 160.339 35.001C159.651 35.7197 158.917 36.0791 158.136 36.0791C157.698 36.0791 157.229 35.9541 156.729 35.7041C154.979 34.7354 153.167 34.251 151.292 34.251C148.886 34.251 146.636 35.0166 144.542 36.5479C142.448 38.0791 140.761 40.1885 139.479 42.876C138.229 45.5635 137.604 48.5635 137.604 51.876V56.3291H151.058C151.808 56.3291 152.386 56.4697 152.792 56.751C153.198 57.001 153.495 57.4697 153.683 58.1572C153.901 58.8447 154.011 59.8447 154.011 61.1572C154.011 62.4697 153.901 63.4697 153.683 64.1572C153.495 64.8447 153.198 65.3135 152.792 65.5635C152.386 65.8135 151.808 65.9385 151.058 65.9385H118.995C118.245 65.9385 117.667 65.8135 117.261 65.5635C116.854 65.3135 116.542 64.8447 116.323 64.1572C116.136 63.4697 116.042 62.4697 116.042 61.1572C116.042 59.8447 116.136 58.8447 116.323 58.1572C116.542 57.4697 116.854 57.001 117.261 56.751C117.667 56.4697 118.245 56.3291 118.995 56.3291H125.886V32.2354H120.401C119.651 32.2354 119.073 32.1104 118.667 31.8604C118.261 31.6104 117.948 31.1416 117.729 30.4541C117.542 29.7666 117.448 28.7666 117.448 27.4541C117.448 26.1416 117.542 25.1416 117.729 24.4541C117.948 23.7666 118.261 23.2979 118.667 23.0479C119.073 22.7666 119.651 22.626 120.401 22.626H133.245C134.308 22.626 135.058 22.8604 135.495 23.3291C135.964 23.7666 136.198 24.5166 136.198 25.5791V35.751C138.542 31.2197 141.229 27.7354 144.261 25.2979C147.323 22.8291 150.417 21.5947 153.542 21.5947ZM199.995 22.626C201.058 22.626 201.808 22.8604 202.245 23.3291C202.714 23.7666 202.948 24.5166 202.948 25.5791V56.3291H216.12C216.87 56.3291 217.448 56.4697 217.854 56.751C218.261 57.001 218.558 57.4697 218.745 58.1572C218.964 58.8447 219.073 59.8447 219.073 61.1572C219.073 62.4697 218.964 63.4697 218.745 64.1572C218.558 64.8447 218.261 65.3135 217.854 65.5635C217.448 65.8135 216.87 65.9385 216.12 65.9385H178.433C177.683 65.9385 177.104 65.8135 176.698 65.5635C176.292 65.3135 175.979 64.8447 175.761 64.1572C175.573 63.4697 175.479 62.4697 175.479 61.1572C175.479 59.8447 175.573 58.8447 175.761 58.1572C175.979 57.4697 176.292 57.001 176.698 56.751C177.104 56.4697 177.683 56.3291 178.433 56.3291H191.229V32.2354H181.245C180.495 32.2354 179.917 32.1104 179.511 31.8604C179.104 31.6104 178.792 31.1416 178.573 30.4541C178.386 29.7666 178.292 28.7666 178.292 27.4541C178.292 26.1416 178.386 25.1416 178.573 24.4541C178.792 23.7666 179.104 23.2979 179.511 23.0479C179.917 22.7666 180.495 22.626 181.245 22.626H199.995ZM196.948 2.04785C199.167 2.04785 200.714 2.28223 201.589 2.75098C202.495 3.18848 202.948 3.93848 202.948 5.00098V12.6885C202.948 13.751 202.526 14.5166 201.683 14.9854C200.87 15.4229 199.37 15.6416 197.183 15.6416C194.995 15.6416 193.448 15.4229 192.542 14.9854C191.667 14.5166 191.229 13.751 191.229 12.6885V5.00098C191.229 3.90723 191.636 3.1416 192.448 2.7041C193.261 2.2666 194.761 2.04785 196.948 2.04785ZM257.089 4.43848C258.151 4.43848 258.901 4.67285 259.339 5.1416C259.808 5.5791 260.042 6.3291 260.042 7.3916V56.3291H273.214C273.964 56.3291 274.542 56.4697 274.948 56.751C275.354 57.001 275.651 57.4697 275.839 58.1572C276.058 58.8447 276.167 59.8447 276.167 61.1572C276.167 62.4697 276.058 63.4697 275.839 64.1572C275.651 64.8447 275.354 65.3135 274.948 65.5635C274.542 65.8135 273.964 65.9385 273.214 65.9385H235.526C234.776 65.9385 234.198 65.8135 233.792 65.5635C233.386 65.3135 233.073 64.8447 232.854 64.1572C232.667 63.4697 232.573 62.4697 232.573 61.1572C232.573 59.8447 232.667 58.8447 232.854 58.1572C233.073 57.4697 233.386 57.001 233.792 56.751C234.198 56.4697 234.776 56.3291 235.526 56.3291H248.323V14.0479H237.401C236.651 14.0479 236.073 13.9229 235.667 13.6729C235.261 13.4229 234.948 12.9541 234.729 12.2666C234.542 11.5791 234.448 10.5791 234.448 9.2666C234.448 7.9541 234.542 6.9541 234.729 6.2666C234.948 5.5791 235.261 5.11035 235.667 4.86035C236.073 4.5791 236.651 4.43848 237.401 4.43848H257.089ZM301.245 4.43848C302.308 4.43848 303.058 4.67285 303.495 5.1416C303.964 5.5791 304.198 6.3291 304.198 7.3916V30.1729C307.948 24.4541 312.479 21.5947 317.792 21.5947C320.636 21.5947 323.12 22.2197 325.245 23.4697C327.401 24.7197 329.058 26.501 330.214 28.8135C331.37 31.0947 331.948 33.7822 331.948 36.876V56.3291H335.558C336.308 56.3291 336.886 56.4697 337.292 56.751C337.698 57.001 337.995 57.4697 338.183 58.1572C338.401 58.8447 338.511 59.8447 338.511 61.1572C338.511 62.4697 338.401 63.4697 338.183 64.1572C337.995 64.8447 337.698 65.3135 337.292 65.5635C336.886 65.8135 336.308 65.9385 335.558 65.9385H318.026C317.276 65.9385 316.698 65.8135 316.292 65.5635C315.886 65.3135 315.573 64.8447 315.354 64.1572C315.167 63.4697 315.073 62.4697 315.073 61.1572C315.073 59.8447 315.167 58.8447 315.354 58.1572C315.573 57.4697 315.886 57.001 316.292 56.751C316.698 56.4697 317.276 56.3291 318.026 56.3291H320.229V39.6416C320.229 37.2041 319.808 35.3604 318.964 34.1104C318.12 32.8604 316.714 32.2354 314.745 32.2354C312.933 32.2354 311.214 33.001 309.589 34.5322C307.964 36.0322 306.651 38.0479 305.651 40.5791C304.683 43.1104 304.198 45.8135 304.198 48.6885V56.3291H306.401C307.151 56.3291 307.729 56.4697 308.136 56.751C308.542 57.001 308.839 57.4697 309.026 58.1572C309.245 58.8447 309.354 59.8447 309.354 61.1572C309.354 62.4697 309.245 63.4697 309.026 64.1572C308.839 64.8447 308.542 65.3135 308.136 65.5635C307.729 65.8135 307.151 65.9385 306.401 65.9385H288.87C288.12 65.9385 287.542 65.8135 287.136 65.5635C286.729 65.3135 286.417 64.8447 286.198 64.1572C286.011 63.4697 285.917 62.4697 285.917 61.1572C285.917 59.8447 286.011 58.8447 286.198 58.1572C286.417 57.4697 286.729 57.001 287.136 56.751C287.542 56.4697 288.12 56.3291 288.87 56.3291H292.479V14.0479H287.933C287.183 14.0479 286.604 13.9229 286.198 13.6729C285.792 13.4229 285.479 12.9541 285.261 12.2666C285.073 11.5791 284.979 10.5791 284.979 9.2666C284.979 7.9541 285.073 6.9541 285.261 6.2666C285.479 5.5791 285.792 5.11035 286.198 4.86035C286.604 4.5791 287.183 4.43848 287.933 4.43848H301.245ZM368.604 21.5947C375.479 21.5947 380.448 23.0791 383.511 26.0479C386.573 29.0166 388.104 33.2666 388.104 38.7979V52.3447C388.104 53.5947 388.37 54.5791 388.901 55.2979C389.433 55.9854 390.198 56.3291 391.198 56.3291H392.651C393.401 56.3291 393.979 56.4697 394.386 56.751C394.792 57.001 395.089 57.4697 395.276 58.1572C395.495 58.8447 395.604 59.8447 395.604 61.1572C395.604 62.4697 395.495 63.4697 395.276 64.1572C395.089 64.8447 394.792 65.3135 394.386 65.5635C393.979 65.8135 393.401 65.9385 392.651 65.9385H387.401C385.464 65.9385 383.745 65.5479 382.245 64.7666C380.776 63.9541 379.651 62.6885 378.87 60.9697C376.401 62.876 373.792 64.3604 371.042 65.4229C368.292 66.4541 365.464 66.9697 362.558 66.9697C359.026 66.9697 355.979 66.376 353.417 65.1885C350.854 63.9697 348.886 62.251 347.511 60.0322C346.167 57.7822 345.495 55.1416 345.495 52.1104C345.495 47.7354 347.042 44.3447 350.136 41.9385C353.229 39.5322 357.558 38.3291 363.12 38.3291C367.276 38.3291 371.698 38.7979 376.386 39.7354V38.376C376.386 36.2822 375.729 34.7354 374.417 33.7354C373.104 32.7354 370.792 32.2354 367.479 32.2354C365.636 32.2354 363.573 32.4697 361.292 32.9385C359.042 33.376 356.808 33.9697 354.589 34.7197C354.058 34.876 353.604 34.9541 353.229 34.9541C352.448 34.9541 351.745 34.6729 351.12 34.1104C350.526 33.5166 349.979 32.5322 349.479 31.1572C349.011 29.7822 348.776 28.6572 348.776 27.7822C348.776 26.1885 349.495 25.126 350.933 24.5947C353.714 23.5947 356.667 22.8447 359.792 22.3447C362.917 21.8447 365.854 21.5947 368.604 21.5947ZM364.292 47.9854C362.104 47.9854 360.433 48.376 359.276 49.1572C358.151 49.9385 357.589 51.0791 357.589 52.5791C357.589 54.0479 358.136 55.1729 359.229 55.9541C360.354 56.7041 361.964 57.0791 364.058 57.0791C366.214 57.0791 368.339 56.6572 370.433 55.8135C372.558 54.9385 374.542 53.751 376.386 52.251V49.251C372.261 48.4072 368.229 47.9854 364.292 47.9854ZM486.12 10.2979C492.651 10.2979 497.479 11.6416 500.604 14.3291C503.761 16.9854 505.339 20.6885 505.339 25.4385C505.339 28.001 504.698 30.2041 503.417 32.0479C502.167 33.8604 500.401 35.3135 498.12 36.4072C505.276 38.3447 508.854 42.8135 508.854 49.8135C508.854 55.0947 507.12 59.1104 503.651 61.8604C500.183 64.5791 495.214 65.9385 488.745 65.9385H461.698C460.948 65.9385 460.37 65.8135 459.964 65.5635C459.558 65.3135 459.245 64.8447 459.026 64.1572C458.839 63.4697 458.745 62.4697 458.745 61.1572C458.745 59.8447 458.839 58.8447 459.026 58.1572C459.245 57.4697 459.558 57.001 459.964 56.751C460.37 56.4697 460.948 56.3291 461.698 56.3291H466.714V19.9072H461.698C460.948 19.9072 460.37 19.7822 459.964 19.5322C459.558 19.2822 459.245 18.8135 459.026 18.126C458.839 17.4385 458.745 16.4385 458.745 15.126C458.745 13.8135 458.839 12.8135 459.026 12.126C459.245 11.4385 459.558 10.9697 459.964 10.7197C460.37 10.4385 460.948 10.2979 461.698 10.2979H486.12ZM478.433 32.4697H485.089C487.901 32.4697 489.995 31.9697 491.37 30.9697C492.745 29.9697 493.433 28.4385 493.433 26.376C493.433 24.2822 492.761 22.7666 491.417 21.8291C490.104 20.8604 487.995 20.376 485.089 20.376H478.433V32.4697ZM478.433 55.8604H487.433C493.495 55.8604 496.526 53.6885 496.526 49.3447C496.526 47.0322 495.776 45.3291 494.276 44.2354C492.808 43.1104 490.526 42.5479 487.433 42.5479H478.433V55.8604ZM541.292 21.5947C548.167 21.5947 553.136 23.0791 556.198 26.0479C559.261 29.0166 560.792 33.2666 560.792 38.7979V52.3447C560.792 53.5947 561.058 54.5791 561.589 55.2979C562.12 55.9854 562.886 56.3291 563.886 56.3291H565.339C566.089 56.3291 566.667 56.4697 567.073 56.751C567.479 57.001 567.776 57.4697 567.964 58.1572C568.183 58.8447 568.292 59.8447 568.292 61.1572C568.292 62.4697 568.183 63.4697 567.964 64.1572C567.776 64.8447 567.479 65.3135 567.073 65.5635C566.667 65.8135 566.089 65.9385 565.339 65.9385H560.089C558.151 65.9385 556.433 65.5479 554.933 64.7666C553.464 63.9541 552.339 62.6885 551.558 60.9697C549.089 62.876 546.479 64.3604 543.729 65.4229C540.979 66.4541 538.151 66.9697 535.245 66.9697C531.714 66.9697 528.667 66.376 526.104 65.1885C523.542 63.9697 521.573 62.251 520.198 60.0322C518.854 57.7822 518.183 55.1416 518.183 52.1104C518.183 47.7354 519.729 44.3447 522.823 41.9385C525.917 39.5322 530.245 38.3291 535.808 38.3291C539.964 38.3291 544.386 38.7979 549.073 39.7354V38.376C549.073 36.2822 548.417 34.7354 547.104 33.7354C545.792 32.7354 543.479 32.2354 540.167 32.2354C538.323 32.2354 536.261 32.4697 533.979 32.9385C531.729 33.376 529.495 33.9697 527.276 34.7197C526.745 34.876 526.292 34.9541 525.917 34.9541C525.136 34.9541 524.433 34.6729 523.808 34.1104C523.214 33.5166 522.667 32.5322 522.167 31.1572C521.698 29.7822 521.464 28.6572 521.464 27.7822C521.464 26.1885 522.183 25.126 523.62 24.5947C526.401 23.5947 529.354 22.8447 532.479 22.3447C535.604 21.8447 538.542 21.5947 541.292 21.5947ZM536.979 47.9854C534.792 47.9854 533.12 48.376 531.964 49.1572C530.839 49.9385 530.276 51.0791 530.276 52.5791C530.276 54.0479 530.823 55.1729 531.917 55.9541C533.042 56.7041 534.651 57.0791 536.745 57.0791C538.901 57.0791 541.026 56.6572 543.12 55.8135C545.245 54.9385 547.229 53.751 549.073 52.251V49.251C544.948 48.4072 540.917 47.9854 536.979 47.9854ZM615.354 21.5947C617.292 21.5947 618.62 21.8135 619.339 22.251C620.058 22.6885 620.417 23.4541 620.417 24.5479V39.5947C620.417 40.6572 619.933 41.4229 618.964 41.8916C618.026 42.3291 616.448 42.5479 614.229 42.5479C612.761 42.5479 611.62 42.4541 610.808 42.2666C610.026 42.0479 609.479 41.7354 609.167 41.3291C608.854 40.9229 608.698 40.3447 608.698 39.5947C608.698 38.2822 608.37 37.0635 607.714 35.9385C607.089 34.8135 606.136 33.9229 604.854 33.2666C603.604 32.5791 602.089 32.2354 600.308 32.2354C598.058 32.2354 596.089 32.7354 594.401 33.7354C592.714 34.7041 591.401 36.1104 590.464 37.9541C589.558 39.7666 589.104 41.876 589.104 44.2822C589.104 46.6885 589.558 48.8135 590.464 50.6572C591.401 52.4697 592.714 53.876 594.401 54.876C596.089 55.8447 598.058 56.3291 600.308 56.3291C602.714 56.3291 605.167 55.9385 607.667 55.1572C610.198 54.376 612.651 53.2979 615.026 51.9229C615.589 51.6104 616.104 51.4541 616.573 51.4541C617.979 51.4541 619.214 52.6885 620.276 55.1572C620.839 56.501 621.12 57.6416 621.12 58.5791C621.12 59.9854 620.448 61.0635 619.104 61.8135C616.198 63.4385 613.136 64.7041 609.917 65.6104C606.729 66.5166 603.526 66.9697 600.308 66.9697C595.558 66.9697 591.386 66.001 587.792 64.0635C584.198 62.126 581.417 59.4385 579.448 56.001C577.511 52.5635 576.542 48.6572 576.542 44.2822C576.542 39.9072 577.526 36.001 579.495 32.5635C581.464 29.0947 584.136 26.4072 587.511 24.501C590.917 22.5635 594.714 21.5947 598.901 21.5947C603.964 21.5947 607.542 23.4229 609.636 27.0791V24.5479C609.636 23.4854 610.089 22.7354 610.995 22.2979C611.901 21.8291 613.354 21.5947 615.354 21.5947ZM679.995 56.3291C681.089 56.3291 681.854 56.6572 682.292 57.3135C682.729 57.9697 682.948 59.251 682.948 61.1572C682.948 62.4697 682.839 63.4697 682.62 64.1572C682.433 64.8447 682.136 65.3135 681.729 65.5635C681.323 65.8135 680.745 65.9385 679.995 65.9385H671.979C670.417 65.9385 669.198 65.3135 668.323 64.0635L656.511 47.6572L650.042 52.5791V56.3291H654.12C654.87 56.3291 655.448 56.4697 655.854 56.751C656.261 57.001 656.558 57.4697 656.745 58.1572C656.964 58.8447 657.073 59.8447 657.073 61.1572C657.073 62.4697 656.964 63.4697 656.745 64.1572C656.558 64.8447 656.261 65.3135 655.854 65.5635C655.448 65.8135 654.87 65.9385 654.12 65.9385H634.714C633.964 65.9385 633.386 65.8135 632.979 65.5635C632.573 65.3135 632.261 64.8447 632.042 64.1572C631.854 63.4697 631.761 62.4697 631.761 61.1572C631.761 59.8447 631.854 58.8447 632.042 58.1572C632.261 57.4697 632.573 57.001 632.979 56.751C633.386 56.4697 633.964 56.3291 634.714 56.3291H638.323V14.0479H633.776C633.026 14.0479 632.448 13.9229 632.042 13.6729C631.636 13.4229 631.323 12.9541 631.104 12.2666C630.917 11.5791 630.823 10.5791 630.823 9.2666C630.823 7.9541 630.917 6.9541 631.104 6.2666C631.323 5.5791 631.636 5.11035 632.042 4.86035C632.448 4.5791 633.026 4.43848 633.776 4.43848H647.089C648.151 4.43848 648.901 4.67285 649.339 5.1416C649.808 5.5791 650.042 6.3291 650.042 7.3916V41.2354L662.229 31.2979H659.886C658.792 31.2979 658.026 31.001 657.589 30.4072C657.151 29.8135 656.933 28.6729 656.933 26.9854C656.933 25.2666 657.151 24.1104 657.589 23.5166C658.026 22.9229 658.792 22.626 659.886 22.626H679.292C680.386 22.626 681.151 22.9229 681.589 23.5166C682.026 24.1104 682.245 25.2666 682.245 26.9854C682.245 28.6729 682.026 29.8135 681.589 30.4072C681.151 31.001 680.386 31.2979 679.292 31.2979H677.417L665.745 40.7197L677.136 56.3291H679.995ZM732.354 33.3604C733.104 33.3604 733.683 33.501 734.089 33.7822C734.495 34.0635 734.792 34.5791 734.979 35.3291C735.198 36.0791 735.308 37.1885 735.308 38.6572C735.308 40.126 735.198 41.2354 734.979 41.9854C734.792 42.7354 734.495 43.251 734.089 43.5322C733.683 43.7822 733.104 43.9072 732.354 43.9072H696.636C695.886 43.9072 695.308 43.7822 694.901 43.5322C694.495 43.251 694.183 42.7354 693.964 41.9854C693.776 41.2354 693.683 40.126 693.683 38.6572C693.683 37.1885 693.776 36.0791 693.964 35.3291C694.183 34.5791 694.495 34.0635 694.901 33.7822C695.308 33.501 695.886 33.3604 696.636 33.3604H732.354ZM772.714 21.5947C777.464 21.5947 781.511 22.626 784.854 24.6885C788.198 26.7197 790.714 29.5635 792.401 33.2197C794.12 36.8447 794.979 41.001 794.979 45.6885C794.979 46.751 794.745 47.501 794.276 47.9385C793.839 48.376 793.089 48.5947 792.026 48.5947H761.933C762.526 51.0947 763.792 53.0166 765.729 54.3604C767.698 55.6729 770.183 56.3291 773.183 56.3291C778.026 56.3291 783.276 55.4697 788.933 53.751C789.308 53.626 789.683 53.5635 790.058 53.5635C790.745 53.5635 791.339 53.876 791.839 54.501C792.339 55.126 792.792 56.1885 793.198 57.6885C793.511 58.8447 793.667 59.8291 793.667 60.6416C793.667 61.4541 793.479 62.0947 793.104 62.5635C792.761 63.001 792.183 63.3604 791.37 63.6416C788.245 64.6729 785.058 65.4854 781.808 66.0791C778.558 66.6729 775.37 66.9697 772.245 66.9697C767.495 66.9697 763.401 66.001 759.964 64.0635C756.526 62.126 753.901 59.4541 752.089 56.0479C750.308 52.6104 749.417 48.6885 749.417 44.2822C749.417 39.9072 750.354 36.001 752.229 32.5635C754.104 29.126 756.808 26.4385 760.339 24.501C763.87 22.5635 767.995 21.5947 772.714 21.5947ZM772.714 32.2354C766.995 32.2354 763.464 34.6416 762.12 39.4541H782.745C782.214 37.1729 781.073 35.4072 779.323 34.1572C777.604 32.876 775.401 32.2354 772.714 32.2354ZM836.323 21.5947C839.167 21.5947 841.651 22.2197 843.776 23.4697C845.933 24.7197 847.589 26.501 848.745 28.8135C849.901 31.0947 850.479 33.7822 850.479 36.876V56.3291H854.089C854.839 56.3291 855.417 56.4697 855.823 56.751C856.229 57.001 856.526 57.4697 856.714 58.1572C856.933 58.8447 857.042 59.8447 857.042 61.1572C857.042 62.4697 856.933 63.4697 856.714 64.1572C856.526 64.8447 856.229 65.3135 855.823 65.5635C855.417 65.8135 854.839 65.9385 854.089 65.9385H836.558C835.808 65.9385 835.229 65.8135 834.823 65.5635C834.417 65.3135 834.104 64.8447 833.886 64.1572C833.698 63.4697 833.604 62.4697 833.604 61.1572C833.604 59.8447 833.698 58.8447 833.886 58.1572C834.104 57.4697 834.417 57.001 834.823 56.751C835.229 56.4697 835.808 56.3291 836.558 56.3291H838.761V39.6416C838.761 37.2041 838.339 35.3604 837.495 34.1104C836.651 32.8604 835.245 32.2354 833.276 32.2354C831.464 32.2354 829.745 33.001 828.12 34.5322C826.495 36.0322 825.183 38.0479 824.183 40.5791C823.214 43.1104 822.729 45.8135 822.729 48.6885V56.3291H824.933C825.683 56.3291 826.261 56.4697 826.667 56.751C827.073 57.001 827.37 57.4697 827.558 58.1572C827.776 58.8447 827.886 59.8447 827.886 61.1572C827.886 62.4697 827.776 63.4697 827.558 64.1572C827.37 64.8447 827.073 65.3135 826.667 65.5635C826.261 65.8135 825.683 65.9385 824.933 65.9385H807.401C806.651 65.9385 806.073 65.8135 805.667 65.5635C805.261 65.3135 804.948 64.8447 804.729 64.1572C804.542 63.4697 804.448 62.4697 804.448 61.1572C804.448 59.8447 804.542 58.8447 804.729 58.1572C804.948 57.4697 805.261 57.001 805.667 56.751C806.073 56.4697 806.651 56.3291 807.401 56.3291H811.011V32.2354H806.464C805.714 32.2354 805.136 32.1104 804.729 31.8604C804.323 31.6104 804.011 31.1416 803.792 30.4541C803.604 29.7666 803.511 28.7666 803.511 27.4541C803.511 26.1416 803.604 25.1416 803.792 24.4541C804.011 23.7666 804.323 23.2979 804.729 23.0479C805.136 22.7666 805.714 22.626 806.464 22.626H817.901C818.964 22.626 819.714 22.8604 820.151 23.3291C820.62 23.7666 820.854 24.5166 820.854 25.5791V32.376C824.979 25.1885 830.136 21.5947 836.323 21.5947ZM904.245 4.43848C905.308 4.43848 906.058 4.67285 906.495 5.1416C906.964 5.5791 907.198 6.3291 907.198 7.3916V56.3291H911.276C912.026 56.3291 912.604 56.4541 913.011 56.7041C913.417 56.9541 913.714 57.4229 913.901 58.1104C914.12 58.7979 914.229 59.7979 914.229 61.1104C914.229 62.4229 914.12 63.4229 913.901 64.1104C913.714 64.7979 913.417 65.2822 913.011 65.5635C912.604 65.8135 912.026 65.9385 911.276 65.9385H900.308C899.245 65.9385 898.479 65.7197 898.011 65.2822C897.573 64.8135 897.354 64.0479 897.354 62.9854V59.0479C895.729 61.5479 893.698 63.501 891.261 64.9072C888.823 66.2822 886.12 66.9697 883.151 66.9697C879.058 66.9697 875.479 65.9697 872.417 63.9697C869.354 61.9697 867.011 59.251 865.386 55.8135C863.761 52.376 862.948 48.5322 862.948 44.2822C862.948 40.0322 863.761 36.1885 865.386 32.751C867.011 29.3135 869.354 26.5947 872.417 24.5947C875.479 22.5947 879.058 21.5947 883.151 21.5947C885.589 21.5947 887.854 22.0791 889.948 23.0479C892.042 23.9854 893.886 25.3447 895.479 27.126V14.0479H888.589C887.839 14.0479 887.261 13.9229 886.854 13.6729C886.448 13.4229 886.136 12.9541 885.917 12.2666C885.729 11.5791 885.636 10.5791 885.636 9.2666C885.636 7.9541 885.729 6.9541 885.917 6.2666C886.136 5.5791 886.448 5.11035 886.854 4.86035C887.261 4.5791 887.839 4.43848 888.589 4.43848H904.245ZM885.026 32.2354C883.089 32.2354 881.401 32.7354 879.964 33.7354C878.526 34.7041 877.417 36.0947 876.636 37.9072C875.886 39.7197 875.511 41.8447 875.511 44.2822C875.511 46.7197 875.886 48.8447 876.636 50.6572C877.417 52.4697 878.526 53.876 879.964 54.876C881.401 55.8447 883.089 56.3291 885.026 56.3291C887.026 56.3291 888.839 55.8604 890.464 54.9229C892.089 53.9854 893.386 52.6104 894.354 50.7979C895.323 48.9541 895.808 46.7822 895.808 44.2822C895.808 41.7822 895.323 39.626 894.354 37.8135C893.386 35.9697 892.089 34.5791 890.464 33.6416C888.839 32.7041 887.026 32.2354 885.026 32.2354Z" fill="#1C256D"/>
<path d="M958.667 0.360352C960.761 0.360352 962.511 0.704102 963.917 1.3916C965.354 2.0791 966.073 2.9541 966.073 4.0166C966.073 4.36035 966.011 4.67285 965.886 4.9541L934.667 80.7979C934.104 82.1416 932.823 82.8135 930.823 82.8135C928.729 82.8135 926.964 82.4697 925.526 81.7822C924.12 81.0947 923.417 80.2197 923.417 79.1572C923.417 78.8135 923.479 78.501 923.604 78.2197L954.823 2.37598C955.386 1.03223 956.667 0.360352 958.667 0.360352Z" fill="#4854AF"/>
</svg>
