<svg width="543" height="42" viewBox="0 0 543 42" fill="none" xmlns="http://www.w3.org/2000/svg">
<path d="M20.1719 7.71094C20.4844 7.55469 20.7422 7.47656 20.9453 7.47656C21.2578 7.47656 21.5547 7.61719 21.8359 7.89844C22.1172 8.17969 22.4219 8.64844 22.75 9.30469C23.1562 10.1172 23.3594 10.7656 23.3594 11.25C23.3594 11.7812 23.0781 12.1953 22.5156 12.4922L8.80469 19.3359L22.5156 26.1797C23.0781 26.4766 23.3594 26.8906 23.3594 27.4219C23.3594 27.9062 23.1562 28.5547 22.75 29.3672C22.4219 30.0234 22.1172 30.4922 21.8359 30.7734C21.5547 31.0547 21.2578 31.1953 20.9453 31.1953C20.7422 31.1953 20.4844 31.1172 20.1719 30.9609L1.89062 21.5391C1.5 21.3359 1.21875 21.0781 1.04688 20.7656C0.890625 20.4531 0.8125 19.9766 0.8125 19.3359C0.8125 18.6953 0.890625 18.2188 1.04688 17.9062C1.21875 17.5938 1.5 17.3359 1.89062 17.1328L20.1719 7.71094ZM540.953 17.1328C541.344 17.3359 541.617 17.5938 541.773 17.9062C541.945 18.2188 542.031 18.6953 542.031 19.3359C542.031 19.9766 541.945 20.4531 541.773 20.7656C541.617 21.0781 541.344 21.3359 540.953 21.5391L522.672 30.9609C522.359 31.1172 522.102 31.1953 521.898 31.1953C521.586 31.1953 521.289 31.0547 521.008 30.7734C520.727 30.4922 520.422 30.0234 520.094 29.3672C519.688 28.5547 519.484 27.9062 519.484 27.4219C519.484 26.8906 519.766 26.4766 520.328 26.1797L534.039 19.3359L520.328 12.4922C519.766 12.1953 519.484 11.7812 519.484 11.25C519.484 10.7656 519.688 10.1172 520.094 9.30469C520.422 8.64844 520.727 8.17969 521.008 7.89844C521.289 7.61719 521.586 7.47656 521.898 7.47656C522.102 7.47656 522.359 7.55469 522.672 7.71094L540.953 17.1328Z" fill="#D44A4A"/>
<path d="M51.7422 5.17969C52.2891 5.17969 52.6797 5.29688 52.9141 5.53125C53.1484 5.76562 53.2656 6.15625 53.2656 6.70312V16.5938C53.2656 17.1094 53.0469 17.4844 52.6094 17.7188C52.1875 17.9531 51.5312 18.0703 50.6406 18.0703C49.7812 18.0703 49.1797 17.9609 48.8359 17.7422C48.5078 17.5078 48.3438 17.125 48.3438 16.5938V10.2188H44.1016V28.1953H49.1641C49.5391 28.1953 49.8281 28.2656 50.0312 28.4062C50.2344 28.5312 50.3828 28.7656 50.4766 29.1094C50.5859 29.4531 50.6406 29.9531 50.6406 30.6094C50.6406 31.2656 50.5859 31.7656 50.4766 32.1094C50.3828 32.4531 50.2344 32.6875 50.0312 32.8125C49.8281 32.9375 49.5391 33 49.1641 33H33.1797C32.8047 33 32.5156 32.9375 32.3125 32.8125C32.1094 32.6875 31.9531 32.4531 31.8438 32.1094C31.75 31.7656 31.7031 31.2656 31.7031 30.6094C31.7031 29.9531 31.75 29.4531 31.8438 29.1094C31.9531 28.7656 32.1094 28.5312 32.3125 28.4062C32.5156 28.2656 32.8047 28.1953 33.1797 28.1953H38.2422V10.2188H34V16.5938C34 17.1094 33.7812 17.4844 33.3438 17.7188C32.9219 17.9531 32.2656 18.0703 31.375 18.0703C30.5156 18.0703 29.9141 17.9609 29.5703 17.7422C29.2422 17.5078 29.0781 17.125 29.0781 16.5938V6.70312C29.0781 6.15625 29.1953 5.76562 29.4297 5.53125C29.6797 5.29688 30.0703 5.17969 30.6016 5.17969H51.7422ZM77.2891 10.8281C78.6172 10.8281 79.8672 11.2656 81.0391 12.1406C81.7266 12.6406 82.0703 13.2969 82.0703 14.1094C82.0703 14.625 81.9297 15.2344 81.6484 15.9375C81.3672 16.6406 81.0469 17.1719 80.6875 17.5312C80.3438 17.8906 79.9766 18.0703 79.5859 18.0703C79.3672 18.0703 79.1328 18.0078 78.8828 17.8828C78.0078 17.3984 77.1016 17.1562 76.1641 17.1562C74.9609 17.1562 73.8359 17.5391 72.7891 18.3047C71.7422 19.0703 70.8984 20.125 70.2578 21.4688C69.6328 22.8125 69.3203 24.3125 69.3203 25.9688V28.1953H76.0469C76.4219 28.1953 76.7109 28.2656 76.9141 28.4062C77.1172 28.5312 77.2656 28.7656 77.3594 29.1094C77.4688 29.4531 77.5234 29.9531 77.5234 30.6094C77.5234 31.2656 77.4688 31.7656 77.3594 32.1094C77.2656 32.4531 77.1172 32.6875 76.9141 32.8125C76.7109 32.9375 76.4219 33 76.0469 33H60.0156C59.6406 33 59.3516 32.9375 59.1484 32.8125C58.9453 32.6875 58.7891 32.4531 58.6797 32.1094C58.5859 31.7656 58.5391 31.2656 58.5391 30.6094C58.5391 29.9531 58.5859 29.4531 58.6797 29.1094C58.7891 28.7656 58.9453 28.5312 59.1484 28.4062C59.3516 28.2656 59.6406 28.1953 60.0156 28.1953H63.4609V16.1484H60.7188C60.3438 16.1484 60.0547 16.0859 59.8516 15.9609C59.6484 15.8359 59.4922 15.6016 59.3828 15.2578C59.2891 14.9141 59.2422 14.4141 59.2422 13.7578C59.2422 13.1016 59.2891 12.6016 59.3828 12.2578C59.4922 11.9141 59.6484 11.6797 59.8516 11.5547C60.0547 11.4141 60.3438 11.3438 60.7188 11.3438H67.1406C67.6719 11.3438 68.0469 11.4609 68.2656 11.6953C68.5 11.9141 68.6172 12.2891 68.6172 12.8203V17.9062C69.7891 15.6406 71.1328 13.8984 72.6484 12.6797C74.1797 11.4453 75.7266 10.8281 77.2891 10.8281ZM100.516 11.3438C101.047 11.3438 101.422 11.4609 101.641 11.6953C101.875 11.9141 101.992 12.2891 101.992 12.8203V28.1953H108.578C108.953 28.1953 109.242 28.2656 109.445 28.4062C109.648 28.5312 109.797 28.7656 109.891 29.1094C110 29.4531 110.055 29.9531 110.055 30.6094C110.055 31.2656 110 31.7656 109.891 32.1094C109.797 32.4531 109.648 32.6875 109.445 32.8125C109.242 32.9375 108.953 33 108.578 33H89.7344C89.3594 33 89.0703 32.9375 88.8672 32.8125C88.6641 32.6875 88.5078 32.4531 88.3984 32.1094C88.3047 31.7656 88.2578 31.2656 88.2578 30.6094C88.2578 29.9531 88.3047 29.4531 88.3984 29.1094C88.5078 28.7656 88.6641 28.5312 88.8672 28.4062C89.0703 28.2656 89.3594 28.1953 89.7344 28.1953H96.1328V16.1484H91.1406C90.7656 16.1484 90.4766 16.0859 90.2734 15.9609C90.0703 15.8359 89.9141 15.6016 89.8047 15.2578C89.7109 14.9141 89.6641 14.4141 89.6641 13.7578C89.6641 13.1016 89.7109 12.6016 89.8047 12.2578C89.9141 11.9141 90.0703 11.6797 90.2734 11.5547C90.4766 11.4141 90.7656 11.3438 91.1406 11.3438H100.516ZM98.9922 1.05469C100.102 1.05469 100.875 1.17188 101.312 1.40625C101.766 1.625 101.992 2 101.992 2.53125V6.375C101.992 6.90625 101.781 7.28906 101.359 7.52344C100.953 7.74219 100.203 7.85156 99.1094 7.85156C98.0156 7.85156 97.2422 7.74219 96.7891 7.52344C96.3516 7.28906 96.1328 6.90625 96.1328 6.375V2.53125C96.1328 1.98438 96.3359 1.60156 96.7422 1.38281C97.1484 1.16406 97.8984 1.05469 98.9922 1.05469ZM129.062 2.25C129.594 2.25 129.969 2.36719 130.188 2.60156C130.422 2.82031 130.539 3.19531 130.539 3.72656V28.1953H137.125C137.5 28.1953 137.789 28.2656 137.992 28.4062C138.195 28.5312 138.344 28.7656 138.438 29.1094C138.547 29.4531 138.602 29.9531 138.602 30.6094C138.602 31.2656 138.547 31.7656 138.438 32.1094C138.344 32.4531 138.195 32.6875 137.992 32.8125C137.789 32.9375 137.5 33 137.125 33H118.281C117.906 33 117.617 32.9375 117.414 32.8125C117.211 32.6875 117.055 32.4531 116.945 32.1094C116.852 31.7656 116.805 31.2656 116.805 30.6094C116.805 29.9531 116.852 29.4531 116.945 29.1094C117.055 28.7656 117.211 28.5312 117.414 28.4062C117.617 28.2656 117.906 28.1953 118.281 28.1953H124.68V7.05469H119.219C118.844 7.05469 118.555 6.99219 118.352 6.86719C118.148 6.74219 117.992 6.50781 117.883 6.16406C117.789 5.82031 117.742 5.32031 117.742 4.66406C117.742 4.00781 117.789 3.50781 117.883 3.16406C117.992 2.82031 118.148 2.58594 118.352 2.46094C118.555 2.32031 118.844 2.25 119.219 2.25H129.062ZM151.141 2.25C151.672 2.25 152.047 2.36719 152.266 2.60156C152.5 2.82031 152.617 3.19531 152.617 3.72656V15.1172C154.492 12.2578 156.758 10.8281 159.414 10.8281C160.836 10.8281 162.078 11.1406 163.141 11.7656C164.219 12.3906 165.047 13.2812 165.625 14.4375C166.203 15.5781 166.492 16.9219 166.492 18.4688V28.1953H168.297C168.672 28.1953 168.961 28.2656 169.164 28.4062C169.367 28.5312 169.516 28.7656 169.609 29.1094C169.719 29.4531 169.773 29.9531 169.773 30.6094C169.773 31.2656 169.719 31.7656 169.609 32.1094C169.516 32.4531 169.367 32.6875 169.164 32.8125C168.961 32.9375 168.672 33 168.297 33H159.531C159.156 33 158.867 32.9375 158.664 32.8125C158.461 32.6875 158.305 32.4531 158.195 32.1094C158.102 31.7656 158.055 31.2656 158.055 30.6094C158.055 29.9531 158.102 29.4531 158.195 29.1094C158.305 28.7656 158.461 28.5312 158.664 28.4062C158.867 28.2656 159.156 28.1953 159.531 28.1953H160.633V19.8516C160.633 18.6328 160.422 17.7109 160 17.0859C159.578 16.4609 158.875 16.1484 157.891 16.1484C156.984 16.1484 156.125 16.5312 155.312 17.2969C154.5 18.0469 153.844 19.0547 153.344 20.3203C152.859 21.5859 152.617 22.9375 152.617 24.375V28.1953H153.719C154.094 28.1953 154.383 28.2656 154.586 28.4062C154.789 28.5312 154.938 28.7656 155.031 29.1094C155.141 29.4531 155.195 29.9531 155.195 30.6094C155.195 31.2656 155.141 31.7656 155.031 32.1094C154.938 32.4531 154.789 32.6875 154.586 32.8125C154.383 32.9375 154.094 33 153.719 33H144.953C144.578 33 144.289 32.9375 144.086 32.8125C143.883 32.6875 143.727 32.4531 143.617 32.1094C143.523 31.7656 143.477 31.2656 143.477 30.6094C143.477 29.9531 143.523 29.4531 143.617 29.1094C143.727 28.7656 143.883 28.5312 144.086 28.4062C144.289 28.2656 144.578 28.1953 144.953 28.1953H146.758V7.05469H144.484C144.109 7.05469 143.82 6.99219 143.617 6.86719C143.414 6.74219 143.258 6.50781 143.148 6.16406C143.055 5.82031 143.008 5.32031 143.008 4.66406C143.008 4.00781 143.055 3.50781 143.148 3.16406C143.258 2.82031 143.414 2.58594 143.617 2.46094C143.82 2.32031 144.109 2.25 144.484 2.25H151.141ZM184.82 10.8281C188.258 10.8281 190.742 11.5703 192.273 13.0547C193.805 14.5391 194.57 16.6641 194.57 19.4297V26.2031C194.57 26.8281 194.703 27.3203 194.969 27.6797C195.234 28.0234 195.617 28.1953 196.117 28.1953H196.844C197.219 28.1953 197.508 28.2656 197.711 28.4062C197.914 28.5312 198.062 28.7656 198.156 29.1094C198.266 29.4531 198.32 29.9531 198.32 30.6094C198.32 31.2656 198.266 31.7656 198.156 32.1094C198.062 32.4531 197.914 32.6875 197.711 32.8125C197.508 32.9375 197.219 33 196.844 33H194.219C193.25 33 192.391 32.8047 191.641 32.4141C190.906 32.0078 190.344 31.375 189.953 30.5156C188.719 31.4688 187.414 32.2109 186.039 32.7422C184.664 33.2578 183.25 33.5156 181.797 33.5156C180.031 33.5156 178.508 33.2188 177.227 32.625C175.945 32.0156 174.961 31.1562 174.273 30.0469C173.602 28.9219 173.266 27.6016 173.266 26.0859C173.266 23.8984 174.039 22.2031 175.586 21C177.133 19.7969 179.297 19.1953 182.078 19.1953C184.156 19.1953 186.367 19.4297 188.711 19.8984V19.2188C188.711 18.1719 188.383 17.3984 187.727 16.8984C187.07 16.3984 185.914 16.1484 184.258 16.1484C183.336 16.1484 182.305 16.2656 181.164 16.5C180.039 16.7188 178.922 17.0156 177.812 17.3906C177.547 17.4688 177.32 17.5078 177.133 17.5078C176.742 17.5078 176.391 17.3672 176.078 17.0859C175.781 16.7891 175.508 16.2969 175.258 15.6094C175.023 14.9219 174.906 14.3594 174.906 13.9219C174.906 13.125 175.266 12.5938 175.984 12.3281C177.375 11.8281 178.852 11.4531 180.414 11.2031C181.977 10.9531 183.445 10.8281 184.82 10.8281ZM182.664 24.0234C181.57 24.0234 180.734 24.2188 180.156 24.6094C179.594 25 179.312 25.5703 179.312 26.3203C179.312 27.0547 179.586 27.6172 180.133 28.0078C180.695 28.3828 181.5 28.5703 182.547 28.5703C183.625 28.5703 184.688 28.3594 185.734 27.9375C186.797 27.5 187.789 26.9062 188.711 26.1562V24.6562C186.648 24.2344 184.633 24.0234 182.664 24.0234ZM252.977 5.17969C253.523 5.17969 253.914 5.29688 254.148 5.53125C254.383 5.76562 254.5 6.15625 254.5 6.70312V13.7812C254.5 14.3125 254.273 14.6953 253.82 14.9297C253.367 15.1484 252.641 15.2578 251.641 15.2578C250.672 15.2578 250.008 15.1484 249.648 14.9297C249.289 14.7109 249.109 14.3281 249.109 13.7812V10.2188H239.969V17.3672H247.094C247.641 17.3672 248.023 17.5469 248.242 17.9062C248.461 18.2656 248.57 18.9297 248.57 19.8984C248.57 20.8672 248.461 21.5312 248.242 21.8906C248.023 22.2344 247.641 22.4062 247.094 22.4062H239.969V28.1953H245.055C245.43 28.1953 245.719 28.2656 245.922 28.4062C246.125 28.5312 246.273 28.7656 246.367 29.1094C246.477 29.4531 246.531 29.9531 246.531 30.6094C246.531 31.2656 246.477 31.7656 246.367 32.1094C246.273 32.4531 246.125 32.6875 245.922 32.8125C245.719 32.9375 245.43 33 245.055 33H231.133C230.758 33 230.469 32.9375 230.266 32.8125C230.062 32.6875 229.906 32.4531 229.797 32.1094C229.703 31.7656 229.656 31.2656 229.656 30.6094C229.656 29.9531 229.703 29.4531 229.797 29.1094C229.906 28.7656 230.062 28.5312 230.266 28.4062C230.469 28.2656 230.758 28.1953 231.133 28.1953H234.109V9.98438H231.133C230.758 9.98438 230.469 9.92188 230.266 9.79688C230.062 9.67188 229.906 9.4375 229.797 9.09375C229.703 8.75 229.656 8.25 229.656 7.59375C229.656 6.9375 229.703 6.4375 229.797 6.09375C229.906 5.75 230.062 5.51562 230.266 5.39062C230.469 5.25 230.758 5.17969 231.133 5.17969H252.977ZM278.758 10.8281C280.086 10.8281 281.336 11.2656 282.508 12.1406C283.195 12.6406 283.539 13.2969 283.539 14.1094C283.539 14.625 283.398 15.2344 283.117 15.9375C282.836 16.6406 282.516 17.1719 282.156 17.5312C281.812 17.8906 281.445 18.0703 281.055 18.0703C280.836 18.0703 280.602 18.0078 280.352 17.8828C279.477 17.3984 278.57 17.1562 277.633 17.1562C276.43 17.1562 275.305 17.5391 274.258 18.3047C273.211 19.0703 272.367 20.125 271.727 21.4688C271.102 22.8125 270.789 24.3125 270.789 25.9688V28.1953H277.516C277.891 28.1953 278.18 28.2656 278.383 28.4062C278.586 28.5312 278.734 28.7656 278.828 29.1094C278.938 29.4531 278.992 29.9531 278.992 30.6094C278.992 31.2656 278.938 31.7656 278.828 32.1094C278.734 32.4531 278.586 32.6875 278.383 32.8125C278.18 32.9375 277.891 33 277.516 33H261.484C261.109 33 260.82 32.9375 260.617 32.8125C260.414 32.6875 260.258 32.4531 260.148 32.1094C260.055 31.7656 260.008 31.2656 260.008 30.6094C260.008 29.9531 260.055 29.4531 260.148 29.1094C260.258 28.7656 260.414 28.5312 260.617 28.4062C260.82 28.2656 261.109 28.1953 261.484 28.1953H264.93V16.1484H262.188C261.812 16.1484 261.523 16.0859 261.32 15.9609C261.117 15.8359 260.961 15.6016 260.852 15.2578C260.758 14.9141 260.711 14.4141 260.711 13.7578C260.711 13.1016 260.758 12.6016 260.852 12.2578C260.961 11.9141 261.117 11.6797 261.32 11.5547C261.523 11.4141 261.812 11.3438 262.188 11.3438H268.609C269.141 11.3438 269.516 11.4609 269.734 11.6953C269.969 11.9141 270.086 12.2891 270.086 12.8203V17.9062C271.258 15.6406 272.602 13.8984 274.117 12.6797C275.648 11.4453 277.195 10.8281 278.758 10.8281ZM300.203 10.8281C302.578 10.8281 304.656 11.3125 306.438 12.2812C308.219 13.25 309.586 14.5938 310.539 16.3125C311.508 18.0312 311.992 19.9844 311.992 22.1719C311.992 24.3594 311.508 26.3125 310.539 28.0312C309.586 29.75 308.219 31.0938 306.438 32.0625C304.656 33.0312 302.578 33.5156 300.203 33.5156C297.828 33.5156 295.75 33.0312 293.969 32.0625C292.188 31.0938 290.812 29.75 289.844 28.0312C288.891 26.3125 288.414 24.3594 288.414 22.1719C288.414 19.9844 288.891 18.0312 289.844 16.3125C290.812 14.5938 292.188 13.25 293.969 12.2812C295.75 11.3125 297.828 10.8281 300.203 10.8281ZM300.203 16.1484C299.078 16.1484 298.102 16.3984 297.273 16.8984C296.445 17.3828 295.805 18.0781 295.352 18.9844C294.914 19.8906 294.695 20.9531 294.695 22.1719C294.695 23.3906 294.914 24.4531 295.352 25.3594C295.805 26.2656 296.445 26.9688 297.273 27.4688C298.102 27.9531 299.078 28.1953 300.203 28.1953C301.328 28.1953 302.305 27.9531 303.133 27.4688C303.961 26.9688 304.594 26.2656 305.031 25.3594C305.484 24.4531 305.711 23.3906 305.711 22.1719C305.711 20.9531 305.484 19.8906 305.031 18.9844C304.594 18.0781 303.961 17.3828 303.133 16.8984C302.305 16.3984 301.328 16.1484 300.203 16.1484ZM332.336 10.8281C333.758 10.8281 335 11.1406 336.062 11.7656C337.141 12.3906 337.969 13.2812 338.547 14.4375C339.125 15.5781 339.414 16.9219 339.414 18.4688V28.1953H341.219C341.594 28.1953 341.883 28.2656 342.086 28.4062C342.289 28.5312 342.438 28.7656 342.531 29.1094C342.641 29.4531 342.695 29.9531 342.695 30.6094C342.695 31.2656 342.641 31.7656 342.531 32.1094C342.438 32.4531 342.289 32.6875 342.086 32.8125C341.883 32.9375 341.594 33 341.219 33H332.453C332.078 33 331.789 32.9375 331.586 32.8125C331.383 32.6875 331.227 32.4531 331.117 32.1094C331.023 31.7656 330.977 31.2656 330.977 30.6094C330.977 29.9531 331.023 29.4531 331.117 29.1094C331.227 28.7656 331.383 28.5312 331.586 28.4062C331.789 28.2656 332.078 28.1953 332.453 28.1953H333.555V19.8516C333.555 18.6328 333.344 17.7109 332.922 17.0859C332.5 16.4609 331.797 16.1484 330.812 16.1484C329.906 16.1484 329.047 16.5312 328.234 17.2969C327.422 18.0469 326.766 19.0547 326.266 20.3203C325.781 21.5859 325.539 22.9375 325.539 24.375V28.1953H326.641C327.016 28.1953 327.305 28.2656 327.508 28.4062C327.711 28.5312 327.859 28.7656 327.953 29.1094C328.062 29.4531 328.117 29.9531 328.117 30.6094C328.117 31.2656 328.062 31.7656 327.953 32.1094C327.859 32.4531 327.711 32.6875 327.508 32.8125C327.305 32.9375 327.016 33 326.641 33H317.875C317.5 33 317.211 32.9375 317.008 32.8125C316.805 32.6875 316.648 32.4531 316.539 32.1094C316.445 31.7656 316.398 31.2656 316.398 30.6094C316.398 29.9531 316.445 29.4531 316.539 29.1094C316.648 28.7656 316.805 28.5312 317.008 28.4062C317.211 28.2656 317.5 28.1953 317.875 28.1953H319.68V16.1484H317.406C317.031 16.1484 316.742 16.0859 316.539 15.9609C316.336 15.8359 316.18 15.6016 316.07 15.2578C315.977 14.9141 315.93 14.4141 315.93 13.7578C315.93 13.1016 315.977 12.6016 316.07 12.2578C316.18 11.9141 316.336 11.6797 316.539 11.5547C316.742 11.4141 317.031 11.3438 317.406 11.3438H323.125C323.656 11.3438 324.031 11.4609 324.25 11.6953C324.484 11.9141 324.602 12.2891 324.602 12.8203V16.2188C326.664 12.625 329.242 10.8281 332.336 10.8281ZM354.742 4.66406C355.477 4.66406 356.039 4.71875 356.43 4.82812C356.836 4.92188 357.117 5.07031 357.273 5.27344C357.43 5.47656 357.508 5.76562 357.508 6.14062V12.75H366.203C366.75 12.75 367.133 12.9297 367.352 13.2891C367.57 13.6484 367.68 14.3125 367.68 15.2812C367.68 16.25 367.57 16.9141 367.352 17.2734C367.133 17.6172 366.75 17.7891 366.203 17.7891H357.508V24.3047C357.508 26.8984 358.516 28.1953 360.531 28.1953C361.25 28.1953 362.086 28.0391 363.039 27.7266C364.008 27.3984 365.133 26.9453 366.414 26.3672C366.758 26.2266 367.031 26.1562 367.234 26.1562C367.562 26.1562 367.867 26.2969 368.148 26.5781C368.43 26.8438 368.695 27.2891 368.945 27.9141C369.227 28.6172 369.367 29.1875 369.367 29.625C369.367 29.9688 369.281 30.2578 369.109 30.4922C368.953 30.7109 368.711 30.9062 368.383 31.0781C365.164 32.7031 362.375 33.5156 360.016 33.5156C357.297 33.5156 355.219 32.7578 353.781 31.2422C352.359 29.7266 351.648 27.5156 351.648 24.6094V17.7891H347.125C346.578 17.7891 346.195 17.6172 345.977 17.2734C345.758 16.9141 345.648 16.25 345.648 15.2812C345.648 14.3125 345.758 13.6484 345.977 13.2891C346.195 12.9297 346.578 12.75 347.125 12.75H351.648V6.14062C351.648 5.60937 351.883 5.23437 352.352 5.01562C352.836 4.78125 353.633 4.66406 354.742 4.66406ZM395.477 16.7109C395.852 16.7109 396.141 16.7812 396.344 16.9219C396.547 17.0625 396.695 17.3203 396.789 17.6953C396.898 18.0703 396.953 18.625 396.953 19.3594C396.953 20.0938 396.898 20.6484 396.789 21.0234C396.695 21.3984 396.547 21.6562 396.344 21.7969C396.141 21.9219 395.852 21.9844 395.477 21.9844H377.617C377.242 21.9844 376.953 21.9219 376.75 21.7969C376.547 21.6562 376.391 21.3984 376.281 21.0234C376.188 20.6484 376.141 20.0938 376.141 19.3594C376.141 18.625 376.188 18.0703 376.281 17.6953C376.391 17.3203 376.547 17.0625 376.75 16.9219C376.953 16.7812 377.242 16.7109 377.617 16.7109H395.477ZM415.656 10.8281C418.031 10.8281 420.055 11.3438 421.727 12.375C423.398 13.3906 424.656 14.8125 425.5 16.6406C426.359 18.4531 426.789 20.5312 426.789 22.875C426.789 23.4062 426.672 23.7812 426.438 24C426.219 24.2188 425.844 24.3281 425.312 24.3281H410.266C410.562 25.5781 411.195 26.5391 412.164 27.2109C413.148 27.8672 414.391 28.1953 415.891 28.1953C418.312 28.1953 420.938 27.7656 423.766 26.9062C423.953 26.8438 424.141 26.8125 424.328 26.8125C424.672 26.8125 424.969 26.9688 425.219 27.2812C425.469 27.5938 425.695 28.125 425.898 28.875C426.055 29.4531 426.133 29.9453 426.133 30.3516C426.133 30.7578 426.039 31.0781 425.852 31.3125C425.68 31.5312 425.391 31.7109 424.984 31.8516C423.422 32.3672 421.828 32.7734 420.203 33.0703C418.578 33.3672 416.984 33.5156 415.422 33.5156C413.047 33.5156 411 33.0312 409.281 32.0625C407.562 31.0938 406.25 29.7578 405.344 28.0547C404.453 26.3359 404.008 24.375 404.008 22.1719C404.008 19.9844 404.477 18.0312 405.414 16.3125C406.352 14.5938 407.703 13.25 409.469 12.2812C411.234 11.3125 413.297 10.8281 415.656 10.8281ZM415.656 16.1484C412.797 16.1484 411.031 17.3516 410.359 19.7578H420.672C420.406 18.6172 419.836 17.7344 418.961 17.1094C418.102 16.4688 417 16.1484 415.656 16.1484ZM447.461 10.8281C448.883 10.8281 450.125 11.1406 451.188 11.7656C452.266 12.3906 453.094 13.2812 453.672 14.4375C454.25 15.5781 454.539 16.9219 454.539 18.4688V28.1953H456.344C456.719 28.1953 457.008 28.2656 457.211 28.4062C457.414 28.5312 457.562 28.7656 457.656 29.1094C457.766 29.4531 457.82 29.9531 457.82 30.6094C457.82 31.2656 457.766 31.7656 457.656 32.1094C457.562 32.4531 457.414 32.6875 457.211 32.8125C457.008 32.9375 456.719 33 456.344 33H447.578C447.203 33 446.914 32.9375 446.711 32.8125C446.508 32.6875 446.352 32.4531 446.242 32.1094C446.148 31.7656 446.102 31.2656 446.102 30.6094C446.102 29.9531 446.148 29.4531 446.242 29.1094C446.352 28.7656 446.508 28.5312 446.711 28.4062C446.914 28.2656 447.203 28.1953 447.578 28.1953H448.68V19.8516C448.68 18.6328 448.469 17.7109 448.047 17.0859C447.625 16.4609 446.922 16.1484 445.938 16.1484C445.031 16.1484 444.172 16.5312 443.359 17.2969C442.547 18.0469 441.891 19.0547 441.391 20.3203C440.906 21.5859 440.664 22.9375 440.664 24.375V28.1953H441.766C442.141 28.1953 442.43 28.2656 442.633 28.4062C442.836 28.5312 442.984 28.7656 443.078 29.1094C443.188 29.4531 443.242 29.9531 443.242 30.6094C443.242 31.2656 443.188 31.7656 443.078 32.1094C442.984 32.4531 442.836 32.6875 442.633 32.8125C442.43 32.9375 442.141 33 441.766 33H433C432.625 33 432.336 32.9375 432.133 32.8125C431.93 32.6875 431.773 32.4531 431.664 32.1094C431.57 31.7656 431.523 31.2656 431.523 30.6094C431.523 29.9531 431.57 29.4531 431.664 29.1094C431.773 28.7656 431.93 28.5312 432.133 28.4062C432.336 28.2656 432.625 28.1953 433 28.1953H434.805V16.1484H432.531C432.156 16.1484 431.867 16.0859 431.664 15.9609C431.461 15.8359 431.305 15.6016 431.195 15.2578C431.102 14.9141 431.055 14.4141 431.055 13.7578C431.055 13.1016 431.102 12.6016 431.195 12.2578C431.305 11.9141 431.461 11.6797 431.664 11.5547C431.867 11.4141 432.156 11.3438 432.531 11.3438H438.25C438.781 11.3438 439.156 11.4609 439.375 11.6953C439.609 11.9141 439.727 12.2891 439.727 12.8203V16.2188C441.789 12.625 444.367 10.8281 447.461 10.8281ZM481.422 2.25C481.953 2.25 482.328 2.36719 482.547 2.60156C482.781 2.82031 482.898 3.19531 482.898 3.72656V28.1953H484.938C485.312 28.1953 485.602 28.2578 485.805 28.3828C486.008 28.5078 486.156 28.7422 486.25 29.0859C486.359 29.4297 486.414 29.9297 486.414 30.5859C486.414 31.2422 486.359 31.7422 486.25 32.0859C486.156 32.4297 486.008 32.6719 485.805 32.8125C485.602 32.9375 485.312 33 484.938 33H479.453C478.922 33 478.539 32.8906 478.305 32.6719C478.086 32.4375 477.977 32.0547 477.977 31.5234V29.5547C477.164 30.8047 476.148 31.7812 474.93 32.4844C473.711 33.1719 472.359 33.5156 470.875 33.5156C468.828 33.5156 467.039 33.0156 465.508 32.0156C463.977 31.0156 462.805 29.6562 461.992 27.9375C461.18 26.2188 460.773 24.2969 460.773 22.1719C460.773 20.0469 461.18 18.125 461.992 16.4062C462.805 14.6875 463.977 13.3281 465.508 12.3281C467.039 11.3281 468.828 10.8281 470.875 10.8281C472.094 10.8281 473.227 11.0703 474.273 11.5547C475.32 12.0234 476.242 12.7031 477.039 13.5938V7.05469H473.594C473.219 7.05469 472.93 6.99219 472.727 6.86719C472.523 6.74219 472.367 6.50781 472.258 6.16406C472.164 5.82031 472.117 5.32031 472.117 4.66406C472.117 4.00781 472.164 3.50781 472.258 3.16406C472.367 2.82031 472.523 2.58594 472.727 2.46094C472.93 2.32031 473.219 2.25 473.594 2.25H481.422ZM471.812 16.1484C470.844 16.1484 470 16.3984 469.281 16.8984C468.562 17.3828 468.008 18.0781 467.617 18.9844C467.242 19.8906 467.055 20.9531 467.055 22.1719C467.055 23.3906 467.242 24.4531 467.617 25.3594C468.008 26.2656 468.562 26.9688 469.281 27.4688C470 27.9531 470.844 28.1953 471.812 28.1953C472.812 28.1953 473.719 27.9609 474.531 27.4922C475.344 27.0234 475.992 26.3359 476.477 25.4297C476.961 24.5078 477.203 23.4219 477.203 22.1719C477.203 20.9219 476.961 19.8438 476.477 18.9375C475.992 18.0156 475.344 17.3203 474.531 16.8516C473.719 16.3828 472.812 16.1484 471.812 16.1484Z" fill="white"/>
<path d="M508.633 0.210938C509.68 0.210938 510.555 0.382812 511.258 0.726562C511.977 1.07031 512.336 1.50781 512.336 2.03906C512.336 2.21094 512.305 2.36719 512.242 2.50781L496.633 40.4297C496.352 41.1016 495.711 41.4375 494.711 41.4375C493.664 41.4375 492.781 41.2656 492.062 40.9219C491.359 40.5781 491.008 40.1406 491.008 39.6094C491.008 39.4375 491.039 39.2812 491.102 39.1406L506.711 1.21875C506.992 0.546875 507.633 0.210938 508.633 0.210938Z" fill="#4854AF"/>
</svg>
