<svg width="514" height="42" viewBox="0 0 514 42" fill="none" xmlns="http://www.w3.org/2000/svg">
<path d="M20.1719 7.71094C20.4844 7.55469 20.7422 7.47656 20.9453 7.47656C21.2578 7.47656 21.5547 7.61719 21.8359 7.89844C22.1172 8.17969 22.4219 8.64844 22.75 9.30469C23.1562 10.1172 23.3594 10.7656 23.3594 11.25C23.3594 11.7812 23.0781 12.1953 22.5156 12.4922L8.80469 19.3359L22.5156 26.1797C23.0781 26.4766 23.3594 26.8906 23.3594 27.4219C23.3594 27.9062 23.1562 28.5547 22.75 29.3672C22.4219 30.0234 22.1172 30.4922 21.8359 30.7734C21.5547 31.0547 21.2578 31.1953 20.9453 31.1953C20.7422 31.1953 20.4844 31.1172 20.1719 30.9609L1.89062 21.5391C1.5 21.3359 1.21875 21.0781 1.04688 20.7656C0.890625 20.4531 0.8125 19.9766 0.8125 19.3359C0.8125 18.6953 0.890625 18.2188 1.04688 17.9062C1.21875 17.5938 1.5 17.3359 1.89062 17.1328L20.1719 7.71094ZM512.172 17.1328C512.562 17.3359 512.836 17.5938 512.992 17.9062C513.164 18.2188 513.25 18.6953 513.25 19.3359C513.25 19.9766 513.164 20.4531 512.992 20.7656C512.836 21.0781 512.562 21.3359 512.172 21.5391L493.891 30.9609C493.578 31.1172 493.32 31.1953 493.117 31.1953C492.805 31.1953 492.508 31.0547 492.227 30.7734C491.945 30.4922 491.641 30.0234 491.312 29.3672C490.906 28.5547 490.703 27.9062 490.703 27.4219C490.703 26.8906 490.984 26.4766 491.547 26.1797L505.258 19.3359L491.547 12.4922C490.984 12.1953 490.703 11.7812 490.703 11.25C490.703 10.7656 490.906 10.1172 491.312 9.30469C491.641 8.64844 491.945 8.17969 492.227 7.89844C492.508 7.61719 492.805 7.47656 493.117 7.47656C493.32 7.47656 493.578 7.55469 493.891 7.71094L512.172 17.1328Z" fill="#D44A4A"/>
<path d="M51.7422 5.17969C52.2891 5.17969 52.6797 5.29688 52.9141 5.53125C53.1484 5.76562 53.2656 6.15625 53.2656 6.70312V16.5938C53.2656 17.1094 53.0469 17.4844 52.6094 17.7188C52.1875 17.9531 51.5312 18.0703 50.6406 18.0703C49.7812 18.0703 49.1797 17.9609 48.8359 17.7422C48.5078 17.5078 48.3438 17.125 48.3438 16.5938V10.2188H44.1016V28.1953H49.1641C49.5391 28.1953 49.8281 28.2656 50.0312 28.4062C50.2344 28.5312 50.3828 28.7656 50.4766 29.1094C50.5859 29.4531 50.6406 29.9531 50.6406 30.6094C50.6406 31.2656 50.5859 31.7656 50.4766 32.1094C50.3828 32.4531 50.2344 32.6875 50.0312 32.8125C49.8281 32.9375 49.5391 33 49.1641 33H33.1797C32.8047 33 32.5156 32.9375 32.3125 32.8125C32.1094 32.6875 31.9531 32.4531 31.8438 32.1094C31.75 31.7656 31.7031 31.2656 31.7031 30.6094C31.7031 29.9531 31.75 29.4531 31.8438 29.1094C31.9531 28.7656 32.1094 28.5312 32.3125 28.4062C32.5156 28.2656 32.8047 28.1953 33.1797 28.1953H38.2422V10.2188H34V16.5938C34 17.1094 33.7812 17.4844 33.3438 17.7188C32.9219 17.9531 32.2656 18.0703 31.375 18.0703C30.5156 18.0703 29.9141 17.9609 29.5703 17.7422C29.2422 17.5078 29.0781 17.125 29.0781 16.5938V6.70312C29.0781 6.15625 29.1953 5.76562 29.4297 5.53125C29.6797 5.29688 30.0703 5.17969 30.6016 5.17969H51.7422ZM77.2891 10.8281C78.6172 10.8281 79.8672 11.2656 81.0391 12.1406C81.7266 12.6406 82.0703 13.2969 82.0703 14.1094C82.0703 14.625 81.9297 15.2344 81.6484 15.9375C81.3672 16.6406 81.0469 17.1719 80.6875 17.5312C80.3438 17.8906 79.9766 18.0703 79.5859 18.0703C79.3672 18.0703 79.1328 18.0078 78.8828 17.8828C78.0078 17.3984 77.1016 17.1562 76.1641 17.1562C74.9609 17.1562 73.8359 17.5391 72.7891 18.3047C71.7422 19.0703 70.8984 20.125 70.2578 21.4688C69.6328 22.8125 69.3203 24.3125 69.3203 25.9688V28.1953H76.0469C76.4219 28.1953 76.7109 28.2656 76.9141 28.4062C77.1172 28.5312 77.2656 28.7656 77.3594 29.1094C77.4688 29.4531 77.5234 29.9531 77.5234 30.6094C77.5234 31.2656 77.4688 31.7656 77.3594 32.1094C77.2656 32.4531 77.1172 32.6875 76.9141 32.8125C76.7109 32.9375 76.4219 33 76.0469 33H60.0156C59.6406 33 59.3516 32.9375 59.1484 32.8125C58.9453 32.6875 58.7891 32.4531 58.6797 32.1094C58.5859 31.7656 58.5391 31.2656 58.5391 30.6094C58.5391 29.9531 58.5859 29.4531 58.6797 29.1094C58.7891 28.7656 58.9453 28.5312 59.1484 28.4062C59.3516 28.2656 59.6406 28.1953 60.0156 28.1953H63.4609V16.1484H60.7188C60.3438 16.1484 60.0547 16.0859 59.8516 15.9609C59.6484 15.8359 59.4922 15.6016 59.3828 15.2578C59.2891 14.9141 59.2422 14.4141 59.2422 13.7578C59.2422 13.1016 59.2891 12.6016 59.3828 12.2578C59.4922 11.9141 59.6484 11.6797 59.8516 11.5547C60.0547 11.4141 60.3438 11.3438 60.7188 11.3438H67.1406C67.6719 11.3438 68.0469 11.4609 68.2656 11.6953C68.5 11.9141 68.6172 12.2891 68.6172 12.8203V17.9062C69.7891 15.6406 71.1328 13.8984 72.6484 12.6797C74.1797 11.4453 75.7266 10.8281 77.2891 10.8281ZM100.516 11.3438C101.047 11.3438 101.422 11.4609 101.641 11.6953C101.875 11.9141 101.992 12.2891 101.992 12.8203V28.1953H108.578C108.953 28.1953 109.242 28.2656 109.445 28.4062C109.648 28.5312 109.797 28.7656 109.891 29.1094C110 29.4531 110.055 29.9531 110.055 30.6094C110.055 31.2656 110 31.7656 109.891 32.1094C109.797 32.4531 109.648 32.6875 109.445 32.8125C109.242 32.9375 108.953 33 108.578 33H89.7344C89.3594 33 89.0703 32.9375 88.8672 32.8125C88.6641 32.6875 88.5078 32.4531 88.3984 32.1094C88.3047 31.7656 88.2578 31.2656 88.2578 30.6094C88.2578 29.9531 88.3047 29.4531 88.3984 29.1094C88.5078 28.7656 88.6641 28.5312 88.8672 28.4062C89.0703 28.2656 89.3594 28.1953 89.7344 28.1953H96.1328V16.1484H91.1406C90.7656 16.1484 90.4766 16.0859 90.2734 15.9609C90.0703 15.8359 89.9141 15.6016 89.8047 15.2578C89.7109 14.9141 89.6641 14.4141 89.6641 13.7578C89.6641 13.1016 89.7109 12.6016 89.8047 12.2578C89.9141 11.9141 90.0703 11.6797 90.2734 11.5547C90.4766 11.4141 90.7656 11.3438 91.1406 11.3438H100.516ZM98.9922 1.05469C100.102 1.05469 100.875 1.17188 101.312 1.40625C101.766 1.625 101.992 2 101.992 2.53125V6.375C101.992 6.90625 101.781 7.28906 101.359 7.52344C100.953 7.74219 100.203 7.85156 99.1094 7.85156C98.0156 7.85156 97.2422 7.74219 96.7891 7.52344C96.3516 7.28906 96.1328 6.90625 96.1328 6.375V2.53125C96.1328 1.98438 96.3359 1.60156 96.7422 1.38281C97.1484 1.16406 97.8984 1.05469 98.9922 1.05469ZM129.062 2.25C129.594 2.25 129.969 2.36719 130.188 2.60156C130.422 2.82031 130.539 3.19531 130.539 3.72656V28.1953H137.125C137.5 28.1953 137.789 28.2656 137.992 28.4062C138.195 28.5312 138.344 28.7656 138.438 29.1094C138.547 29.4531 138.602 29.9531 138.602 30.6094C138.602 31.2656 138.547 31.7656 138.438 32.1094C138.344 32.4531 138.195 32.6875 137.992 32.8125C137.789 32.9375 137.5 33 137.125 33H118.281C117.906 33 117.617 32.9375 117.414 32.8125C117.211 32.6875 117.055 32.4531 116.945 32.1094C116.852 31.7656 116.805 31.2656 116.805 30.6094C116.805 29.9531 116.852 29.4531 116.945 29.1094C117.055 28.7656 117.211 28.5312 117.414 28.4062C117.617 28.2656 117.906 28.1953 118.281 28.1953H124.68V7.05469H119.219C118.844 7.05469 118.555 6.99219 118.352 6.86719C118.148 6.74219 117.992 6.50781 117.883 6.16406C117.789 5.82031 117.742 5.32031 117.742 4.66406C117.742 4.00781 117.789 3.50781 117.883 3.16406C117.992 2.82031 118.148 2.58594 118.352 2.46094C118.555 2.32031 118.844 2.25 119.219 2.25H129.062ZM151.141 2.25C151.672 2.25 152.047 2.36719 152.266 2.60156C152.5 2.82031 152.617 3.19531 152.617 3.72656V15.1172C154.492 12.2578 156.758 10.8281 159.414 10.8281C160.836 10.8281 162.078 11.1406 163.141 11.7656C164.219 12.3906 165.047 13.2812 165.625 14.4375C166.203 15.5781 166.492 16.9219 166.492 18.4688V28.1953H168.297C168.672 28.1953 168.961 28.2656 169.164 28.4062C169.367 28.5312 169.516 28.7656 169.609 29.1094C169.719 29.4531 169.773 29.9531 169.773 30.6094C169.773 31.2656 169.719 31.7656 169.609 32.1094C169.516 32.4531 169.367 32.6875 169.164 32.8125C168.961 32.9375 168.672 33 168.297 33H159.531C159.156 33 158.867 32.9375 158.664 32.8125C158.461 32.6875 158.305 32.4531 158.195 32.1094C158.102 31.7656 158.055 31.2656 158.055 30.6094C158.055 29.9531 158.102 29.4531 158.195 29.1094C158.305 28.7656 158.461 28.5312 158.664 28.4062C158.867 28.2656 159.156 28.1953 159.531 28.1953H160.633V19.8516C160.633 18.6328 160.422 17.7109 160 17.0859C159.578 16.4609 158.875 16.1484 157.891 16.1484C156.984 16.1484 156.125 16.5312 155.312 17.2969C154.5 18.0469 153.844 19.0547 153.344 20.3203C152.859 21.5859 152.617 22.9375 152.617 24.375V28.1953H153.719C154.094 28.1953 154.383 28.2656 154.586 28.4062C154.789 28.5312 154.938 28.7656 155.031 29.1094C155.141 29.4531 155.195 29.9531 155.195 30.6094C155.195 31.2656 155.141 31.7656 155.031 32.1094C154.938 32.4531 154.789 32.6875 154.586 32.8125C154.383 32.9375 154.094 33 153.719 33H144.953C144.578 33 144.289 32.9375 144.086 32.8125C143.883 32.6875 143.727 32.4531 143.617 32.1094C143.523 31.7656 143.477 31.2656 143.477 30.6094C143.477 29.9531 143.523 29.4531 143.617 29.1094C143.727 28.7656 143.883 28.5312 144.086 28.4062C144.289 28.2656 144.578 28.1953 144.953 28.1953H146.758V7.05469H144.484C144.109 7.05469 143.82 6.99219 143.617 6.86719C143.414 6.74219 143.258 6.50781 143.148 6.16406C143.055 5.82031 143.008 5.32031 143.008 4.66406C143.008 4.00781 143.055 3.50781 143.148 3.16406C143.258 2.82031 143.414 2.58594 143.617 2.46094C143.82 2.32031 144.109 2.25 144.484 2.25H151.141ZM184.82 10.8281C188.258 10.8281 190.742 11.5703 192.273 13.0547C193.805 14.5391 194.57 16.6641 194.57 19.4297V26.2031C194.57 26.8281 194.703 27.3203 194.969 27.6797C195.234 28.0234 195.617 28.1953 196.117 28.1953H196.844C197.219 28.1953 197.508 28.2656 197.711 28.4062C197.914 28.5312 198.062 28.7656 198.156 29.1094C198.266 29.4531 198.32 29.9531 198.32 30.6094C198.32 31.2656 198.266 31.7656 198.156 32.1094C198.062 32.4531 197.914 32.6875 197.711 32.8125C197.508 32.9375 197.219 33 196.844 33H194.219C193.25 33 192.391 32.8047 191.641 32.4141C190.906 32.0078 190.344 31.375 189.953 30.5156C188.719 31.4688 187.414 32.2109 186.039 32.7422C184.664 33.2578 183.25 33.5156 181.797 33.5156C180.031 33.5156 178.508 33.2188 177.227 32.625C175.945 32.0156 174.961 31.1562 174.273 30.0469C173.602 28.9219 173.266 27.6016 173.266 26.0859C173.266 23.8984 174.039 22.2031 175.586 21C177.133 19.7969 179.297 19.1953 182.078 19.1953C184.156 19.1953 186.367 19.4297 188.711 19.8984V19.2188C188.711 18.1719 188.383 17.3984 187.727 16.8984C187.07 16.3984 185.914 16.1484 184.258 16.1484C183.336 16.1484 182.305 16.2656 181.164 16.5C180.039 16.7188 178.922 17.0156 177.812 17.3906C177.547 17.4688 177.32 17.5078 177.133 17.5078C176.742 17.5078 176.391 17.3672 176.078 17.0859C175.781 16.7891 175.508 16.2969 175.258 15.6094C175.023 14.9219 174.906 14.3594 174.906 13.9219C174.906 13.125 175.266 12.5938 175.984 12.3281C177.375 11.8281 178.852 11.4531 180.414 11.2031C181.977 10.9531 183.445 10.8281 184.82 10.8281ZM182.664 24.0234C181.57 24.0234 180.734 24.2188 180.156 24.6094C179.594 25 179.312 25.5703 179.312 26.3203C179.312 27.0547 179.586 27.6172 180.133 28.0078C180.695 28.3828 181.5 28.5703 182.547 28.5703C183.625 28.5703 184.688 28.3594 185.734 27.9375C186.797 27.5 187.789 26.9062 188.711 26.1562V24.6562C186.648 24.2344 184.633 24.0234 182.664 24.0234ZM243.578 5.17969C246.844 5.17969 249.258 5.85156 250.82 7.19531C252.398 8.52344 253.188 10.375 253.188 12.75C253.188 14.0312 252.867 15.1328 252.227 16.0547C251.602 16.9609 250.719 17.6875 249.578 18.2344C253.156 19.2031 254.945 21.4375 254.945 24.9375C254.945 27.5781 254.078 29.5859 252.344 30.9609C250.609 32.3203 248.125 33 244.891 33H231.367C230.992 33 230.703 32.9375 230.5 32.8125C230.297 32.6875 230.141 32.4531 230.031 32.1094C229.938 31.7656 229.891 31.2656 229.891 30.6094C229.891 29.9531 229.938 29.4531 230.031 29.1094C230.141 28.7656 230.297 28.5312 230.5 28.4062C230.703 28.2656 230.992 28.1953 231.367 28.1953H233.875V9.98438H231.367C230.992 9.98438 230.703 9.92188 230.5 9.79688C230.297 9.67188 230.141 9.4375 230.031 9.09375C229.938 8.75 229.891 8.25 229.891 7.59375C229.891 6.9375 229.938 6.4375 230.031 6.09375C230.141 5.75 230.297 5.51562 230.5 5.39062C230.703 5.25 230.992 5.17969 231.367 5.17969H243.578ZM239.734 16.2656H243.062C244.469 16.2656 245.516 16.0156 246.203 15.5156C246.891 15.0156 247.234 14.25 247.234 13.2188C247.234 12.1719 246.898 11.4141 246.227 10.9453C245.57 10.4609 244.516 10.2188 243.062 10.2188H239.734V16.2656ZM239.734 27.9609H244.234C247.266 27.9609 248.781 26.875 248.781 24.7031C248.781 23.5469 248.406 22.6953 247.656 22.1484C246.922 21.5859 245.781 21.3047 244.234 21.3047H239.734V27.9609ZM271.164 10.8281C274.602 10.8281 277.086 11.5703 278.617 13.0547C280.148 14.5391 280.914 16.6641 280.914 19.4297V26.2031C280.914 26.8281 281.047 27.3203 281.312 27.6797C281.578 28.0234 281.961 28.1953 282.461 28.1953H283.188C283.562 28.1953 283.852 28.2656 284.055 28.4062C284.258 28.5312 284.406 28.7656 284.5 29.1094C284.609 29.4531 284.664 29.9531 284.664 30.6094C284.664 31.2656 284.609 31.7656 284.5 32.1094C284.406 32.4531 284.258 32.6875 284.055 32.8125C283.852 32.9375 283.562 33 283.188 33H280.562C279.594 33 278.734 32.8047 277.984 32.4141C277.25 32.0078 276.688 31.375 276.297 30.5156C275.062 31.4688 273.758 32.2109 272.383 32.7422C271.008 33.2578 269.594 33.5156 268.141 33.5156C266.375 33.5156 264.852 33.2188 263.57 32.625C262.289 32.0156 261.305 31.1562 260.617 30.0469C259.945 28.9219 259.609 27.6016 259.609 26.0859C259.609 23.8984 260.383 22.2031 261.93 21C263.477 19.7969 265.641 19.1953 268.422 19.1953C270.5 19.1953 272.711 19.4297 275.055 19.8984V19.2188C275.055 18.1719 274.727 17.3984 274.07 16.8984C273.414 16.3984 272.258 16.1484 270.602 16.1484C269.68 16.1484 268.648 16.2656 267.508 16.5C266.383 16.7188 265.266 17.0156 264.156 17.3906C263.891 17.4688 263.664 17.5078 263.477 17.5078C263.086 17.5078 262.734 17.3672 262.422 17.0859C262.125 16.7891 261.852 16.2969 261.602 15.6094C261.367 14.9219 261.25 14.3594 261.25 13.9219C261.25 13.125 261.609 12.5938 262.328 12.3281C263.719 11.8281 265.195 11.4531 266.758 11.2031C268.32 10.9531 269.789 10.8281 271.164 10.8281ZM269.008 24.0234C267.914 24.0234 267.078 24.2188 266.5 24.6094C265.938 25 265.656 25.5703 265.656 26.3203C265.656 27.0547 265.93 27.6172 266.477 28.0078C267.039 28.3828 267.844 28.5703 268.891 28.5703C269.969 28.5703 271.031 28.3594 272.078 27.9375C273.141 27.5 274.133 26.9062 275.055 26.1562V24.6562C272.992 24.2344 270.977 24.0234 269.008 24.0234ZM308.195 10.8281C309.164 10.8281 309.828 10.9375 310.188 11.1562C310.547 11.375 310.727 11.7578 310.727 12.3047V19.8281C310.727 20.3594 310.484 20.7422 310 20.9766C309.531 21.1953 308.742 21.3047 307.633 21.3047C306.898 21.3047 306.328 21.2578 305.922 21.1641C305.531 21.0547 305.258 20.8984 305.102 20.6953C304.945 20.4922 304.867 20.2031 304.867 19.8281C304.867 19.1719 304.703 18.5625 304.375 18C304.062 17.4375 303.586 16.9922 302.945 16.6641C302.32 16.3203 301.562 16.1484 300.672 16.1484C299.547 16.1484 298.562 16.3984 297.719 16.8984C296.875 17.3828 296.219 18.0859 295.75 19.0078C295.297 19.9141 295.07 20.9688 295.07 22.1719C295.07 23.375 295.297 24.4375 295.75 25.3594C296.219 26.2656 296.875 26.9688 297.719 27.4688C298.562 27.9531 299.547 28.1953 300.672 28.1953C301.875 28.1953 303.102 28 304.352 27.6094C305.617 27.2188 306.844 26.6797 308.031 25.9922C308.312 25.8359 308.57 25.7578 308.805 25.7578C309.508 25.7578 310.125 26.375 310.656 27.6094C310.938 28.2812 311.078 28.8516 311.078 29.3203C311.078 30.0234 310.742 30.5625 310.07 30.9375C308.617 31.75 307.086 32.3828 305.477 32.8359C303.883 33.2891 302.281 33.5156 300.672 33.5156C298.297 33.5156 296.211 33.0312 294.414 32.0625C292.617 31.0938 291.227 29.75 290.242 28.0312C289.273 26.3125 288.789 24.3594 288.789 22.1719C288.789 19.9844 289.281 18.0312 290.266 16.3125C291.25 14.5781 292.586 13.2344 294.273 12.2812C295.977 11.3125 297.875 10.8281 299.969 10.8281C302.5 10.8281 304.289 11.7422 305.336 13.5703V12.3047C305.336 11.7734 305.562 11.3984 306.016 11.1797C306.469 10.9453 307.195 10.8281 308.195 10.8281ZM340.516 28.1953C341.062 28.1953 341.445 28.3594 341.664 28.6875C341.883 29.0156 341.992 29.6562 341.992 30.6094C341.992 31.2656 341.938 31.7656 341.828 32.1094C341.734 32.4531 341.586 32.6875 341.383 32.8125C341.18 32.9375 340.891 33 340.516 33H336.508C335.727 33 335.117 32.6875 334.68 32.0625L328.773 23.8594L325.539 26.3203V28.1953H327.578C327.953 28.1953 328.242 28.2656 328.445 28.4062C328.648 28.5312 328.797 28.7656 328.891 29.1094C329 29.4531 329.055 29.9531 329.055 30.6094C329.055 31.2656 329 31.7656 328.891 32.1094C328.797 32.4531 328.648 32.6875 328.445 32.8125C328.242 32.9375 327.953 33 327.578 33H317.875C317.5 33 317.211 32.9375 317.008 32.8125C316.805 32.6875 316.648 32.4531 316.539 32.1094C316.445 31.7656 316.398 31.2656 316.398 30.6094C316.398 29.9531 316.445 29.4531 316.539 29.1094C316.648 28.7656 316.805 28.5312 317.008 28.4062C317.211 28.2656 317.5 28.1953 317.875 28.1953H319.68V7.05469H317.406C317.031 7.05469 316.742 6.99219 316.539 6.86719C316.336 6.74219 316.18 6.50781 316.07 6.16406C315.977 5.82031 315.93 5.32031 315.93 4.66406C315.93 4.00781 315.977 3.50781 316.07 3.16406C316.18 2.82031 316.336 2.58594 316.539 2.46094C316.742 2.32031 317.031 2.25 317.406 2.25H324.062C324.594 2.25 324.969 2.36719 325.188 2.60156C325.422 2.82031 325.539 3.19531 325.539 3.72656V20.6484L331.633 15.6797H330.461C329.914 15.6797 329.531 15.5312 329.312 15.2344C329.094 14.9375 328.984 14.3672 328.984 13.5234C328.984 12.6641 329.094 12.0859 329.312 11.7891C329.531 11.4922 329.914 11.3438 330.461 11.3438H340.164C340.711 11.3438 341.094 11.4922 341.312 11.7891C341.531 12.0859 341.641 12.6641 341.641 13.5234C341.641 14.3672 341.531 14.9375 341.312 15.2344C341.094 15.5312 340.711 15.6797 340.164 15.6797H339.227L333.391 20.3906L339.086 28.1953H340.516ZM366.695 16.7109C367.07 16.7109 367.359 16.7812 367.562 16.9219C367.766 17.0625 367.914 17.3203 368.008 17.6953C368.117 18.0703 368.172 18.625 368.172 19.3594C368.172 20.0938 368.117 20.6484 368.008 21.0234C367.914 21.3984 367.766 21.6562 367.562 21.7969C367.359 21.9219 367.07 21.9844 366.695 21.9844H348.836C348.461 21.9844 348.172 21.9219 347.969 21.7969C347.766 21.6562 347.609 21.3984 347.5 21.0234C347.406 20.6484 347.359 20.0938 347.359 19.3594C347.359 18.625 347.406 18.0703 347.5 17.6953C347.609 17.3203 347.766 17.0625 347.969 16.9219C348.172 16.7812 348.461 16.7109 348.836 16.7109H366.695ZM386.875 10.8281C389.25 10.8281 391.273 11.3438 392.945 12.375C394.617 13.3906 395.875 14.8125 396.719 16.6406C397.578 18.4531 398.008 20.5312 398.008 22.875C398.008 23.4062 397.891 23.7812 397.656 24C397.438 24.2188 397.062 24.3281 396.531 24.3281H381.484C381.781 25.5781 382.414 26.5391 383.383 27.2109C384.367 27.8672 385.609 28.1953 387.109 28.1953C389.531 28.1953 392.156 27.7656 394.984 26.9062C395.172 26.8438 395.359 26.8125 395.547 26.8125C395.891 26.8125 396.188 26.9688 396.438 27.2812C396.688 27.5938 396.914 28.125 397.117 28.875C397.273 29.4531 397.352 29.9453 397.352 30.3516C397.352 30.7578 397.258 31.0781 397.07 31.3125C396.898 31.5312 396.609 31.7109 396.203 31.8516C394.641 32.3672 393.047 32.7734 391.422 33.0703C389.797 33.3672 388.203 33.5156 386.641 33.5156C384.266 33.5156 382.219 33.0312 380.5 32.0625C378.781 31.0938 377.469 29.7578 376.562 28.0547C375.672 26.3359 375.227 24.375 375.227 22.1719C375.227 19.9844 375.695 18.0312 376.633 16.3125C377.57 14.5938 378.922 13.25 380.688 12.2812C382.453 11.3125 384.516 10.8281 386.875 10.8281ZM386.875 16.1484C384.016 16.1484 382.25 17.3516 381.578 19.7578H391.891C391.625 18.6172 391.055 17.7344 390.18 17.1094C389.32 16.4688 388.219 16.1484 386.875 16.1484ZM418.68 10.8281C420.102 10.8281 421.344 11.1406 422.406 11.7656C423.484 12.3906 424.312 13.2812 424.891 14.4375C425.469 15.5781 425.758 16.9219 425.758 18.4688V28.1953H427.562C427.938 28.1953 428.227 28.2656 428.43 28.4062C428.633 28.5312 428.781 28.7656 428.875 29.1094C428.984 29.4531 429.039 29.9531 429.039 30.6094C429.039 31.2656 428.984 31.7656 428.875 32.1094C428.781 32.4531 428.633 32.6875 428.43 32.8125C428.227 32.9375 427.938 33 427.562 33H418.797C418.422 33 418.133 32.9375 417.93 32.8125C417.727 32.6875 417.57 32.4531 417.461 32.1094C417.367 31.7656 417.32 31.2656 417.32 30.6094C417.32 29.9531 417.367 29.4531 417.461 29.1094C417.57 28.7656 417.727 28.5312 417.93 28.4062C418.133 28.2656 418.422 28.1953 418.797 28.1953H419.898V19.8516C419.898 18.6328 419.688 17.7109 419.266 17.0859C418.844 16.4609 418.141 16.1484 417.156 16.1484C416.25 16.1484 415.391 16.5312 414.578 17.2969C413.766 18.0469 413.109 19.0547 412.609 20.3203C412.125 21.5859 411.883 22.9375 411.883 24.375V28.1953H412.984C413.359 28.1953 413.648 28.2656 413.852 28.4062C414.055 28.5312 414.203 28.7656 414.297 29.1094C414.406 29.4531 414.461 29.9531 414.461 30.6094C414.461 31.2656 414.406 31.7656 414.297 32.1094C414.203 32.4531 414.055 32.6875 413.852 32.8125C413.648 32.9375 413.359 33 412.984 33H404.219C403.844 33 403.555 32.9375 403.352 32.8125C403.148 32.6875 402.992 32.4531 402.883 32.1094C402.789 31.7656 402.742 31.2656 402.742 30.6094C402.742 29.9531 402.789 29.4531 402.883 29.1094C402.992 28.7656 403.148 28.5312 403.352 28.4062C403.555 28.2656 403.844 28.1953 404.219 28.1953H406.023V16.1484H403.75C403.375 16.1484 403.086 16.0859 402.883 15.9609C402.68 15.8359 402.523 15.6016 402.414 15.2578C402.32 14.9141 402.273 14.4141 402.273 13.7578C402.273 13.1016 402.32 12.6016 402.414 12.2578C402.523 11.9141 402.68 11.6797 402.883 11.5547C403.086 11.4141 403.375 11.3438 403.75 11.3438H409.469C410 11.3438 410.375 11.4609 410.594 11.6953C410.828 11.9141 410.945 12.2891 410.945 12.8203V16.2188C413.008 12.625 415.586 10.8281 418.68 10.8281ZM452.641 2.25C453.172 2.25 453.547 2.36719 453.766 2.60156C454 2.82031 454.117 3.19531 454.117 3.72656V28.1953H456.156C456.531 28.1953 456.82 28.2578 457.023 28.3828C457.227 28.5078 457.375 28.7422 457.469 29.0859C457.578 29.4297 457.633 29.9297 457.633 30.5859C457.633 31.2422 457.578 31.7422 457.469 32.0859C457.375 32.4297 457.227 32.6719 457.023 32.8125C456.82 32.9375 456.531 33 456.156 33H450.672C450.141 33 449.758 32.8906 449.523 32.6719C449.305 32.4375 449.195 32.0547 449.195 31.5234V29.5547C448.383 30.8047 447.367 31.7812 446.148 32.4844C444.93 33.1719 443.578 33.5156 442.094 33.5156C440.047 33.5156 438.258 33.0156 436.727 32.0156C435.195 31.0156 434.023 29.6562 433.211 27.9375C432.398 26.2188 431.992 24.2969 431.992 22.1719C431.992 20.0469 432.398 18.125 433.211 16.4062C434.023 14.6875 435.195 13.3281 436.727 12.3281C438.258 11.3281 440.047 10.8281 442.094 10.8281C443.312 10.8281 444.445 11.0703 445.492 11.5547C446.539 12.0234 447.461 12.7031 448.258 13.5938V7.05469H444.812C444.438 7.05469 444.148 6.99219 443.945 6.86719C443.742 6.74219 443.586 6.50781 443.477 6.16406C443.383 5.82031 443.336 5.32031 443.336 4.66406C443.336 4.00781 443.383 3.50781 443.477 3.16406C443.586 2.82031 443.742 2.58594 443.945 2.46094C444.148 2.32031 444.438 2.25 444.812 2.25H452.641ZM443.031 16.1484C442.062 16.1484 441.219 16.3984 440.5 16.8984C439.781 17.3828 439.227 18.0781 438.836 18.9844C438.461 19.8906 438.273 20.9531 438.273 22.1719C438.273 23.3906 438.461 24.4531 438.836 25.3594C439.227 26.2656 439.781 26.9688 440.5 27.4688C441.219 27.9531 442.062 28.1953 443.031 28.1953C444.031 28.1953 444.938 27.9609 445.75 27.4922C446.562 27.0234 447.211 26.3359 447.695 25.4297C448.18 24.5078 448.422 23.4219 448.422 22.1719C448.422 20.9219 448.18 19.8438 447.695 18.9375C447.211 18.0156 446.562 17.3203 445.75 16.8516C444.938 16.3828 444.031 16.1484 443.031 16.1484Z" fill="white"/>
<path d="M479.852 0.210938C480.898 0.210938 481.773 0.382812 482.477 0.726562C483.195 1.07031 483.555 1.50781 483.555 2.03906C483.555 2.21094 483.523 2.36719 483.461 2.50781L467.852 40.4297C467.57 41.1016 466.93 41.4375 465.93 41.4375C464.883 41.4375 464 41.2656 463.281 40.9219C462.578 40.5781 462.227 40.1406 462.227 39.6094C462.227 39.4375 462.258 39.2812 462.32 39.1406L477.93 1.21875C478.211 0.546875 478.852 0.210938 479.852 0.210938Z" fill="#4854AF"/>
</svg>
