<svg width="992" height="50" viewBox="0 0 992 50" fill="none" xmlns="http://www.w3.org/2000/svg">
<path d="M22.4053 9.02295C22.7633 8.84391 23.0588 8.75439 23.2915 8.75439C23.6496 8.75439 23.9897 8.91553 24.312 9.23779C24.6343 9.56006 24.9834 10.0972 25.3594 10.8491C25.8249 11.7801 26.0576 12.5231 26.0576 13.0781C26.0576 13.6868 25.7354 14.1613 25.0908 14.5015L9.38037 22.3433L25.0908 30.1851C25.7354 30.5252 26.0576 30.9997 26.0576 31.6084C26.0576 32.1634 25.8249 32.9064 25.3594 33.8374C24.9834 34.5894 24.6343 35.1265 24.312 35.4487C23.9897 35.771 23.6496 35.9321 23.2915 35.9321C23.0588 35.9321 22.7633 35.8426 22.4053 35.6636L1.45801 24.8677C1.01042 24.6349 0.688151 24.3395 0.491211 23.9814C0.312174 23.6234 0.222656 23.0773 0.222656 22.3433C0.222656 21.6092 0.312174 21.0632 0.491211 20.7051C0.688151 20.347 1.01042 20.0516 1.45801 19.8188L22.4053 9.02295ZM990.013 19.8188C990.46 20.0516 990.774 20.347 990.953 20.7051C991.15 21.0632 991.248 21.6092 991.248 22.3433C991.248 23.0773 991.15 23.6234 990.953 23.9814C990.774 24.3395 990.46 24.6349 990.013 24.8677L969.065 35.6636C968.707 35.8426 968.412 35.9321 968.179 35.9321C967.821 35.9321 967.481 35.771 967.159 35.4487C966.836 35.1265 966.487 34.5894 966.111 33.8374C965.646 32.9064 965.413 32.1634 965.413 31.6084C965.413 30.9997 965.735 30.5252 966.38 30.1851L982.09 22.3433L966.38 14.5015C965.735 14.1613 965.413 13.6868 965.413 13.0781C965.413 12.5231 965.646 11.7801 966.111 10.8491C966.487 10.0972 966.836 9.56006 967.159 9.23779C967.481 8.91553 967.821 8.75439 968.179 8.75439C968.412 8.75439 968.707 8.84391 969.065 9.02295L990.013 19.8188Z" fill="#AD2647"/>
<path d="M46.5785 38.55C42.9452 38.55 40.0618 37.9167 37.9285 36.65C35.8285 35.35 34.3118 33.4 33.3785 30.8C32.4785 28.2 32.0285 24.95 32.0285 21.05C32.0285 17.1167 32.4785 13.8333 33.3785 11.2C34.3118 8.56667 35.8285 6.58333 37.9285 5.25C40.0618 3.91666 42.9452 3.25 46.5785 3.25C50.2118 3.25 53.0785 3.91666 55.1785 5.25C57.3118 6.58333 58.8285 8.56667 59.7285 11.2C60.6619 13.8333 61.1285 17.1167 61.1285 21.05C61.1285 25.0167 60.6619 28.3 59.7285 30.9C58.8285 33.5 57.3118 35.4333 55.1785 36.7C53.0785 37.9333 50.2118 38.55 46.5785 38.55ZM46.5785 32.75C48.6785 32.75 50.2618 32.3333 51.3285 31.5C52.4285 30.6333 53.1618 29.3333 53.5285 27.6C53.8952 25.8333 54.0785 23.65 54.0785 21.05C54.0785 18.45 53.8785 16.2667 53.4785 14.5C53.1119 12.7 52.3952 11.35 51.3285 10.45C50.2618 9.51666 48.6785 9.05 46.5785 9.05C44.5118 9.05 42.9285 9.51666 41.8285 10.45C40.7618 11.35 40.0285 12.7 39.6285 14.5C39.2285 16.2667 39.0285 18.45 39.0285 21.05C39.0285 23.6167 39.2118 25.7667 39.5785 27.5C39.9785 29.2333 40.7118 30.55 41.7785 31.45C42.8785 32.3167 44.4785 32.75 46.5785 32.75ZM85.2703 38.55C84.0703 38.55 82.9703 38.4 81.9703 38.1C80.9703 37.8333 80.087 37.4 79.3203 36.8C78.587 36.1667 77.9536 35.35 77.4203 34.35C76.9203 33.35 76.537 32.1333 76.2703 30.7C76.0036 29.2333 75.8703 27.5333 75.8703 25.6C75.8703 22.7333 76.2203 20.3167 76.9203 18.35C77.6536 16.3833 78.8036 14.9 80.3703 13.9C81.937 12.8667 84.0203 12.35 86.6203 12.35C87.387 12.35 88.287 12.4167 89.3203 12.55C90.387 12.65 91.237 12.75 91.8703 12.85V2.65H98.5703V38H91.9703L91.9203 36.55C91.4536 36.8167 90.837 37.1167 90.0703 37.45C89.337 37.75 88.5536 38 87.7203 38.2C86.887 38.4333 86.0703 38.55 85.2703 38.55ZM86.9703 32.95C87.5703 32.95 88.1703 32.8833 88.7703 32.75C89.4036 32.6167 89.987 32.4667 90.5203 32.3C91.087 32.1 91.537 31.9167 91.8703 31.75V18.3C91.5703 18.2333 91.1703 18.1833 90.6703 18.15C90.1703 18.0833 89.6536 18.0333 89.1203 18C88.587 17.9333 88.1036 17.9 87.6703 17.9C86.3703 17.9 85.3536 18.2 84.6203 18.8C83.9203 19.4 83.4203 20.2833 83.1203 21.45C82.8203 22.5833 82.6703 23.9667 82.6703 25.6C82.6703 27.0333 82.7703 28.2333 82.9703 29.2C83.1703 30.1333 83.4536 30.8833 83.8203 31.45C84.2203 31.9833 84.687 32.3667 85.2203 32.6C85.7536 32.8333 86.337 32.95 86.9703 32.95ZM114.216 38.55C111.45 38.55 109.25 38.0833 107.616 37.15C106.016 36.2167 104.866 34.8 104.166 32.9C103.466 31 103.116 28.6167 103.116 25.75C103.116 22.65 103.55 20.1167 104.416 18.15C105.316 16.1833 106.616 14.7333 108.316 13.8C110.016 12.8333 112.116 12.35 114.616 12.35C118.316 12.35 121.1 13.2833 122.966 15.15C124.866 17.0167 125.816 19.9667 125.816 24L125.516 27.7H109.816C109.85 29.5667 110.233 30.9667 110.966 31.9C111.7 32.8333 112.966 33.3 114.766 33.3C115.8 33.3 116.933 33.2833 118.166 33.25C119.4 33.1833 120.616 33.1167 121.816 33.05C123.05 32.9833 124.1 32.9167 124.966 32.85L125.116 37.5C124.283 37.6333 123.233 37.7833 121.966 37.95C120.7 38.1167 119.383 38.25 118.016 38.35C116.683 38.4833 115.416 38.55 114.216 38.55ZM109.816 23.45H119.166C119.166 21.1833 118.8 19.6 118.066 18.7C117.366 17.8 116.216 17.35 114.616 17.35C113.05 17.35 111.85 17.8167 111.016 18.75C110.216 19.6833 109.816 21.25 109.816 23.45ZM140.238 38.55C139.405 38.55 138.388 38.5167 137.188 38.45C135.988 38.3833 134.755 38.2833 133.488 38.15C132.255 38.0167 131.155 37.9 130.188 37.8V2.65H136.888V13.7C137.655 13.4 138.655 13.1 139.888 12.8C141.122 12.5 142.272 12.35 143.338 12.35C145.672 12.35 147.522 12.8333 148.888 13.8C150.288 14.7333 151.288 16.1333 151.888 18C152.488 19.8667 152.788 22.2167 152.788 25.05C152.788 28.3833 152.405 31.05 151.638 33.05C150.905 35.0167 149.622 36.4333 147.788 37.3C145.955 38.1333 143.438 38.55 140.238 38.55ZM140.288 32.95C141.922 32.95 143.138 32.6667 143.938 32.1C144.738 31.5 145.272 30.6167 145.538 29.45C145.838 28.2833 145.988 26.85 145.988 25.15C145.988 23.4167 145.855 22.0333 145.588 21C145.322 19.9333 144.872 19.1667 144.238 18.7C143.638 18.2 142.788 17.95 141.688 17.95C140.855 17.95 139.988 18.0667 139.088 18.3C138.188 18.5333 137.455 18.75 136.888 18.95V32.75C137.388 32.7833 137.972 32.8333 138.638 32.9C139.305 32.9333 139.855 32.95 140.288 32.95ZM165.387 38.55C163.22 38.55 161.537 38.1 160.337 37.2C159.17 36.2667 158.337 34.8667 157.837 33C157.37 31.1333 157.137 28.7833 157.137 25.95V12.9H163.787V25.65C163.787 27.4167 163.87 28.8167 164.037 29.85C164.237 30.8833 164.62 31.6167 165.187 32.05C165.753 32.4833 166.57 32.7 167.637 32.7C168.67 32.7 169.637 32.5667 170.537 32.3C171.437 32.0333 172.153 31.7667 172.687 31.5V12.9H179.337V38H172.737V36.45C171.603 37.0833 170.47 37.6 169.337 38C168.237 38.3667 166.92 38.55 165.387 38.55ZM195.878 49.45C193.211 49.45 190.978 49.25 189.178 48.85C187.411 48.45 186.078 47.7167 185.178 46.65C184.278 45.6167 183.828 44.1167 183.828 42.15C183.828 41.2833 183.945 40.5 184.178 39.8C184.445 39.1333 184.845 38.5 185.378 37.9C185.945 37.3 186.645 36.6833 187.478 36.05C187.011 35.7167 186.628 35.2333 186.328 34.6C186.061 33.9333 185.928 33.2167 185.928 32.45C185.928 32.05 186.161 31.4667 186.628 30.7C187.128 29.9 187.611 29.2 188.078 28.6C187.411 28.3 186.778 27.8667 186.178 27.3C185.578 26.7 185.078 25.9 184.678 24.9C184.311 23.9 184.128 22.6167 184.128 21.05C184.128 17.8833 185.028 15.65 186.828 14.35C188.661 13.0167 191.261 12.35 194.628 12.35C195.495 12.35 196.428 12.4167 197.428 12.55C198.428 12.6833 199.228 12.8167 199.828 12.95L207.978 12.8V17.3L204.178 17.25C204.478 17.65 204.745 18.1667 204.978 18.8C205.245 19.4 205.378 20.15 205.378 21.05C205.378 23.35 204.978 25.1333 204.178 26.4C203.411 27.6667 202.245 28.55 200.678 29.05C199.111 29.5167 197.128 29.75 194.728 29.75C194.461 29.75 194.095 29.7333 193.628 29.7C193.161 29.6333 192.778 29.5833 192.478 29.55C192.345 29.8833 192.211 30.2667 192.078 30.7C191.945 31.1 191.878 31.3833 191.878 31.55C191.878 31.9833 192.011 32.3167 192.278 32.55C192.578 32.7833 193.161 32.95 194.028 33.05C194.928 33.1167 196.278 33.15 198.078 33.15C200.445 33.15 202.328 33.3667 203.728 33.8C205.161 34.2333 206.178 35 206.778 36.1C207.378 37.2 207.678 38.75 207.678 40.75C207.678 43.7167 206.628 45.9 204.528 47.3C202.461 48.7333 199.578 49.45 195.878 49.45ZM195.528 44.5C197.595 44.5 199.078 44.25 199.978 43.75C200.911 43.2833 201.378 42.5 201.378 41.4C201.378 40.5333 201.211 39.9 200.878 39.5C200.578 39.1 200.061 38.8333 199.328 38.7C198.595 38.6 197.595 38.55 196.328 38.55C195.995 38.55 195.595 38.5333 195.128 38.5C194.661 38.5 194.178 38.4833 193.678 38.45C193.211 38.45 192.778 38.4333 192.378 38.4C192.011 38.3667 191.745 38.35 191.578 38.35C190.845 38.85 190.345 39.3 190.078 39.7C189.811 40.1333 189.678 40.7 189.678 41.4C189.678 42.1667 189.861 42.7667 190.228 43.2C190.595 43.6667 191.195 44 192.028 44.2C192.895 44.4 194.061 44.5 195.528 44.5ZM194.678 25.05C196.211 25.05 197.295 24.75 197.928 24.15C198.595 23.5167 198.928 22.4833 198.928 21.05C198.928 19.6167 198.595 18.5833 197.928 17.95C197.295 17.3167 196.211 17 194.678 17C193.211 17 192.145 17.3167 191.478 17.95C190.845 18.5833 190.528 19.6167 190.528 21.05C190.528 22.4833 190.845 23.5167 191.478 24.15C192.145 24.75 193.211 25.05 194.678 25.05ZM211.488 38V12.9H218.138V15.85C218.705 15.4167 219.405 14.9667 220.238 14.5C221.072 14 221.972 13.55 222.938 13.15C223.938 12.7167 224.888 12.4333 225.788 12.3V18.75C224.922 18.8833 224.005 19.1167 223.038 19.45C222.072 19.75 221.155 20.0833 220.288 20.45C219.455 20.8167 218.738 21.15 218.138 21.45V38H211.488ZM235.812 38.55C233.212 38.55 231.245 37.9 229.912 36.6C228.612 35.2667 227.962 33.2667 227.962 30.6C227.962 28.7333 228.295 27.2833 228.962 26.25C229.628 25.1833 230.612 24.4167 231.912 23.95C233.245 23.45 234.862 23.15 236.762 23.05L242.862 22.5V21C242.862 19.8 242.562 18.9667 241.962 18.5C241.362 18 240.478 17.75 239.312 17.75C238.378 17.75 237.295 17.7833 236.062 17.85C234.862 17.9167 233.662 18 232.462 18.1C231.295 18.2 230.278 18.3 229.412 18.4L229.212 13.7C230.078 13.5 231.112 13.3 232.312 13.1C233.545 12.8667 234.828 12.6833 236.162 12.55C237.495 12.4167 238.728 12.35 239.862 12.35C241.995 12.35 243.778 12.6167 245.212 13.15C246.645 13.6833 247.728 14.5667 248.462 15.8C249.195 17 249.562 18.6333 249.562 20.7V32.15C249.628 32.6167 249.878 32.9833 250.312 33.25C250.745 33.4833 251.245 33.65 251.812 33.75L251.662 38.35C250.862 38.3833 250.078 38.4 249.312 38.4C248.545 38.4 247.895 38.35 247.362 38.25C246.595 38.15 245.928 37.95 245.362 37.65C244.828 37.35 244.395 37.0333 244.062 36.7C243.528 36.9333 242.812 37.2 241.912 37.5C241.012 37.8 240.028 38.05 238.962 38.25C237.928 38.45 236.878 38.55 235.812 38.55ZM237.412 33.6C238.045 33.6 238.712 33.5333 239.412 33.4C240.112 33.2667 240.762 33.1167 241.362 32.95C241.995 32.75 242.495 32.5667 242.862 32.4V26.65L237.762 27.1C236.662 27.2 235.862 27.5333 235.362 28.1C234.895 28.6333 234.662 29.4 234.662 30.4C234.662 31.4 234.878 32.1833 235.312 32.75C235.778 33.3167 236.478 33.6 237.412 33.6ZM265.684 38.55C262.817 38.55 260.567 38.1167 258.934 37.25C257.334 36.35 256.2 34.9167 255.534 32.95C254.9 30.9833 254.584 28.4 254.584 25.2C254.584 22.0333 254.95 19.5167 255.684 17.65C256.417 15.75 257.6 14.4 259.234 13.6C260.9 12.7667 263.067 12.35 265.734 12.35C266.434 12.35 267.25 12.4 268.184 12.5C269.117 12.6 270.05 12.7333 270.984 12.9C271.95 13.0333 272.767 13.1667 273.434 13.3L273.184 18.65C272.55 18.5833 271.834 18.5333 271.034 18.5C270.234 18.4333 269.45 18.3833 268.684 18.35C267.95 18.2833 267.35 18.25 266.884 18.25C265.45 18.25 264.317 18.4833 263.484 18.95C262.684 19.3833 262.117 20.1167 261.784 21.15C261.484 22.15 261.334 23.5 261.334 25.2C261.334 27.0333 261.484 28.5 261.784 29.6C262.084 30.7 262.617 31.4833 263.384 31.95C264.184 32.4167 265.35 32.65 266.884 32.65C267.35 32.65 267.967 32.6333 268.734 32.6C269.5 32.5333 270.284 32.4667 271.084 32.4C271.917 32.3333 272.65 32.2833 273.284 32.25L273.484 37.6C272.817 37.7333 272.017 37.8667 271.084 38C270.15 38.1667 269.2 38.3 268.234 38.4C267.3 38.5 266.45 38.55 265.684 38.55ZM287.947 38.55C285.18 38.55 282.98 38.0833 281.347 37.15C279.747 36.2167 278.597 34.8 277.897 32.9C277.197 31 276.847 28.6167 276.847 25.75C276.847 22.65 277.28 20.1167 278.147 18.15C279.047 16.1833 280.347 14.7333 282.047 13.8C283.747 12.8333 285.847 12.35 288.347 12.35C292.047 12.35 294.83 13.2833 296.697 15.15C298.597 17.0167 299.547 19.9667 299.547 24L299.247 27.7H283.547C283.58 29.5667 283.964 30.9667 284.697 31.9C285.43 32.8333 286.697 33.3 288.497 33.3C289.53 33.3 290.664 33.2833 291.897 33.25C293.13 33.1833 294.347 33.1167 295.547 33.05C296.78 32.9833 297.83 32.9167 298.697 32.85L298.847 37.5C298.014 37.6333 296.964 37.7833 295.697 37.95C294.43 38.1167 293.114 38.25 291.747 38.35C290.414 38.4833 289.147 38.55 287.947 38.55ZM283.547 23.45H292.897C292.897 21.1833 292.53 19.6 291.797 18.7C291.097 17.8 289.947 17.35 288.347 17.35C286.78 17.35 285.58 17.8167 284.747 18.75C283.947 19.6833 283.547 21.25 283.547 23.45ZM318.807 38L312.857 12.9H320.007L324.207 32.35H325.657L329.957 12.9H336.707L330.757 38H318.807ZM350.349 38.55C347.583 38.55 345.383 38.0833 343.749 37.15C342.149 36.2167 340.999 34.8 340.299 32.9C339.599 31 339.249 28.6167 339.249 25.75C339.249 22.65 339.683 20.1167 340.549 18.15C341.449 16.1833 342.749 14.7333 344.449 13.8C346.149 12.8333 348.249 12.35 350.749 12.35C354.449 12.35 357.233 13.2833 359.099 15.15C360.999 17.0167 361.949 19.9667 361.949 24L361.649 27.7H345.949C345.983 29.5667 346.366 30.9667 347.099 31.9C347.833 32.8333 349.099 33.3 350.899 33.3C351.933 33.3 353.066 33.2833 354.299 33.25C355.533 33.1833 356.749 33.1167 357.949 33.05C359.183 32.9833 360.233 32.9167 361.099 32.85L361.249 37.5C360.416 37.6333 359.366 37.7833 358.099 37.95C356.833 38.1167 355.516 38.25 354.149 38.35C352.816 38.4833 351.549 38.55 350.349 38.55ZM345.949 23.45H355.299C355.299 21.1833 354.933 19.6 354.199 18.7C353.499 17.8 352.349 17.35 350.749 17.35C349.183 17.35 347.983 17.8167 347.149 18.75C346.349 19.6833 345.949 21.25 345.949 23.45ZM366.371 38V12.9H373.021V38H366.371ZM366.371 8.9V3.2H373.071V8.9H366.371ZM389.378 38.55C386.545 38.55 384.261 38.0833 382.528 37.15C380.828 36.2167 379.595 34.7833 378.828 32.85C378.061 30.8833 377.678 28.35 377.678 25.25C377.678 22.25 378.078 19.8167 378.878 17.95C379.678 16.05 380.945 14.65 382.678 13.75C384.411 12.8167 386.645 12.35 389.378 12.35C392.145 12.35 394.378 12.8167 396.078 13.75C397.811 14.65 399.078 16.05 399.878 17.95C400.711 19.8167 401.128 22.25 401.128 25.25C401.128 28.35 400.745 30.8833 399.978 32.85C399.211 34.7833 397.961 36.2167 396.228 37.15C394.528 38.0833 392.245 38.55 389.378 38.55ZM389.378 33.05C390.778 33.05 391.828 32.8 392.528 32.3C393.228 31.7667 393.695 30.9333 393.928 29.8C394.195 28.6333 394.328 27.1167 394.328 25.25C394.328 23.4167 394.178 21.9667 393.878 20.9C393.578 19.8 393.078 19.0167 392.378 18.55C391.678 18.0833 390.678 17.85 389.378 17.85C388.111 17.85 387.111 18.0833 386.378 18.55C385.678 19.0167 385.178 19.8 384.878 20.9C384.578 21.9667 384.428 23.4167 384.428 25.25C384.428 27.1167 384.545 28.6333 384.778 29.8C385.045 30.9333 385.528 31.7667 386.228 32.3C386.928 32.8 387.978 33.05 389.378 33.05ZM416.566 48.55V12.9H423.166L423.216 14.5C423.683 14.2 424.266 13.8833 424.966 13.55C425.7 13.2167 426.483 12.9333 427.316 12.7C428.15 12.4667 428.966 12.35 429.766 12.35C433.133 12.35 435.55 13.4333 437.016 15.6C438.483 17.7333 439.216 20.9833 439.216 25.35C439.216 28.4833 438.85 31.0167 438.116 32.95C437.383 34.8833 436.2 36.3 434.566 37.2C432.966 38.1 430.85 38.55 428.216 38.55C427.383 38.55 426.483 38.4833 425.516 38.35C424.55 38.2167 423.783 38.0833 423.216 37.95V48.55H416.566ZM427.166 33C428.5 33 429.55 32.7167 430.316 32.15C431.083 31.5833 431.616 30.7333 431.916 29.6C432.25 28.4333 432.416 26.9667 432.416 25.2C432.416 22.4667 432.033 20.5833 431.266 19.55C430.533 18.4833 429.466 17.95 428.066 17.95C427.533 17.95 426.966 18.0167 426.366 18.15C425.766 18.2833 425.183 18.45 424.616 18.65C424.05 18.85 423.583 19.05 423.216 19.25V32.65C423.616 32.6833 424.183 32.75 424.916 32.85C425.683 32.95 426.433 33 427.166 33ZM450.314 38.55C447.714 38.55 445.747 37.9 444.414 36.6C443.114 35.2667 442.464 33.2667 442.464 30.6C442.464 28.7333 442.797 27.2833 443.464 26.25C444.13 25.1833 445.114 24.4167 446.414 23.95C447.747 23.45 449.364 23.15 451.264 23.05L457.364 22.5V21C457.364 19.8 457.064 18.9667 456.464 18.5C455.864 18 454.98 17.75 453.814 17.75C452.88 17.75 451.797 17.7833 450.564 17.85C449.364 17.9167 448.164 18 446.964 18.1C445.797 18.2 444.78 18.3 443.914 18.4L443.714 13.7C444.58 13.5 445.614 13.3 446.814 13.1C448.047 12.8667 449.33 12.6833 450.664 12.55C451.997 12.4167 453.23 12.35 454.364 12.35C456.497 12.35 458.28 12.6167 459.714 13.15C461.147 13.6833 462.23 14.5667 462.964 15.8C463.697 17 464.064 18.6333 464.064 20.7V32.15C464.13 32.6167 464.38 32.9833 464.814 33.25C465.247 33.4833 465.747 33.65 466.314 33.75L466.164 38.35C465.364 38.3833 464.58 38.4 463.814 38.4C463.047 38.4 462.397 38.35 461.864 38.25C461.097 38.15 460.43 37.95 459.864 37.65C459.33 37.35 458.897 37.0333 458.564 36.7C458.03 36.9333 457.314 37.2 456.414 37.5C455.514 37.8 454.53 38.05 453.464 38.25C452.43 38.45 451.38 38.55 450.314 38.55ZM451.914 33.6C452.547 33.6 453.214 33.5333 453.914 33.4C454.614 33.2667 455.264 33.1167 455.864 32.95C456.497 32.75 456.997 32.5667 457.364 32.4V26.65L452.264 27.1C451.164 27.2 450.364 27.5333 449.864 28.1C449.397 28.6333 449.164 29.4 449.164 30.4C449.164 31.4 449.38 32.1833 449.814 32.75C450.28 33.3167 450.98 33.6 451.914 33.6ZM469.936 38V12.9H476.586V15.85C477.152 15.4167 477.852 14.9667 478.686 14.5C479.519 14 480.419 13.55 481.386 13.15C482.386 12.7167 483.336 12.4333 484.236 12.3V18.75C483.369 18.8833 482.452 19.1167 481.486 19.45C480.519 19.75 479.602 20.0833 478.736 20.45C477.902 20.8167 477.186 21.15 476.586 21.45V38H469.936ZM494.259 38.55C491.659 38.55 489.692 37.9 488.359 36.6C487.059 35.2667 486.409 33.2667 486.409 30.6C486.409 28.7333 486.742 27.2833 487.409 26.25C488.076 25.1833 489.059 24.4167 490.359 23.95C491.692 23.45 493.309 23.15 495.209 23.05L501.309 22.5V21C501.309 19.8 501.009 18.9667 500.409 18.5C499.809 18 498.926 17.75 497.759 17.75C496.826 17.75 495.742 17.7833 494.509 17.85C493.309 17.9167 492.109 18 490.909 18.1C489.742 18.2 488.726 18.3 487.859 18.4L487.659 13.7C488.526 13.5 489.559 13.3 490.759 13.1C491.992 12.8667 493.276 12.6833 494.609 12.55C495.942 12.4167 497.176 12.35 498.309 12.35C500.442 12.35 502.226 12.6167 503.659 13.15C505.092 13.6833 506.176 14.5667 506.909 15.8C507.642 17 508.009 18.6333 508.009 20.7V32.15C508.076 32.6167 508.326 32.9833 508.759 33.25C509.192 33.4833 509.692 33.65 510.259 33.75L510.109 38.35C509.309 38.3833 508.526 38.4 507.759 38.4C506.992 38.4 506.342 38.35 505.809 38.25C505.042 38.15 504.376 37.95 503.809 37.65C503.276 37.35 502.842 37.0333 502.509 36.7C501.976 36.9333 501.259 37.2 500.359 37.5C499.459 37.8 498.476 38.05 497.409 38.25C496.376 38.45 495.326 38.55 494.259 38.55ZM495.859 33.6C496.492 33.6 497.159 33.5333 497.859 33.4C498.559 33.2667 499.209 33.1167 499.809 32.95C500.442 32.75 500.942 32.5667 501.309 32.4V26.65L496.209 27.1C495.109 27.2 494.309 27.5333 493.809 28.1C493.342 28.6333 493.109 29.4 493.109 30.4C493.109 31.4 493.326 32.1833 493.759 32.75C494.226 33.3167 494.926 33.6 495.859 33.6ZM533.57 38.6C531.736 38.6 530.253 38.3333 529.12 37.8C527.986 37.2667 527.17 36.35 526.67 35.05C526.203 33.7167 525.97 31.8667 525.97 29.5V18.45H523.02V12.9H525.97V6.25H532.62V12.9H539.02V18.45H532.62V27.75C532.62 29.05 532.67 30.0667 532.77 30.8C532.903 31.5333 533.17 32.05 533.57 32.35C533.97 32.65 534.586 32.8 535.42 32.8C535.653 32.8 536.003 32.7833 536.47 32.75C536.936 32.7167 537.403 32.6833 537.87 32.65C538.336 32.6167 538.72 32.5833 539.02 32.55L539.22 37.9C538.42 38.0333 537.453 38.1833 536.32 38.35C535.22 38.5167 534.303 38.6 533.57 38.6ZM552.888 38.55C550.122 38.55 547.922 38.0833 546.288 37.15C544.688 36.2167 543.538 34.8 542.838 32.9C542.138 31 541.788 28.6167 541.788 25.75C541.788 22.65 542.222 20.1167 543.088 18.15C543.988 16.1833 545.288 14.7333 546.988 13.8C548.688 12.8333 550.788 12.35 553.288 12.35C556.988 12.35 559.772 13.2833 561.638 15.15C563.538 17.0167 564.488 19.9667 564.488 24L564.188 27.7H548.488C548.522 29.5667 548.905 30.9667 549.638 31.9C550.372 32.8333 551.638 33.3 553.438 33.3C554.472 33.3 555.605 33.2833 556.838 33.25C558.072 33.1833 559.288 33.1167 560.488 33.05C561.722 32.9833 562.772 32.9167 563.638 32.85L563.788 37.5C562.955 37.6333 561.905 37.7833 560.638 37.95C559.372 38.1167 558.055 38.25 556.688 38.35C555.355 38.4833 554.088 38.55 552.888 38.55ZM548.488 23.45H557.838C557.838 21.1833 557.472 19.6 556.738 18.7C556.038 17.8 554.888 17.35 553.288 17.35C551.722 17.35 550.522 17.8167 549.688 18.75C548.888 19.6833 548.488 21.25 548.488 23.45ZM586.349 38.55C583.749 38.55 581.782 37.9 580.449 36.6C579.149 35.2667 578.499 33.2667 578.499 30.6C578.499 28.7333 578.832 27.2833 579.499 26.25C580.165 25.1833 581.149 24.4167 582.449 23.95C583.782 23.45 585.399 23.15 587.299 23.05L593.399 22.5V21C593.399 19.8 593.099 18.9667 592.499 18.5C591.899 18 591.015 17.75 589.849 17.75C588.915 17.75 587.832 17.7833 586.599 17.85C585.399 17.9167 584.199 18 582.999 18.1C581.832 18.2 580.815 18.3 579.949 18.4L579.749 13.7C580.615 13.5 581.649 13.3 582.849 13.1C584.082 12.8667 585.365 12.6833 586.699 12.55C588.032 12.4167 589.265 12.35 590.399 12.35C592.532 12.35 594.315 12.6167 595.749 13.15C597.182 13.6833 598.265 14.5667 598.999 15.8C599.732 17 600.099 18.6333 600.099 20.7V32.15C600.165 32.6167 600.415 32.9833 600.849 33.25C601.282 33.4833 601.782 33.65 602.349 33.75L602.199 38.35C601.399 38.3833 600.615 38.4 599.849 38.4C599.082 38.4 598.432 38.35 597.899 38.25C597.132 38.15 596.465 37.95 595.899 37.65C595.365 37.35 594.932 37.0333 594.599 36.7C594.065 36.9333 593.349 37.2 592.449 37.5C591.549 37.8 590.565 38.05 589.499 38.25C588.465 38.45 587.415 38.55 586.349 38.55ZM587.949 33.6C588.582 33.6 589.249 33.5333 589.949 33.4C590.649 33.2667 591.299 33.1167 591.899 32.95C592.532 32.75 593.032 32.5667 593.399 32.4V26.65L588.299 27.1C587.199 27.2 586.399 27.5333 585.899 28.1C585.432 28.6333 585.199 29.4 585.199 30.4C585.199 31.4 585.415 32.1833 585.849 32.75C586.315 33.3167 587.015 33.6 587.949 33.6ZM602.921 49.1L600.571 44C601.737 43.3667 602.671 42.8 603.371 42.3C604.104 41.8333 604.654 41.3333 605.021 40.8C605.387 40.3 605.637 39.7 605.771 39C605.904 38.3 605.971 37.4 605.971 36.3V12.9H612.671V36.2C612.671 38.1 612.521 39.6833 612.221 40.95C611.954 42.25 611.454 43.35 610.721 44.25C610.021 45.1833 609.037 46.0167 607.771 46.75C606.504 47.4833 604.887 48.2667 602.921 49.1ZM605.971 8.85V3.2H612.671V8.85H605.971ZM626.178 38.55C624.011 38.55 622.328 38.1 621.128 37.2C619.961 36.2667 619.128 34.8667 618.628 33C618.161 31.1333 617.928 28.7833 617.928 25.95V12.9H624.578V25.65C624.578 27.4167 624.661 28.8167 624.828 29.85C625.028 30.8833 625.411 31.6167 625.978 32.05C626.544 32.4833 627.361 32.7 628.428 32.7C629.461 32.7 630.428 32.5667 631.328 32.3C632.228 32.0333 632.944 31.7667 633.478 31.5V12.9H640.128V38H633.528V36.45C632.394 37.0833 631.261 37.6 630.128 38C629.028 38.3667 627.711 38.55 626.178 38.55ZM654.069 38.55C652.869 38.55 651.769 38.4 650.769 38.1C649.769 37.8333 648.886 37.4 648.119 36.8C647.386 36.1667 646.752 35.35 646.219 34.35C645.719 33.35 645.336 32.1333 645.069 30.7C644.802 29.2333 644.669 27.5333 644.669 25.6C644.669 22.7333 645.019 20.3167 645.719 18.35C646.452 16.3833 647.602 14.9 649.169 13.9C650.736 12.8667 652.819 12.35 655.419 12.35C656.186 12.35 657.086 12.4167 658.119 12.55C659.186 12.65 660.036 12.75 660.669 12.85V2.65H667.369V38H660.769L660.719 36.55C660.252 36.8167 659.636 37.1167 658.869 37.45C658.136 37.75 657.352 38 656.519 38.2C655.686 38.4333 654.869 38.55 654.069 38.55ZM655.769 32.95C656.369 32.95 656.969 32.8833 657.569 32.75C658.202 32.6167 658.786 32.4667 659.319 32.3C659.886 32.1 660.336 31.9167 660.669 31.75V18.3C660.369 18.2333 659.969 18.1833 659.469 18.15C658.969 18.0833 658.452 18.0333 657.919 18C657.386 17.9333 656.902 17.9 656.469 17.9C655.169 17.9 654.152 18.2 653.419 18.8C652.719 19.4 652.219 20.2833 651.919 21.45C651.619 22.5833 651.469 23.9667 651.469 25.6C651.469 27.0333 651.569 28.2333 651.769 29.2C651.969 30.1333 652.252 30.8833 652.619 31.45C653.019 31.9833 653.486 32.3667 654.019 32.6C654.552 32.8333 655.136 32.95 655.769 32.95ZM679.415 38.55C676.815 38.55 674.849 37.9 673.515 36.6C672.215 35.2667 671.565 33.2667 671.565 30.6C671.565 28.7333 671.899 27.2833 672.565 26.25C673.232 25.1833 674.215 24.4167 675.515 23.95C676.849 23.45 678.465 23.15 680.365 23.05L686.465 22.5V21C686.465 19.8 686.165 18.9667 685.565 18.5C684.965 18 684.082 17.75 682.915 17.75C681.982 17.75 680.899 17.7833 679.665 17.85C678.465 17.9167 677.265 18 676.065 18.1C674.899 18.2 673.882 18.3 673.015 18.4L672.815 13.7C673.682 13.5 674.715 13.3 675.915 13.1C677.149 12.8667 678.432 12.6833 679.765 12.55C681.099 12.4167 682.332 12.35 683.465 12.35C685.599 12.35 687.382 12.6167 688.815 13.15C690.249 13.6833 691.332 14.5667 692.065 15.8C692.799 17 693.165 18.6333 693.165 20.7V32.15C693.232 32.6167 693.482 32.9833 693.915 33.25C694.349 33.4833 694.849 33.65 695.415 33.75L695.265 38.35C694.465 38.3833 693.682 38.4 692.915 38.4C692.149 38.4 691.499 38.35 690.965 38.25C690.199 38.15 689.532 37.95 688.965 37.65C688.432 37.35 687.999 37.0333 687.665 36.7C687.132 36.9333 686.415 37.2 685.515 37.5C684.615 37.8 683.632 38.05 682.565 38.25C681.532 38.45 680.482 38.55 679.415 38.55ZM681.015 33.6C681.649 33.6 682.315 33.5333 683.015 33.4C683.715 33.2667 684.365 33.1167 684.965 32.95C685.599 32.75 686.099 32.5667 686.465 32.4V26.65L681.365 27.1C680.265 27.2 679.465 27.5333 678.965 28.1C678.499 28.6333 678.265 29.4 678.265 30.4C678.265 31.4 678.482 32.1833 678.915 32.75C679.382 33.3167 680.082 33.6 681.015 33.6ZM699.037 38V12.9H705.687V15.85C706.254 15.4167 706.954 14.9667 707.787 14.5C708.62 14 709.52 13.55 710.487 13.15C711.487 12.7167 712.437 12.4333 713.337 12.3V18.75C712.47 18.8833 711.554 19.1167 710.587 19.45C709.62 19.75 708.704 20.0833 707.837 20.45C707.004 20.8167 706.287 21.15 705.687 21.45V38H699.037ZM734.249 38.55C731.649 38.55 729.683 37.9 728.349 36.6C727.049 35.2667 726.399 33.2667 726.399 30.6C726.399 28.7333 726.733 27.2833 727.399 26.25C728.066 25.1833 729.049 24.4167 730.349 23.95C731.683 23.45 733.299 23.15 735.199 23.05L741.299 22.5V21C741.299 19.8 740.999 18.9667 740.399 18.5C739.799 18 738.916 17.75 737.749 17.75C736.816 17.75 735.733 17.7833 734.499 17.85C733.299 17.9167 732.099 18 730.899 18.1C729.733 18.2 728.716 18.3 727.849 18.4L727.649 13.7C728.516 13.5 729.549 13.3 730.749 13.1C731.983 12.8667 733.266 12.6833 734.599 12.55C735.933 12.4167 737.166 12.35 738.299 12.35C740.433 12.35 742.216 12.6167 743.649 13.15C745.083 13.6833 746.166 14.5667 746.899 15.8C747.633 17 747.999 18.6333 747.999 20.7V32.15C748.066 32.6167 748.316 32.9833 748.749 33.25C749.183 33.4833 749.683 33.65 750.249 33.75L750.099 38.35C749.299 38.3833 748.516 38.4 747.749 38.4C746.983 38.4 746.333 38.35 745.799 38.25C745.033 38.15 744.366 37.95 743.799 37.65C743.266 37.35 742.833 37.0333 742.499 36.7C741.966 36.9333 741.249 37.2 740.349 37.5C739.449 37.8 738.466 38.05 737.399 38.25C736.366 38.45 735.316 38.55 734.249 38.55ZM735.849 33.6C736.483 33.6 737.149 33.5333 737.849 33.4C738.549 33.2667 739.199 33.1167 739.799 32.95C740.433 32.75 740.933 32.5667 741.299 32.4V26.65L736.199 27.1C735.099 27.2 734.299 27.5333 733.799 28.1C733.333 28.6333 733.099 29.4 733.099 30.4C733.099 31.4 733.316 32.1833 733.749 32.75C734.216 33.3167 734.916 33.6 735.849 33.6ZM774.91 38.55C772.143 38.55 769.943 38.0833 768.31 37.15C766.71 36.2167 765.56 34.8 764.86 32.9C764.16 31 763.81 28.6167 763.81 25.75C763.81 22.65 764.243 20.1167 765.11 18.15C766.01 16.1833 767.31 14.7333 769.01 13.8C770.71 12.8333 772.81 12.35 775.31 12.35C779.01 12.35 781.793 13.2833 783.66 15.15C785.56 17.0167 786.51 19.9667 786.51 24L786.21 27.7H770.51C770.543 29.5667 770.926 30.9667 771.66 31.9C772.393 32.8333 773.66 33.3 775.46 33.3C776.493 33.3 777.626 33.2833 778.86 33.25C780.093 33.1833 781.31 33.1167 782.51 33.05C783.743 32.9833 784.793 32.9167 785.66 32.85L785.81 37.5C784.976 37.6333 783.926 37.7833 782.66 37.95C781.393 38.1167 780.076 38.25 778.71 38.35C777.376 38.4833 776.11 38.55 774.91 38.55ZM770.51 23.45H779.86C779.86 21.1833 779.493 19.6 778.76 18.7C778.06 17.8 776.91 17.35 775.31 17.35C773.743 17.35 772.543 17.8167 771.71 18.75C770.91 19.6833 770.51 21.25 770.51 23.45ZM799.982 38.55C798.882 38.55 797.698 38.4833 796.432 38.35C795.198 38.25 794.032 38.1167 792.932 37.95C791.865 37.7833 790.948 37.6167 790.182 37.45L790.382 32.5C791.248 32.6 792.215 32.7167 793.282 32.85C794.382 32.9833 795.448 33.1 796.482 33.2C797.548 33.2667 798.415 33.3 799.082 33.3C800.082 33.3 800.898 33.2167 801.532 33.05C802.198 32.8833 802.698 32.6167 803.032 32.25C803.365 31.85 803.532 31.2833 803.532 30.55C803.532 29.9833 803.382 29.55 803.082 29.25C802.815 28.95 802.282 28.7 801.482 28.5C800.715 28.2667 799.582 28.0333 798.082 27.8C796.215 27.5333 794.665 27.15 793.432 26.65C792.232 26.15 791.348 25.4167 790.782 24.45C790.215 23.45 789.932 22.1 789.932 20.4C789.932 18.3333 790.382 16.7167 791.282 15.55C792.182 14.3833 793.382 13.5667 794.882 13.1C796.382 12.6 798.015 12.35 799.782 12.35C800.948 12.35 802.148 12.4167 803.382 12.55C804.615 12.65 805.782 12.7833 806.882 12.95C807.982 13.1167 808.898 13.2833 809.632 13.45L809.432 18.5C808.598 18.3667 807.632 18.25 806.532 18.15C805.432 18.0167 804.332 17.9167 803.232 17.85C802.165 17.7833 801.265 17.75 800.532 17.75C799.765 17.75 799.082 17.8333 798.482 18C797.882 18.1333 797.415 18.3667 797.082 18.7C796.782 19.0333 796.632 19.5333 796.632 20.2C796.632 20.6667 796.765 21.05 797.032 21.35C797.298 21.65 797.798 21.9167 798.532 22.15C799.298 22.35 800.398 22.55 801.832 22.75C803.898 23.05 805.548 23.4667 806.782 24C808.015 24.5333 808.898 25.3 809.432 26.3C809.998 27.3 810.282 28.65 810.282 30.35C810.282 33.3833 809.382 35.5167 807.582 36.75C805.815 37.95 803.282 38.55 799.982 38.55ZM823.462 38.6C821.629 38.6 820.145 38.3333 819.012 37.8C817.879 37.2667 817.062 36.35 816.562 35.05C816.095 33.7167 815.862 31.8667 815.862 29.5V18.45H812.912V12.9H815.862V6.25H822.512V12.9H828.912V18.45H822.512V27.75C822.512 29.05 822.562 30.0667 822.662 30.8C822.795 31.5333 823.062 32.05 823.462 32.35C823.862 32.65 824.479 32.8 825.312 32.8C825.545 32.8 825.895 32.7833 826.362 32.75C826.829 32.7167 827.295 32.6833 827.762 32.65C828.229 32.6167 828.612 32.5833 828.912 32.55L829.112 37.9C828.312 38.0333 827.345 38.1833 826.212 38.35C825.112 38.5167 824.195 38.6 823.462 38.6ZM840.631 38.55C838.464 38.55 836.781 38.1 835.581 37.2C834.414 36.2667 833.581 34.8667 833.081 33C832.614 31.1333 832.381 28.7833 832.381 25.95V12.9H839.031V25.65C839.031 27.4167 839.114 28.8167 839.281 29.85C839.481 30.8833 839.864 31.6167 840.431 32.05C840.998 32.4833 841.814 32.7 842.881 32.7C843.914 32.7 844.881 32.5667 845.781 32.3C846.681 32.0333 847.398 31.7667 847.931 31.5V12.9H854.581V38H847.981V36.45C846.848 37.0833 845.714 37.6 844.581 38C843.481 38.3667 842.164 38.55 840.631 38.55ZM868.522 38.55C867.322 38.55 866.222 38.4 865.222 38.1C864.222 37.8333 863.339 37.4 862.572 36.8C861.839 36.1667 861.206 35.35 860.672 34.35C860.172 33.35 859.789 32.1333 859.522 30.7C859.256 29.2333 859.122 27.5333 859.122 25.6C859.122 22.7333 859.472 20.3167 860.172 18.35C860.906 16.3833 862.056 14.9 863.622 13.9C865.189 12.8667 867.272 12.35 869.872 12.35C870.639 12.35 871.539 12.4167 872.572 12.55C873.639 12.65 874.489 12.75 875.122 12.85V2.65H881.822V38H875.222L875.172 36.55C874.706 36.8167 874.089 37.1167 873.322 37.45C872.589 37.75 871.806 38 870.972 38.2C870.139 38.4333 869.322 38.55 868.522 38.55ZM870.222 32.95C870.822 32.95 871.422 32.8833 872.022 32.75C872.656 32.6167 873.239 32.4667 873.772 32.3C874.339 32.1 874.789 31.9167 875.122 31.75V18.3C874.822 18.2333 874.422 18.1833 873.922 18.15C873.422 18.0833 872.906 18.0333 872.372 18C871.839 17.9333 871.356 17.9 870.922 17.9C869.622 17.9 868.606 18.2 867.872 18.8C867.172 19.4 866.672 20.2833 866.372 21.45C866.072 22.5833 865.922 23.9667 865.922 25.6C865.922 27.0333 866.022 28.2333 866.222 29.2C866.422 30.1333 866.706 30.8833 867.072 31.45C867.472 31.9833 867.939 32.3667 868.472 32.6C869.006 32.8333 869.589 32.95 870.222 32.95ZM893.868 38.55C891.268 38.55 889.302 37.9 887.968 36.6C886.668 35.2667 886.018 33.2667 886.018 30.6C886.018 28.7333 886.352 27.2833 887.018 26.25C887.685 25.1833 888.668 24.4167 889.968 23.95C891.302 23.45 892.918 23.15 894.818 23.05L900.918 22.5V21C900.918 19.8 900.618 18.9667 900.018 18.5C899.418 18 898.535 17.75 897.368 17.75C896.435 17.75 895.352 17.7833 894.118 17.85C892.918 17.9167 891.718 18 890.518 18.1C889.352 18.2 888.335 18.3 887.468 18.4L887.268 13.7C888.135 13.5 889.168 13.3 890.368 13.1C891.602 12.8667 892.885 12.6833 894.218 12.55C895.552 12.4167 896.785 12.35 897.918 12.35C900.052 12.35 901.835 12.6167 903.268 13.15C904.702 13.6833 905.785 14.5667 906.518 15.8C907.252 17 907.618 18.6333 907.618 20.7V32.15C907.685 32.6167 907.935 32.9833 908.368 33.25C908.802 33.4833 909.302 33.65 909.868 33.75L909.718 38.35C908.918 38.3833 908.135 38.4 907.368 38.4C906.602 38.4 905.952 38.35 905.418 38.25C904.652 38.15 903.985 37.95 903.418 37.65C902.885 37.35 902.452 37.0333 902.118 36.7C901.585 36.9333 900.868 37.2 899.968 37.5C899.068 37.8 898.085 38.05 897.018 38.25C895.985 38.45 894.935 38.55 893.868 38.55ZM895.468 33.6C896.102 33.6 896.768 33.5333 897.468 33.4C898.168 33.2667 898.818 33.1167 899.418 32.95C900.052 32.75 900.552 32.5667 900.918 32.4V26.65L895.818 27.1C894.718 27.2 893.918 27.5333 893.418 28.1C892.952 28.6333 892.718 29.4 892.718 30.4C892.718 31.4 892.935 32.1833 893.368 32.75C893.835 33.3167 894.535 33.6 895.468 33.6ZM913.49 38V12.9H920.14V15.85C920.707 15.4167 921.407 14.9667 922.24 14.5C923.074 14 923.974 13.55 924.94 13.15C925.94 12.7167 926.89 12.4333 927.79 12.3V18.75C926.924 18.8833 926.007 19.1167 925.04 19.45C924.074 19.75 923.157 20.0833 922.29 20.45C921.457 20.8167 920.74 21.15 920.14 21.45V38H913.49Z" fill="white"/>
<path d="M952.979 0.429199C954.179 0.429199 955.181 0.626139 955.987 1.02002C956.81 1.4139 957.222 1.9152 957.222 2.52393C957.222 2.72087 957.186 2.8999 957.115 3.06104L939.229 46.5132C938.907 47.283 938.173 47.668 937.027 47.668C935.827 47.668 934.816 47.471 933.992 47.0771C933.187 46.6833 932.784 46.182 932.784 45.5732C932.784 45.3763 932.819 45.1973 932.891 45.0361L950.777 1.58398C951.099 0.814128 951.833 0.429199 952.979 0.429199Z" fill="#4A50D4"/>
</svg>
