<svg width="794" height="46" viewBox="0 0 794 46" fill="none" xmlns="http://www.w3.org/2000/svg">
<path d="M19.8906 11.7109C20.2031 11.5547 20.4609 11.4766 20.6641 11.4766C20.9766 11.4766 21.2734 11.6172 21.5547 11.8984C21.8359 12.1797 22.1406 12.6484 22.4688 13.3047C22.875 14.1172 23.0781 14.7656 23.0781 15.25C23.0781 15.7812 22.7969 16.1953 22.2344 16.4922L8.52344 23.3359L22.2344 30.1797C22.7969 30.4766 23.0781 30.8906 23.0781 31.4219C23.0781 31.9062 22.875 32.5547 22.4688 33.3672C22.1406 34.0234 21.8359 34.4922 21.5547 34.7734C21.2734 35.0547 20.9766 35.1953 20.6641 35.1953C20.4609 35.1953 20.2031 35.1172 19.8906 34.9609L1.60938 25.5391C1.21875 25.3359 0.9375 25.0781 0.765625 24.7656C0.609375 24.4531 0.53125 23.9766 0.53125 23.3359C0.53125 22.6953 0.609375 22.2188 0.765625 21.9062C0.9375 21.5938 1.21875 21.3359 1.60938 21.1328L19.8906 11.7109ZM792.391 21.1328C792.781 21.3359 793.055 21.5938 793.211 21.9062C793.383 22.2188 793.469 22.6953 793.469 23.3359C793.469 23.9766 793.383 24.4531 793.211 24.7656C793.055 25.0781 792.781 25.3359 792.391 25.5391L774.109 34.9609C773.797 35.1172 773.539 35.1953 773.336 35.1953C773.023 35.1953 772.727 35.0547 772.445 34.7734C772.164 34.4922 771.859 34.0234 771.531 33.3672C771.125 32.5547 770.922 31.9062 770.922 31.4219C770.922 30.8906 771.203 30.4766 771.766 30.1797L785.477 23.3359L771.766 16.4922C771.203 16.1953 770.922 15.7812 770.922 15.25C770.922 14.7656 771.125 14.1172 771.531 13.3047C771.859 12.6484 772.164 12.1797 772.445 11.8984C772.727 11.6172 773.023 11.4766 773.336 11.4766C773.539 11.4766 773.797 11.5547 774.109 11.7109L792.391 21.1328Z" fill="#AD2647"/>
<path d="M40.132 37.528C38.916 37.528 37.588 37.448 36.148 37.288C34.708 37.16 33.3 37 31.924 36.808C30.58 36.584 29.428 36.392 28.468 36.232L28.9 31C29.892 31.128 31.044 31.272 32.356 31.432C33.668 31.56 34.964 31.672 36.244 31.768C37.556 31.864 38.692 31.912 39.652 31.912C41.476 31.912 42.804 31.56 43.636 30.856C44.468 30.12 44.884 28.984 44.884 27.448C44.884 26.616 44.708 25.96 44.356 25.48C44.036 24.968 43.444 24.568 42.58 24.28C41.716 23.96 40.516 23.656 38.98 23.368C36.42 22.888 34.34 22.296 32.74 21.592C31.172 20.888 30.02 19.896 29.284 18.616C28.58 17.336 28.228 15.624 28.228 13.48C28.228 10.984 28.692 9.032 29.62 7.624C30.548 6.184 31.876 5.16 33.604 4.552C35.332 3.944 37.364 3.64 39.7 3.64C40.756 3.64 41.956 3.704 43.3 3.832C44.676 3.928 46.02 4.056 47.332 4.216C48.676 4.376 49.812 4.552 50.74 4.744L50.452 10.024C49.492 9.896 48.372 9.784 47.092 9.688C45.844 9.56 44.596 9.448 43.348 9.352C42.132 9.256 41.092 9.208 40.228 9.208C38.404 9.208 37.06 9.496 36.196 10.072C35.332 10.648 34.9 11.576 34.9 12.856C34.9 13.816 35.092 14.552 35.476 15.064C35.86 15.576 36.5 15.992 37.396 16.312C38.324 16.632 39.588 16.968 41.188 17.32C43.076 17.736 44.676 18.184 45.988 18.664C47.332 19.144 48.404 19.72 49.204 20.392C50.036 21.064 50.644 21.928 51.028 22.984C51.412 24.04 51.604 25.368 51.604 26.968C51.604 29.528 51.14 31.592 50.212 33.16C49.316 34.696 48.004 35.816 46.276 36.52C44.58 37.192 42.532 37.528 40.132 37.528ZM65.5559 37.528C62.8999 37.528 60.7879 37.08 59.2199 36.184C57.6839 35.288 56.5799 33.928 55.9079 32.104C55.2359 30.28 54.8999 27.992 54.8999 25.24C54.8999 22.264 55.3159 19.832 56.1479 17.944C57.0119 16.056 58.2599 14.664 59.8919 13.768C61.5239 12.84 63.5399 12.376 65.9399 12.376C69.4919 12.376 72.1639 13.272 73.9559 15.064C75.7799 16.856 76.6919 19.688 76.6919 23.56L76.4039 27.112H61.3319C61.3639 28.904 61.7319 30.248 62.4359 31.144C63.1399 32.04 64.3559 32.488 66.0839 32.488C67.0759 32.488 68.1639 32.472 69.3479 32.44C70.5319 32.376 71.6999 32.312 72.8519 32.248C74.0359 32.184 75.0439 32.12 75.8759 32.056L76.0199 36.52C75.2199 36.648 74.2119 36.792 72.9959 36.952C71.7799 37.112 70.5159 37.24 69.2039 37.336C67.9239 37.464 66.7079 37.528 65.5559 37.528ZM61.3319 23.032H70.3079C70.3079 20.856 69.9559 19.336 69.2519 18.472C68.5799 17.608 67.4759 17.176 65.9399 17.176C64.4359 17.176 63.2839 17.624 62.4839 18.52C61.7159 19.416 61.3319 20.92 61.3319 23.032ZM80.9369 37V12.904H87.3209V15.736C87.8649 15.32 88.5369 14.888 89.3369 14.44C90.1369 13.96 91.0009 13.528 91.9289 13.144C92.8889 12.728 93.8009 12.456 94.6649 12.328V18.52C93.8329 18.648 92.9529 18.872 92.0249 19.192C91.0969 19.48 90.2169 19.8 89.3849 20.152C88.5849 20.504 87.8969 20.824 87.3209 21.112V37H80.9369ZM114.741 37.528C112.245 37.528 110.357 36.904 109.077 35.656C107.829 34.376 107.205 32.456 107.205 29.896C107.205 28.104 107.525 26.712 108.165 25.72C108.805 24.696 109.749 23.96 110.997 23.512C112.277 23.032 113.829 22.744 115.653 22.648L121.509 22.12V20.68C121.509 19.528 121.221 18.728 120.645 18.28C120.069 17.8 119.221 17.56 118.101 17.56C117.205 17.56 116.165 17.592 114.981 17.656C113.829 17.72 112.677 17.8 111.525 17.896C110.405 17.992 109.429 18.088 108.597 18.184L108.405 13.672C109.237 13.48 110.229 13.288 111.381 13.096C112.565 12.872 113.797 12.696 115.077 12.568C116.357 12.44 117.541 12.376 118.629 12.376C120.677 12.376 122.389 12.632 123.765 13.144C125.141 13.656 126.181 14.504 126.885 15.688C127.589 16.84 127.941 18.408 127.941 20.392V31.384C128.005 31.832 128.245 32.184 128.661 32.44C129.077 32.664 129.557 32.824 130.101 32.92L129.957 37.336C129.189 37.368 128.437 37.384 127.701 37.384C126.965 37.384 126.341 37.336 125.829 37.24C125.093 37.144 124.453 36.952 123.909 36.664C123.397 36.376 122.981 36.072 122.661 35.752C122.149 35.976 121.461 36.232 120.597 36.52C119.733 36.808 118.789 37.048 117.765 37.24C116.773 37.432 115.765 37.528 114.741 37.528ZM116.277 32.776C116.885 32.776 117.525 32.712 118.197 32.584C118.869 32.456 119.493 32.312 120.069 32.152C120.677 31.96 121.157 31.784 121.509 31.624V26.104L116.613 26.536C115.557 26.632 114.789 26.952 114.309 27.496C113.861 28.008 113.637 28.744 113.637 29.704C113.637 30.664 113.845 31.416 114.261 31.96C114.709 32.504 115.381 32.776 116.277 32.776ZM141.258 37.528C139.178 37.528 137.562 37.096 136.41 36.232C135.29 35.336 134.49 33.992 134.01 32.2C133.562 30.408 133.338 28.152 133.338 25.432V12.904H139.722V25.144C139.722 26.84 139.802 28.184 139.962 29.176C140.154 30.168 140.522 30.872 141.066 31.288C141.61 31.704 142.394 31.912 143.418 31.912C144.41 31.912 145.338 31.784 146.202 31.528C147.066 31.272 147.754 31.016 148.266 30.76V12.904H154.65V37H148.314V35.512C147.226 36.12 146.138 36.616 145.049 37C143.994 37.352 142.73 37.528 141.258 37.528ZM168.369 37.576C166.609 37.576 165.185 37.32 164.097 36.808C163.009 36.296 162.225 35.416 161.745 34.168C161.297 32.888 161.073 31.112 161.073 28.84V18.232H158.241V12.904H161.073V6.52H167.457V12.904H173.601V18.232H167.457V27.16C167.457 28.408 167.505 29.384 167.601 30.088C167.729 30.792 167.985 31.288 168.369 31.576C168.753 31.864 169.345 32.008 170.145 32.008C170.369 32.008 170.705 31.992 171.153 31.96C171.601 31.928 172.049 31.896 172.497 31.864C172.945 31.832 173.313 31.8 173.601 31.768L173.793 36.904C173.025 37.032 172.097 37.176 171.009 37.336C169.953 37.496 169.073 37.576 168.369 37.576ZM187.539 37.528C184.819 37.528 182.627 37.08 180.963 36.184C179.331 35.288 178.147 33.912 177.411 32.056C176.675 30.168 176.307 27.736 176.307 24.76C176.307 21.88 176.691 19.544 177.459 17.752C178.227 15.928 179.443 14.584 181.107 13.72C182.771 12.824 184.915 12.376 187.539 12.376C190.195 12.376 192.339 12.824 193.971 13.72C195.635 14.584 196.851 15.928 197.619 17.752C198.419 19.544 198.819 21.88 198.819 24.76C198.819 27.736 198.451 30.168 197.715 32.056C196.979 33.912 195.779 35.288 194.115 36.184C192.483 37.08 190.291 37.528 187.539 37.528ZM187.539 32.248C188.883 32.248 189.891 32.008 190.563 31.528C191.235 31.016 191.683 30.216 191.907 29.128C192.163 28.008 192.291 26.552 192.291 24.76C192.291 23 192.147 21.608 191.859 20.584C191.571 19.528 191.091 18.776 190.419 18.328C189.747 17.88 188.787 17.656 187.539 17.656C186.323 17.656 185.363 17.88 184.659 18.328C183.987 18.776 183.507 19.528 183.219 20.584C182.931 21.608 182.787 23 182.787 24.76C182.787 26.552 182.899 28.008 183.123 29.128C183.379 30.216 183.843 31.016 184.515 31.528C185.187 32.008 186.195 32.248 187.539 32.248ZM211.299 37.528C210.147 37.528 209.091 37.384 208.131 37.096C207.171 36.84 206.323 36.424 205.587 35.848C204.883 35.24 204.275 34.456 203.763 33.496C203.283 32.536 202.915 31.368 202.659 29.992C202.403 28.584 202.275 26.952 202.275 25.096C202.275 22.344 202.611 20.024 203.283 18.136C203.987 16.248 205.091 14.824 206.595 13.864C208.099 12.872 210.099 12.376 212.595 12.376C213.331 12.376 214.195 12.44 215.187 12.568C216.211 12.664 217.027 12.76 217.635 12.856V3.064H224.067V37H217.731L217.683 35.608C217.235 35.864 216.643 36.152 215.907 36.472C215.203 36.76 214.451 37 213.651 37.192C212.851 37.416 212.067 37.528 211.299 37.528ZM212.931 32.152C213.507 32.152 214.083 32.088 214.659 31.96C215.267 31.832 215.827 31.688 216.339 31.528C216.883 31.336 217.315 31.16 217.635 31V18.088C217.347 18.024 216.963 17.976 216.483 17.944C216.003 17.88 215.507 17.832 214.995 17.8C214.483 17.736 214.019 17.704 213.603 17.704C212.355 17.704 211.379 17.992 210.675 18.568C210.003 19.144 209.523 19.992 209.235 21.112C208.947 22.2 208.803 23.528 208.803 25.096C208.803 26.472 208.899 27.624 209.091 28.552C209.283 29.448 209.555 30.168 209.907 30.712C210.291 31.224 210.739 31.592 211.251 31.816C211.763 32.04 212.323 32.152 212.931 32.152ZM229.343 37V12.904H235.727V37H229.343ZM229.343 9.064V3.592H235.775V9.064H229.343ZM249.174 37.528C248.022 37.528 246.966 37.384 246.006 37.096C245.046 36.84 244.198 36.424 243.462 35.848C242.758 35.24 242.15 34.456 241.638 33.496C241.158 32.536 240.79 31.368 240.534 29.992C240.278 28.584 240.15 26.952 240.15 25.096C240.15 22.344 240.486 20.024 241.158 18.136C241.862 16.248 242.966 14.824 244.47 13.864C245.974 12.872 247.974 12.376 250.47 12.376C251.206 12.376 252.07 12.44 253.062 12.568C254.086 12.664 254.902 12.76 255.51 12.856V3.064H261.942V37H255.606L255.558 35.608C255.11 35.864 254.518 36.152 253.782 36.472C253.078 36.76 252.326 37 251.526 37.192C250.726 37.416 249.942 37.528 249.174 37.528ZM250.806 32.152C251.382 32.152 251.958 32.088 252.534 31.96C253.142 31.832 253.702 31.688 254.214 31.528C254.758 31.336 255.19 31.16 255.51 31V18.088C255.222 18.024 254.838 17.976 254.358 17.944C253.878 17.88 253.382 17.832 252.87 17.8C252.358 17.736 251.894 17.704 251.478 17.704C250.23 17.704 249.254 17.992 248.55 18.568C247.878 19.144 247.398 19.992 247.11 21.112C246.822 22.2 246.678 23.528 246.678 25.096C246.678 26.472 246.774 27.624 246.966 28.552C247.158 29.448 247.43 30.168 247.782 30.712C248.166 31.224 248.614 31.592 249.126 31.816C249.638 32.04 250.198 32.152 250.806 32.152ZM273.506 37.528C271.01 37.528 269.122 36.904 267.842 35.656C266.594 34.376 265.97 32.456 265.97 29.896C265.97 28.104 266.29 26.712 266.93 25.72C267.57 24.696 268.514 23.96 269.762 23.512C271.042 23.032 272.594 22.744 274.418 22.648L280.274 22.12V20.68C280.274 19.528 279.986 18.728 279.41 18.28C278.834 17.8 277.986 17.56 276.866 17.56C275.97 17.56 274.93 17.592 273.746 17.656C272.594 17.72 271.442 17.8 270.29 17.896C269.17 17.992 268.194 18.088 267.362 18.184L267.17 13.672C268.002 13.48 268.994 13.288 270.146 13.096C271.33 12.872 272.562 12.696 273.842 12.568C275.122 12.44 276.306 12.376 277.394 12.376C279.442 12.376 281.154 12.632 282.53 13.144C283.906 13.656 284.946 14.504 285.65 15.688C286.354 16.84 286.706 18.408 286.706 20.392V31.384C286.77 31.832 287.01 32.184 287.426 32.44C287.842 32.664 288.322 32.824 288.866 32.92L288.722 37.336C287.954 37.368 287.202 37.384 286.466 37.384C285.73 37.384 285.106 37.336 284.594 37.24C283.858 37.144 283.218 36.952 282.674 36.664C282.162 36.376 281.746 36.072 281.426 35.752C280.914 35.976 280.226 36.232 279.362 36.52C278.498 36.808 277.554 37.048 276.53 37.24C275.538 37.432 274.53 37.528 273.506 37.528ZM275.042 32.776C275.65 32.776 276.29 32.712 276.962 32.584C277.634 32.456 278.258 32.312 278.834 32.152C279.442 31.96 279.922 31.784 280.274 31.624V26.104L275.378 26.536C274.322 26.632 273.554 26.952 273.074 27.496C272.626 28.008 272.402 28.744 272.402 29.704C272.402 30.664 272.61 31.416 273.026 31.96C273.474 32.504 274.146 32.776 275.042 32.776ZM300.791 37.576C299.031 37.576 297.607 37.32 296.519 36.808C295.431 36.296 294.647 35.416 294.167 34.168C293.719 32.888 293.495 31.112 293.495 28.84V18.232H290.663V12.904H293.495V6.52H299.879V12.904H306.023V18.232H299.879V27.16C299.879 28.408 299.927 29.384 300.023 30.088C300.151 30.792 300.407 31.288 300.791 31.576C301.175 31.864 301.767 32.008 302.567 32.008C302.791 32.008 303.127 31.992 303.575 31.96C304.023 31.928 304.471 31.896 304.919 31.864C305.367 31.832 305.735 31.8 306.023 31.768L306.215 36.904C305.447 37.032 304.519 37.176 303.431 37.336C302.375 37.496 301.495 37.576 300.791 37.576ZM315.881 37.528C313.385 37.528 311.497 36.904 310.217 35.656C308.969 34.376 308.345 32.456 308.345 29.896C308.345 28.104 308.665 26.712 309.305 25.72C309.945 24.696 310.889 23.96 312.137 23.512C313.417 23.032 314.969 22.744 316.793 22.648L322.649 22.12V20.68C322.649 19.528 322.361 18.728 321.785 18.28C321.209 17.8 320.361 17.56 319.241 17.56C318.345 17.56 317.305 17.592 316.121 17.656C314.969 17.72 313.817 17.8 312.665 17.896C311.545 17.992 310.569 18.088 309.737 18.184L309.545 13.672C310.377 13.48 311.369 13.288 312.521 13.096C313.705 12.872 314.937 12.696 316.217 12.568C317.497 12.44 318.681 12.376 319.769 12.376C321.817 12.376 323.529 12.632 324.905 13.144C326.281 13.656 327.321 14.504 328.025 15.688C328.729 16.84 329.081 18.408 329.081 20.392V31.384C329.145 31.832 329.385 32.184 329.801 32.44C330.217 32.664 330.697 32.824 331.241 32.92L331.097 37.336C330.329 37.368 329.577 37.384 328.841 37.384C328.105 37.384 327.481 37.336 326.969 37.24C326.233 37.144 325.593 36.952 325.049 36.664C324.537 36.376 324.121 36.072 323.801 35.752C323.289 35.976 322.601 36.232 321.737 36.52C320.873 36.808 319.929 37.048 318.905 37.24C317.913 37.432 316.905 37.528 315.881 37.528ZM317.417 32.776C318.025 32.776 318.665 32.712 319.337 32.584C320.009 32.456 320.633 32.312 321.209 32.152C321.817 31.96 322.297 31.784 322.649 31.624V26.104L317.753 26.536C316.697 26.632 315.929 26.952 315.449 27.496C315.001 28.008 314.777 28.744 314.777 29.704C314.777 30.664 314.985 31.416 315.401 31.96C315.849 32.504 316.521 32.776 317.417 32.776ZM354.915 37.528C352.259 37.528 350.147 37.08 348.579 36.184C347.043 35.288 345.939 33.928 345.267 32.104C344.595 30.28 344.259 27.992 344.259 25.24C344.259 22.264 344.675 19.832 345.507 17.944C346.371 16.056 347.619 14.664 349.251 13.768C350.883 12.84 352.899 12.376 355.299 12.376C358.851 12.376 361.523 13.272 363.315 15.064C365.139 16.856 366.051 19.688 366.051 23.56L365.763 27.112H350.691C350.723 28.904 351.091 30.248 351.795 31.144C352.499 32.04 353.715 32.488 355.443 32.488C356.435 32.488 357.523 32.472 358.707 32.44C359.891 32.376 361.059 32.312 362.211 32.248C363.395 32.184 364.403 32.12 365.235 32.056L365.379 36.52C364.579 36.648 363.571 36.792 362.355 36.952C361.139 37.112 359.875 37.24 358.563 37.336C357.283 37.464 356.067 37.528 354.915 37.528ZM350.691 23.032H359.667C359.667 20.856 359.315 19.336 358.611 18.472C357.939 17.608 356.835 17.176 355.299 17.176C353.795 17.176 352.643 17.624 351.843 18.52C351.075 19.416 350.691 20.92 350.691 23.032ZM352.467 9.304L349.683 5.704L359.043 0.951998L362.691 5.8L352.467 9.304ZM388.429 37.528C386.349 37.528 384.733 37.096 383.581 36.232C382.461 35.336 381.661 33.992 381.181 32.2C380.733 30.408 380.509 28.152 380.509 25.432V12.904H386.893V25.144C386.893 26.84 386.973 28.184 387.133 29.176C387.325 30.168 387.693 30.872 388.237 31.288C388.781 31.704 389.565 31.912 390.589 31.912C391.581 31.912 392.509 31.784 393.373 31.528C394.237 31.272 394.925 31.016 395.437 30.76V12.904H401.821V37H395.485V35.512C394.397 36.12 393.309 36.616 392.221 37C391.165 37.352 389.901 37.528 388.429 37.528ZM407.093 37V12.904H413.477V14.44C414.213 13.992 415.205 13.544 416.453 13.096C417.701 12.616 418.885 12.376 420.005 12.376C421.477 12.376 422.677 12.584 423.605 13C424.533 13.384 425.301 13.96 425.909 14.728C426.485 14.376 427.205 14.024 428.069 13.672C428.933 13.32 429.877 13.016 430.901 12.76C431.925 12.504 432.917 12.376 433.877 12.376C436.245 12.376 438.053 12.792 439.301 13.624C440.549 14.456 441.413 15.768 441.893 17.56C442.373 19.32 442.613 21.624 442.613 24.472V37H436.229V25.048C436.229 23.384 436.133 22.04 435.941 21.016C435.781 19.96 435.429 19.192 434.885 18.712C434.373 18.232 433.589 17.992 432.533 17.992C431.605 17.992 430.693 18.12 429.797 18.376C428.901 18.632 428.197 18.888 427.685 19.144C427.845 19.816 427.957 20.68 428.021 21.736C428.117 22.792 428.165 23.896 428.165 25.048V37H421.781V25.144C421.781 23.448 421.685 22.072 421.493 21.016C421.333 19.96 420.981 19.192 420.437 18.712C419.893 18.232 419.109 17.992 418.085 17.992C417.189 17.992 416.309 18.12 415.445 18.376C414.613 18.632 413.957 18.888 413.477 19.144V37H407.093ZM453.975 37.528C451.479 37.528 449.591 36.904 448.311 35.656C447.063 34.376 446.439 32.456 446.439 29.896C446.439 28.104 446.759 26.712 447.399 25.72C448.039 24.696 448.983 23.96 450.231 23.512C451.511 23.032 453.063 22.744 454.887 22.648L460.743 22.12V20.68C460.743 19.528 460.455 18.728 459.879 18.28C459.303 17.8 458.455 17.56 457.335 17.56C456.439 17.56 455.399 17.592 454.215 17.656C453.063 17.72 451.911 17.8 450.759 17.896C449.639 17.992 448.663 18.088 447.831 18.184L447.639 13.672C448.471 13.48 449.463 13.288 450.615 13.096C451.799 12.872 453.031 12.696 454.311 12.568C455.591 12.44 456.775 12.376 457.863 12.376C459.911 12.376 461.623 12.632 462.999 13.144C464.375 13.656 465.415 14.504 466.119 15.688C466.823 16.84 467.175 18.408 467.175 20.392V31.384C467.239 31.832 467.479 32.184 467.895 32.44C468.311 32.664 468.791 32.824 469.335 32.92L469.191 37.336C468.423 37.368 467.671 37.384 466.935 37.384C466.199 37.384 465.575 37.336 465.063 37.24C464.327 37.144 463.687 36.952 463.143 36.664C462.631 36.376 462.215 36.072 461.895 35.752C461.383 35.976 460.695 36.232 459.831 36.52C458.967 36.808 458.023 37.048 456.999 37.24C456.007 37.432 454.999 37.528 453.975 37.528ZM455.511 32.776C456.119 32.776 456.759 32.712 457.431 32.584C458.103 32.456 458.727 32.312 459.303 32.152C459.911 31.96 460.391 31.784 460.743 31.624V26.104L455.847 26.536C454.791 26.632 454.023 26.952 453.543 27.496C453.095 28.008 452.871 28.744 452.871 29.704C452.871 30.664 453.079 31.416 453.495 31.96C453.943 32.504 454.615 32.776 455.511 32.776ZM483.265 37V12.904H489.649V14.44C490.161 14.12 490.785 13.816 491.521 13.528C492.257 13.208 493.025 12.936 493.825 12.712C494.657 12.488 495.457 12.376 496.225 12.376C498.465 12.376 500.193 12.776 501.409 13.576C502.657 14.344 503.537 15.624 504.049 17.416C504.561 19.176 504.817 21.544 504.817 24.52V37H498.385V24.856C498.385 23.192 498.289 21.864 498.097 20.872C497.905 19.848 497.537 19.112 496.993 18.664C496.449 18.216 495.649 17.992 494.593 17.992C494.017 17.992 493.409 18.056 492.769 18.184C492.161 18.28 491.569 18.424 490.993 18.616C490.449 18.808 490.001 19 489.649 19.192V37H483.265ZM519.54 37.528C516.884 37.528 514.772 37.08 513.204 36.184C511.668 35.288 510.564 33.928 509.892 32.104C509.22 30.28 508.884 27.992 508.884 25.24C508.884 22.264 509.3 19.832 510.132 17.944C510.996 16.056 512.244 14.664 513.876 13.768C515.508 12.84 517.524 12.376 519.924 12.376C523.476 12.376 526.148 13.272 527.94 15.064C529.764 16.856 530.676 19.688 530.676 23.56L530.388 27.112H515.316C515.348 28.904 515.716 30.248 516.42 31.144C517.124 32.04 518.34 32.488 520.068 32.488C521.06 32.488 522.148 32.472 523.332 32.44C524.516 32.376 525.684 32.312 526.836 32.248C528.02 32.184 529.028 32.12 529.86 32.056L530.004 36.52C529.204 36.648 528.196 36.792 526.98 36.952C525.764 37.112 524.5 37.24 523.188 37.336C521.908 37.464 520.692 37.528 519.54 37.528ZM515.316 23.032H524.292C524.292 20.856 523.94 19.336 523.236 18.472C522.564 17.608 521.46 17.176 519.924 17.176C518.42 17.176 517.268 17.624 516.468 18.52C515.7 19.416 515.316 20.92 515.316 23.032ZM544.761 37.528C542.009 37.528 539.849 37.112 538.281 36.28C536.745 35.416 535.657 34.04 535.017 32.152C534.409 30.264 534.105 27.784 534.105 24.712C534.105 21.672 534.457 19.256 535.161 17.464C535.865 15.64 537.001 14.344 538.569 13.576C540.169 12.776 542.249 12.376 544.809 12.376C545.481 12.376 546.265 12.424 547.161 12.52C548.057 12.616 548.953 12.744 549.849 12.904C550.777 13.032 551.561 13.16 552.201 13.288L551.961 18.424C551.353 18.36 550.665 18.312 549.897 18.28C549.129 18.216 548.377 18.168 547.641 18.136C546.937 18.072 546.361 18.04 545.913 18.04C544.537 18.04 543.449 18.264 542.649 18.712C541.881 19.128 541.337 19.832 541.017 20.824C540.729 21.784 540.585 23.08 540.585 24.712C540.585 26.472 540.729 27.88 541.017 28.936C541.305 29.992 541.817 30.744 542.553 31.192C543.321 31.64 544.441 31.864 545.913 31.864C546.361 31.864 546.953 31.848 547.689 31.816C548.425 31.752 549.177 31.688 549.945 31.624C550.745 31.56 551.449 31.512 552.057 31.48L552.249 36.616C551.609 36.744 550.841 36.872 549.945 37C549.049 37.16 548.137 37.288 547.209 37.384C546.313 37.48 545.497 37.528 544.761 37.528ZM566.134 37.528C563.478 37.528 561.366 37.08 559.798 36.184C558.262 35.288 557.158 33.928 556.486 32.104C555.814 30.28 555.478 27.992 555.478 25.24C555.478 22.264 555.894 19.832 556.726 17.944C557.59 16.056 558.838 14.664 560.47 13.768C562.102 12.84 564.118 12.376 566.518 12.376C570.07 12.376 572.742 13.272 574.534 15.064C576.358 16.856 577.27 19.688 577.27 23.56L576.982 27.112H561.91C561.942 28.904 562.31 30.248 563.014 31.144C563.718 32.04 564.934 32.488 566.662 32.488C567.654 32.488 568.742 32.472 569.926 32.44C571.11 32.376 572.278 32.312 573.43 32.248C574.614 32.184 575.622 32.12 576.454 32.056L576.598 36.52C575.798 36.648 574.79 36.792 573.574 36.952C572.358 37.112 571.094 37.24 569.782 37.336C568.502 37.464 567.286 37.528 566.134 37.528ZM561.91 23.032H570.886C570.886 20.856 570.534 19.336 569.83 18.472C569.158 17.608 568.054 17.176 566.518 17.176C565.014 17.176 563.862 17.624 563.062 18.52C562.294 19.416 561.91 20.92 561.91 23.032ZM590.203 37.528C589.147 37.528 588.011 37.464 586.795 37.336C585.611 37.24 584.491 37.112 583.435 36.952C582.411 36.792 581.531 36.632 580.795 36.472L580.987 31.72C581.819 31.816 582.747 31.928 583.771 32.056C584.827 32.184 585.851 32.296 586.843 32.392C587.867 32.456 588.699 32.488 589.339 32.488C590.299 32.488 591.083 32.408 591.691 32.248C592.331 32.088 592.811 31.832 593.131 31.48C593.451 31.096 593.611 30.552 593.611 29.848C593.611 29.304 593.467 28.888 593.179 28.6C592.923 28.312 592.411 28.072 591.643 27.88C590.907 27.656 589.819 27.432 588.379 27.208C586.587 26.952 585.099 26.584 583.915 26.104C582.763 25.624 581.915 24.92 581.371 23.992C580.827 23.032 580.555 21.736 580.555 20.104C580.555 18.12 580.987 16.568 581.851 15.448C582.715 14.328 583.867 13.544 585.307 13.096C586.747 12.616 588.315 12.376 590.011 12.376C591.131 12.376 592.283 12.44 593.467 12.568C594.651 12.664 595.771 12.792 596.827 12.952C597.883 13.112 598.763 13.272 599.467 13.432L599.275 18.28C598.475 18.152 597.547 18.04 596.491 17.944C595.435 17.816 594.379 17.72 593.323 17.656C592.299 17.592 591.435 17.56 590.731 17.56C589.995 17.56 589.339 17.64 588.763 17.8C588.187 17.928 587.739 18.152 587.419 18.472C587.131 18.792 586.987 19.272 586.987 19.912C586.987 20.36 587.115 20.728 587.371 21.016C587.627 21.304 588.107 21.56 588.811 21.784C589.547 21.976 590.603 22.168 591.979 22.36C593.963 22.648 595.547 23.048 596.731 23.56C597.915 24.072 598.763 24.808 599.275 25.768C599.819 26.728 600.091 28.024 600.091 29.656C600.091 32.568 599.227 34.616 597.499 35.8C595.803 36.952 593.371 37.528 590.203 37.528ZM612.984 37.528C611.928 37.528 610.792 37.464 609.576 37.336C608.392 37.24 607.272 37.112 606.216 36.952C605.192 36.792 604.312 36.632 603.576 36.472L603.768 31.72C604.6 31.816 605.528 31.928 606.552 32.056C607.608 32.184 608.632 32.296 609.624 32.392C610.648 32.456 611.48 32.488 612.12 32.488C613.08 32.488 613.864 32.408 614.472 32.248C615.112 32.088 615.592 31.832 615.912 31.48C616.232 31.096 616.392 30.552 616.392 29.848C616.392 29.304 616.248 28.888 615.96 28.6C615.704 28.312 615.192 28.072 614.424 27.88C613.688 27.656 612.6 27.432 611.16 27.208C609.368 26.952 607.88 26.584 606.696 26.104C605.544 25.624 604.696 24.92 604.152 23.992C603.608 23.032 603.336 21.736 603.336 20.104C603.336 18.12 603.768 16.568 604.632 15.448C605.496 14.328 606.648 13.544 608.088 13.096C609.528 12.616 611.096 12.376 612.792 12.376C613.912 12.376 615.064 12.44 616.248 12.568C617.432 12.664 618.552 12.792 619.608 12.952C620.664 13.112 621.544 13.272 622.248 13.432L622.056 18.28C621.256 18.152 620.328 18.04 619.272 17.944C618.216 17.816 617.16 17.72 616.104 17.656C615.08 17.592 614.216 17.56 613.512 17.56C612.776 17.56 612.12 17.64 611.544 17.8C610.968 17.928 610.52 18.152 610.2 18.472C609.912 18.792 609.768 19.272 609.768 19.912C609.768 20.36 609.896 20.728 610.152 21.016C610.408 21.304 610.888 21.56 611.592 21.784C612.328 21.976 613.384 22.168 614.76 22.36C616.744 22.648 618.328 23.048 619.512 23.56C620.696 24.072 621.544 24.808 622.056 25.768C622.6 26.728 622.872 28.024 622.872 29.656C622.872 32.568 622.008 34.616 620.28 35.8C618.584 36.952 616.152 37.528 612.984 37.528ZM627.078 37V12.904H633.462V37H627.078ZM627.078 9.064V3.592H633.51V9.064H627.078ZM646.908 37.528C645.756 37.528 644.7 37.384 643.74 37.096C642.78 36.84 641.932 36.424 641.196 35.848C640.492 35.24 639.884 34.456 639.372 33.496C638.892 32.536 638.524 31.368 638.268 29.992C638.012 28.584 637.884 26.952 637.884 25.096C637.884 22.344 638.22 20.024 638.892 18.136C639.596 16.248 640.7 14.824 642.204 13.864C643.708 12.872 645.708 12.376 648.204 12.376C648.94 12.376 649.804 12.44 650.796 12.568C651.82 12.664 652.636 12.76 653.244 12.856V3.064H659.676V37H653.34L653.292 35.608C652.844 35.864 652.252 36.152 651.516 36.472C650.812 36.76 650.06 37 649.26 37.192C648.46 37.416 647.676 37.528 646.908 37.528ZM648.54 32.152C649.116 32.152 649.692 32.088 650.268 31.96C650.876 31.832 651.436 31.688 651.948 31.528C652.492 31.336 652.924 31.16 653.244 31V18.088C652.956 18.024 652.572 17.976 652.092 17.944C651.612 17.88 651.116 17.832 650.604 17.8C650.092 17.736 649.628 17.704 649.212 17.704C647.964 17.704 646.988 17.992 646.284 18.568C645.612 19.144 645.132 19.992 644.844 21.112C644.556 22.2 644.412 23.528 644.412 25.096C644.412 26.472 644.508 27.624 644.7 28.552C644.892 29.448 645.164 30.168 645.516 30.712C645.9 31.224 646.348 31.592 646.86 31.816C647.372 32.04 647.932 32.152 648.54 32.152ZM671.241 37.528C668.745 37.528 666.857 36.904 665.577 35.656C664.329 34.376 663.705 32.456 663.705 29.896C663.705 28.104 664.025 26.712 664.665 25.72C665.305 24.696 666.249 23.96 667.497 23.512C668.777 23.032 670.329 22.744 672.153 22.648L678.009 22.12V20.68C678.009 19.528 677.721 18.728 677.145 18.28C676.569 17.8 675.721 17.56 674.601 17.56C673.705 17.56 672.665 17.592 671.481 17.656C670.329 17.72 669.177 17.8 668.025 17.896C666.905 17.992 665.929 18.088 665.097 18.184L664.905 13.672C665.737 13.48 666.729 13.288 667.881 13.096C669.065 12.872 670.297 12.696 671.577 12.568C672.857 12.44 674.041 12.376 675.129 12.376C677.177 12.376 678.889 12.632 680.265 13.144C681.641 13.656 682.681 14.504 683.385 15.688C684.089 16.84 684.441 18.408 684.441 20.392V31.384C684.505 31.832 684.745 32.184 685.161 32.44C685.577 32.664 686.057 32.824 686.601 32.92L686.457 37.336C685.689 37.368 684.937 37.384 684.201 37.384C683.465 37.384 682.841 37.336 682.329 37.24C681.593 37.144 680.953 36.952 680.409 36.664C679.897 36.376 679.481 36.072 679.161 35.752C678.649 35.976 677.961 36.232 677.097 36.52C676.233 36.808 675.289 37.048 674.265 37.24C673.273 37.432 672.265 37.528 671.241 37.528ZM672.777 32.776C673.385 32.776 674.025 32.712 674.697 32.584C675.369 32.456 675.993 32.312 676.569 32.152C677.177 31.96 677.657 31.784 678.009 31.624V26.104L673.113 26.536C672.057 26.632 671.289 26.952 670.809 27.496C670.361 28.008 670.137 28.744 670.137 29.704C670.137 30.664 670.345 31.416 670.761 31.96C671.209 32.504 671.881 32.776 672.777 32.776ZM698.19 37.528C697.038 37.528 695.982 37.384 695.022 37.096C694.062 36.84 693.214 36.424 692.478 35.848C691.774 35.24 691.166 34.456 690.654 33.496C690.174 32.536 689.806 31.368 689.55 29.992C689.294 28.584 689.166 26.952 689.166 25.096C689.166 22.344 689.502 20.024 690.174 18.136C690.878 16.248 691.982 14.824 693.486 13.864C694.99 12.872 696.99 12.376 699.486 12.376C700.222 12.376 701.086 12.44 702.078 12.568C703.102 12.664 703.918 12.76 704.526 12.856V3.064H710.958V37H704.622L704.574 35.608C704.126 35.864 703.534 36.152 702.798 36.472C702.094 36.76 701.342 37 700.542 37.192C699.742 37.416 698.958 37.528 698.19 37.528ZM699.822 32.152C700.398 32.152 700.974 32.088 701.549 31.96C702.158 31.832 702.718 31.688 703.23 31.528C703.774 31.336 704.206 31.16 704.526 31V18.088C704.238 18.024 703.854 17.976 703.374 17.944C702.894 17.88 702.398 17.832 701.886 17.8C701.374 17.736 700.91 17.704 700.494 17.704C699.246 17.704 698.27 17.992 697.566 18.568C696.894 19.144 696.414 19.992 696.126 21.112C695.838 22.2 695.694 23.528 695.694 25.096C695.694 26.472 695.79 27.624 695.982 28.552C696.174 29.448 696.446 30.168 696.798 30.712C697.182 31.224 697.63 31.592 698.142 31.816C698.654 32.04 699.214 32.152 699.822 32.152ZM725.978 37.528C723.322 37.528 721.21 37.08 719.642 36.184C718.106 35.288 717.002 33.928 716.33 32.104C715.658 30.28 715.322 27.992 715.322 25.24C715.322 22.264 715.738 19.832 716.57 17.944C717.434 16.056 718.682 14.664 720.314 13.768C721.946 12.84 723.962 12.376 726.362 12.376C729.914 12.376 732.586 13.272 734.378 15.064C736.202 16.856 737.114 19.688 737.114 23.56L736.826 27.112H721.754C721.786 28.904 722.154 30.248 722.858 31.144C723.562 32.04 724.778 32.488 726.506 32.488C727.498 32.488 728.586 32.472 729.77 32.44C730.954 32.376 732.122 32.312 733.274 32.248C734.458 32.184 735.466 32.12 736.298 32.056L736.442 36.52C735.642 36.648 734.634 36.792 733.418 36.952C732.202 37.112 730.938 37.24 729.626 37.336C728.346 37.464 727.13 37.528 725.978 37.528ZM721.754 23.032H730.73C730.73 20.856 730.378 19.336 729.674 18.472C729.002 17.608 727.898 17.176 726.362 17.176C724.858 17.176 723.706 17.624 722.906 18.52C722.138 19.416 721.754 20.92 721.754 23.032ZM760.07 4.21094C761.117 4.21094 761.992 4.38281 762.695 4.72656C763.414 5.07031 763.773 5.50781 763.773 6.03906C763.773 6.21094 763.742 6.36719 763.68 6.50781L748.07 44.4297C747.789 45.1016 747.148 45.4375 746.148 45.4375C745.102 45.4375 744.219 45.2656 743.5 44.9219C742.797 44.5781 742.445 44.1406 742.445 43.6094C742.445 43.4375 742.477 43.2812 742.539 43.1406L758.148 5.21875C758.43 4.54688 759.07 4.21094 760.07 4.21094Z" fill="#282173"/>
</svg>
